%TF.GenerationSoftware,KiCad,Pcbnew,9.0.5*%
%TF.CreationDate,2025-12-13T23:56:32-06:00*%
%TF.ProjectId,CPE495-LED-Driver-Board,43504534-3935-42d4-9c45-442d44726976,v0.2*%
%TF.SameCoordinates,Original*%
%TF.FileFunction,Legend,Top*%
%TF.FilePolarity,Positive*%
%FSLAX46Y46*%
G04 Gerber Fmt 4.6, Leading zero omitted, Abs format (unit mm)*
G04 Created by KiCad (PCBNEW 9.0.5) date 2025-12-13 23:56:32*
%MOMM*%
%LPD*%
G01*
G04 APERTURE LIST*
%ADD10C,0.300000*%
%ADD11C,0.200000*%
%ADD12C,0.150000*%
%ADD13C,0.120000*%
G04 APERTURE END LIST*
D10*
X178964286Y-71860870D02*
X178250000Y-71860870D01*
X178250000Y-71860870D02*
X178250000Y-70360870D01*
X179464286Y-71075156D02*
X179964286Y-71075156D01*
X180178572Y-71860870D02*
X179464286Y-71860870D01*
X179464286Y-71860870D02*
X179464286Y-70360870D01*
X179464286Y-70360870D02*
X180178572Y-70360870D01*
X180821429Y-71860870D02*
X180821429Y-70360870D01*
X180821429Y-70360870D02*
X181178572Y-70360870D01*
X181178572Y-70360870D02*
X181392858Y-70432299D01*
X181392858Y-70432299D02*
X181535715Y-70575156D01*
X181535715Y-70575156D02*
X181607144Y-70718013D01*
X181607144Y-70718013D02*
X181678572Y-71003727D01*
X181678572Y-71003727D02*
X181678572Y-71218013D01*
X181678572Y-71218013D02*
X181607144Y-71503727D01*
X181607144Y-71503727D02*
X181535715Y-71646584D01*
X181535715Y-71646584D02*
X181392858Y-71789442D01*
X181392858Y-71789442D02*
X181178572Y-71860870D01*
X181178572Y-71860870D02*
X180821429Y-71860870D01*
X183464286Y-71860870D02*
X183464286Y-70360870D01*
X183464286Y-70360870D02*
X183821429Y-70360870D01*
X183821429Y-70360870D02*
X184035715Y-70432299D01*
X184035715Y-70432299D02*
X184178572Y-70575156D01*
X184178572Y-70575156D02*
X184250001Y-70718013D01*
X184250001Y-70718013D02*
X184321429Y-71003727D01*
X184321429Y-71003727D02*
X184321429Y-71218013D01*
X184321429Y-71218013D02*
X184250001Y-71503727D01*
X184250001Y-71503727D02*
X184178572Y-71646584D01*
X184178572Y-71646584D02*
X184035715Y-71789442D01*
X184035715Y-71789442D02*
X183821429Y-71860870D01*
X183821429Y-71860870D02*
X183464286Y-71860870D01*
X184964286Y-71860870D02*
X184964286Y-70860870D01*
X184964286Y-71146584D02*
X185035715Y-71003727D01*
X185035715Y-71003727D02*
X185107144Y-70932299D01*
X185107144Y-70932299D02*
X185250001Y-70860870D01*
X185250001Y-70860870D02*
X185392858Y-70860870D01*
X185892857Y-71860870D02*
X185892857Y-70860870D01*
X185892857Y-70360870D02*
X185821429Y-70432299D01*
X185821429Y-70432299D02*
X185892857Y-70503727D01*
X185892857Y-70503727D02*
X185964286Y-70432299D01*
X185964286Y-70432299D02*
X185892857Y-70360870D01*
X185892857Y-70360870D02*
X185892857Y-70503727D01*
X186464286Y-70860870D02*
X186821429Y-71860870D01*
X186821429Y-71860870D02*
X187178572Y-70860870D01*
X188321429Y-71789442D02*
X188178572Y-71860870D01*
X188178572Y-71860870D02*
X187892858Y-71860870D01*
X187892858Y-71860870D02*
X187750000Y-71789442D01*
X187750000Y-71789442D02*
X187678572Y-71646584D01*
X187678572Y-71646584D02*
X187678572Y-71075156D01*
X187678572Y-71075156D02*
X187750000Y-70932299D01*
X187750000Y-70932299D02*
X187892858Y-70860870D01*
X187892858Y-70860870D02*
X188178572Y-70860870D01*
X188178572Y-70860870D02*
X188321429Y-70932299D01*
X188321429Y-70932299D02*
X188392858Y-71075156D01*
X188392858Y-71075156D02*
X188392858Y-71218013D01*
X188392858Y-71218013D02*
X187678572Y-71360870D01*
X189035714Y-71860870D02*
X189035714Y-70860870D01*
X189035714Y-71146584D02*
X189107143Y-71003727D01*
X189107143Y-71003727D02*
X189178572Y-70932299D01*
X189178572Y-70932299D02*
X189321429Y-70860870D01*
X189321429Y-70860870D02*
X189464286Y-70860870D01*
X191607142Y-71075156D02*
X191821428Y-71146584D01*
X191821428Y-71146584D02*
X191892857Y-71218013D01*
X191892857Y-71218013D02*
X191964285Y-71360870D01*
X191964285Y-71360870D02*
X191964285Y-71575156D01*
X191964285Y-71575156D02*
X191892857Y-71718013D01*
X191892857Y-71718013D02*
X191821428Y-71789442D01*
X191821428Y-71789442D02*
X191678571Y-71860870D01*
X191678571Y-71860870D02*
X191107142Y-71860870D01*
X191107142Y-71860870D02*
X191107142Y-70360870D01*
X191107142Y-70360870D02*
X191607142Y-70360870D01*
X191607142Y-70360870D02*
X191750000Y-70432299D01*
X191750000Y-70432299D02*
X191821428Y-70503727D01*
X191821428Y-70503727D02*
X191892857Y-70646584D01*
X191892857Y-70646584D02*
X191892857Y-70789442D01*
X191892857Y-70789442D02*
X191821428Y-70932299D01*
X191821428Y-70932299D02*
X191750000Y-71003727D01*
X191750000Y-71003727D02*
X191607142Y-71075156D01*
X191607142Y-71075156D02*
X191107142Y-71075156D01*
X192821428Y-71860870D02*
X192678571Y-71789442D01*
X192678571Y-71789442D02*
X192607142Y-71718013D01*
X192607142Y-71718013D02*
X192535714Y-71575156D01*
X192535714Y-71575156D02*
X192535714Y-71146584D01*
X192535714Y-71146584D02*
X192607142Y-71003727D01*
X192607142Y-71003727D02*
X192678571Y-70932299D01*
X192678571Y-70932299D02*
X192821428Y-70860870D01*
X192821428Y-70860870D02*
X193035714Y-70860870D01*
X193035714Y-70860870D02*
X193178571Y-70932299D01*
X193178571Y-70932299D02*
X193250000Y-71003727D01*
X193250000Y-71003727D02*
X193321428Y-71146584D01*
X193321428Y-71146584D02*
X193321428Y-71575156D01*
X193321428Y-71575156D02*
X193250000Y-71718013D01*
X193250000Y-71718013D02*
X193178571Y-71789442D01*
X193178571Y-71789442D02*
X193035714Y-71860870D01*
X193035714Y-71860870D02*
X192821428Y-71860870D01*
X194607143Y-71860870D02*
X194607143Y-71075156D01*
X194607143Y-71075156D02*
X194535714Y-70932299D01*
X194535714Y-70932299D02*
X194392857Y-70860870D01*
X194392857Y-70860870D02*
X194107143Y-70860870D01*
X194107143Y-70860870D02*
X193964285Y-70932299D01*
X194607143Y-71789442D02*
X194464285Y-71860870D01*
X194464285Y-71860870D02*
X194107143Y-71860870D01*
X194107143Y-71860870D02*
X193964285Y-71789442D01*
X193964285Y-71789442D02*
X193892857Y-71646584D01*
X193892857Y-71646584D02*
X193892857Y-71503727D01*
X193892857Y-71503727D02*
X193964285Y-71360870D01*
X193964285Y-71360870D02*
X194107143Y-71289442D01*
X194107143Y-71289442D02*
X194464285Y-71289442D01*
X194464285Y-71289442D02*
X194607143Y-71218013D01*
X195321428Y-71860870D02*
X195321428Y-70860870D01*
X195321428Y-71146584D02*
X195392857Y-71003727D01*
X195392857Y-71003727D02*
X195464286Y-70932299D01*
X195464286Y-70932299D02*
X195607143Y-70860870D01*
X195607143Y-70860870D02*
X195750000Y-70860870D01*
X196892857Y-71860870D02*
X196892857Y-70360870D01*
X196892857Y-71789442D02*
X196749999Y-71860870D01*
X196749999Y-71860870D02*
X196464285Y-71860870D01*
X196464285Y-71860870D02*
X196321428Y-71789442D01*
X196321428Y-71789442D02*
X196249999Y-71718013D01*
X196249999Y-71718013D02*
X196178571Y-71575156D01*
X196178571Y-71575156D02*
X196178571Y-71146584D01*
X196178571Y-71146584D02*
X196249999Y-71003727D01*
X196249999Y-71003727D02*
X196321428Y-70932299D01*
X196321428Y-70932299D02*
X196464285Y-70860870D01*
X196464285Y-70860870D02*
X196749999Y-70860870D01*
X196749999Y-70860870D02*
X196892857Y-70932299D01*
X198607142Y-70860870D02*
X198964285Y-71860870D01*
X198964285Y-71860870D02*
X199321428Y-70860870D01*
X200178571Y-70360870D02*
X200321428Y-70360870D01*
X200321428Y-70360870D02*
X200464285Y-70432299D01*
X200464285Y-70432299D02*
X200535714Y-70503727D01*
X200535714Y-70503727D02*
X200607142Y-70646584D01*
X200607142Y-70646584D02*
X200678571Y-70932299D01*
X200678571Y-70932299D02*
X200678571Y-71289442D01*
X200678571Y-71289442D02*
X200607142Y-71575156D01*
X200607142Y-71575156D02*
X200535714Y-71718013D01*
X200535714Y-71718013D02*
X200464285Y-71789442D01*
X200464285Y-71789442D02*
X200321428Y-71860870D01*
X200321428Y-71860870D02*
X200178571Y-71860870D01*
X200178571Y-71860870D02*
X200035714Y-71789442D01*
X200035714Y-71789442D02*
X199964285Y-71718013D01*
X199964285Y-71718013D02*
X199892856Y-71575156D01*
X199892856Y-71575156D02*
X199821428Y-71289442D01*
X199821428Y-71289442D02*
X199821428Y-70932299D01*
X199821428Y-70932299D02*
X199892856Y-70646584D01*
X199892856Y-70646584D02*
X199964285Y-70503727D01*
X199964285Y-70503727D02*
X200035714Y-70432299D01*
X200035714Y-70432299D02*
X200178571Y-70360870D01*
X201321427Y-71718013D02*
X201392856Y-71789442D01*
X201392856Y-71789442D02*
X201321427Y-71860870D01*
X201321427Y-71860870D02*
X201249999Y-71789442D01*
X201249999Y-71789442D02*
X201321427Y-71718013D01*
X201321427Y-71718013D02*
X201321427Y-71860870D01*
X201892856Y-70360870D02*
X202821428Y-70360870D01*
X202821428Y-70360870D02*
X202321428Y-70932299D01*
X202321428Y-70932299D02*
X202535713Y-70932299D01*
X202535713Y-70932299D02*
X202678571Y-71003727D01*
X202678571Y-71003727D02*
X202749999Y-71075156D01*
X202749999Y-71075156D02*
X202821428Y-71218013D01*
X202821428Y-71218013D02*
X202821428Y-71575156D01*
X202821428Y-71575156D02*
X202749999Y-71718013D01*
X202749999Y-71718013D02*
X202678571Y-71789442D01*
X202678571Y-71789442D02*
X202535713Y-71860870D01*
X202535713Y-71860870D02*
X202107142Y-71860870D01*
X202107142Y-71860870D02*
X201964285Y-71789442D01*
X201964285Y-71789442D02*
X201892856Y-71718013D01*
D11*
X178808571Y-121837247D02*
X179046666Y-122837247D01*
X179046666Y-122837247D02*
X179237142Y-122122961D01*
X179237142Y-122122961D02*
X179427618Y-122837247D01*
X179427618Y-122837247D02*
X179665714Y-121837247D01*
X180475237Y-122837247D02*
X180475237Y-122313437D01*
X180475237Y-122313437D02*
X180427618Y-122218199D01*
X180427618Y-122218199D02*
X180332380Y-122170580D01*
X180332380Y-122170580D02*
X180141904Y-122170580D01*
X180141904Y-122170580D02*
X180046666Y-122218199D01*
X180475237Y-122789628D02*
X180379999Y-122837247D01*
X180379999Y-122837247D02*
X180141904Y-122837247D01*
X180141904Y-122837247D02*
X180046666Y-122789628D01*
X180046666Y-122789628D02*
X179999047Y-122694389D01*
X179999047Y-122694389D02*
X179999047Y-122599151D01*
X179999047Y-122599151D02*
X180046666Y-122503913D01*
X180046666Y-122503913D02*
X180141904Y-122456294D01*
X180141904Y-122456294D02*
X180379999Y-122456294D01*
X180379999Y-122456294D02*
X180475237Y-122408675D01*
X180856190Y-122170580D02*
X181094285Y-122837247D01*
X181332380Y-122170580D02*
X181094285Y-122837247D01*
X181094285Y-122837247D02*
X180999047Y-123075342D01*
X180999047Y-123075342D02*
X180951428Y-123122961D01*
X180951428Y-123122961D02*
X180856190Y-123170580D01*
X181618095Y-121837247D02*
X181856190Y-122837247D01*
X181856190Y-122837247D02*
X182046666Y-122122961D01*
X182046666Y-122122961D02*
X182237142Y-122837247D01*
X182237142Y-122837247D02*
X182475238Y-121837247D01*
X183284761Y-122837247D02*
X183284761Y-122313437D01*
X183284761Y-122313437D02*
X183237142Y-122218199D01*
X183237142Y-122218199D02*
X183141904Y-122170580D01*
X183141904Y-122170580D02*
X182951428Y-122170580D01*
X182951428Y-122170580D02*
X182856190Y-122218199D01*
X183284761Y-122789628D02*
X183189523Y-122837247D01*
X183189523Y-122837247D02*
X182951428Y-122837247D01*
X182951428Y-122837247D02*
X182856190Y-122789628D01*
X182856190Y-122789628D02*
X182808571Y-122694389D01*
X182808571Y-122694389D02*
X182808571Y-122599151D01*
X182808571Y-122599151D02*
X182856190Y-122503913D01*
X182856190Y-122503913D02*
X182951428Y-122456294D01*
X182951428Y-122456294D02*
X183189523Y-122456294D01*
X183189523Y-122456294D02*
X183284761Y-122408675D01*
X183665714Y-122170580D02*
X183903809Y-122837247D01*
X184141904Y-122170580D02*
X183903809Y-122837247D01*
X183903809Y-122837247D02*
X183808571Y-123075342D01*
X183808571Y-123075342D02*
X183760952Y-123122961D01*
X183760952Y-123122961D02*
X183665714Y-123170580D01*
X184427619Y-121837247D02*
X184665714Y-122837247D01*
X184665714Y-122837247D02*
X184856190Y-122122961D01*
X184856190Y-122122961D02*
X185046666Y-122837247D01*
X185046666Y-122837247D02*
X185284762Y-121837247D01*
X186094285Y-122837247D02*
X186094285Y-122313437D01*
X186094285Y-122313437D02*
X186046666Y-122218199D01*
X186046666Y-122218199D02*
X185951428Y-122170580D01*
X185951428Y-122170580D02*
X185760952Y-122170580D01*
X185760952Y-122170580D02*
X185665714Y-122218199D01*
X186094285Y-122789628D02*
X185999047Y-122837247D01*
X185999047Y-122837247D02*
X185760952Y-122837247D01*
X185760952Y-122837247D02*
X185665714Y-122789628D01*
X185665714Y-122789628D02*
X185618095Y-122694389D01*
X185618095Y-122694389D02*
X185618095Y-122599151D01*
X185618095Y-122599151D02*
X185665714Y-122503913D01*
X185665714Y-122503913D02*
X185760952Y-122456294D01*
X185760952Y-122456294D02*
X185999047Y-122456294D01*
X185999047Y-122456294D02*
X186094285Y-122408675D01*
X186475238Y-122170580D02*
X186713333Y-122837247D01*
X186951428Y-122170580D02*
X186713333Y-122837247D01*
X186713333Y-122837247D02*
X186618095Y-123075342D01*
X186618095Y-123075342D02*
X186570476Y-123122961D01*
X186570476Y-123122961D02*
X186475238Y-123170580D01*
D12*
X174498095Y-90504819D02*
X174498095Y-91314342D01*
X174498095Y-91314342D02*
X174545714Y-91409580D01*
X174545714Y-91409580D02*
X174593333Y-91457200D01*
X174593333Y-91457200D02*
X174688571Y-91504819D01*
X174688571Y-91504819D02*
X174879047Y-91504819D01*
X174879047Y-91504819D02*
X174974285Y-91457200D01*
X174974285Y-91457200D02*
X175021904Y-91409580D01*
X175021904Y-91409580D02*
X175069523Y-91314342D01*
X175069523Y-91314342D02*
X175069523Y-90504819D01*
X176069523Y-91504819D02*
X175498095Y-91504819D01*
X175783809Y-91504819D02*
X175783809Y-90504819D01*
X175783809Y-90504819D02*
X175688571Y-90647676D01*
X175688571Y-90647676D02*
X175593333Y-90742914D01*
X175593333Y-90742914D02*
X175498095Y-90790533D01*
X179853333Y-104089580D02*
X179805714Y-104137200D01*
X179805714Y-104137200D02*
X179662857Y-104184819D01*
X179662857Y-104184819D02*
X179567619Y-104184819D01*
X179567619Y-104184819D02*
X179424762Y-104137200D01*
X179424762Y-104137200D02*
X179329524Y-104041961D01*
X179329524Y-104041961D02*
X179281905Y-103946723D01*
X179281905Y-103946723D02*
X179234286Y-103756247D01*
X179234286Y-103756247D02*
X179234286Y-103613390D01*
X179234286Y-103613390D02*
X179281905Y-103422914D01*
X179281905Y-103422914D02*
X179329524Y-103327676D01*
X179329524Y-103327676D02*
X179424762Y-103232438D01*
X179424762Y-103232438D02*
X179567619Y-103184819D01*
X179567619Y-103184819D02*
X179662857Y-103184819D01*
X179662857Y-103184819D02*
X179805714Y-103232438D01*
X179805714Y-103232438D02*
X179853333Y-103280057D01*
X180234286Y-103280057D02*
X180281905Y-103232438D01*
X180281905Y-103232438D02*
X180377143Y-103184819D01*
X180377143Y-103184819D02*
X180615238Y-103184819D01*
X180615238Y-103184819D02*
X180710476Y-103232438D01*
X180710476Y-103232438D02*
X180758095Y-103280057D01*
X180758095Y-103280057D02*
X180805714Y-103375295D01*
X180805714Y-103375295D02*
X180805714Y-103470533D01*
X180805714Y-103470533D02*
X180758095Y-103613390D01*
X180758095Y-103613390D02*
X180186667Y-104184819D01*
X180186667Y-104184819D02*
X180805714Y-104184819D01*
X200920819Y-128095333D02*
X201635104Y-128095333D01*
X201635104Y-128095333D02*
X201777961Y-128142952D01*
X201777961Y-128142952D02*
X201873200Y-128238190D01*
X201873200Y-128238190D02*
X201920819Y-128381047D01*
X201920819Y-128381047D02*
X201920819Y-128476285D01*
X200920819Y-127714380D02*
X200920819Y-127095333D01*
X200920819Y-127095333D02*
X201301771Y-127428666D01*
X201301771Y-127428666D02*
X201301771Y-127285809D01*
X201301771Y-127285809D02*
X201349390Y-127190571D01*
X201349390Y-127190571D02*
X201397009Y-127142952D01*
X201397009Y-127142952D02*
X201492247Y-127095333D01*
X201492247Y-127095333D02*
X201730342Y-127095333D01*
X201730342Y-127095333D02*
X201825580Y-127142952D01*
X201825580Y-127142952D02*
X201873200Y-127190571D01*
X201873200Y-127190571D02*
X201920819Y-127285809D01*
X201920819Y-127285809D02*
X201920819Y-127571523D01*
X201920819Y-127571523D02*
X201873200Y-127666761D01*
X201873200Y-127666761D02*
X201825580Y-127714380D01*
X156629166Y-131284819D02*
X156629166Y-131999104D01*
X156629166Y-131999104D02*
X156581547Y-132141961D01*
X156581547Y-132141961D02*
X156486309Y-132237200D01*
X156486309Y-132237200D02*
X156343452Y-132284819D01*
X156343452Y-132284819D02*
X156248214Y-132284819D01*
X157629166Y-132284819D02*
X157057738Y-132284819D01*
X157343452Y-132284819D02*
X157343452Y-131284819D01*
X157343452Y-131284819D02*
X157248214Y-131427676D01*
X157248214Y-131427676D02*
X157152976Y-131522914D01*
X157152976Y-131522914D02*
X157057738Y-131570533D01*
X174498095Y-105744819D02*
X174498095Y-106554342D01*
X174498095Y-106554342D02*
X174545714Y-106649580D01*
X174545714Y-106649580D02*
X174593333Y-106697200D01*
X174593333Y-106697200D02*
X174688571Y-106744819D01*
X174688571Y-106744819D02*
X174879047Y-106744819D01*
X174879047Y-106744819D02*
X174974285Y-106697200D01*
X174974285Y-106697200D02*
X175021904Y-106649580D01*
X175021904Y-106649580D02*
X175069523Y-106554342D01*
X175069523Y-106554342D02*
X175069523Y-105744819D01*
X175498095Y-105840057D02*
X175545714Y-105792438D01*
X175545714Y-105792438D02*
X175640952Y-105744819D01*
X175640952Y-105744819D02*
X175879047Y-105744819D01*
X175879047Y-105744819D02*
X175974285Y-105792438D01*
X175974285Y-105792438D02*
X176021904Y-105840057D01*
X176021904Y-105840057D02*
X176069523Y-105935295D01*
X176069523Y-105935295D02*
X176069523Y-106030533D01*
X176069523Y-106030533D02*
X176021904Y-106173390D01*
X176021904Y-106173390D02*
X175450476Y-106744819D01*
X175450476Y-106744819D02*
X176069523Y-106744819D01*
X179853333Y-88849580D02*
X179805714Y-88897200D01*
X179805714Y-88897200D02*
X179662857Y-88944819D01*
X179662857Y-88944819D02*
X179567619Y-88944819D01*
X179567619Y-88944819D02*
X179424762Y-88897200D01*
X179424762Y-88897200D02*
X179329524Y-88801961D01*
X179329524Y-88801961D02*
X179281905Y-88706723D01*
X179281905Y-88706723D02*
X179234286Y-88516247D01*
X179234286Y-88516247D02*
X179234286Y-88373390D01*
X179234286Y-88373390D02*
X179281905Y-88182914D01*
X179281905Y-88182914D02*
X179329524Y-88087676D01*
X179329524Y-88087676D02*
X179424762Y-87992438D01*
X179424762Y-87992438D02*
X179567619Y-87944819D01*
X179567619Y-87944819D02*
X179662857Y-87944819D01*
X179662857Y-87944819D02*
X179805714Y-87992438D01*
X179805714Y-87992438D02*
X179853333Y-88040057D01*
X180805714Y-88944819D02*
X180234286Y-88944819D01*
X180520000Y-88944819D02*
X180520000Y-87944819D01*
X180520000Y-87944819D02*
X180424762Y-88087676D01*
X180424762Y-88087676D02*
X180329524Y-88182914D01*
X180329524Y-88182914D02*
X180234286Y-88230533D01*
X196516666Y-87334819D02*
X196516666Y-88049104D01*
X196516666Y-88049104D02*
X196469047Y-88191961D01*
X196469047Y-88191961D02*
X196373809Y-88287200D01*
X196373809Y-88287200D02*
X196230952Y-88334819D01*
X196230952Y-88334819D02*
X196135714Y-88334819D01*
X196945238Y-87430057D02*
X196992857Y-87382438D01*
X196992857Y-87382438D02*
X197088095Y-87334819D01*
X197088095Y-87334819D02*
X197326190Y-87334819D01*
X197326190Y-87334819D02*
X197421428Y-87382438D01*
X197421428Y-87382438D02*
X197469047Y-87430057D01*
X197469047Y-87430057D02*
X197516666Y-87525295D01*
X197516666Y-87525295D02*
X197516666Y-87620533D01*
X197516666Y-87620533D02*
X197469047Y-87763390D01*
X197469047Y-87763390D02*
X196897619Y-88334819D01*
X196897619Y-88334819D02*
X197516666Y-88334819D01*
D13*
%TO.C,U1*%
X176530000Y-91865000D02*
X172930000Y-91865000D01*
X176530000Y-91865000D02*
X178730000Y-91865000D01*
X176530000Y-98635000D02*
X174330000Y-98635000D01*
X176530000Y-98635000D02*
X178730000Y-98635000D01*
%TO.C,C2*%
X179758748Y-104675000D02*
X180281252Y-104675000D01*
X179758748Y-106145000D02*
X180281252Y-106145000D01*
%TO.C,J3*%
X167326000Y-125162000D02*
X167326000Y-130362000D01*
X197866000Y-125162000D02*
X167326000Y-125162000D01*
X197866000Y-125162000D02*
X197866000Y-127762000D01*
X197866000Y-127762000D02*
X200466000Y-127762000D01*
X199136000Y-125162000D02*
X200466000Y-125162000D01*
X200466000Y-125162000D02*
X200466000Y-126492000D01*
X200466000Y-127762000D02*
X200466000Y-130362000D01*
X200466000Y-130362000D02*
X167326000Y-130362000D01*
%TO.C,J1*%
X152402500Y-72260000D02*
X161522500Y-72260000D01*
X152402500Y-130940000D02*
X152402500Y-72260000D01*
X153712500Y-73560000D02*
X160212500Y-73560000D01*
X153712500Y-129640000D02*
X153712500Y-73560000D01*
X160212500Y-73560000D02*
X160212500Y-99550000D01*
X160212500Y-99550000D02*
X160212500Y-99550000D01*
X160212500Y-99550000D02*
X161522500Y-99550000D01*
X160212500Y-103650000D02*
X160212500Y-129640000D01*
X160212500Y-129640000D02*
X153712500Y-129640000D01*
X161522500Y-72260000D02*
X161522500Y-130940000D01*
X161522500Y-103650000D02*
X160212500Y-103650000D01*
X161522500Y-130940000D02*
X152402500Y-130940000D01*
X161912500Y-125730000D02*
X162912500Y-126230000D01*
X162912500Y-125230000D02*
X161912500Y-125730000D01*
X162912500Y-126230000D02*
X162912500Y-125230000D01*
%TO.C,U2*%
X176530000Y-107105000D02*
X172930000Y-107105000D01*
X176530000Y-107105000D02*
X178730000Y-107105000D01*
X176530000Y-113875000D02*
X174330000Y-113875000D01*
X176530000Y-113875000D02*
X178730000Y-113875000D01*
%TO.C,C1*%
X179758748Y-89435000D02*
X180281252Y-89435000D01*
X179758748Y-90905000D02*
X180281252Y-90905000D01*
%TO.C,J2*%
X190900000Y-93480000D02*
X190900000Y-94480000D01*
X190900000Y-94480000D02*
X191900000Y-93980000D01*
X191900000Y-93980000D02*
X190900000Y-93480000D01*
X192290000Y-88770000D02*
X201410000Y-88770000D01*
X192290000Y-100820000D02*
X193600000Y-100820000D01*
X192290000Y-116970000D02*
X192290000Y-88770000D01*
X193600000Y-90070000D02*
X200100000Y-90070000D01*
X193600000Y-100820000D02*
X193600000Y-90070000D01*
X193600000Y-104920000D02*
X192290000Y-104920000D01*
X193600000Y-104920000D02*
X193600000Y-104920000D01*
X193600000Y-115670000D02*
X193600000Y-104920000D01*
X200100000Y-90070000D02*
X200100000Y-115670000D01*
X200100000Y-115670000D02*
X193600000Y-115670000D01*
X201410000Y-88770000D02*
X201410000Y-116970000D01*
X201410000Y-116970000D02*
X192290000Y-116970000D01*
%TD*%
M02*
