M48
; DRILL file {KiCad 9.0.5} date 2026-04-11T22:15:45-0500
; FORMAT={-:-/ absolute / inch / decimal}
; #@! TF.CreationDate,2026-04-11T22:15:45-05:00
; #@! TF.GenerationSoftware,Kicad,Pcbnew,9.0.5
; #@! TF.FileFunction,Plated,1,2,PTH
FMAT,2
INCH
; #@! TA.AperFunction,Plated,PTH,ViaDrill
T1C0.0118
; #@! TA.AperFunction,Plated,PTH,ComponentDrill
T2C0.0197
; #@! TA.AperFunction,Plated,PTH,ComponentDrill
T3C0.0315
; #@! TA.AperFunction,Plated,PTH,ComponentDrill
T4C0.0394
; #@! TA.AperFunction,Plated,PTH,ComponentDrill
T5C0.0984
%
G90
G05
T1
X1.1417Y-4.4488
X1.2402Y-3.9764
X1.2402Y-4.3307
X1.2992Y-5.8661
X1.3386Y-4.7047
X1.3386Y-5.4921
X1.437Y-5.4921
X1.4961Y-4.7047
X1.7717Y-4.8228
X1.7717Y-6.0236
X1.811Y-3.8189
X1.811Y-4.9606
X1.811Y-6.1024
X2.1583Y-1.7061
X2.1583Y-3.0965
X2.1583Y-3.3965
X2.1583Y-3.4965
X2.2537Y-5.7919
X2.2835Y-1.378
X2.3083Y-1.7878
X2.3083Y-2.9965
X2.3083Y-5.6965
X2.3228Y-3.5433
X2.3425Y-3.6524
X2.3425Y-4.8819
X2.3583Y-4.5465
X2.3622Y-6.0433
X2.3819Y-3.8189
X2.3819Y-4.9606
X2.4016Y-6.1024
X2.415Y-4.4465
X2.4606Y-3.2874
X2.6083Y-3.5965
X2.6772Y-3.2677
X2.6772Y-3.622
X2.7953Y-1.3189
X2.8083Y-1.4465
X2.8083Y-3.2465
X2.8583Y-1.5965
X2.9083Y-1.4465
X2.9134Y-3.6811
X2.9134Y-4.8819
X2.9331Y-6.0236
X2.9528Y-1.3189
X2.9528Y-3.8189
X2.9528Y-4.9606
X2.9724Y-6.1024
X3.4062Y-1.3711
X3.4843Y-4.8819
X3.4867Y-3.6836
X3.5039Y-6.0325
X3.5236Y-3.8189
X3.5236Y-4.9606
X3.5433Y-6.1024
X3.877Y-1.3913
X4.0341Y-4.4267
X4.05Y-3.2252
X4.05Y-3.3
X4.0551Y-3.7441
X4.0551Y-4.8819
X4.0551Y-6.0433
X4.0583Y-5.5717
X4.0945Y-3.8189
X4.0945Y-4.9606
X4.0945Y-6.1024
X4.1Y-1.55
X4.135Y-5.6446
X4.136Y-4.4945
X4.1407Y-3.3651
X4.1575Y-1.7287
X4.1583Y-3.4965
X4.1583Y-4.6465
X4.1583Y-5.7965
X4.1598Y-3.3365
X4.1662Y-5.6385
X4.1706Y-4.498
X4.199Y-5.6503
X4.2048Y-4.5104
X4.2083Y-3.3465
X4.2183Y-5.6774
X4.2185Y-3.1067
X4.2374Y-4.5188
X4.2476Y-3.3526
X4.2559Y-1.6303
X4.2583Y-2.2965
X4.2947Y-3.562
X4.3059Y-4.7191
X4.3068Y-4.421
X4.3083Y-2.1465
X4.3123Y-3.5213
X4.3171Y-5.8709
X4.3193Y-3.1854
X4.3455Y-5.6189
X4.3583Y-4.6965
X4.3583Y-5.8465
X4.3947Y-3.3711
X4.4882Y-1.3917
X4.4987Y-5.7237
X4.5037Y-4.5722
X4.5083Y-2.0965
X4.5185Y-2.2067
X4.626Y-3.4055
X4.626Y-3.7402
X4.626Y-4.6063
X4.626Y-4.8819
X4.626Y-5.7465
X4.626Y-6.0323
X4.65Y-1.55
X4.6654Y-3.8189
X4.6654Y-4.9606
X4.6654Y-6.1024
X4.725Y-1.5054
X5.0984Y-1.2795
X5.1772Y-4.6063
X5.1969Y-3.4465
X5.1969Y-3.7402
X5.1969Y-4.8819
X5.1969Y-5.7522
X5.1969Y-6.0236
X5.2Y-1.4531
X5.2362Y-3.8189
X5.2362Y-4.9606
X5.2362Y-6.1024
X5.25Y-1.3547
X5.25Y-1.3547
X5.4528Y-1.2795
X5.55Y-1.3976
X5.6Y-1.35
X5.8071Y-3.8189
X5.8071Y-4.9606
X5.8071Y-6.1024
T2
X1.0679Y-1.2205
X1.0679Y-6.8504
X1.0895Y-1.1683
X1.0895Y-1.2727
X1.0895Y-6.7982
X1.0895Y-6.9026
X1.1417Y-1.1467
X1.1417Y-1.2943
X1.1417Y-6.7766
X1.1417Y-6.9242
X1.1939Y-1.1683
X1.1939Y-1.2727
X1.1939Y-6.7982
X1.1939Y-6.9026
X1.2156Y-1.2205
X1.2156Y-6.8504
X2.2293Y-1.5945
X2.2293Y-3.3268
X2.251Y-1.5423
X2.251Y-1.6467
X2.251Y-3.2746
X2.251Y-3.379
X2.3031Y-1.5207
X2.3031Y-1.6683
X2.3031Y-3.253
X2.3031Y-3.4006
X2.3553Y-1.5423
X2.3553Y-1.6467
X2.3553Y-3.2746
X2.3553Y-3.379
X2.377Y-1.5945
X2.377Y-3.3268
X5.2215Y-1.5945
X5.2215Y-3.3268
X5.2431Y-1.5423
X5.2431Y-1.6467
X5.2431Y-3.2746
X5.2431Y-3.379
X5.2953Y-1.5207
X5.2953Y-1.6683
X5.2953Y-3.253
X5.2953Y-3.4006
X5.3475Y-1.5423
X5.3475Y-1.6467
X5.3475Y-3.2746
X5.3475Y-3.379
X5.3691Y-1.5945
X5.3691Y-3.3268
X5.812Y-1.2205
X5.812Y-6.8504
X5.8336Y-1.1683
X5.8336Y-1.2727
X5.8336Y-6.7982
X5.8336Y-6.9026
X5.8858Y-1.1467
X5.8858Y-1.2943
X5.8858Y-6.7766
X5.8858Y-6.9242
X5.938Y-1.1683
X5.938Y-1.2727
X5.938Y-6.7982
X5.938Y-6.9026
X5.9596Y-1.2205
X5.9596Y-6.8504
T3
X2.5Y-3.189
X2.5Y-3.589
X3.4583Y-3.3465
X3.4583Y-4.5465
X3.4583Y-5.6965
X3.6134Y-2.0043
X3.7134Y-2.0043
X3.8134Y-2.0043
X3.8583Y-3.3465
X3.8583Y-4.5465
X3.8583Y-5.6965
X3.9134Y-2.0043
X4.0134Y-2.0043
X4.1134Y-2.0043
X4.2134Y-2.0043
X4.3134Y-2.0043
X4.4083Y-4.5465
X4.4083Y-5.6965
X4.4134Y-2.0043
X4.8083Y-4.5465
X4.8083Y-5.6965
T4
X1.3642Y-1.5493
X1.3642Y-1.6493
X1.3642Y-1.7493
X1.3642Y-1.8493
X1.3642Y-1.9493
X1.3642Y-2.0493
X1.3642Y-2.1493
X1.3642Y-2.2493
X1.3642Y-2.3493
X1.3642Y-2.4493
X1.3642Y-2.5493
X1.3642Y-2.6493
X1.3642Y-2.7493
X1.3642Y-2.8493
X1.3642Y-2.9493
X1.3642Y-3.0493
X1.3642Y-3.1493
X1.3642Y-3.2493
X1.3642Y-3.3493
X1.3642Y-3.4493
X1.4642Y-1.5493
X1.4642Y-1.6493
X1.4642Y-1.7493
X1.4642Y-1.8493
X1.4642Y-1.9493
X1.4642Y-2.0493
X1.4642Y-2.1493
X1.4642Y-2.2493
X1.4642Y-2.3493
X1.4642Y-2.4493
X1.4642Y-2.5493
X1.4642Y-2.6493
X1.4642Y-2.7493
X1.4642Y-2.8493
X1.4642Y-2.9493
X1.4642Y-3.0493
X1.4642Y-3.1493
X1.4642Y-3.2493
X1.4642Y-3.3493
X1.4642Y-3.4493
X1.892Y-1.5514
X1.892Y-1.6514
X1.892Y-1.7514
X1.892Y-1.8514
X1.892Y-1.9514
X1.892Y-2.0514
X1.892Y-2.1514
X1.892Y-2.2514
X1.892Y-2.3514
X1.892Y-2.4514
X1.892Y-2.5514
X1.892Y-2.6514
X1.892Y-2.7514
X1.892Y-2.8514
X1.892Y-2.9514
X1.892Y-3.0514
X1.892Y-3.1514
X1.892Y-3.2514
X1.892Y-3.3514
X1.892Y-3.4514
X1.992Y-1.5514
X1.992Y-1.6514
X1.992Y-1.7514
X1.992Y-1.8514
X1.992Y-1.9514
X1.992Y-2.0514
X1.992Y-2.1514
X1.992Y-2.2514
X1.992Y-2.3514
X1.992Y-2.4514
X1.992Y-2.5514
X1.992Y-2.6514
X1.992Y-2.7514
X1.992Y-2.8514
X1.992Y-2.9514
X1.992Y-3.0514
X1.992Y-3.1514
X1.992Y-3.2514
X1.992Y-3.3514
X1.992Y-3.4514
X2.3562Y-1.1946
X2.4562Y-1.1946
X2.5562Y-1.1946
X2.6562Y-1.1946
X2.7562Y-1.1946
X3.1062Y-1.1946
X3.2062Y-1.1946
X3.3062Y-1.1946
X3.4062Y-1.1946
X3.5062Y-1.1946
X5.4921Y-1.811
X5.4921Y-1.911
X5.4921Y-2.011
X5.4921Y-2.111
X5.4921Y-2.211
X5.4921Y-2.311
X5.4921Y-2.411
X5.4921Y-2.511
X5.4921Y-2.611
X5.4921Y-2.711
X5.4921Y-2.811
X5.4921Y-2.911
X5.4921Y-3.011
X5.4921Y-3.111
T5
X1.1417Y-1.2205
X1.1417Y-6.8504
X2.3031Y-1.5945
X2.3031Y-3.3268
X5.2953Y-1.5945
X5.2953Y-3.3268
X5.8858Y-1.2205
X5.8858Y-6.8504
M30
