<?xml version="1.0" encoding="UTF-8" standalone="no"?>
<!-- Generator: Adobe Illustrator 22.0.1, SVG Export Plug-In . SVG Version: 6.00 Build 0)  -->

<svg
   version="1.1"
   id="Layer_1"
   x="0px"
   y="0px"
   width="186.8"
   height="57.299999"
   viewBox="0 0 186.8 57.3"
   xml:space="preserve"
   sodipodi:docname="Alabama-Huntsville_UAH_logo.svg"
   inkscape:version="1.1.2 (b8e25be8, 2022-02-05)"
   xmlns:inkscape="http://www.inkscape.org/namespaces/inkscape"
   xmlns:sodipodi="http://sodipodi.sourceforge.net/DTD/sodipodi-0.dtd"
   xmlns="http://www.w3.org/2000/svg"
   xmlns:svg="http://www.w3.org/2000/svg"><defs
   id="defs915" /><sodipodi:namedview
   id="namedview913"
   pagecolor="#ffffff"
   bordercolor="#666666"
   borderopacity="1.0"
   inkscape:pageshadow="2"
   inkscape:pageopacity="0.0"
   inkscape:pagecheckerboard="0"
   showgrid="false"
   fit-margin-top="0"
   fit-margin-left="0"
   fit-margin-right="0"
   fit-margin-bottom="0"
   inkscape:zoom="2.2352643"
   inkscape:cx="75.829959"
   inkscape:cy="47.421685"
   inkscape:window-width="1312"
   inkscape:window-height="824"
   inkscape:window-x="0"
   inkscape:window-y="37"
   inkscape:window-maximized="0"
   inkscape:current-layer="Layer_1" />
<g
   id="g828"
   transform="translate(-33.3)">
	<path
   style="fill:#0088ce"
   d="m 181.7,30.7 12.6,22.2 c 0,0 5.4,0.7 11.7,1.8 6.2,1.1 14.1,2.6 14.1,2.6 L 189.9,3.4 165,1.4 173.1,15.7 148,13.9 139.9,0 H 113.2 L 94.9,31.5 69.6,34.1 88.2,1.4 l -24.9,2 -30,53.9 c 14.3,-3 27.6,-4.7 38.4,-5.9 17.2,-1.9 37.1,-2.5 37.1,-2.5 l 17.7,-29.5 17.7,29.5 c 0,0 8,0.2 11.3,0.4 3.4,0.2 13.4,0.9 13.4,0.9 L 156.6,28.9 Z"
   id="path824" />
	<path
   style="fill:#0088ce"
   d="m 126.6,32.5 v 0 0 0 0 l -8.1,13.6 c 0,0 4.4,-1.6 8.1,-1.6 3.7,0 8.1,1.6 8.1,1.6 z"
   id="path826" />
</g>

</svg>
