%TF.GenerationSoftware,KiCad,Pcbnew,9.0.5*%
%TF.CreationDate,2026-04-25T14:00:11-05:00*%
%TF.ProjectId,Sensor_Board,53656e73-6f72-45f4-926f-6172642e6b69,rev?*%
%TF.SameCoordinates,Original*%
%TF.FileFunction,Paste,Top*%
%TF.FilePolarity,Positive*%
%FSLAX46Y46*%
G04 Gerber Fmt 4.6, Leading zero omitted, Abs format (unit mm)*
G04 Created by KiCad (PCBNEW 9.0.5) date 2026-04-25 14:00:11*
%MOMM*%
%LPD*%
G01*
G04 APERTURE LIST*
G04 Aperture macros list*
%AMRoundRect*
0 Rectangle with rounded corners*
0 $1 Rounding radius*
0 $2 $3 $4 $5 $6 $7 $8 $9 X,Y pos of 4 corners*
0 Add a 4 corners polygon primitive as box body*
4,1,4,$2,$3,$4,$5,$6,$7,$8,$9,$2,$3,0*
0 Add four circle primitives for the rounded corners*
1,1,$1+$1,$2,$3*
1,1,$1+$1,$4,$5*
1,1,$1+$1,$6,$7*
1,1,$1+$1,$8,$9*
0 Add four rect primitives between the rounded corners*
20,1,$1+$1,$2,$3,$4,$5,0*
20,1,$1+$1,$4,$5,$6,$7,0*
20,1,$1+$1,$6,$7,$8,$9,0*
20,1,$1+$1,$8,$9,$2,$3,0*%
G04 Aperture macros list end*
%ADD10RoundRect,0.243750X-0.243750X-0.456250X0.243750X-0.456250X0.243750X0.456250X-0.243750X0.456250X0*%
%ADD11RoundRect,0.250000X0.475000X-0.250000X0.475000X0.250000X-0.475000X0.250000X-0.475000X-0.250000X0*%
%ADD12RoundRect,0.250000X-0.295000X-0.275000X0.295000X-0.275000X0.295000X0.275000X-0.295000X0.275000X0*%
%ADD13RoundRect,0.062500X-0.337500X-0.062500X0.337500X-0.062500X0.337500X0.062500X-0.337500X0.062500X0*%
%ADD14RoundRect,0.062500X-0.062500X-0.337500X0.062500X-0.337500X0.062500X0.337500X-0.062500X0.337500X0*%
%ADD15RoundRect,0.250000X0.262500X0.450000X-0.262500X0.450000X-0.262500X-0.450000X0.262500X-0.450000X0*%
%ADD16RoundRect,0.250000X0.250000X1.500000X-0.250000X1.500000X-0.250000X-1.500000X0.250000X-1.500000X0*%
%ADD17RoundRect,0.250001X0.499999X1.449999X-0.499999X1.449999X-0.499999X-1.449999X0.499999X-1.449999X0*%
%ADD18RoundRect,0.150000X0.150000X0.625000X-0.150000X0.625000X-0.150000X-0.625000X0.150000X-0.625000X0*%
%ADD19RoundRect,0.250000X0.350000X0.650000X-0.350000X0.650000X-0.350000X-0.650000X0.350000X-0.650000X0*%
G04 APERTURE END LIST*
D10*
%TO.C,D15*%
X131125000Y-126000000D03*
X133000000Y-126000000D03*
%TD*%
%TO.C,D13*%
X102125000Y-126000000D03*
X104000000Y-126000000D03*
%TD*%
D11*
%TO.C,C1*%
X102870000Y-83820000D03*
X102870000Y-81920000D03*
%TD*%
D10*
%TO.C,D24*%
X145625000Y-155000000D03*
X147500000Y-155000000D03*
%TD*%
%TO.C,D3*%
X73125000Y-97000000D03*
X75000000Y-97000000D03*
%TD*%
%TO.C,D8*%
X145625000Y-97000000D03*
X147500000Y-97000000D03*
%TD*%
D12*
%TO.C,U1*%
X104945000Y-88160000D03*
X104945000Y-89460000D03*
X106295000Y-88160000D03*
X106295000Y-89460000D03*
D13*
X103645000Y-87560000D03*
X103645000Y-88060000D03*
X103645000Y-88560000D03*
X103645000Y-89060000D03*
X103645000Y-89560000D03*
X103645000Y-90060000D03*
D14*
X104370000Y-90785000D03*
X104870000Y-90785000D03*
X105370000Y-90785000D03*
X105870000Y-90785000D03*
X106370000Y-90785000D03*
X106870000Y-90785000D03*
D13*
X107595000Y-90060000D03*
X107595000Y-89560000D03*
X107595000Y-89060000D03*
X107595000Y-88560000D03*
X107595000Y-88060000D03*
X107595000Y-87560000D03*
D14*
X106870000Y-86835000D03*
X106370000Y-86835000D03*
X105870000Y-86835000D03*
X105370000Y-86835000D03*
X104870000Y-86835000D03*
X104370000Y-86835000D03*
%TD*%
D15*
%TO.C,R12*%
X57165000Y-155000000D03*
X55340000Y-155000000D03*
%TD*%
%TO.C,R23*%
X129165000Y-97000000D03*
X127340000Y-97000000D03*
%TD*%
%TO.C,R24*%
X114665000Y-97000000D03*
X112840000Y-97000000D03*
%TD*%
D10*
%TO.C,D11*%
X73125000Y-126000000D03*
X75000000Y-126000000D03*
%TD*%
D15*
%TO.C,R7*%
X129165000Y-155000000D03*
X127340000Y-155000000D03*
%TD*%
D10*
%TO.C,D16*%
X145625000Y-126000000D03*
X147500000Y-126000000D03*
%TD*%
D16*
%TO.C,STEMMA_2*%
X120000000Y-35350000D03*
X118000000Y-35350000D03*
X116000000Y-35350000D03*
X114000000Y-35350000D03*
D17*
X122350000Y-29600000D03*
X111650000Y-29600000D03*
%TD*%
D10*
%TO.C,D4*%
X87625000Y-97000000D03*
X89500000Y-97000000D03*
%TD*%
D16*
%TO.C,STEMMA_1*%
X104476528Y-35339788D03*
X102476528Y-35339788D03*
X100476528Y-35339788D03*
X98476528Y-35339788D03*
D17*
X106826528Y-29589788D03*
X96126528Y-29589788D03*
%TD*%
D15*
%TO.C,R11*%
X71665000Y-155000000D03*
X69840000Y-155000000D03*
%TD*%
%TO.C,R9*%
X100165000Y-155000000D03*
X98340000Y-155000000D03*
%TD*%
D10*
%TO.C,D19*%
X73625000Y-155000000D03*
X75500000Y-155000000D03*
%TD*%
%TO.C,D14*%
X116625000Y-126000000D03*
X118500000Y-126000000D03*
%TD*%
%TO.C,D18*%
X59125000Y-155000000D03*
X61000000Y-155000000D03*
%TD*%
D15*
%TO.C,R27*%
X71165000Y-97000000D03*
X69340000Y-97000000D03*
%TD*%
%TO.C,R26*%
X85665000Y-97000000D03*
X83840000Y-97000000D03*
%TD*%
D18*
%TO.C,Qwiic_2*%
X141500000Y-32500000D03*
X140500000Y-32500000D03*
X139500000Y-32500000D03*
X138500000Y-32500000D03*
D19*
X142800000Y-28625000D03*
X137200000Y-28625000D03*
%TD*%
D10*
%TO.C,D6*%
X116625000Y-97000000D03*
X118500000Y-97000000D03*
%TD*%
D11*
%TO.C,C2*%
X102465934Y-114338395D03*
X102465934Y-112438395D03*
%TD*%
D15*
%TO.C,R20*%
X56665000Y-126000000D03*
X54840000Y-126000000D03*
%TD*%
D10*
%TO.C,D7*%
X131125000Y-97000000D03*
X133000000Y-97000000D03*
%TD*%
%TO.C,D21*%
X102125000Y-155000000D03*
X104000000Y-155000000D03*
%TD*%
D15*
%TO.C,R30*%
X143665000Y-155000000D03*
X141840000Y-155000000D03*
%TD*%
D10*
%TO.C,D17*%
X44125000Y-155000000D03*
X46000000Y-155000000D03*
%TD*%
D15*
%TO.C,R28*%
X56665000Y-97000000D03*
X54840000Y-97000000D03*
%TD*%
D10*
%TO.C,D5*%
X102125000Y-97000000D03*
X104000000Y-97000000D03*
%TD*%
D15*
%TO.C,R16*%
X114665000Y-126000000D03*
X112840000Y-126000000D03*
%TD*%
D10*
%TO.C,D23*%
X131125000Y-155000000D03*
X133000000Y-155000000D03*
%TD*%
D12*
%TO.C,U2*%
X104945000Y-117370000D03*
X104945000Y-118670000D03*
X106295000Y-117370000D03*
X106295000Y-118670000D03*
D13*
X103645000Y-116770000D03*
X103645000Y-117270000D03*
X103645000Y-117770000D03*
X103645000Y-118270000D03*
X103645000Y-118770000D03*
X103645000Y-119270000D03*
D14*
X104370000Y-119995000D03*
X104870000Y-119995000D03*
X105370000Y-119995000D03*
X105870000Y-119995000D03*
X106370000Y-119995000D03*
X106870000Y-119995000D03*
D13*
X107595000Y-119270000D03*
X107595000Y-118770000D03*
X107595000Y-118270000D03*
X107595000Y-117770000D03*
X107595000Y-117270000D03*
X107595000Y-116770000D03*
D14*
X106870000Y-116045000D03*
X106370000Y-116045000D03*
X105870000Y-116045000D03*
X105370000Y-116045000D03*
X104870000Y-116045000D03*
X104370000Y-116045000D03*
%TD*%
D10*
%TO.C,D10*%
X58625000Y-126000000D03*
X60500000Y-126000000D03*
%TD*%
D15*
%TO.C,R10*%
X86165000Y-155000000D03*
X84340000Y-155000000D03*
%TD*%
D10*
%TO.C,D9*%
X44125000Y-126000000D03*
X46000000Y-126000000D03*
%TD*%
D15*
%TO.C,R19*%
X71165000Y-126000000D03*
X69340000Y-126000000D03*
%TD*%
D10*
%TO.C,D22*%
X116625000Y-155000000D03*
X118500000Y-155000000D03*
%TD*%
D15*
%TO.C,R8*%
X114665000Y-155000000D03*
X112840000Y-155000000D03*
%TD*%
D10*
%TO.C,D1*%
X44125000Y-97000000D03*
X46000000Y-97000000D03*
%TD*%
D15*
%TO.C,R14*%
X143665000Y-126000000D03*
X141840000Y-126000000D03*
%TD*%
D18*
%TO.C,Qwiic_1*%
X132500000Y-32500000D03*
X131500000Y-32500000D03*
X130500000Y-32500000D03*
X129500000Y-32500000D03*
D19*
X133800000Y-28625000D03*
X128200000Y-28625000D03*
%TD*%
D15*
%TO.C,R18*%
X85665000Y-126000000D03*
X83840000Y-126000000D03*
%TD*%
%TO.C,R13*%
X42165000Y-155000000D03*
X40340000Y-155000000D03*
%TD*%
%TO.C,R29*%
X42165000Y-97000000D03*
X40340000Y-97000000D03*
%TD*%
%TO.C,R15*%
X129165000Y-126000000D03*
X127340000Y-126000000D03*
%TD*%
D10*
%TO.C,D20*%
X88125000Y-155000000D03*
X90000000Y-155000000D03*
%TD*%
%TO.C,D12*%
X87625000Y-126000000D03*
X89500000Y-126000000D03*
%TD*%
D15*
%TO.C,R25*%
X100165000Y-97000000D03*
X98340000Y-97000000D03*
%TD*%
%TO.C,R21*%
X42165000Y-126000000D03*
X40340000Y-126000000D03*
%TD*%
D10*
%TO.C,D2*%
X58625000Y-97000000D03*
X60500000Y-97000000D03*
%TD*%
D15*
%TO.C,R22*%
X143665000Y-97000000D03*
X141840000Y-97000000D03*
%TD*%
%TO.C,R17*%
X100165000Y-126000000D03*
X98340000Y-126000000D03*
%TD*%
D12*
%TO.C,U3*%
X104945000Y-146580000D03*
X104945000Y-147880000D03*
X106295000Y-146580000D03*
X106295000Y-147880000D03*
D13*
X103645000Y-145980000D03*
X103645000Y-146480000D03*
X103645000Y-146980000D03*
X103645000Y-147480000D03*
X103645000Y-147980000D03*
X103645000Y-148480000D03*
D14*
X104370000Y-149205000D03*
X104870000Y-149205000D03*
X105370000Y-149205000D03*
X105870000Y-149205000D03*
X106370000Y-149205000D03*
X106870000Y-149205000D03*
D13*
X107595000Y-148480000D03*
X107595000Y-147980000D03*
X107595000Y-147480000D03*
X107595000Y-146980000D03*
X107595000Y-146480000D03*
X107595000Y-145980000D03*
D14*
X106870000Y-145255000D03*
X106370000Y-145255000D03*
X105870000Y-145255000D03*
X105370000Y-145255000D03*
X104870000Y-145255000D03*
X104370000Y-145255000D03*
%TD*%
D11*
%TO.C,C3*%
X103080000Y-143420000D03*
X103080000Y-141520000D03*
%TD*%
M02*
