%TF.GenerationSoftware,KiCad,Pcbnew,9.0.5*%
%TF.CreationDate,2026-04-25T14:00:11-05:00*%
%TF.ProjectId,Sensor_Board,53656e73-6f72-45f4-926f-6172642e6b69,rev?*%
%TF.SameCoordinates,Original*%
%TF.FileFunction,Soldermask,Top*%
%TF.FilePolarity,Negative*%
%FSLAX46Y46*%
G04 Gerber Fmt 4.6, Leading zero omitted, Abs format (unit mm)*
G04 Created by KiCad (PCBNEW 9.0.5) date 2026-04-25 14:00:11*
%MOMM*%
%LPD*%
G01*
G04 APERTURE LIST*
G04 Aperture macros list*
%AMRoundRect*
0 Rectangle with rounded corners*
0 $1 Rounding radius*
0 $2 $3 $4 $5 $6 $7 $8 $9 X,Y pos of 4 corners*
0 Add a 4 corners polygon primitive as box body*
4,1,4,$2,$3,$4,$5,$6,$7,$8,$9,$2,$3,0*
0 Add four circle primitives for the rounded corners*
1,1,$1+$1,$2,$3*
1,1,$1+$1,$4,$5*
1,1,$1+$1,$6,$7*
1,1,$1+$1,$8,$9*
0 Add four rect primitives between the rounded corners*
20,1,$1+$1,$2,$3,$4,$5,0*
20,1,$1+$1,$4,$5,$6,$7,0*
20,1,$1+$1,$6,$7,$8,$9,0*
20,1,$1+$1,$8,$9,$2,$3,0*%
G04 Aperture macros list end*
%ADD10RoundRect,0.243750X-0.243750X-0.456250X0.243750X-0.456250X0.243750X0.456250X-0.243750X0.456250X0*%
%ADD11RoundRect,0.250000X0.475000X-0.250000X0.475000X0.250000X-0.475000X0.250000X-0.475000X-0.250000X0*%
%ADD12C,0.800000*%
%ADD13C,5.000000*%
%ADD14R,8.499964X8.499986*%
%ADD15RoundRect,0.062500X-0.337500X-0.062500X0.337500X-0.062500X0.337500X0.062500X-0.337500X0.062500X0*%
%ADD16RoundRect,0.062500X-0.062500X-0.337500X0.062500X-0.337500X0.062500X0.337500X-0.062500X0.337500X0*%
%ADD17R,2.700000X2.600000*%
%ADD18RoundRect,0.250000X0.262500X0.450000X-0.262500X0.450000X-0.262500X-0.450000X0.262500X-0.450000X0*%
%ADD19R,8.499986X8.499964*%
%ADD20R,1.700000X1.700000*%
%ADD21C,1.700000*%
%ADD22RoundRect,0.250000X0.250000X1.500000X-0.250000X1.500000X-0.250000X-1.500000X0.250000X-1.500000X0*%
%ADD23RoundRect,0.250001X0.499999X1.449999X-0.499999X1.449999X-0.499999X-1.449999X0.499999X-1.449999X0*%
%ADD24C,1.600000*%
%ADD25RoundRect,0.250000X-0.600000X-0.600000X0.600000X-0.600000X0.600000X0.600000X-0.600000X0.600000X0*%
%ADD26RoundRect,0.150000X0.150000X0.625000X-0.150000X0.625000X-0.150000X-0.625000X0.150000X-0.625000X0*%
%ADD27RoundRect,0.250000X0.350000X0.650000X-0.350000X0.650000X-0.350000X-0.650000X0.350000X-0.650000X0*%
%ADD28R,1.600000X1.600000*%
G04 APERTURE END LIST*
D10*
%TO.C,D15*%
X131125000Y-126000000D03*
X133000000Y-126000000D03*
%TD*%
%TO.C,D13*%
X102125000Y-126000000D03*
X104000000Y-126000000D03*
%TD*%
D11*
%TO.C,C1*%
X102870000Y-83820000D03*
X102870000Y-81920000D03*
%TD*%
D12*
%TO.C,H3*%
X147625000Y-174000000D03*
X148174175Y-172674175D03*
X148174175Y-175325825D03*
X149500000Y-172125000D03*
D13*
X149500000Y-174000000D03*
D12*
X149500000Y-175875000D03*
X150825825Y-172674175D03*
X150825825Y-175325825D03*
X151375000Y-174000000D03*
%TD*%
D14*
%TO.C,Cap_pad9*%
X45062500Y-134500000D03*
%TD*%
D10*
%TO.C,D24*%
X145625000Y-155000000D03*
X147500000Y-155000000D03*
%TD*%
%TO.C,D3*%
X73125000Y-97000000D03*
X75000000Y-97000000D03*
%TD*%
%TO.C,D8*%
X145625000Y-97000000D03*
X147500000Y-97000000D03*
%TD*%
D15*
%TO.C,U1*%
X103645000Y-87560000D03*
X103645000Y-88060000D03*
X103645000Y-88560000D03*
X103645000Y-89060000D03*
X103645000Y-89560000D03*
X103645000Y-90060000D03*
D16*
X104370000Y-90785000D03*
X104870000Y-90785000D03*
X105370000Y-90785000D03*
X105870000Y-90785000D03*
X106370000Y-90785000D03*
X106870000Y-90785000D03*
D15*
X107595000Y-90060000D03*
X107595000Y-89560000D03*
X107595000Y-89060000D03*
X107595000Y-88560000D03*
X107595000Y-88060000D03*
X107595000Y-87560000D03*
D16*
X106870000Y-86835000D03*
X106370000Y-86835000D03*
X105870000Y-86835000D03*
X105370000Y-86835000D03*
X104870000Y-86835000D03*
X104370000Y-86835000D03*
D17*
X105620000Y-88810000D03*
%TD*%
D18*
%TO.C,R12*%
X57165000Y-155000000D03*
X55340000Y-155000000D03*
%TD*%
%TO.C,R23*%
X129165000Y-97000000D03*
X127340000Y-97000000D03*
%TD*%
%TO.C,R24*%
X114665000Y-97000000D03*
X112840000Y-97000000D03*
%TD*%
D19*
%TO.C,Cap_pad18*%
X59500000Y-163500000D03*
%TD*%
%TO.C,Cap_pad23*%
X132000000Y-163500000D03*
%TD*%
D10*
%TO.C,D11*%
X73125000Y-126000000D03*
X75000000Y-126000000D03*
%TD*%
D20*
%TO.C,J3*%
X139500000Y-79020000D03*
D21*
X139500000Y-76480000D03*
X139500000Y-73940000D03*
X139500000Y-71400000D03*
X139500000Y-68860000D03*
X139500000Y-66320000D03*
X139500000Y-63780000D03*
X139500000Y-61240000D03*
X139500000Y-58700000D03*
X139500000Y-56160000D03*
X139500000Y-53620000D03*
X139500000Y-51080000D03*
X139500000Y-48540000D03*
X139500000Y-46000000D03*
%TD*%
D18*
%TO.C,R7*%
X129165000Y-155000000D03*
X127340000Y-155000000D03*
%TD*%
D10*
%TO.C,D16*%
X145625000Y-126000000D03*
X147500000Y-126000000D03*
%TD*%
D22*
%TO.C,STEMMA_2*%
X120000000Y-35350000D03*
X118000000Y-35350000D03*
X116000000Y-35350000D03*
X114000000Y-35350000D03*
D23*
X122350000Y-29600000D03*
X111650000Y-29600000D03*
%TD*%
D20*
%TO.C,BREAKOUT_GARDEN_1*%
X59846260Y-30342550D03*
D21*
X62386260Y-30342550D03*
X64926260Y-30342550D03*
X67466260Y-30342550D03*
X70006260Y-30342550D03*
%TD*%
D24*
%TO.C,R33*%
X111970000Y-144690000D03*
X122130000Y-144690000D03*
%TD*%
D25*
%TO.C,Terasic-J1*%
X34651321Y-39352381D03*
D21*
X37191321Y-39352381D03*
X34651321Y-41892381D03*
X37191321Y-41892381D03*
X34651321Y-44432381D03*
X37191321Y-44432381D03*
X34651321Y-46972381D03*
X37191321Y-46972381D03*
X34651321Y-49512381D03*
X37191321Y-49512381D03*
X34651321Y-52052381D03*
X37191321Y-52052381D03*
X34651321Y-54592381D03*
X37191321Y-54592381D03*
X34651321Y-57132381D03*
X37191321Y-57132381D03*
X34651321Y-59672381D03*
X37191321Y-59672381D03*
X34651321Y-62212381D03*
X37191321Y-62212381D03*
X34651321Y-64752381D03*
X37191321Y-64752381D03*
X34651321Y-67292381D03*
X37191321Y-67292381D03*
X34651321Y-69832381D03*
X37191321Y-69832381D03*
X34651321Y-72372381D03*
X37191321Y-72372381D03*
X34651321Y-74912381D03*
X37191321Y-74912381D03*
X34651321Y-77452381D03*
X37191321Y-77452381D03*
X34651321Y-79992381D03*
X37191321Y-79992381D03*
X34651321Y-82532381D03*
X37191321Y-82532381D03*
X34651321Y-85072381D03*
X37191321Y-85072381D03*
X34651321Y-87612381D03*
X37191321Y-87612381D03*
%TD*%
D14*
%TO.C,Cap_pad4*%
X88562500Y-105500000D03*
%TD*%
D10*
%TO.C,D4*%
X87625000Y-97000000D03*
X89500000Y-97000000D03*
%TD*%
D12*
%TO.C,H5*%
X56625000Y-40500000D03*
X57174175Y-39174175D03*
X57174175Y-41825825D03*
X58500000Y-38625000D03*
D13*
X58500000Y-40500000D03*
D12*
X58500000Y-42375000D03*
X59825825Y-39174175D03*
X59825825Y-41825825D03*
X60375000Y-40500000D03*
%TD*%
D14*
%TO.C,Cap_pad5*%
X103062500Y-105500000D03*
%TD*%
D22*
%TO.C,STEMMA_1*%
X104476528Y-35339788D03*
X102476528Y-35339788D03*
X100476528Y-35339788D03*
X98476528Y-35339788D03*
D23*
X106826528Y-29589788D03*
X96126528Y-29589788D03*
%TD*%
D19*
%TO.C,Cap_pad22*%
X117500000Y-163500000D03*
%TD*%
D18*
%TO.C,R11*%
X71665000Y-155000000D03*
X69840000Y-155000000D03*
%TD*%
D24*
%TO.C,R34*%
X98000000Y-85000000D03*
X87840000Y-85000000D03*
%TD*%
D18*
%TO.C,R9*%
X100165000Y-155000000D03*
X98340000Y-155000000D03*
%TD*%
D10*
%TO.C,D19*%
X73625000Y-155000000D03*
X75500000Y-155000000D03*
%TD*%
%TO.C,D14*%
X116625000Y-126000000D03*
X118500000Y-126000000D03*
%TD*%
D12*
%TO.C,H6*%
X56625000Y-84500000D03*
X57174175Y-83174175D03*
X57174175Y-85825825D03*
X58500000Y-82625000D03*
D13*
X58500000Y-84500000D03*
D12*
X58500000Y-86375000D03*
X59825825Y-83174175D03*
X59825825Y-85825825D03*
X60375000Y-84500000D03*
%TD*%
D19*
%TO.C,Cap_pad20*%
X88500000Y-163500000D03*
%TD*%
D10*
%TO.C,D18*%
X59125000Y-155000000D03*
X61000000Y-155000000D03*
%TD*%
D18*
%TO.C,R27*%
X71165000Y-97000000D03*
X69340000Y-97000000D03*
%TD*%
%TO.C,R26*%
X85665000Y-97000000D03*
X83840000Y-97000000D03*
%TD*%
D26*
%TO.C,Qwiic_2*%
X141500000Y-32500000D03*
X140500000Y-32500000D03*
X139500000Y-32500000D03*
X138500000Y-32500000D03*
D27*
X142800000Y-28625000D03*
X137200000Y-28625000D03*
%TD*%
D28*
%TO.C,RN1*%
X112100000Y-50910000D03*
D24*
X109560000Y-50910000D03*
X107020000Y-50910000D03*
X104480000Y-50910000D03*
X101940000Y-50910000D03*
X99400000Y-50910000D03*
X96860000Y-50910000D03*
X94320000Y-50910000D03*
X91780000Y-50910000D03*
%TD*%
D19*
%TO.C,Cap_pad17*%
X45000000Y-163500000D03*
%TD*%
D24*
%TO.C,R32*%
X111970000Y-115480000D03*
X122130000Y-115480000D03*
%TD*%
D10*
%TO.C,D6*%
X116625000Y-97000000D03*
X118500000Y-97000000D03*
%TD*%
D14*
%TO.C,Cap_pad6*%
X117562500Y-105500000D03*
%TD*%
D11*
%TO.C,C2*%
X102465934Y-114338395D03*
X102465934Y-112438395D03*
%TD*%
D24*
%TO.C,R31*%
X63500000Y-81000000D03*
X63500000Y-91160000D03*
%TD*%
D18*
%TO.C,R20*%
X56665000Y-126000000D03*
X54840000Y-126000000D03*
%TD*%
D10*
%TO.C,D7*%
X131125000Y-97000000D03*
X133000000Y-97000000D03*
%TD*%
%TO.C,D21*%
X102125000Y-155000000D03*
X104000000Y-155000000D03*
%TD*%
D24*
%TO.C,R35*%
X98000000Y-115480000D03*
X87840000Y-115480000D03*
%TD*%
D18*
%TO.C,R30*%
X143665000Y-155000000D03*
X141840000Y-155000000D03*
%TD*%
D24*
%TO.C,R36*%
X98000000Y-144690000D03*
X87840000Y-144690000D03*
%TD*%
D10*
%TO.C,D17*%
X44125000Y-155000000D03*
X46000000Y-155000000D03*
%TD*%
D18*
%TO.C,R28*%
X56665000Y-97000000D03*
X54840000Y-97000000D03*
%TD*%
D14*
%TO.C,Cap_pad12*%
X88562500Y-134500000D03*
%TD*%
D19*
%TO.C,Cap_pad21*%
X103000000Y-163500000D03*
%TD*%
D12*
%TO.C,H4*%
X27125000Y-174000000D03*
X27674175Y-172674175D03*
X27674175Y-175325825D03*
X29000000Y-172125000D03*
D13*
X29000000Y-174000000D03*
D12*
X29000000Y-175875000D03*
X30325825Y-172674175D03*
X30325825Y-175325825D03*
X30875000Y-174000000D03*
%TD*%
D10*
%TO.C,D5*%
X102125000Y-97000000D03*
X104000000Y-97000000D03*
%TD*%
D18*
%TO.C,R16*%
X114665000Y-126000000D03*
X112840000Y-126000000D03*
%TD*%
D10*
%TO.C,D23*%
X131125000Y-155000000D03*
X133000000Y-155000000D03*
%TD*%
D14*
%TO.C,Cap_pad13*%
X103062500Y-134500000D03*
%TD*%
D15*
%TO.C,U2*%
X103645000Y-116770000D03*
X103645000Y-117270000D03*
X103645000Y-117770000D03*
X103645000Y-118270000D03*
X103645000Y-118770000D03*
X103645000Y-119270000D03*
D16*
X104370000Y-119995000D03*
X104870000Y-119995000D03*
X105370000Y-119995000D03*
X105870000Y-119995000D03*
X106370000Y-119995000D03*
X106870000Y-119995000D03*
D15*
X107595000Y-119270000D03*
X107595000Y-118770000D03*
X107595000Y-118270000D03*
X107595000Y-117770000D03*
X107595000Y-117270000D03*
X107595000Y-116770000D03*
D16*
X106870000Y-116045000D03*
X106370000Y-116045000D03*
X105870000Y-116045000D03*
X105370000Y-116045000D03*
X104870000Y-116045000D03*
X104370000Y-116045000D03*
D17*
X105620000Y-118020000D03*
%TD*%
D10*
%TO.C,D10*%
X58625000Y-126000000D03*
X60500000Y-126000000D03*
%TD*%
D14*
%TO.C,Cap_pad15*%
X132062500Y-134500000D03*
%TD*%
D18*
%TO.C,R10*%
X86165000Y-155000000D03*
X84340000Y-155000000D03*
%TD*%
D14*
%TO.C,Cap_pad8*%
X146562500Y-105500000D03*
%TD*%
D10*
%TO.C,D9*%
X44125000Y-126000000D03*
X46000000Y-126000000D03*
%TD*%
D18*
%TO.C,R19*%
X71165000Y-126000000D03*
X69340000Y-126000000D03*
%TD*%
D19*
%TO.C,Cap_pad24*%
X146500000Y-163500000D03*
%TD*%
D12*
%TO.C,H8*%
X132625000Y-40500000D03*
X133174175Y-39174175D03*
X133174175Y-41825825D03*
X134500000Y-38625000D03*
D13*
X134500000Y-40500000D03*
D12*
X134500000Y-42375000D03*
X135825825Y-39174175D03*
X135825825Y-41825825D03*
X136375000Y-40500000D03*
%TD*%
D14*
%TO.C,Cap_pad2*%
X59562500Y-105500000D03*
%TD*%
D20*
%TO.C,BREAKOUT_GARDEN_2*%
X78896260Y-30342550D03*
D21*
X81436260Y-30342550D03*
X83976260Y-30342550D03*
X86516260Y-30342550D03*
X89056260Y-30342550D03*
%TD*%
D10*
%TO.C,D22*%
X116625000Y-155000000D03*
X118500000Y-155000000D03*
%TD*%
D14*
%TO.C,Cap_pad11*%
X74062500Y-134500000D03*
%TD*%
%TO.C,Cap_pad16*%
X146562500Y-134500000D03*
%TD*%
D12*
%TO.C,H7*%
X132625000Y-84500000D03*
X133174175Y-83174175D03*
X133174175Y-85825825D03*
X134500000Y-82625000D03*
D13*
X134500000Y-84500000D03*
D12*
X134500000Y-86375000D03*
X135825825Y-83174175D03*
X135825825Y-85825825D03*
X136375000Y-84500000D03*
%TD*%
D19*
%TO.C,Cap_pad19*%
X74000000Y-163500000D03*
%TD*%
D18*
%TO.C,R8*%
X114665000Y-155000000D03*
X112840000Y-155000000D03*
%TD*%
D14*
%TO.C,Cap_pad7*%
X132062500Y-105500000D03*
%TD*%
D10*
%TO.C,D1*%
X44125000Y-97000000D03*
X46000000Y-97000000D03*
%TD*%
D14*
%TO.C,Cap_pad1*%
X45062500Y-105500000D03*
%TD*%
D18*
%TO.C,R14*%
X143665000Y-126000000D03*
X141840000Y-126000000D03*
%TD*%
D26*
%TO.C,Qwiic_1*%
X132500000Y-32500000D03*
X131500000Y-32500000D03*
X130500000Y-32500000D03*
X129500000Y-32500000D03*
D27*
X133800000Y-28625000D03*
X128200000Y-28625000D03*
%TD*%
D25*
%TO.C,Alinx-J2*%
X48057807Y-39406222D03*
D21*
X50597807Y-39406222D03*
X48057807Y-41946222D03*
X50597807Y-41946222D03*
X48057807Y-44486222D03*
X50597807Y-44486222D03*
X48057807Y-47026222D03*
X50597807Y-47026222D03*
X48057807Y-49566222D03*
X50597807Y-49566222D03*
X48057807Y-52106222D03*
X50597807Y-52106222D03*
X48057807Y-54646222D03*
X50597807Y-54646222D03*
X48057807Y-57186222D03*
X50597807Y-57186222D03*
X48057807Y-59726222D03*
X50597807Y-59726222D03*
X48057807Y-62266222D03*
X50597807Y-62266222D03*
X48057807Y-64806222D03*
X50597807Y-64806222D03*
X48057807Y-67346222D03*
X50597807Y-67346222D03*
X48057807Y-69886222D03*
X50597807Y-69886222D03*
X48057807Y-72426222D03*
X50597807Y-72426222D03*
X48057807Y-74966222D03*
X50597807Y-74966222D03*
X48057807Y-77506222D03*
X50597807Y-77506222D03*
X48057807Y-80046222D03*
X50597807Y-80046222D03*
X48057807Y-82586222D03*
X50597807Y-82586222D03*
X48057807Y-85126222D03*
X50597807Y-85126222D03*
X48057807Y-87666222D03*
X50597807Y-87666222D03*
%TD*%
D18*
%TO.C,R18*%
X85665000Y-126000000D03*
X83840000Y-126000000D03*
%TD*%
%TO.C,R13*%
X42165000Y-155000000D03*
X40340000Y-155000000D03*
%TD*%
%TO.C,R29*%
X42165000Y-97000000D03*
X40340000Y-97000000D03*
%TD*%
%TO.C,R15*%
X129165000Y-126000000D03*
X127340000Y-126000000D03*
%TD*%
D14*
%TO.C,Cap_pad3*%
X74062500Y-105500000D03*
%TD*%
D12*
%TO.C,H1*%
X27125000Y-31000000D03*
X27674175Y-29674175D03*
X27674175Y-32325825D03*
X29000000Y-29125000D03*
D13*
X29000000Y-31000000D03*
D12*
X29000000Y-32875000D03*
X30325825Y-29674175D03*
X30325825Y-32325825D03*
X30875000Y-31000000D03*
%TD*%
D10*
%TO.C,D20*%
X88125000Y-155000000D03*
X90000000Y-155000000D03*
%TD*%
D14*
%TO.C,Cap_pad14*%
X117562500Y-134500000D03*
%TD*%
%TO.C,Cap_pad10*%
X59562500Y-134500000D03*
%TD*%
D10*
%TO.C,D12*%
X87625000Y-126000000D03*
X89500000Y-126000000D03*
%TD*%
D18*
%TO.C,R25*%
X100165000Y-97000000D03*
X98340000Y-97000000D03*
%TD*%
%TO.C,R21*%
X42165000Y-126000000D03*
X40340000Y-126000000D03*
%TD*%
D10*
%TO.C,D2*%
X58625000Y-97000000D03*
X60500000Y-97000000D03*
%TD*%
D18*
%TO.C,R22*%
X143665000Y-97000000D03*
X141840000Y-97000000D03*
%TD*%
D12*
%TO.C,H2*%
X147625000Y-31000000D03*
X148174175Y-29674175D03*
X148174175Y-32325825D03*
X149500000Y-29125000D03*
D13*
X149500000Y-31000000D03*
D12*
X149500000Y-32875000D03*
X150825825Y-29674175D03*
X150825825Y-32325825D03*
X151375000Y-31000000D03*
%TD*%
D18*
%TO.C,R17*%
X100165000Y-126000000D03*
X98340000Y-126000000D03*
%TD*%
D15*
%TO.C,U3*%
X103645000Y-145980000D03*
X103645000Y-146480000D03*
X103645000Y-146980000D03*
X103645000Y-147480000D03*
X103645000Y-147980000D03*
X103645000Y-148480000D03*
D16*
X104370000Y-149205000D03*
X104870000Y-149205000D03*
X105370000Y-149205000D03*
X105870000Y-149205000D03*
X106370000Y-149205000D03*
X106870000Y-149205000D03*
D15*
X107595000Y-148480000D03*
X107595000Y-147980000D03*
X107595000Y-147480000D03*
X107595000Y-146980000D03*
X107595000Y-146480000D03*
X107595000Y-145980000D03*
D16*
X106870000Y-145255000D03*
X106370000Y-145255000D03*
X105870000Y-145255000D03*
X105370000Y-145255000D03*
X104870000Y-145255000D03*
X104370000Y-145255000D03*
D17*
X105620000Y-147230000D03*
%TD*%
D11*
%TO.C,C3*%
X103080000Y-143420000D03*
X103080000Y-141520000D03*
%TD*%
M02*
