%TF.GenerationSoftware,KiCad,Pcbnew,9.0.5*%
%TF.CreationDate,2026-04-25T14:00:11-05:00*%
%TF.ProjectId,Sensor_Board,53656e73-6f72-45f4-926f-6172642e6b69,rev?*%
%TF.SameCoordinates,Original*%
%TF.FileFunction,Soldermask,Bot*%
%TF.FilePolarity,Negative*%
%FSLAX46Y46*%
G04 Gerber Fmt 4.6, Leading zero omitted, Abs format (unit mm)*
G04 Created by KiCad (PCBNEW 9.0.5) date 2026-04-25 14:00:11*
%MOMM*%
%LPD*%
G01*
G04 APERTURE LIST*
G04 Aperture macros list*
%AMRoundRect*
0 Rectangle with rounded corners*
0 $1 Rounding radius*
0 $2 $3 $4 $5 $6 $7 $8 $9 X,Y pos of 4 corners*
0 Add a 4 corners polygon primitive as box body*
4,1,4,$2,$3,$4,$5,$6,$7,$8,$9,$2,$3,0*
0 Add four circle primitives for the rounded corners*
1,1,$1+$1,$2,$3*
1,1,$1+$1,$4,$5*
1,1,$1+$1,$6,$7*
1,1,$1+$1,$8,$9*
0 Add four rect primitives between the rounded corners*
20,1,$1+$1,$2,$3,$4,$5,0*
20,1,$1+$1,$4,$5,$6,$7,0*
20,1,$1+$1,$6,$7,$8,$9,0*
20,1,$1+$1,$8,$9,$2,$3,0*%
G04 Aperture macros list end*
%ADD10C,0.800000*%
%ADD11C,5.000000*%
%ADD12R,1.700000X1.700000*%
%ADD13C,1.700000*%
%ADD14C,1.600000*%
%ADD15RoundRect,0.250000X-0.600000X-0.600000X0.600000X-0.600000X0.600000X0.600000X-0.600000X0.600000X0*%
%ADD16R,1.600000X1.600000*%
G04 APERTURE END LIST*
D10*
%TO.C,H3*%
X147625000Y-174000000D03*
X148174175Y-172674175D03*
X148174175Y-175325825D03*
X149500000Y-172125000D03*
D11*
X149500000Y-174000000D03*
D10*
X149500000Y-175875000D03*
X150825825Y-172674175D03*
X150825825Y-175325825D03*
X151375000Y-174000000D03*
%TD*%
D12*
%TO.C,J3*%
X139500000Y-79020000D03*
D13*
X139500000Y-76480000D03*
X139500000Y-73940000D03*
X139500000Y-71400000D03*
X139500000Y-68860000D03*
X139500000Y-66320000D03*
X139500000Y-63780000D03*
X139500000Y-61240000D03*
X139500000Y-58700000D03*
X139500000Y-56160000D03*
X139500000Y-53620000D03*
X139500000Y-51080000D03*
X139500000Y-48540000D03*
X139500000Y-46000000D03*
%TD*%
D12*
%TO.C,BREAKOUT_GARDEN_1*%
X59846260Y-30342550D03*
D13*
X62386260Y-30342550D03*
X64926260Y-30342550D03*
X67466260Y-30342550D03*
X70006260Y-30342550D03*
%TD*%
D14*
%TO.C,R33*%
X111970000Y-144690000D03*
X122130000Y-144690000D03*
%TD*%
D15*
%TO.C,Terasic-J1*%
X34651321Y-39352381D03*
D13*
X37191321Y-39352381D03*
X34651321Y-41892381D03*
X37191321Y-41892381D03*
X34651321Y-44432381D03*
X37191321Y-44432381D03*
X34651321Y-46972381D03*
X37191321Y-46972381D03*
X34651321Y-49512381D03*
X37191321Y-49512381D03*
X34651321Y-52052381D03*
X37191321Y-52052381D03*
X34651321Y-54592381D03*
X37191321Y-54592381D03*
X34651321Y-57132381D03*
X37191321Y-57132381D03*
X34651321Y-59672381D03*
X37191321Y-59672381D03*
X34651321Y-62212381D03*
X37191321Y-62212381D03*
X34651321Y-64752381D03*
X37191321Y-64752381D03*
X34651321Y-67292381D03*
X37191321Y-67292381D03*
X34651321Y-69832381D03*
X37191321Y-69832381D03*
X34651321Y-72372381D03*
X37191321Y-72372381D03*
X34651321Y-74912381D03*
X37191321Y-74912381D03*
X34651321Y-77452381D03*
X37191321Y-77452381D03*
X34651321Y-79992381D03*
X37191321Y-79992381D03*
X34651321Y-82532381D03*
X37191321Y-82532381D03*
X34651321Y-85072381D03*
X37191321Y-85072381D03*
X34651321Y-87612381D03*
X37191321Y-87612381D03*
%TD*%
D10*
%TO.C,H5*%
X56625000Y-40500000D03*
X57174175Y-39174175D03*
X57174175Y-41825825D03*
X58500000Y-38625000D03*
D11*
X58500000Y-40500000D03*
D10*
X58500000Y-42375000D03*
X59825825Y-39174175D03*
X59825825Y-41825825D03*
X60375000Y-40500000D03*
%TD*%
D14*
%TO.C,R34*%
X98000000Y-85000000D03*
X87840000Y-85000000D03*
%TD*%
D10*
%TO.C,H6*%
X56625000Y-84500000D03*
X57174175Y-83174175D03*
X57174175Y-85825825D03*
X58500000Y-82625000D03*
D11*
X58500000Y-84500000D03*
D10*
X58500000Y-86375000D03*
X59825825Y-83174175D03*
X59825825Y-85825825D03*
X60375000Y-84500000D03*
%TD*%
D16*
%TO.C,RN1*%
X112100000Y-50910000D03*
D14*
X109560000Y-50910000D03*
X107020000Y-50910000D03*
X104480000Y-50910000D03*
X101940000Y-50910000D03*
X99400000Y-50910000D03*
X96860000Y-50910000D03*
X94320000Y-50910000D03*
X91780000Y-50910000D03*
%TD*%
%TO.C,R32*%
X111970000Y-115480000D03*
X122130000Y-115480000D03*
%TD*%
%TO.C,R31*%
X63500000Y-81000000D03*
X63500000Y-91160000D03*
%TD*%
%TO.C,R35*%
X98000000Y-115480000D03*
X87840000Y-115480000D03*
%TD*%
%TO.C,R36*%
X98000000Y-144690000D03*
X87840000Y-144690000D03*
%TD*%
D10*
%TO.C,H4*%
X27125000Y-174000000D03*
X27674175Y-172674175D03*
X27674175Y-175325825D03*
X29000000Y-172125000D03*
D11*
X29000000Y-174000000D03*
D10*
X29000000Y-175875000D03*
X30325825Y-172674175D03*
X30325825Y-175325825D03*
X30875000Y-174000000D03*
%TD*%
%TO.C,H8*%
X132625000Y-40500000D03*
X133174175Y-39174175D03*
X133174175Y-41825825D03*
X134500000Y-38625000D03*
D11*
X134500000Y-40500000D03*
D10*
X134500000Y-42375000D03*
X135825825Y-39174175D03*
X135825825Y-41825825D03*
X136375000Y-40500000D03*
%TD*%
D12*
%TO.C,BREAKOUT_GARDEN_2*%
X78896260Y-30342550D03*
D13*
X81436260Y-30342550D03*
X83976260Y-30342550D03*
X86516260Y-30342550D03*
X89056260Y-30342550D03*
%TD*%
D10*
%TO.C,H7*%
X132625000Y-84500000D03*
X133174175Y-83174175D03*
X133174175Y-85825825D03*
X134500000Y-82625000D03*
D11*
X134500000Y-84500000D03*
D10*
X134500000Y-86375000D03*
X135825825Y-83174175D03*
X135825825Y-85825825D03*
X136375000Y-84500000D03*
%TD*%
D15*
%TO.C,Alinx-J2*%
X48057807Y-39406222D03*
D13*
X50597807Y-39406222D03*
X48057807Y-41946222D03*
X50597807Y-41946222D03*
X48057807Y-44486222D03*
X50597807Y-44486222D03*
X48057807Y-47026222D03*
X50597807Y-47026222D03*
X48057807Y-49566222D03*
X50597807Y-49566222D03*
X48057807Y-52106222D03*
X50597807Y-52106222D03*
X48057807Y-54646222D03*
X50597807Y-54646222D03*
X48057807Y-57186222D03*
X50597807Y-57186222D03*
X48057807Y-59726222D03*
X50597807Y-59726222D03*
X48057807Y-62266222D03*
X50597807Y-62266222D03*
X48057807Y-64806222D03*
X50597807Y-64806222D03*
X48057807Y-67346222D03*
X50597807Y-67346222D03*
X48057807Y-69886222D03*
X50597807Y-69886222D03*
X48057807Y-72426222D03*
X50597807Y-72426222D03*
X48057807Y-74966222D03*
X50597807Y-74966222D03*
X48057807Y-77506222D03*
X50597807Y-77506222D03*
X48057807Y-80046222D03*
X50597807Y-80046222D03*
X48057807Y-82586222D03*
X50597807Y-82586222D03*
X48057807Y-85126222D03*
X50597807Y-85126222D03*
X48057807Y-87666222D03*
X50597807Y-87666222D03*
%TD*%
D10*
%TO.C,H1*%
X27125000Y-31000000D03*
X27674175Y-29674175D03*
X27674175Y-32325825D03*
X29000000Y-29125000D03*
D11*
X29000000Y-31000000D03*
D10*
X29000000Y-32875000D03*
X30325825Y-29674175D03*
X30325825Y-32325825D03*
X30875000Y-31000000D03*
%TD*%
%TO.C,H2*%
X147625000Y-31000000D03*
X148174175Y-29674175D03*
X148174175Y-32325825D03*
X149500000Y-29125000D03*
D11*
X149500000Y-31000000D03*
D10*
X149500000Y-32875000D03*
X150825825Y-29674175D03*
X150825825Y-32325825D03*
X151375000Y-31000000D03*
%TD*%
M02*
