%TF.GenerationSoftware,KiCad,Pcbnew,9.0.5*%
%TF.CreationDate,2025-12-13T23:57:35-06:00*%
%TF.ProjectId,Sensor_Board,53656e73-6f72-45f4-926f-6172642e6b69,rev?*%
%TF.SameCoordinates,Original*%
%TF.FileFunction,Paste,Top*%
%TF.FilePolarity,Positive*%
%FSLAX46Y46*%
G04 Gerber Fmt 4.6, Leading zero omitted, Abs format (unit mm)*
G04 Created by KiCad (PCBNEW 9.0.5) date 2025-12-13 23:57:35*
%MOMM*%
%LPD*%
G01*
G04 APERTURE LIST*
G04 Aperture macros list*
%AMRoundRect*
0 Rectangle with rounded corners*
0 $1 Rounding radius*
0 $2 $3 $4 $5 $6 $7 $8 $9 X,Y pos of 4 corners*
0 Add a 4 corners polygon primitive as box body*
4,1,4,$2,$3,$4,$5,$6,$7,$8,$9,$2,$3,0*
0 Add four circle primitives for the rounded corners*
1,1,$1+$1,$2,$3*
1,1,$1+$1,$4,$5*
1,1,$1+$1,$6,$7*
1,1,$1+$1,$8,$9*
0 Add four rect primitives between the rounded corners*
20,1,$1+$1,$2,$3,$4,$5,0*
20,1,$1+$1,$4,$5,$6,$7,0*
20,1,$1+$1,$6,$7,$8,$9,0*
20,1,$1+$1,$8,$9,$2,$3,0*%
G04 Aperture macros list end*
%ADD10RoundRect,0.250000X-0.475000X0.250000X-0.475000X-0.250000X0.475000X-0.250000X0.475000X0.250000X0*%
%ADD11RoundRect,0.250000X-0.295000X-0.275000X0.295000X-0.275000X0.295000X0.275000X-0.295000X0.275000X0*%
%ADD12RoundRect,0.062500X-0.337500X-0.062500X0.337500X-0.062500X0.337500X0.062500X-0.337500X0.062500X0*%
%ADD13RoundRect,0.062500X-0.062500X-0.337500X0.062500X-0.337500X0.062500X0.337500X-0.062500X0.337500X0*%
%ADD14RoundRect,0.250000X0.262500X0.450000X-0.262500X0.450000X-0.262500X-0.450000X0.262500X-0.450000X0*%
%ADD15RoundRect,0.250000X0.250000X1.500000X-0.250000X1.500000X-0.250000X-1.500000X0.250000X-1.500000X0*%
%ADD16RoundRect,0.250001X0.499999X1.449999X-0.499999X1.449999X-0.499999X-1.449999X0.499999X-1.449999X0*%
%ADD17RoundRect,0.150000X-0.150000X-0.625000X0.150000X-0.625000X0.150000X0.625000X-0.150000X0.625000X0*%
%ADD18RoundRect,0.250000X-0.350000X-0.650000X0.350000X-0.650000X0.350000X0.650000X-0.350000X0.650000X0*%
G04 APERTURE END LIST*
D10*
%TO.C,C2*%
X95000000Y-140550000D03*
X95000000Y-142450000D03*
%TD*%
%TO.C,C1*%
X95500000Y-112000000D03*
X95500000Y-113900000D03*
%TD*%
D11*
%TO.C,U1*%
X99631699Y-113640371D03*
X99631699Y-114940371D03*
X100981699Y-113640371D03*
X100981699Y-114940371D03*
D12*
X98331699Y-113040371D03*
X98331699Y-113540371D03*
X98331699Y-114040371D03*
X98331699Y-114540371D03*
X98331699Y-115040371D03*
X98331699Y-115540371D03*
D13*
X99056699Y-116265371D03*
X99556699Y-116265371D03*
X100056699Y-116265371D03*
X100556699Y-116265371D03*
X101056699Y-116265371D03*
X101556699Y-116265371D03*
D12*
X102281699Y-115540371D03*
X102281699Y-115040371D03*
X102281699Y-114540371D03*
X102281699Y-114040371D03*
X102281699Y-113540371D03*
X102281699Y-113040371D03*
D13*
X101556699Y-112315371D03*
X101056699Y-112315371D03*
X100556699Y-112315371D03*
X100056699Y-112315371D03*
X99556699Y-112315371D03*
X99056699Y-112315371D03*
%TD*%
D14*
%TO.C,R12*%
X70762500Y-165100000D03*
X68937500Y-165100000D03*
%TD*%
%TO.C,R23*%
X121562500Y-106680000D03*
X119737500Y-106680000D03*
%TD*%
%TO.C,R24*%
X111402500Y-106680000D03*
X109577500Y-106680000D03*
%TD*%
%TO.C,R7*%
X121562500Y-165100000D03*
X119737500Y-165100000D03*
%TD*%
D15*
%TO.C,STEMMA_2*%
X111000000Y-35850000D03*
X109000000Y-35850000D03*
X107000000Y-35850000D03*
X105000000Y-35850000D03*
D16*
X113350000Y-30100000D03*
X102650000Y-30100000D03*
%TD*%
D15*
%TO.C,STEMMA_1*%
X95500000Y-35850000D03*
X93500000Y-35850000D03*
X91500000Y-35850000D03*
X89500000Y-35850000D03*
D16*
X97850000Y-30100000D03*
X87150000Y-30100000D03*
%TD*%
D14*
%TO.C,R11*%
X80922500Y-165100000D03*
X79097500Y-165100000D03*
%TD*%
%TO.C,R9*%
X101242500Y-165100000D03*
X99417500Y-165100000D03*
%TD*%
%TO.C,R27*%
X80922500Y-106680000D03*
X79097500Y-106680000D03*
%TD*%
%TO.C,R26*%
X91082500Y-106680000D03*
X89257500Y-106680000D03*
%TD*%
D17*
%TO.C,Qwiic_2*%
X129500000Y-31825000D03*
X130500000Y-31825000D03*
X131500000Y-31825000D03*
X132500000Y-31825000D03*
D18*
X128200000Y-29300000D03*
X133800000Y-29300000D03*
%TD*%
D14*
%TO.C,R20*%
X70762500Y-135890000D03*
X68937500Y-135890000D03*
%TD*%
%TO.C,R30*%
X131722500Y-165100000D03*
X129897500Y-165100000D03*
%TD*%
%TO.C,R28*%
X70762500Y-106680000D03*
X68937500Y-106680000D03*
%TD*%
%TO.C,R16*%
X111402500Y-135890000D03*
X109577500Y-135890000D03*
%TD*%
D10*
%TO.C,C3*%
X95080161Y-169968744D03*
X95080161Y-171868744D03*
%TD*%
D11*
%TO.C,U2*%
X99631699Y-142823983D03*
X99631699Y-144123983D03*
X100981699Y-142823983D03*
X100981699Y-144123983D03*
D12*
X98331699Y-142223983D03*
X98331699Y-142723983D03*
X98331699Y-143223983D03*
X98331699Y-143723983D03*
X98331699Y-144223983D03*
X98331699Y-144723983D03*
D13*
X99056699Y-145448983D03*
X99556699Y-145448983D03*
X100056699Y-145448983D03*
X100556699Y-145448983D03*
X101056699Y-145448983D03*
X101556699Y-145448983D03*
D12*
X102281699Y-144723983D03*
X102281699Y-144223983D03*
X102281699Y-143723983D03*
X102281699Y-143223983D03*
X102281699Y-142723983D03*
X102281699Y-142223983D03*
D13*
X101556699Y-141498983D03*
X101056699Y-141498983D03*
X100556699Y-141498983D03*
X100056699Y-141498983D03*
X99556699Y-141498983D03*
X99056699Y-141498983D03*
%TD*%
D14*
%TO.C,R10*%
X91082500Y-165100000D03*
X89257500Y-165100000D03*
%TD*%
%TO.C,R19*%
X80922500Y-135890000D03*
X79097500Y-135890000D03*
%TD*%
%TO.C,R8*%
X111402500Y-165100000D03*
X109577500Y-165100000D03*
%TD*%
%TO.C,R14*%
X131722500Y-135890000D03*
X129897500Y-135890000D03*
%TD*%
D17*
%TO.C,Qwiic_1*%
X120500000Y-31825000D03*
X121500000Y-31825000D03*
X122500000Y-31825000D03*
X123500000Y-31825000D03*
D18*
X119200000Y-29300000D03*
X124800000Y-29300000D03*
%TD*%
D14*
%TO.C,R18*%
X91082500Y-135890000D03*
X89257500Y-135890000D03*
%TD*%
%TO.C,R13*%
X60602500Y-165100000D03*
X58777500Y-165100000D03*
%TD*%
%TO.C,R29*%
X60602500Y-106680000D03*
X58777500Y-106680000D03*
%TD*%
%TO.C,R15*%
X121562500Y-135890000D03*
X119737500Y-135890000D03*
%TD*%
%TO.C,R25*%
X101242500Y-106680000D03*
X99417500Y-106680000D03*
%TD*%
%TO.C,R21*%
X60602500Y-135890000D03*
X58777500Y-135890000D03*
%TD*%
%TO.C,R22*%
X131722500Y-106680000D03*
X129897500Y-106680000D03*
%TD*%
%TO.C,R17*%
X101242500Y-135890000D03*
X99417500Y-135890000D03*
%TD*%
D11*
%TO.C,U3*%
X99631699Y-172063825D03*
X99631699Y-173363825D03*
X100981699Y-172063825D03*
X100981699Y-173363825D03*
D12*
X98331699Y-171463825D03*
X98331699Y-171963825D03*
X98331699Y-172463825D03*
X98331699Y-172963825D03*
X98331699Y-173463825D03*
X98331699Y-173963825D03*
D13*
X99056699Y-174688825D03*
X99556699Y-174688825D03*
X100056699Y-174688825D03*
X100556699Y-174688825D03*
X101056699Y-174688825D03*
X101556699Y-174688825D03*
D12*
X102281699Y-173963825D03*
X102281699Y-173463825D03*
X102281699Y-172963825D03*
X102281699Y-172463825D03*
X102281699Y-171963825D03*
X102281699Y-171463825D03*
D13*
X101556699Y-170738825D03*
X101056699Y-170738825D03*
X100556699Y-170738825D03*
X100056699Y-170738825D03*
X99556699Y-170738825D03*
X99056699Y-170738825D03*
%TD*%
M02*
