%TF.GenerationSoftware,KiCad,Pcbnew,9.0.5*%
%TF.CreationDate,2025-12-13T23:57:35-06:00*%
%TF.ProjectId,Sensor_Board,53656e73-6f72-45f4-926f-6172642e6b69,rev?*%
%TF.SameCoordinates,Original*%
%TF.FileFunction,Soldermask,Top*%
%TF.FilePolarity,Negative*%
%FSLAX46Y46*%
G04 Gerber Fmt 4.6, Leading zero omitted, Abs format (unit mm)*
G04 Created by KiCad (PCBNEW 9.0.5) date 2025-12-13 23:57:35*
%MOMM*%
%LPD*%
G01*
G04 APERTURE LIST*
G04 Aperture macros list*
%AMRoundRect*
0 Rectangle with rounded corners*
0 $1 Rounding radius*
0 $2 $3 $4 $5 $6 $7 $8 $9 X,Y pos of 4 corners*
0 Add a 4 corners polygon primitive as box body*
4,1,4,$2,$3,$4,$5,$6,$7,$8,$9,$2,$3,0*
0 Add four circle primitives for the rounded corners*
1,1,$1+$1,$2,$3*
1,1,$1+$1,$4,$5*
1,1,$1+$1,$6,$7*
1,1,$1+$1,$8,$9*
0 Add four rect primitives between the rounded corners*
20,1,$1+$1,$2,$3,$4,$5,0*
20,1,$1+$1,$4,$5,$6,$7,0*
20,1,$1+$1,$6,$7,$8,$9,0*
20,1,$1+$1,$8,$9,$2,$3,0*%
G04 Aperture macros list end*
%ADD10R,1.800000X1.800000*%
%ADD11C,1.800000*%
%ADD12RoundRect,0.250000X-0.475000X0.250000X-0.475000X-0.250000X0.475000X-0.250000X0.475000X0.250000X0*%
%ADD13R,5.080000X5.080000*%
%ADD14R,1.700000X1.700000*%
%ADD15C,1.700000*%
%ADD16RoundRect,0.062500X-0.337500X-0.062500X0.337500X-0.062500X0.337500X0.062500X-0.337500X0.062500X0*%
%ADD17RoundRect,0.062500X-0.062500X-0.337500X0.062500X-0.337500X0.062500X0.337500X-0.062500X0.337500X0*%
%ADD18R,2.700000X2.600000*%
%ADD19RoundRect,0.250000X0.262500X0.450000X-0.262500X0.450000X-0.262500X-0.450000X0.262500X-0.450000X0*%
%ADD20RoundRect,0.250000X0.250000X1.500000X-0.250000X1.500000X-0.250000X-1.500000X0.250000X-1.500000X0*%
%ADD21RoundRect,0.250001X0.499999X1.449999X-0.499999X1.449999X-0.499999X-1.449999X0.499999X-1.449999X0*%
%ADD22C,1.600000*%
%ADD23RoundRect,0.250000X0.600000X0.600000X-0.600000X0.600000X-0.600000X-0.600000X0.600000X-0.600000X0*%
%ADD24RoundRect,0.150000X-0.150000X-0.625000X0.150000X-0.625000X0.150000X0.625000X-0.150000X0.625000X0*%
%ADD25RoundRect,0.250000X-0.350000X-0.650000X0.350000X-0.650000X0.350000X0.650000X-0.350000X0.650000X0*%
G04 APERTURE END LIST*
D10*
%TO.C,D15*%
X124460000Y-135890000D03*
D11*
X127000000Y-135890000D03*
%TD*%
D10*
%TO.C,D13*%
X104140000Y-135890000D03*
D11*
X106680000Y-135890000D03*
%TD*%
D12*
%TO.C,C2*%
X95000000Y-140550000D03*
X95000000Y-142450000D03*
%TD*%
D13*
%TO.C,Cap_pad9*%
X64596007Y-126919492D03*
%TD*%
D10*
%TO.C,D24*%
X134620000Y-165100000D03*
D11*
X137160000Y-165100000D03*
%TD*%
D10*
%TO.C,D3*%
X83820000Y-106680000D03*
D11*
X86360000Y-106680000D03*
%TD*%
D12*
%TO.C,C1*%
X95500000Y-112000000D03*
X95500000Y-113900000D03*
%TD*%
D14*
%TO.C,J1*%
X39500000Y-101880000D03*
D15*
X42040000Y-101880000D03*
X39500000Y-104420000D03*
X42040000Y-104420000D03*
X39500000Y-106960000D03*
X42040000Y-106960000D03*
X39500000Y-109500000D03*
X42040000Y-109500000D03*
X39500000Y-112040000D03*
X42040000Y-112040000D03*
X39500000Y-114580000D03*
X42040000Y-114580000D03*
X39500000Y-117120000D03*
X42040000Y-117120000D03*
X39500000Y-119660000D03*
X42040000Y-119660000D03*
X39500000Y-122200000D03*
X42040000Y-122200000D03*
X39500000Y-124740000D03*
X42040000Y-124740000D03*
X39500000Y-127280000D03*
X42040000Y-127280000D03*
X39500000Y-129820000D03*
X42040000Y-129820000D03*
X39500000Y-132360000D03*
X42040000Y-132360000D03*
%TD*%
D10*
%TO.C,D8*%
X134620000Y-106680000D03*
D11*
X137160000Y-106680000D03*
%TD*%
D16*
%TO.C,U1*%
X98331699Y-113040371D03*
X98331699Y-113540371D03*
X98331699Y-114040371D03*
X98331699Y-114540371D03*
X98331699Y-115040371D03*
X98331699Y-115540371D03*
D17*
X99056699Y-116265371D03*
X99556699Y-116265371D03*
X100056699Y-116265371D03*
X100556699Y-116265371D03*
X101056699Y-116265371D03*
X101556699Y-116265371D03*
D16*
X102281699Y-115540371D03*
X102281699Y-115040371D03*
X102281699Y-114540371D03*
X102281699Y-114040371D03*
X102281699Y-113540371D03*
X102281699Y-113040371D03*
D17*
X101556699Y-112315371D03*
X101056699Y-112315371D03*
X100556699Y-112315371D03*
X100056699Y-112315371D03*
X99556699Y-112315371D03*
X99056699Y-112315371D03*
D18*
X100306699Y-114290371D03*
%TD*%
D19*
%TO.C,R12*%
X70762500Y-165100000D03*
X68937500Y-165100000D03*
%TD*%
%TO.C,R23*%
X121562500Y-106680000D03*
X119737500Y-106680000D03*
%TD*%
%TO.C,R24*%
X111402500Y-106680000D03*
X109577500Y-106680000D03*
%TD*%
D10*
%TO.C,D11*%
X83820000Y-135890000D03*
D11*
X86360000Y-135890000D03*
%TD*%
D19*
%TO.C,R7*%
X121562500Y-165100000D03*
X119737500Y-165100000D03*
%TD*%
D10*
%TO.C,D16*%
X134620000Y-135890000D03*
D11*
X137160000Y-135890000D03*
%TD*%
D20*
%TO.C,STEMMA_2*%
X111000000Y-35850000D03*
X109000000Y-35850000D03*
X107000000Y-35850000D03*
X105000000Y-35850000D03*
D21*
X113350000Y-30100000D03*
X102650000Y-30100000D03*
%TD*%
D13*
%TO.C,Cap_pad20*%
X95076007Y-156095790D03*
%TD*%
D14*
%TO.C,BREAKOUT_GARDEN_1*%
X50746260Y-30432550D03*
D15*
X53286260Y-30432550D03*
X55826260Y-30432550D03*
X58366260Y-30432550D03*
X60906260Y-30432550D03*
%TD*%
D22*
%TO.C,R33*%
X88502840Y-176485623D03*
X78342840Y-176485623D03*
%TD*%
D23*
%TO.C,J2*%
X41910000Y-87630000D03*
D15*
X39370000Y-87630000D03*
X41910000Y-85090000D03*
X39370000Y-85090000D03*
X41910000Y-82550000D03*
X39370000Y-82550000D03*
X41910000Y-80010000D03*
X39370000Y-80010000D03*
X41910000Y-77470000D03*
X39370000Y-77470000D03*
X41910000Y-74930000D03*
X39370000Y-74930000D03*
X41910000Y-72390000D03*
X39370000Y-72390000D03*
X41910000Y-69850000D03*
X39370000Y-69850000D03*
X41910000Y-67310000D03*
X39370000Y-67310000D03*
X41910000Y-64770000D03*
X39370000Y-64770000D03*
X41910000Y-62230000D03*
X39370000Y-62230000D03*
X41910000Y-59690000D03*
X39370000Y-59690000D03*
X41910000Y-57150000D03*
X39370000Y-57150000D03*
X41910000Y-54610000D03*
X39370000Y-54610000D03*
X41910000Y-52070000D03*
X39370000Y-52070000D03*
X41910000Y-49530000D03*
X39370000Y-49530000D03*
X41910000Y-46990000D03*
X39370000Y-46990000D03*
X41910000Y-44450000D03*
X39370000Y-44450000D03*
X41910000Y-41910000D03*
X39370000Y-41910000D03*
X41910000Y-39370000D03*
X39370000Y-39370000D03*
%TD*%
D13*
%TO.C,Cap_pad4*%
X95143410Y-97719121D03*
%TD*%
D10*
%TO.C,D4*%
X93980000Y-106680000D03*
D11*
X96520000Y-106680000D03*
%TD*%
D13*
%TO.C,Cap_pad5*%
X105303410Y-97719121D03*
%TD*%
D20*
%TO.C,STEMMA_1*%
X95500000Y-35850000D03*
X93500000Y-35850000D03*
X91500000Y-35850000D03*
X89500000Y-35850000D03*
D21*
X97850000Y-30100000D03*
X87150000Y-30100000D03*
%TD*%
D19*
%TO.C,R11*%
X80922500Y-165100000D03*
X79097500Y-165100000D03*
%TD*%
D22*
%TO.C,R34*%
X87630000Y-118110000D03*
X77470000Y-118110000D03*
%TD*%
D19*
%TO.C,R9*%
X101242500Y-165100000D03*
X99417500Y-165100000D03*
%TD*%
D10*
%TO.C,D19*%
X83820000Y-165100000D03*
D11*
X86360000Y-165100000D03*
%TD*%
D13*
%TO.C,Cap_pad23*%
X125556007Y-156095790D03*
%TD*%
D10*
%TO.C,D14*%
X114300000Y-135890000D03*
D11*
X116840000Y-135890000D03*
%TD*%
D10*
%TO.C,D18*%
X73660000Y-165100000D03*
D11*
X76200000Y-165100000D03*
%TD*%
D19*
%TO.C,R27*%
X80922500Y-106680000D03*
X79097500Y-106680000D03*
%TD*%
%TO.C,R26*%
X91082500Y-106680000D03*
X89257500Y-106680000D03*
%TD*%
D22*
%TO.C,R5*%
X116605064Y-52050725D03*
X116605064Y-41890725D03*
%TD*%
D24*
%TO.C,Qwiic_2*%
X129500000Y-31825000D03*
X130500000Y-31825000D03*
X131500000Y-31825000D03*
X132500000Y-31825000D03*
D25*
X128200000Y-29300000D03*
X133800000Y-29300000D03*
%TD*%
D22*
%TO.C,R6*%
X121920000Y-52050725D03*
X121920000Y-41890725D03*
%TD*%
%TO.C,R32*%
X87630000Y-147320000D03*
X77470000Y-147320000D03*
%TD*%
%TO.C,R2*%
X95985669Y-70825935D03*
X95985669Y-80985935D03*
%TD*%
D10*
%TO.C,D6*%
X114300000Y-106680000D03*
D11*
X116840000Y-106680000D03*
%TD*%
D13*
%TO.C,Cap_pad6*%
X115463410Y-97719121D03*
%TD*%
D22*
%TO.C,R31*%
X51500000Y-81000000D03*
X51500000Y-91160000D03*
%TD*%
D19*
%TO.C,R20*%
X70762500Y-135890000D03*
X68937500Y-135890000D03*
%TD*%
D10*
%TO.C,D7*%
X124460000Y-106680000D03*
D11*
X127000000Y-106680000D03*
%TD*%
D10*
%TO.C,D21*%
X104140000Y-165100000D03*
D11*
X106680000Y-165100000D03*
%TD*%
D22*
%TO.C,R4*%
X78500000Y-52080000D03*
X78500000Y-41920000D03*
%TD*%
%TO.C,R35*%
X87630000Y-143510000D03*
X77470000Y-143510000D03*
%TD*%
D19*
%TO.C,R30*%
X131722500Y-165100000D03*
X129897500Y-165100000D03*
%TD*%
D22*
%TO.C,R3*%
X74000000Y-52080000D03*
X74000000Y-41920000D03*
%TD*%
%TO.C,R36*%
X88502840Y-172675623D03*
X78342840Y-172675623D03*
%TD*%
D10*
%TO.C,D17*%
X63500000Y-165100000D03*
D11*
X66040000Y-165100000D03*
%TD*%
D19*
%TO.C,R28*%
X70762500Y-106680000D03*
X68937500Y-106680000D03*
%TD*%
D13*
%TO.C,Cap_pad21*%
X105236007Y-156095790D03*
%TD*%
%TO.C,Cap_pad18*%
X74756007Y-156095790D03*
%TD*%
D22*
%TO.C,R1*%
X101500000Y-70840000D03*
X101500000Y-81000000D03*
%TD*%
D13*
%TO.C,Cap_pad12*%
X95076007Y-126919492D03*
%TD*%
D10*
%TO.C,D5*%
X104140000Y-106680000D03*
D11*
X106680000Y-106680000D03*
%TD*%
D19*
%TO.C,R16*%
X111402500Y-135890000D03*
X109577500Y-135890000D03*
%TD*%
D14*
%TO.C,U4*%
X130810000Y-78740000D03*
D15*
X130810000Y-76200000D03*
X130810000Y-73660000D03*
X130810000Y-71120000D03*
X130810000Y-68580000D03*
X130810000Y-66040000D03*
X130810000Y-63500000D03*
X130810000Y-60960000D03*
X130810000Y-58420000D03*
X130810000Y-55880000D03*
X130810000Y-53340000D03*
X130810000Y-50800000D03*
X130810000Y-48260000D03*
X130810000Y-45720000D03*
%TD*%
D10*
%TO.C,D23*%
X124460000Y-165100000D03*
D11*
X127000000Y-165100000D03*
%TD*%
D13*
%TO.C,Cap_pad13*%
X105236007Y-126919492D03*
%TD*%
D12*
%TO.C,C3*%
X95080161Y-169968744D03*
X95080161Y-171868744D03*
%TD*%
D16*
%TO.C,U2*%
X98331699Y-142223983D03*
X98331699Y-142723983D03*
X98331699Y-143223983D03*
X98331699Y-143723983D03*
X98331699Y-144223983D03*
X98331699Y-144723983D03*
D17*
X99056699Y-145448983D03*
X99556699Y-145448983D03*
X100056699Y-145448983D03*
X100556699Y-145448983D03*
X101056699Y-145448983D03*
X101556699Y-145448983D03*
D16*
X102281699Y-144723983D03*
X102281699Y-144223983D03*
X102281699Y-143723983D03*
X102281699Y-143223983D03*
X102281699Y-142723983D03*
X102281699Y-142223983D03*
D17*
X101556699Y-141498983D03*
X101056699Y-141498983D03*
X100556699Y-141498983D03*
X100056699Y-141498983D03*
X99556699Y-141498983D03*
X99056699Y-141498983D03*
D18*
X100306699Y-143473983D03*
%TD*%
D10*
%TO.C,D10*%
X73660000Y-135890000D03*
D11*
X76200000Y-135890000D03*
%TD*%
D13*
%TO.C,Cap_pad15*%
X125556007Y-126919492D03*
%TD*%
D19*
%TO.C,R10*%
X91082500Y-165100000D03*
X89257500Y-165100000D03*
%TD*%
D13*
%TO.C,Cap_pad8*%
X135783410Y-97719121D03*
%TD*%
D10*
%TO.C,D9*%
X63500000Y-135890000D03*
D11*
X66040000Y-135890000D03*
%TD*%
D19*
%TO.C,R19*%
X80922500Y-135890000D03*
X79097500Y-135890000D03*
%TD*%
D13*
%TO.C,Cap_pad2*%
X74823410Y-97719121D03*
%TD*%
D14*
%TO.C,BREAKOUT_GARDEN_2*%
X69796260Y-30432550D03*
D15*
X72336260Y-30432550D03*
X74876260Y-30432550D03*
X77416260Y-30432550D03*
X79956260Y-30432550D03*
%TD*%
D10*
%TO.C,D22*%
X114300000Y-165100000D03*
D11*
X116840000Y-165100000D03*
%TD*%
D13*
%TO.C,Cap_pad24*%
X135716007Y-156095790D03*
%TD*%
%TO.C,Cap_pad11*%
X84916007Y-126919492D03*
%TD*%
%TO.C,Cap_pad16*%
X135716007Y-126919492D03*
%TD*%
D19*
%TO.C,R8*%
X111402500Y-165100000D03*
X109577500Y-165100000D03*
%TD*%
D13*
%TO.C,Cap_pad7*%
X125623410Y-97719121D03*
%TD*%
D10*
%TO.C,D1*%
X63500000Y-106680000D03*
D11*
X66040000Y-106680000D03*
%TD*%
D13*
%TO.C,Cap_pad1*%
X64663410Y-97719121D03*
%TD*%
D19*
%TO.C,R14*%
X131722500Y-135890000D03*
X129897500Y-135890000D03*
%TD*%
D13*
%TO.C,Cap_pad19*%
X84916007Y-156095790D03*
%TD*%
D24*
%TO.C,Qwiic_1*%
X120500000Y-31825000D03*
X121500000Y-31825000D03*
X122500000Y-31825000D03*
X123500000Y-31825000D03*
D25*
X119200000Y-29300000D03*
X124800000Y-29300000D03*
%TD*%
D19*
%TO.C,R18*%
X91082500Y-135890000D03*
X89257500Y-135890000D03*
%TD*%
%TO.C,R13*%
X60602500Y-165100000D03*
X58777500Y-165100000D03*
%TD*%
%TO.C,R29*%
X60602500Y-106680000D03*
X58777500Y-106680000D03*
%TD*%
%TO.C,R15*%
X121562500Y-135890000D03*
X119737500Y-135890000D03*
%TD*%
D13*
%TO.C,Cap_pad3*%
X84983410Y-97719121D03*
%TD*%
D10*
%TO.C,D20*%
X93980000Y-165100000D03*
D11*
X96520000Y-165100000D03*
%TD*%
D13*
%TO.C,Cap_pad14*%
X115396007Y-126919492D03*
%TD*%
%TO.C,Cap_pad10*%
X74756007Y-126919492D03*
%TD*%
D10*
%TO.C,D12*%
X93980000Y-135890000D03*
D11*
X96520000Y-135890000D03*
%TD*%
D19*
%TO.C,R25*%
X101242500Y-106680000D03*
X99417500Y-106680000D03*
%TD*%
%TO.C,R21*%
X60602500Y-135890000D03*
X58777500Y-135890000D03*
%TD*%
D10*
%TO.C,D2*%
X73660000Y-106680000D03*
D11*
X76200000Y-106680000D03*
%TD*%
D19*
%TO.C,R22*%
X131722500Y-106680000D03*
X129897500Y-106680000D03*
%TD*%
%TO.C,R17*%
X101242500Y-135890000D03*
X99417500Y-135890000D03*
%TD*%
D16*
%TO.C,U3*%
X98331699Y-171463825D03*
X98331699Y-171963825D03*
X98331699Y-172463825D03*
X98331699Y-172963825D03*
X98331699Y-173463825D03*
X98331699Y-173963825D03*
D17*
X99056699Y-174688825D03*
X99556699Y-174688825D03*
X100056699Y-174688825D03*
X100556699Y-174688825D03*
X101056699Y-174688825D03*
X101556699Y-174688825D03*
D16*
X102281699Y-173963825D03*
X102281699Y-173463825D03*
X102281699Y-172963825D03*
X102281699Y-172463825D03*
X102281699Y-171963825D03*
X102281699Y-171463825D03*
D17*
X101556699Y-170738825D03*
X101056699Y-170738825D03*
X100556699Y-170738825D03*
X100056699Y-170738825D03*
X99556699Y-170738825D03*
X99056699Y-170738825D03*
D18*
X100306699Y-172713825D03*
%TD*%
D13*
%TO.C,Cap_pad17*%
X64596007Y-156095790D03*
%TD*%
%TO.C,Cap_pad22*%
X115396007Y-156095790D03*
%TD*%
M02*
