M48
; DRILL file {KiCad 9.0.5} date 2026-04-25T14:08:49-0500
; FORMAT={-:-/ absolute / inch / decimal}
; #@! TF.CreationDate,2026-04-25T14:08:49-05:00
; #@! TF.GenerationSoftware,Kicad,Pcbnew,9.0.5
; #@! TF.FileFunction,Plated,1,2,PTH
FMAT,2
INCH
; #@! TA.AperFunction,Plated,PTH,ViaDrill
T1C0.0157
; #@! TA.AperFunction,Plated,PTH,ComponentDrill
T2C0.0197
; #@! TA.AperFunction,Plated,PTH,ComponentDrill
T3C0.0394
; #@! TA.AperFunction,Plated,PTH,ComponentDrill
T4C0.0984
%
G90
G05
T1
X6.95Y-3.7
X6.96Y-3.84
X6.998Y-3.698
X6.998Y-4.298
T2
X5.5357Y-2.6181
X5.5363Y-5.3199
X5.5573Y-2.5659
X5.5573Y-2.6703
X5.5579Y-5.2677
X5.5579Y-5.3721
X5.6095Y-2.5443
X5.6095Y-2.6919
X5.6101Y-5.2461
X5.6101Y-5.3937
X5.6617Y-2.5659
X5.6617Y-2.6703
X5.6623Y-5.2677
X5.6623Y-5.3721
X5.6833Y-2.6181
X5.6839Y-5.3199
X7.8396Y-5.3199
X7.8464Y-2.6033
X7.8612Y-5.2677
X7.8612Y-5.3721
X7.868Y-2.5511
X7.868Y-2.6555
X7.9134Y-5.2461
X7.9134Y-5.3937
X7.9202Y-2.5295
X7.9202Y-2.6772
X7.9656Y-5.2677
X7.9656Y-5.3721
X7.9724Y-2.5511
X7.9724Y-2.6555
X7.9872Y-5.3199
X7.9941Y-2.6033
T3
X5.6246Y-3.0378
X5.6246Y-3.1378
X5.6246Y-3.2378
X5.6246Y-3.3378
X5.6246Y-3.4378
X5.6246Y-3.5378
X5.6246Y-3.6378
X5.6246Y-3.7378
X5.6246Y-3.8378
X5.6246Y-3.9378
X5.6246Y-4.0378
X5.6246Y-4.1378
X5.6246Y-4.2378
X5.6246Y-4.3378
X5.6246Y-4.4378
X5.6246Y-4.5378
X5.6246Y-4.6378
X5.6246Y-4.7378
X5.6246Y-4.8378
X5.6246Y-4.9378
X5.7246Y-3.0378
X5.7246Y-3.1378
X5.7246Y-3.2378
X5.7246Y-3.3378
X5.7246Y-3.4378
X5.7246Y-3.5378
X5.7246Y-3.6378
X5.7246Y-3.7378
X5.7246Y-3.8378
X5.7246Y-3.9378
X5.7246Y-4.0378
X5.7246Y-4.1378
X5.7246Y-4.2378
X5.7246Y-4.3378
X5.7246Y-4.4378
X5.7246Y-4.5378
X5.7246Y-4.6378
X5.7246Y-4.7378
X5.7246Y-4.8378
X5.7246Y-4.9378
X6.1524Y-3.0399
X6.1524Y-3.1399
X6.1524Y-3.2399
X6.1524Y-3.3399
X6.1524Y-3.4399
X6.1524Y-3.5399
X6.1524Y-3.6399
X6.1524Y-3.7399
X6.1524Y-3.8399
X6.1524Y-3.9399
X6.1524Y-4.0399
X6.1524Y-4.1399
X6.1524Y-4.2399
X6.1524Y-4.3399
X6.1524Y-4.4399
X6.1524Y-4.5399
X6.1524Y-4.6399
X6.1524Y-4.7399
X6.1524Y-4.8399
X6.1524Y-4.9399
X6.2524Y-3.0399
X6.2524Y-3.1399
X6.2524Y-3.2399
X6.2524Y-3.3399
X6.2524Y-3.4399
X6.2524Y-3.5399
X6.2524Y-3.6399
X6.2524Y-3.7399
X6.2524Y-3.8399
X6.2524Y-3.9399
X6.2524Y-4.0399
X6.2524Y-4.1399
X6.2524Y-4.2399
X6.2524Y-4.3399
X6.2524Y-4.4399
X6.2524Y-4.5399
X6.2524Y-4.6399
X6.2524Y-4.7399
X6.2524Y-4.8399
X6.2524Y-4.9399
X7.7745Y-3.7435
X7.7745Y-3.8435
X7.7745Y-3.9435
X7.7745Y-4.0435
X7.7745Y-4.1435
X7.7745Y-4.2435
X7.7745Y-4.3435
X7.7745Y-4.4435
X7.8745Y-3.7435
X7.8745Y-3.8435
X7.8745Y-3.9435
X7.8745Y-4.0435
X7.8745Y-4.1435
X7.8745Y-4.2435
X7.8745Y-4.3435
X7.8745Y-4.4435
T4
X5.6095Y-2.6181
X5.6101Y-5.3199
X7.9134Y-5.3199
X7.9202Y-2.6033
M30
