M48
; DRILL file {KiCad 9.0.5} date 2025-12-13T23:56:34-0600
; FORMAT={-:-/ absolute / inch / decimal}
; #@! TF.CreationDate,2025-12-13T23:56:34-06:00
; #@! TF.GenerationSoftware,Kicad,Pcbnew,9.0.5
; #@! TF.FileFunction,Plated,1,2,PTH
FMAT,2
INCH
; #@! TA.AperFunction,Plated,PTH,ViaDrill
T1C0.0157
; #@! TA.AperFunction,Plated,PTH,ComponentDrill
T2C0.0394
%
G90
G05
T1
X5.95Y-4.4
X6.95Y-3.7
X6.96Y-3.84
X6.998Y-3.698
X6.998Y-4.298
T2
X6.1296Y-3.05
X6.1296Y-3.15
X6.1296Y-3.25
X6.1296Y-3.35
X6.1296Y-3.45
X6.1296Y-3.55
X6.1296Y-3.65
X6.1296Y-3.75
X6.1296Y-3.85
X6.1296Y-3.95
X6.1296Y-4.05
X6.1296Y-4.15
X6.1296Y-4.25
X6.1296Y-4.35
X6.1296Y-4.45
X6.1296Y-4.55
X6.1296Y-4.65
X6.1296Y-4.75
X6.1296Y-4.85
X6.1296Y-4.95
X6.2296Y-3.05
X6.2296Y-3.15
X6.2296Y-3.25
X6.2296Y-3.35
X6.2296Y-3.45
X6.2296Y-3.55
X6.2296Y-3.65
X6.2296Y-3.75
X6.2296Y-3.85
X6.2296Y-3.95
X6.2296Y-4.05
X6.2296Y-4.15
X6.2296Y-4.25
X6.2296Y-4.35
X6.2296Y-4.45
X6.2296Y-4.55
X6.2296Y-4.65
X6.2296Y-4.75
X6.2296Y-4.85
X6.2296Y-4.95
X6.64Y-4.98
X6.64Y-5.08
X6.74Y-4.98
X6.74Y-5.08
X6.84Y-4.98
X6.84Y-5.08
X6.94Y-4.98
X6.94Y-5.08
X7.04Y-4.98
X7.04Y-5.08
X7.14Y-4.98
X7.14Y-5.08
X7.24Y-4.98
X7.24Y-5.08
X7.34Y-4.98
X7.34Y-5.08
X7.44Y-4.98
X7.44Y-5.08
X7.54Y-4.98
X7.54Y-5.08
X7.64Y-4.98
X7.64Y-5.08
X7.7Y-3.7
X7.7Y-3.8
X7.7Y-3.9
X7.7Y-4.0
X7.7Y-4.1
X7.7Y-4.2
X7.7Y-4.3
X7.7Y-4.4
X7.74Y-4.98
X7.74Y-5.08
X7.8Y-3.7
X7.8Y-3.8
X7.8Y-3.9
X7.8Y-4.0
X7.8Y-4.1
X7.8Y-4.2
X7.8Y-4.3
X7.8Y-4.4
X7.84Y-4.98
X7.84Y-5.08
M30
