%TF.GenerationSoftware,KiCad,Pcbnew,9.0.5*%
%TF.CreationDate,2025-12-13T23:56:32-06:00*%
%TF.ProjectId,CPE495-LED-Driver-Board,43504534-3935-42d4-9c45-442d44726976,v0.2*%
%TF.SameCoordinates,Original*%
%TF.FileFunction,Copper,L2,Bot*%
%TF.FilePolarity,Positive*%
%FSLAX46Y46*%
G04 Gerber Fmt 4.6, Leading zero omitted, Abs format (unit mm)*
G04 Created by KiCad (PCBNEW 9.0.5) date 2025-12-13 23:56:32*
%MOMM*%
%LPD*%
G01*
G04 APERTURE LIST*
G04 Aperture macros list*
%AMRoundRect*
0 Rectangle with rounded corners*
0 $1 Rounding radius*
0 $2 $3 $4 $5 $6 $7 $8 $9 X,Y pos of 4 corners*
0 Add a 4 corners polygon primitive as box body*
4,1,4,$2,$3,$4,$5,$6,$7,$8,$9,$2,$3,0*
0 Add four circle primitives for the rounded corners*
1,1,$1+$1,$2,$3*
1,1,$1+$1,$4,$5*
1,1,$1+$1,$6,$7*
1,1,$1+$1,$8,$9*
0 Add four rect primitives between the rounded corners*
20,1,$1+$1,$2,$3,$4,$5,0*
20,1,$1+$1,$4,$5,$6,$7,0*
20,1,$1+$1,$6,$7,$8,$9,0*
20,1,$1+$1,$8,$9,$2,$3,0*%
G04 Aperture macros list end*
%TA.AperFunction,ComponentPad*%
%ADD10R,1.700000X1.700000*%
%TD*%
%TA.AperFunction,ComponentPad*%
%ADD11O,1.700000X1.700000*%
%TD*%
%TA.AperFunction,ComponentPad*%
%ADD12RoundRect,0.250000X0.600000X0.600000X-0.600000X0.600000X-0.600000X-0.600000X0.600000X-0.600000X0*%
%TD*%
%TA.AperFunction,ComponentPad*%
%ADD13C,1.700000*%
%TD*%
%TA.AperFunction,ComponentPad*%
%ADD14RoundRect,0.250000X-0.600000X-0.600000X0.600000X-0.600000X0.600000X0.600000X-0.600000X0.600000X0*%
%TD*%
%TA.AperFunction,ViaPad*%
%ADD15C,0.800000*%
%TD*%
%TA.AperFunction,Conductor*%
%ADD16C,0.250000*%
%TD*%
G04 APERTURE END LIST*
D10*
%TO.P,J3,1,Pin_1*%
%TO.N,+3.3V*%
X199136000Y-126492000D03*
D11*
%TO.P,J3,2,Pin_2*%
%TO.N,GND*%
X199136000Y-129032000D03*
%TO.P,J3,3,Pin_3*%
%TO.N,+5V*%
X196596000Y-126492000D03*
%TO.P,J3,4,Pin_4*%
%TO.N,GPIO28 (AH22) (AA6)*%
X196596000Y-129032000D03*
%TO.P,J3,5,Pin_5*%
%TO.N,GPIO27 (AE24) (Y6)*%
X194056000Y-126492000D03*
%TO.P,J3,6,Pin_6*%
%TO.N,GPIO26 (AG22) (AA7)*%
X194056000Y-129032000D03*
%TO.P,J3,7,Pin_7*%
%TO.N,GPIO25 (AE25) (Y7)*%
X191516000Y-126492000D03*
%TO.P,J3,8,Pin_8*%
%TO.N,GPIO24 (AH25) (AA8)*%
X191516000Y-129032000D03*
%TO.P,J3,9,Pin_9*%
%TO.N,GPIO23 (AD25) (Y8)*%
X188976000Y-126492000D03*
%TO.P,J3,10,Pin_10*%
%TO.N,GPIO22 (AG25) (AA9)*%
X188976000Y-129032000D03*
%TO.P,J3,11,Pin_11*%
%TO.N,GPIO21 (AD22) (AA10)*%
X186436000Y-126492000D03*
%TO.P,J3,12,Pin_12*%
%TO.N,GPIO20 (AF22) (AB10)*%
X186436000Y-129032000D03*
%TO.P,J3,13,Pin_13*%
%TO.N,GPIO19 (AF21) (W11)*%
X183896000Y-126492000D03*
%TO.P,J3,14,Pin_14*%
%TO.N,GPIO18 (AE22) (AB11)*%
X183896000Y-129032000D03*
%TO.P,J3,15,Pin_15*%
%TO.N,GPIO17 (AC22) (Y11)*%
X181356000Y-126492000D03*
%TO.P,J3,16,Pin_16*%
%TO.N,GPIO16 (AF25) (AB12)*%
X181356000Y-129032000D03*
%TO.P,J3,17,Pin_17*%
%TO.N,GPIO15 (AE21) (AB13)*%
X178816000Y-126492000D03*
%TO.P,J3,18,Pin_18*%
%TO.N,GPIO14 (AF24) (W12)*%
X178816000Y-129032000D03*
%TO.P,J3,19,Pin_19*%
%TO.N,GPIO13 (AF15) (W13)*%
X176276000Y-126492000D03*
%TO.P,J3,20,Pin_20*%
%TO.N,GPIO12 (AD19) (AA14)*%
X176276000Y-129032000D03*
%TO.P,J3,21,Pin_21*%
%TO.N,GPIO11 (AF16) (AA15)*%
X173736000Y-126492000D03*
%TO.P,J3,22,Pin_22*%
%TO.N,GPIO10 (AC19) (W5)*%
X173736000Y-129032000D03*
%TO.P,J3,23,Pin_23*%
%TO.N,GPIO9 (AE15) (V5)*%
X171196000Y-126492000D03*
%TO.P,J3,24,Pin_24*%
%TO.N,GPIO8 (AD15) (W6)*%
X171196000Y-129032000D03*
%TO.P,J3,25,Pin_25*%
%TO.N,GPIO7 (AE16) (W7)*%
X168656000Y-126492000D03*
%TO.P,J3,26,Pin_26*%
%TO.N,GPIO6 (AD21) (V7)*%
X168656000Y-129032000D03*
%TD*%
D12*
%TO.P,J1,1,Pin_1*%
%TO.N,GPIO0 (AB22) (V10)*%
X158232500Y-125730000D03*
D13*
%TO.P,J1,2,Pin_2*%
%TO.N,GPIO1 (AC15) (W10)*%
X155692500Y-125730000D03*
%TO.P,J1,3,Pin_3*%
%TO.N,GPIO2 (AB21) (V9)*%
X158232500Y-123190000D03*
%TO.P,J1,4,Pin_4*%
%TO.N,GPIO3 (Y17) (W9)*%
X155692500Y-123190000D03*
%TO.P,J1,5,Pin_5*%
%TO.N,GPIO4 (AC21) (V8)*%
X158232500Y-120650000D03*
%TO.P,J1,6,Pin_6*%
%TO.N,GPIO5 (Y16) (W8)*%
X155692500Y-120650000D03*
%TO.P,J1,7,Pin_7*%
%TO.N,GPIO6 (AD21) (V7)*%
X158232500Y-118110000D03*
%TO.P,J1,8,Pin_8*%
%TO.N,GPIO7 (AE16) (W7)*%
X155692500Y-118110000D03*
%TO.P,J1,9,Pin_9*%
%TO.N,GPIO8 (AD15) (W6)*%
X158232500Y-115570000D03*
%TO.P,J1,10,Pin_10*%
%TO.N,GPIO9 (AE15) (V5)*%
X155692500Y-115570000D03*
%TO.P,J1,11,Pin_11*%
%TO.N,+5V*%
X158232500Y-113030000D03*
%TO.P,J1,12,Pin_12*%
%TO.N,GND*%
X155692500Y-113030000D03*
%TO.P,J1,13,Pin_13*%
%TO.N,GPIO10 (AC19) (W5)*%
X158232500Y-110490000D03*
%TO.P,J1,14,Pin_14*%
%TO.N,GPIO11 (AF16) (AA15)*%
X155692500Y-110490000D03*
%TO.P,J1,15,Pin_15*%
%TO.N,GPIO12 (AD19) (AA14)*%
X158232500Y-107950000D03*
%TO.P,J1,16,Pin_16*%
%TO.N,GPIO13 (AF15) (W13)*%
X155692500Y-107950000D03*
%TO.P,J1,17,Pin_17*%
%TO.N,GPIO14 (AF24) (W12)*%
X158232500Y-105410000D03*
%TO.P,J1,18,Pin_18*%
%TO.N,GPIO15 (AE21) (AB13)*%
X155692500Y-105410000D03*
%TO.P,J1,19,Pin_19*%
%TO.N,GPIO16 (AF25) (AB12)*%
X158232500Y-102870000D03*
%TO.P,J1,20,Pin_20*%
%TO.N,GPIO17 (AC22) (Y11)*%
X155692500Y-102870000D03*
%TO.P,J1,21,Pin_21*%
%TO.N,GPIO18 (AE22) (AB11)*%
X158232500Y-100330000D03*
%TO.P,J1,22,Pin_22*%
%TO.N,GPIO19 (AF21) (W11)*%
X155692500Y-100330000D03*
%TO.P,J1,23,Pin_23*%
%TO.N,GPIO20 (AF22) (AB10)*%
X158232500Y-97790000D03*
%TO.P,J1,24,Pin_24*%
%TO.N,GPIO21 (AD22) (AA10)*%
X155692500Y-97790000D03*
%TO.P,J1,25,Pin_25*%
%TO.N,GPIO22 (AG25) (AA9)*%
X158232500Y-95250000D03*
%TO.P,J1,26,Pin_26*%
%TO.N,GPIO23 (AD25) (Y8)*%
X155692500Y-95250000D03*
%TO.P,J1,27,Pin_27*%
%TO.N,GPIO24 (AH25) (AA8)*%
X158232500Y-92710000D03*
%TO.P,J1,28,Pin_28*%
%TO.N,GPIO25 (AE25) (Y7)*%
X155692500Y-92710000D03*
%TO.P,J1,29,Pin_29*%
%TO.N,+3.3V*%
X158232500Y-90170000D03*
%TO.P,J1,30,Pin_30*%
%TO.N,GND*%
X155692500Y-90170000D03*
%TO.P,J1,31,Pin_31*%
%TO.N,GPIO26 (AG22) (AA7)*%
X158232500Y-87630000D03*
%TO.P,J1,32,Pin_32*%
%TO.N,GPIO27 (AE24) (Y6)*%
X155692500Y-87630000D03*
%TO.P,J1,33,Pin_33*%
%TO.N,GPIO28 (AH22) (AA6)*%
X158232500Y-85090000D03*
%TO.P,J1,34,Pin_34*%
%TO.N,GPIO29 (AF26) (Y5)*%
X155692500Y-85090000D03*
%TO.P,J1,35,Pin_35*%
%TO.N,GPIO30 (AE20) (AA5)*%
X158232500Y-82550000D03*
%TO.P,J1,36,Pin_36*%
%TO.N,GPIO31 (AG23) (Y4)*%
X155692500Y-82550000D03*
%TO.P,J1,37,Pin_37*%
%TO.N,GPIO32 (AF20) (AB3)*%
X158232500Y-80010000D03*
%TO.P,J1,38,Pin_38*%
%TO.N,GPIO33 (AH26) (Y3)*%
X155692500Y-80010000D03*
%TO.P,J1,39,Pin_39*%
%TO.N,GPIO34 (AH23) (AB2)*%
X158232500Y-77470000D03*
%TO.P,J1,40,Pin_40*%
%TO.N,GPIO35 (AG26) (AA2)*%
X155692500Y-77470000D03*
%TD*%
D14*
%TO.P,J2,1,Pin_1*%
%TO.N,R1*%
X195580000Y-93980000D03*
D13*
%TO.P,J2,2,Pin_2*%
%TO.N,G1*%
X198120000Y-93980000D03*
%TO.P,J2,3,Pin_3*%
%TO.N,B1*%
X195580000Y-96520000D03*
%TO.P,J2,4,Pin_4*%
%TO.N,GND*%
X198120000Y-96520000D03*
%TO.P,J2,5,Pin_5*%
%TO.N,R2*%
X195580000Y-99060000D03*
%TO.P,J2,6,Pin_6*%
%TO.N,G2*%
X198120000Y-99060000D03*
%TO.P,J2,7,Pin_7*%
%TO.N,B2*%
X195580000Y-101600000D03*
%TO.P,J2,8,Pin_8*%
%TO.N,GND*%
X198120000Y-101600000D03*
%TO.P,J2,9,Pin_9*%
%TO.N,A*%
X195580000Y-104140000D03*
%TO.P,J2,10,Pin_10*%
%TO.N,B*%
X198120000Y-104140000D03*
%TO.P,J2,11,Pin_11*%
%TO.N,C*%
X195580000Y-106680000D03*
%TO.P,J2,12,Pin_12*%
%TO.N,D*%
X198120000Y-106680000D03*
%TO.P,J2,13,Pin_13*%
%TO.N,CLK*%
X195580000Y-109220000D03*
%TO.P,J2,14,Pin_14*%
%TO.N,LATCH*%
X198120000Y-109220000D03*
%TO.P,J2,15,Pin_15*%
%TO.N,OE*%
X195580000Y-111760000D03*
%TO.P,J2,16,Pin_16*%
%TO.N,GND*%
X198120000Y-111760000D03*
%TD*%
D15*
%TO.N,GND*%
X177749479Y-109169479D03*
X177749479Y-93929479D03*
X151130000Y-111760000D03*
%TO.N,+5V*%
X176530000Y-93980000D03*
X176784000Y-97536000D03*
%TD*%
D16*
%TO.N,+5V*%
X196274081Y-124968000D02*
X196274081Y-117026081D01*
X196596000Y-125289919D02*
X196274081Y-124968000D01*
X196596000Y-126492000D02*
X196596000Y-125289919D01*
X176784000Y-97536000D02*
X176784000Y-94234000D01*
X196274081Y-117026081D02*
X176784000Y-97536000D01*
X176784000Y-94234000D02*
X176530000Y-93980000D01*
%TO.N,GPIO13 (AF15) (W13)*%
X158909201Y-106775000D02*
X156867500Y-106775000D01*
X176276000Y-126492000D02*
X176276000Y-124141799D01*
X156867500Y-106775000D02*
X155692500Y-107950000D01*
X176276000Y-124141799D02*
X158909201Y-106775000D01*
%TO.N,GPIO14 (AF24) (W12)*%
X178816000Y-129032000D02*
X177451000Y-127667000D01*
X177451000Y-124628500D02*
X158232500Y-105410000D01*
X177451000Y-127667000D02*
X177451000Y-124628500D01*
%TO.N,GPIO15 (AE21) (AB13)*%
X178816000Y-124331799D02*
X158624201Y-104140000D01*
X158624201Y-104140000D02*
X156962500Y-104140000D01*
X156962500Y-104140000D02*
X155692500Y-105410000D01*
X178816000Y-126492000D02*
X178816000Y-124331799D01*
%TO.N,GPIO16 (AF25) (AB12)*%
X181356000Y-129032000D02*
X179991000Y-127667000D01*
X179991000Y-127667000D02*
X179991000Y-124628500D01*
X179991000Y-124628500D02*
X158232500Y-102870000D01*
%TO.N,GPIO17 (AC22) (Y11)*%
X181356000Y-124331799D02*
X158719201Y-101695000D01*
X156867500Y-101695000D02*
X155692500Y-102870000D01*
X158719201Y-101695000D02*
X156867500Y-101695000D01*
X181356000Y-126492000D02*
X181356000Y-124331799D01*
%TO.N,GPIO18 (AE22) (AB11)*%
X183896000Y-129032000D02*
X182531000Y-127667000D01*
X182531000Y-124628500D02*
X158232500Y-100330000D01*
X182531000Y-127667000D02*
X182531000Y-124628500D01*
%TO.N,GPIO19 (AF21) (W11)*%
X158624201Y-99060000D02*
X156962500Y-99060000D01*
X183896000Y-124331799D02*
X158624201Y-99060000D01*
X156962500Y-99060000D02*
X155692500Y-100330000D01*
X183896000Y-126492000D02*
X183896000Y-124331799D01*
%TO.N,GPIO20 (AF22) (AB10)*%
X186436000Y-129032000D02*
X185261000Y-127857000D01*
X185261000Y-124818500D02*
X158232500Y-97790000D01*
X185261000Y-127857000D02*
X185261000Y-124818500D01*
%TO.N,GPIO21 (AD22) (AA10)*%
X186436000Y-124331799D02*
X158624201Y-96520000D01*
X158624201Y-96520000D02*
X156962500Y-96520000D01*
X186436000Y-126492000D02*
X186436000Y-124331799D01*
X156962500Y-96520000D02*
X155692500Y-97790000D01*
%TO.N,GPIO22 (AG25) (AA9)*%
X187611000Y-124628500D02*
X158232500Y-95250000D01*
X187611000Y-127667000D02*
X187611000Y-124628500D01*
X188976000Y-129032000D02*
X187611000Y-127667000D01*
%TO.N,GPIO23 (AD25) (Y8)*%
X156962500Y-93980000D02*
X155692500Y-95250000D01*
X188976000Y-124331799D02*
X158624201Y-93980000D01*
X188976000Y-126492000D02*
X188976000Y-124331799D01*
X158624201Y-93980000D02*
X156962500Y-93980000D01*
%TO.N,GPIO24 (AH25) (AA8)*%
X190151000Y-127667000D02*
X190151000Y-124628500D01*
X191516000Y-129032000D02*
X190151000Y-127667000D01*
X190151000Y-124628500D02*
X158232500Y-92710000D01*
%TO.N,GPIO25 (AE25) (Y7)*%
X158719201Y-91535000D02*
X156867500Y-91535000D01*
X191516000Y-126492000D02*
X191516000Y-124331799D01*
X156867500Y-91535000D02*
X155692500Y-92710000D01*
X191516000Y-124331799D02*
X158719201Y-91535000D01*
%TO.N,+3.3V*%
X155607000Y-130207000D02*
X152400000Y-127000000D01*
X152400000Y-94340799D02*
X155205799Y-91535000D01*
X156231104Y-91535000D02*
X157596104Y-90170000D01*
X197771000Y-127857000D02*
X197771000Y-129518701D01*
X157596104Y-90170000D02*
X158232500Y-90170000D01*
X155205799Y-91535000D02*
X156231104Y-91535000D01*
X197082701Y-130207000D02*
X155607000Y-130207000D01*
X199136000Y-126492000D02*
X197771000Y-127857000D01*
X197771000Y-129518701D02*
X197082701Y-130207000D01*
X152400000Y-127000000D02*
X152400000Y-94340799D01*
%TO.N,GPIO26 (AG22) (AA7)*%
X194056000Y-129032000D02*
X192881000Y-127857000D01*
X192881000Y-127857000D02*
X192881000Y-122278500D01*
X192881000Y-122278500D02*
X158232500Y-87630000D01*
%TO.N,GPIO27 (AE24) (Y6)*%
X194056000Y-121791799D02*
X158719201Y-86455000D01*
X158719201Y-86455000D02*
X156867500Y-86455000D01*
X194056000Y-126492000D02*
X194056000Y-121791799D01*
X156867500Y-86455000D02*
X155692500Y-87630000D01*
%TO.N,GPIO28 (AH22) (AA6)*%
X195421000Y-122278500D02*
X158232500Y-85090000D01*
X195421000Y-127857000D02*
X195421000Y-122278500D01*
X196596000Y-129032000D02*
X195421000Y-127857000D01*
%TO.N,GPIO12 (AD19) (AA14)*%
X176276000Y-129032000D02*
X174911000Y-127667000D01*
X174911000Y-124628500D02*
X158232500Y-107950000D01*
X174911000Y-127667000D02*
X174911000Y-124628500D01*
%TO.N,GPIO11 (AF16) (AA15)*%
X173736000Y-124331799D02*
X158624201Y-109220000D01*
X158624201Y-109220000D02*
X156962500Y-109220000D01*
X173736000Y-126492000D02*
X173736000Y-124331799D01*
X156962500Y-109220000D02*
X155692500Y-110490000D01*
%TO.N,GPIO10 (AC19) (W5)*%
X172371000Y-124628500D02*
X158232500Y-110490000D01*
X172371000Y-127667000D02*
X172371000Y-124628500D01*
X173736000Y-129032000D02*
X172371000Y-127667000D01*
%TO.N,GPIO9 (AE15) (V5)*%
X159099000Y-114395000D02*
X156867500Y-114395000D01*
X171196000Y-126492000D02*
X159099000Y-114395000D01*
X156867500Y-114395000D02*
X155692500Y-115570000D01*
%TO.N,GPIO8 (AD15) (W6)*%
X159395701Y-115570000D02*
X158232500Y-115570000D01*
X170021000Y-127857000D02*
X170021000Y-126195299D01*
X170021000Y-126195299D02*
X159395701Y-115570000D01*
X171196000Y-129032000D02*
X170021000Y-127857000D01*
%TO.N,GPIO7 (AE16) (W7)*%
X156867500Y-116935000D02*
X155692500Y-118110000D01*
X159099000Y-116935000D02*
X156867500Y-116935000D01*
X168656000Y-126492000D02*
X159099000Y-116935000D01*
%TO.N,GPIO6 (AD21) (V7)*%
X168656000Y-129032000D02*
X158232500Y-118608500D01*
X158232500Y-118608500D02*
X158232500Y-118110000D01*
%TD*%
%TA.AperFunction,Conductor*%
%TO.N,GND*%
G36*
X157369084Y-91880502D02*
G01*
X157415577Y-91934158D01*
X157425681Y-92004432D01*
X157405728Y-92056499D01*
X157328589Y-92171949D01*
X157301559Y-92212402D01*
X157222372Y-92403574D01*
X157222370Y-92403579D01*
X157182000Y-92606532D01*
X157182000Y-92813467D01*
X157213111Y-92969870D01*
X157222370Y-93016420D01*
X157301559Y-93207598D01*
X157416523Y-93379655D01*
X157416524Y-93379656D01*
X157416529Y-93379662D01*
X157476272Y-93439405D01*
X157510298Y-93501717D01*
X157505233Y-93572532D01*
X157462686Y-93629368D01*
X157396166Y-93654179D01*
X157387177Y-93654500D01*
X157005353Y-93654500D01*
X156919647Y-93654500D01*
X156836861Y-93676682D01*
X156836859Y-93676683D01*
X156836856Y-93676684D01*
X156762641Y-93719532D01*
X156762635Y-93719537D01*
X156230548Y-94251623D01*
X156168236Y-94285648D01*
X156097420Y-94280583D01*
X156093235Y-94278936D01*
X155998926Y-94239872D01*
X155998920Y-94239870D01*
X155795967Y-94199500D01*
X155795965Y-94199500D01*
X155589035Y-94199500D01*
X155589032Y-94199500D01*
X155386079Y-94239870D01*
X155386074Y-94239872D01*
X155194902Y-94319059D01*
X155022843Y-94434024D01*
X155022837Y-94434029D01*
X154876529Y-94580337D01*
X154876524Y-94580343D01*
X154761559Y-94752402D01*
X154682372Y-94943574D01*
X154682370Y-94943579D01*
X154642000Y-95146532D01*
X154642000Y-95353467D01*
X154673111Y-95509870D01*
X154682370Y-95556420D01*
X154761559Y-95747598D01*
X154830207Y-95850337D01*
X154876524Y-95919656D01*
X154876529Y-95919662D01*
X155022837Y-96065970D01*
X155022843Y-96065975D01*
X155022845Y-96065977D01*
X155194902Y-96180941D01*
X155386080Y-96260130D01*
X155589035Y-96300500D01*
X155589036Y-96300500D01*
X155795964Y-96300500D01*
X155795965Y-96300500D01*
X155998920Y-96260130D01*
X156190098Y-96180941D01*
X156362155Y-96065977D01*
X156508477Y-95919655D01*
X156623441Y-95747598D01*
X156702630Y-95556420D01*
X156743000Y-95353465D01*
X156743000Y-95146535D01*
X156702630Y-94943580D01*
X156702627Y-94943572D01*
X156663563Y-94849264D01*
X156655973Y-94778675D01*
X156687751Y-94715187D01*
X156690844Y-94711981D01*
X157060423Y-94342404D01*
X157087797Y-94327456D01*
X157114020Y-94310604D01*
X157120318Y-94309698D01*
X157122735Y-94308379D01*
X157149518Y-94305500D01*
X157387177Y-94305500D01*
X157455298Y-94325502D01*
X157501791Y-94379158D01*
X157511895Y-94449432D01*
X157482401Y-94514012D01*
X157476272Y-94520595D01*
X157416529Y-94580337D01*
X157416524Y-94580343D01*
X157301559Y-94752402D01*
X157222372Y-94943574D01*
X157222370Y-94943579D01*
X157182000Y-95146532D01*
X157182000Y-95353467D01*
X157213111Y-95509870D01*
X157222370Y-95556420D01*
X157301559Y-95747598D01*
X157370207Y-95850337D01*
X157416524Y-95919656D01*
X157416529Y-95919662D01*
X157476272Y-95979405D01*
X157510298Y-96041717D01*
X157505233Y-96112532D01*
X157462686Y-96169368D01*
X157396166Y-96194179D01*
X157387177Y-96194500D01*
X157005353Y-96194500D01*
X156919647Y-96194500D01*
X156836861Y-96216682D01*
X156836859Y-96216683D01*
X156836856Y-96216684D01*
X156762641Y-96259532D01*
X156762635Y-96259537D01*
X156230548Y-96791623D01*
X156168236Y-96825648D01*
X156097420Y-96820583D01*
X156093235Y-96818936D01*
X155998926Y-96779872D01*
X155998920Y-96779870D01*
X155795967Y-96739500D01*
X155795965Y-96739500D01*
X155589035Y-96739500D01*
X155589032Y-96739500D01*
X155386079Y-96779870D01*
X155386074Y-96779872D01*
X155194902Y-96859059D01*
X155022843Y-96974024D01*
X155022837Y-96974029D01*
X154876529Y-97120337D01*
X154876524Y-97120343D01*
X154761559Y-97292402D01*
X154682372Y-97483574D01*
X154682370Y-97483579D01*
X154642000Y-97686532D01*
X154642000Y-97893467D01*
X154666476Y-98016514D01*
X154682370Y-98096420D01*
X154761559Y-98287598D01*
X154830207Y-98390337D01*
X154876524Y-98459656D01*
X154876529Y-98459662D01*
X155022837Y-98605970D01*
X155022843Y-98605975D01*
X155022845Y-98605977D01*
X155194902Y-98720941D01*
X155386080Y-98800130D01*
X155589035Y-98840500D01*
X155589036Y-98840500D01*
X155795964Y-98840500D01*
X155795965Y-98840500D01*
X155998920Y-98800130D01*
X156190098Y-98720941D01*
X156362155Y-98605977D01*
X156508477Y-98459655D01*
X156623441Y-98287598D01*
X156702630Y-98096420D01*
X156743000Y-97893465D01*
X156743000Y-97686535D01*
X156702630Y-97483580D01*
X156691597Y-97456944D01*
X156663563Y-97389264D01*
X156655973Y-97318675D01*
X156687751Y-97255187D01*
X156690844Y-97251981D01*
X157060423Y-96882404D01*
X157087797Y-96867456D01*
X157114020Y-96850604D01*
X157120318Y-96849698D01*
X157122735Y-96848379D01*
X157149518Y-96845500D01*
X157387177Y-96845500D01*
X157455298Y-96865502D01*
X157501791Y-96919158D01*
X157511895Y-96989432D01*
X157482401Y-97054012D01*
X157476272Y-97060595D01*
X157416529Y-97120337D01*
X157416524Y-97120343D01*
X157301559Y-97292402D01*
X157222372Y-97483574D01*
X157222370Y-97483579D01*
X157182000Y-97686532D01*
X157182000Y-97893467D01*
X157206476Y-98016514D01*
X157222370Y-98096420D01*
X157301559Y-98287598D01*
X157370207Y-98390337D01*
X157416524Y-98459656D01*
X157416529Y-98459662D01*
X157476272Y-98519405D01*
X157510298Y-98581717D01*
X157505233Y-98652532D01*
X157462686Y-98709368D01*
X157396166Y-98734179D01*
X157387177Y-98734500D01*
X157005353Y-98734500D01*
X156919647Y-98734500D01*
X156836861Y-98756682D01*
X156836859Y-98756683D01*
X156836856Y-98756684D01*
X156762641Y-98799532D01*
X156762635Y-98799537D01*
X156230548Y-99331623D01*
X156168236Y-99365648D01*
X156097420Y-99360583D01*
X156093235Y-99358936D01*
X155998926Y-99319872D01*
X155998920Y-99319870D01*
X155795967Y-99279500D01*
X155795965Y-99279500D01*
X155589035Y-99279500D01*
X155589032Y-99279500D01*
X155386079Y-99319870D01*
X155386074Y-99319872D01*
X155194902Y-99399059D01*
X155022843Y-99514024D01*
X155022837Y-99514029D01*
X154876529Y-99660337D01*
X154876524Y-99660343D01*
X154761559Y-99832402D01*
X154682372Y-100023574D01*
X154682370Y-100023579D01*
X154642000Y-100226532D01*
X154642000Y-100433467D01*
X154673111Y-100589870D01*
X154682370Y-100636420D01*
X154761559Y-100827598D01*
X154830207Y-100930337D01*
X154876524Y-100999656D01*
X154876529Y-100999662D01*
X155022837Y-101145970D01*
X155022843Y-101145975D01*
X155022845Y-101145977D01*
X155194902Y-101260941D01*
X155386080Y-101340130D01*
X155589035Y-101380500D01*
X155589036Y-101380500D01*
X155795964Y-101380500D01*
X155795965Y-101380500D01*
X155998920Y-101340130D01*
X156190098Y-101260941D01*
X156362155Y-101145977D01*
X156508477Y-100999655D01*
X156623441Y-100827598D01*
X156702630Y-100636420D01*
X156743000Y-100433465D01*
X156743000Y-100226535D01*
X156702630Y-100023580D01*
X156702627Y-100023572D01*
X156663563Y-99929264D01*
X156655973Y-99858675D01*
X156687751Y-99795187D01*
X156690844Y-99791981D01*
X157060423Y-99422404D01*
X157087797Y-99407456D01*
X157114020Y-99390604D01*
X157120318Y-99389698D01*
X157122735Y-99388379D01*
X157149518Y-99385500D01*
X157387177Y-99385500D01*
X157455298Y-99405502D01*
X157501791Y-99459158D01*
X157511895Y-99529432D01*
X157482401Y-99594012D01*
X157476272Y-99600595D01*
X157416529Y-99660337D01*
X157416524Y-99660343D01*
X157301559Y-99832402D01*
X157222372Y-100023574D01*
X157222370Y-100023579D01*
X157182000Y-100226532D01*
X157182000Y-100433467D01*
X157213111Y-100589870D01*
X157222370Y-100636420D01*
X157301559Y-100827598D01*
X157370207Y-100930337D01*
X157416524Y-100999656D01*
X157416529Y-100999662D01*
X157562835Y-101145968D01*
X157562840Y-101145972D01*
X157562845Y-101145977D01*
X157562850Y-101145980D01*
X157562986Y-101146092D01*
X157563043Y-101146176D01*
X157567222Y-101150355D01*
X157566430Y-101151146D01*
X157602961Y-101204765D01*
X157604870Y-101275736D01*
X157568105Y-101336472D01*
X157504340Y-101367690D01*
X157483063Y-101369500D01*
X156910353Y-101369500D01*
X156824647Y-101369500D01*
X156741861Y-101391682D01*
X156741859Y-101391683D01*
X156741856Y-101391684D01*
X156667641Y-101434532D01*
X156667635Y-101434537D01*
X156230548Y-101871623D01*
X156168236Y-101905648D01*
X156097420Y-101900583D01*
X156093235Y-101898936D01*
X155998926Y-101859872D01*
X155998920Y-101859870D01*
X155795967Y-101819500D01*
X155795965Y-101819500D01*
X155589035Y-101819500D01*
X155589032Y-101819500D01*
X155386079Y-101859870D01*
X155386074Y-101859872D01*
X155194902Y-101939059D01*
X155022843Y-102054024D01*
X155022837Y-102054029D01*
X154876529Y-102200337D01*
X154876524Y-102200343D01*
X154761559Y-102372402D01*
X154682372Y-102563574D01*
X154682370Y-102563579D01*
X154642000Y-102766532D01*
X154642000Y-102973467D01*
X154667781Y-103103074D01*
X154682370Y-103176420D01*
X154761559Y-103367598D01*
X154830207Y-103470337D01*
X154876524Y-103539656D01*
X154876529Y-103539662D01*
X155022837Y-103685970D01*
X155022843Y-103685975D01*
X155022845Y-103685977D01*
X155194902Y-103800941D01*
X155386080Y-103880130D01*
X155589035Y-103920500D01*
X155589036Y-103920500D01*
X155795964Y-103920500D01*
X155795965Y-103920500D01*
X155998920Y-103880130D01*
X156190098Y-103800941D01*
X156362155Y-103685977D01*
X156508477Y-103539655D01*
X156623441Y-103367598D01*
X156702630Y-103176420D01*
X156743000Y-102973465D01*
X156743000Y-102766535D01*
X156702630Y-102563580D01*
X156702627Y-102563572D01*
X156663563Y-102469264D01*
X156655973Y-102398675D01*
X156687751Y-102335187D01*
X156690843Y-102331982D01*
X156965423Y-102057404D01*
X156992797Y-102042456D01*
X157019020Y-102025604D01*
X157025318Y-102024698D01*
X157027735Y-102023379D01*
X157054518Y-102020500D01*
X157300963Y-102020500D01*
X157369084Y-102040502D01*
X157415577Y-102094158D01*
X157425681Y-102164432D01*
X157405728Y-102216499D01*
X157342085Y-102311750D01*
X157301559Y-102372402D01*
X157222372Y-102563574D01*
X157222370Y-102563579D01*
X157182000Y-102766532D01*
X157182000Y-102973467D01*
X157207781Y-103103074D01*
X157222370Y-103176420D01*
X157301559Y-103367598D01*
X157370207Y-103470337D01*
X157416524Y-103539656D01*
X157416529Y-103539662D01*
X157476272Y-103599405D01*
X157510298Y-103661717D01*
X157505233Y-103732532D01*
X157462686Y-103789368D01*
X157396166Y-103814179D01*
X157387177Y-103814500D01*
X157005353Y-103814500D01*
X156919647Y-103814500D01*
X156836861Y-103836682D01*
X156836859Y-103836683D01*
X156836856Y-103836684D01*
X156762641Y-103879532D01*
X156762635Y-103879537D01*
X156230548Y-104411623D01*
X156168236Y-104445648D01*
X156097420Y-104440583D01*
X156093235Y-104438936D01*
X155998926Y-104399872D01*
X155998920Y-104399870D01*
X155795967Y-104359500D01*
X155795965Y-104359500D01*
X155589035Y-104359500D01*
X155589032Y-104359500D01*
X155386079Y-104399870D01*
X155386074Y-104399872D01*
X155194902Y-104479059D01*
X155022843Y-104594024D01*
X155022837Y-104594029D01*
X154876529Y-104740337D01*
X154876524Y-104740343D01*
X154761559Y-104912402D01*
X154682372Y-105103574D01*
X154682370Y-105103579D01*
X154642000Y-105306532D01*
X154642000Y-105513467D01*
X154673111Y-105669870D01*
X154682370Y-105716420D01*
X154761559Y-105907598D01*
X154830207Y-106010337D01*
X154876524Y-106079656D01*
X154876529Y-106079662D01*
X155022837Y-106225970D01*
X155022843Y-106225975D01*
X155022845Y-106225977D01*
X155194902Y-106340941D01*
X155386080Y-106420130D01*
X155589035Y-106460500D01*
X155589036Y-106460500D01*
X155795964Y-106460500D01*
X155795965Y-106460500D01*
X155998920Y-106420130D01*
X156190098Y-106340941D01*
X156362155Y-106225977D01*
X156508477Y-106079655D01*
X156623441Y-105907598D01*
X156702630Y-105716420D01*
X156743000Y-105513465D01*
X156743000Y-105306535D01*
X156702630Y-105103580D01*
X156702627Y-105103572D01*
X156663563Y-105009264D01*
X156655973Y-104938675D01*
X156687751Y-104875187D01*
X156690844Y-104871981D01*
X157060423Y-104502404D01*
X157087797Y-104487456D01*
X157114020Y-104470604D01*
X157120318Y-104469698D01*
X157122735Y-104468379D01*
X157149518Y-104465500D01*
X157387177Y-104465500D01*
X157455298Y-104485502D01*
X157501791Y-104539158D01*
X157511895Y-104609432D01*
X157482401Y-104674012D01*
X157476272Y-104680595D01*
X157416529Y-104740337D01*
X157416524Y-104740343D01*
X157301559Y-104912402D01*
X157222372Y-105103574D01*
X157222370Y-105103579D01*
X157182000Y-105306532D01*
X157182000Y-105513467D01*
X157213111Y-105669870D01*
X157222370Y-105716420D01*
X157301559Y-105907598D01*
X157370207Y-106010337D01*
X157416524Y-106079656D01*
X157416529Y-106079662D01*
X157562835Y-106225968D01*
X157562840Y-106225972D01*
X157562845Y-106225977D01*
X157562850Y-106225980D01*
X157562986Y-106226092D01*
X157563043Y-106226176D01*
X157567222Y-106230355D01*
X157566430Y-106231146D01*
X157602961Y-106284765D01*
X157604870Y-106355736D01*
X157568105Y-106416472D01*
X157504340Y-106447690D01*
X157483063Y-106449500D01*
X156910353Y-106449500D01*
X156824647Y-106449500D01*
X156741861Y-106471682D01*
X156741859Y-106471683D01*
X156741856Y-106471684D01*
X156667641Y-106514532D01*
X156667635Y-106514537D01*
X156230548Y-106951623D01*
X156168236Y-106985648D01*
X156097420Y-106980583D01*
X156093235Y-106978936D01*
X155998926Y-106939872D01*
X155998920Y-106939870D01*
X155795967Y-106899500D01*
X155795965Y-106899500D01*
X155589035Y-106899500D01*
X155589032Y-106899500D01*
X155386079Y-106939870D01*
X155386074Y-106939872D01*
X155194902Y-107019059D01*
X155022843Y-107134024D01*
X155022837Y-107134029D01*
X154876529Y-107280337D01*
X154876524Y-107280343D01*
X154761559Y-107452402D01*
X154682372Y-107643574D01*
X154682370Y-107643579D01*
X154642000Y-107846532D01*
X154642000Y-108053467D01*
X154673111Y-108209870D01*
X154682370Y-108256420D01*
X154761559Y-108447598D01*
X154830207Y-108550337D01*
X154876524Y-108619656D01*
X154876529Y-108619662D01*
X155022837Y-108765970D01*
X155022843Y-108765975D01*
X155022845Y-108765977D01*
X155194902Y-108880941D01*
X155386080Y-108960130D01*
X155589035Y-109000500D01*
X155589036Y-109000500D01*
X155795964Y-109000500D01*
X155795965Y-109000500D01*
X155998920Y-108960130D01*
X156190098Y-108880941D01*
X156362155Y-108765977D01*
X156508477Y-108619655D01*
X156623441Y-108447598D01*
X156702630Y-108256420D01*
X156743000Y-108053465D01*
X156743000Y-107846535D01*
X156702630Y-107643580D01*
X156702627Y-107643572D01*
X156663563Y-107549264D01*
X156655973Y-107478675D01*
X156687751Y-107415187D01*
X156690843Y-107411982D01*
X156965423Y-107137404D01*
X156992797Y-107122456D01*
X157019020Y-107105604D01*
X157025318Y-107104698D01*
X157027735Y-107103379D01*
X157054518Y-107100500D01*
X157300963Y-107100500D01*
X157369084Y-107120502D01*
X157415577Y-107174158D01*
X157425681Y-107244432D01*
X157405728Y-107296499D01*
X157328589Y-107411949D01*
X157301559Y-107452402D01*
X157222372Y-107643574D01*
X157222370Y-107643579D01*
X157182000Y-107846532D01*
X157182000Y-108053467D01*
X157213111Y-108209870D01*
X157222370Y-108256420D01*
X157301559Y-108447598D01*
X157370207Y-108550337D01*
X157416524Y-108619656D01*
X157416529Y-108619662D01*
X157476272Y-108679405D01*
X157510298Y-108741717D01*
X157505233Y-108812532D01*
X157462686Y-108869368D01*
X157396166Y-108894179D01*
X157387177Y-108894500D01*
X157005353Y-108894500D01*
X156919647Y-108894500D01*
X156836861Y-108916682D01*
X156836859Y-108916683D01*
X156836856Y-108916684D01*
X156762641Y-108959532D01*
X156762635Y-108959537D01*
X156230548Y-109491623D01*
X156168236Y-109525648D01*
X156097420Y-109520583D01*
X156093235Y-109518936D01*
X155998926Y-109479872D01*
X155998920Y-109479870D01*
X155795967Y-109439500D01*
X155795965Y-109439500D01*
X155589035Y-109439500D01*
X155589032Y-109439500D01*
X155386079Y-109479870D01*
X155386074Y-109479872D01*
X155194902Y-109559059D01*
X155022843Y-109674024D01*
X155022837Y-109674029D01*
X154876529Y-109820337D01*
X154876524Y-109820343D01*
X154761559Y-109992402D01*
X154682372Y-110183574D01*
X154682370Y-110183579D01*
X154642000Y-110386532D01*
X154642000Y-110593467D01*
X154673111Y-110749870D01*
X154682370Y-110796420D01*
X154761559Y-110987598D01*
X154830207Y-111090337D01*
X154876524Y-111159656D01*
X154876529Y-111159662D01*
X155022837Y-111305970D01*
X155022843Y-111305975D01*
X155022845Y-111305977D01*
X155194902Y-111420941D01*
X155343219Y-111482376D01*
X155398500Y-111526924D01*
X155420921Y-111594288D01*
X155403363Y-111663079D01*
X155351401Y-111711457D01*
X155333938Y-111718618D01*
X155171210Y-111771492D01*
X155171207Y-111771493D01*
X154980753Y-111868534D01*
X154928331Y-111906621D01*
X154928331Y-111906622D01*
X155567551Y-112545842D01*
X155499507Y-112564075D01*
X155385493Y-112629901D01*
X155292401Y-112722993D01*
X155226575Y-112837007D01*
X155208342Y-112905051D01*
X154569122Y-112265831D01*
X154569121Y-112265831D01*
X154531034Y-112318253D01*
X154433993Y-112508707D01*
X154433990Y-112508713D01*
X154367940Y-112711996D01*
X154334500Y-112923126D01*
X154334500Y-113136873D01*
X154367940Y-113348003D01*
X154433990Y-113551286D01*
X154433993Y-113551292D01*
X154531035Y-113741748D01*
X154531036Y-113741750D01*
X154569120Y-113794167D01*
X154569121Y-113794168D01*
X155208341Y-113154947D01*
X155226575Y-113222993D01*
X155292401Y-113337007D01*
X155385493Y-113430099D01*
X155499507Y-113495925D01*
X155567550Y-113514157D01*
X154928330Y-114153377D01*
X154928331Y-114153378D01*
X154980749Y-114191463D01*
X154980751Y-114191464D01*
X155171207Y-114288506D01*
X155171213Y-114288509D01*
X155333937Y-114341381D01*
X155392543Y-114381454D01*
X155420180Y-114446851D01*
X155408073Y-114516808D01*
X155360067Y-114569114D01*
X155343220Y-114577623D01*
X155194900Y-114639060D01*
X155022843Y-114754024D01*
X155022837Y-114754029D01*
X154876529Y-114900337D01*
X154876524Y-114900343D01*
X154761559Y-115072402D01*
X154682372Y-115263574D01*
X154682370Y-115263579D01*
X154642000Y-115466532D01*
X154642000Y-115466535D01*
X154642000Y-115673465D01*
X154682370Y-115876420D01*
X154761559Y-116067598D01*
X154761560Y-116067599D01*
X154876524Y-116239656D01*
X154876529Y-116239662D01*
X155022837Y-116385970D01*
X155022843Y-116385975D01*
X155022845Y-116385977D01*
X155194902Y-116500941D01*
X155386080Y-116580130D01*
X155589035Y-116620500D01*
X155589036Y-116620500D01*
X155795964Y-116620500D01*
X155795965Y-116620500D01*
X155998920Y-116580130D01*
X156190098Y-116500941D01*
X156362155Y-116385977D01*
X156508477Y-116239655D01*
X156623441Y-116067598D01*
X156702630Y-115876420D01*
X156743000Y-115673465D01*
X156743000Y-115466535D01*
X156702630Y-115263580D01*
X156702627Y-115263572D01*
X156663563Y-115169264D01*
X156655973Y-115098675D01*
X156687751Y-115035187D01*
X156690843Y-115031982D01*
X156965423Y-114757404D01*
X156992797Y-114742456D01*
X157019020Y-114725604D01*
X157025318Y-114724698D01*
X157027735Y-114723379D01*
X157054518Y-114720500D01*
X157300963Y-114720500D01*
X157369084Y-114740502D01*
X157415577Y-114794158D01*
X157425681Y-114864432D01*
X157405728Y-114916499D01*
X157328589Y-115031949D01*
X157301559Y-115072402D01*
X157222372Y-115263574D01*
X157222370Y-115263579D01*
X157182000Y-115466532D01*
X157182000Y-115466535D01*
X157182000Y-115673465D01*
X157222370Y-115876420D01*
X157301559Y-116067598D01*
X157301560Y-116067599D01*
X157416524Y-116239656D01*
X157416529Y-116239662D01*
X157562835Y-116385968D01*
X157562840Y-116385972D01*
X157562845Y-116385977D01*
X157562850Y-116385980D01*
X157562986Y-116386092D01*
X157563043Y-116386176D01*
X157567222Y-116390355D01*
X157566430Y-116391146D01*
X157602961Y-116444765D01*
X157604870Y-116515736D01*
X157568105Y-116576472D01*
X157504340Y-116607690D01*
X157483063Y-116609500D01*
X156910353Y-116609500D01*
X156824647Y-116609500D01*
X156741861Y-116631682D01*
X156741859Y-116631683D01*
X156741856Y-116631684D01*
X156667641Y-116674532D01*
X156667635Y-116674537D01*
X156230548Y-117111623D01*
X156168236Y-117145648D01*
X156097420Y-117140583D01*
X156093235Y-117138936D01*
X155998926Y-117099872D01*
X155998920Y-117099870D01*
X155795967Y-117059500D01*
X155795965Y-117059500D01*
X155589035Y-117059500D01*
X155589032Y-117059500D01*
X155386079Y-117099870D01*
X155386074Y-117099872D01*
X155194902Y-117179059D01*
X155022843Y-117294024D01*
X155022837Y-117294029D01*
X154876529Y-117440337D01*
X154876524Y-117440343D01*
X154761559Y-117612402D01*
X154682372Y-117803574D01*
X154682370Y-117803579D01*
X154642000Y-118006532D01*
X154642000Y-118006535D01*
X154642000Y-118213465D01*
X154682370Y-118416420D01*
X154761559Y-118607598D01*
X154761562Y-118607602D01*
X154876524Y-118779656D01*
X154876529Y-118779662D01*
X155022837Y-118925970D01*
X155022843Y-118925975D01*
X155022845Y-118925977D01*
X155194902Y-119040941D01*
X155386080Y-119120130D01*
X155589035Y-119160500D01*
X155589036Y-119160500D01*
X155795964Y-119160500D01*
X155795965Y-119160500D01*
X155998920Y-119120130D01*
X156190098Y-119040941D01*
X156362155Y-118925977D01*
X156508477Y-118779655D01*
X156623441Y-118607598D01*
X156702630Y-118416420D01*
X156743000Y-118213465D01*
X156743000Y-118006535D01*
X156702630Y-117803580D01*
X156687460Y-117766957D01*
X156663563Y-117709264D01*
X156655973Y-117638675D01*
X156687751Y-117575187D01*
X156690843Y-117571982D01*
X156965423Y-117297404D01*
X156992797Y-117282456D01*
X157019020Y-117265604D01*
X157025318Y-117264698D01*
X157027735Y-117263379D01*
X157054518Y-117260500D01*
X157300963Y-117260500D01*
X157369084Y-117280502D01*
X157415577Y-117334158D01*
X157425681Y-117404432D01*
X157405728Y-117456499D01*
X157328589Y-117571949D01*
X157301559Y-117612402D01*
X157222372Y-117803574D01*
X157222370Y-117803579D01*
X157182000Y-118006532D01*
X157182000Y-118006535D01*
X157182000Y-118213465D01*
X157222370Y-118416420D01*
X157301559Y-118607598D01*
X157301562Y-118607602D01*
X157416524Y-118779656D01*
X157416529Y-118779662D01*
X157562837Y-118925970D01*
X157562843Y-118925975D01*
X157562845Y-118925977D01*
X157734902Y-119040941D01*
X157926080Y-119120130D01*
X158129035Y-119160500D01*
X158271983Y-119160500D01*
X158340104Y-119180502D01*
X158361078Y-119197405D01*
X158575542Y-119411869D01*
X158609568Y-119474181D01*
X158604503Y-119544996D01*
X158561956Y-119601832D01*
X158495436Y-119626643D01*
X158461865Y-119624543D01*
X158335968Y-119599500D01*
X158335965Y-119599500D01*
X158129035Y-119599500D01*
X158129032Y-119599500D01*
X157926079Y-119639870D01*
X157926074Y-119639872D01*
X157734902Y-119719059D01*
X157562843Y-119834024D01*
X157562837Y-119834029D01*
X157416529Y-119980337D01*
X157416524Y-119980343D01*
X157301559Y-120152402D01*
X157222372Y-120343574D01*
X157222370Y-120343579D01*
X157182000Y-120546532D01*
X157182000Y-120546535D01*
X157182000Y-120753465D01*
X157222370Y-120956420D01*
X157301559Y-121147598D01*
X157416523Y-121319655D01*
X157416524Y-121319656D01*
X157416529Y-121319662D01*
X157562837Y-121465970D01*
X157562843Y-121465975D01*
X157562845Y-121465977D01*
X157734902Y-121580941D01*
X157926080Y-121660130D01*
X158129035Y-121700500D01*
X158129036Y-121700500D01*
X158335964Y-121700500D01*
X158335965Y-121700500D01*
X158538920Y-121660130D01*
X158730098Y-121580941D01*
X158902155Y-121465977D01*
X159048477Y-121319655D01*
X159163441Y-121147598D01*
X159242630Y-120956420D01*
X159283000Y-120753465D01*
X159283000Y-120546535D01*
X159257956Y-120420630D01*
X159264284Y-120349920D01*
X159307838Y-120293853D01*
X159374790Y-120270233D01*
X159443884Y-120286559D01*
X159470630Y-120306957D01*
X167657623Y-128493950D01*
X167691649Y-128556262D01*
X167686584Y-128627077D01*
X167684937Y-128631263D01*
X167645872Y-128725574D01*
X167645870Y-128725579D01*
X167605500Y-128928532D01*
X167605500Y-128928535D01*
X167605500Y-129135465D01*
X167645870Y-129338420D01*
X167725059Y-129529598D01*
X167829228Y-129685499D01*
X167850443Y-129753251D01*
X167831660Y-129821718D01*
X167778843Y-129869161D01*
X167724463Y-129881500D01*
X155794017Y-129881500D01*
X155725896Y-129861498D01*
X155704922Y-129844595D01*
X152762405Y-126902078D01*
X152728379Y-126839766D01*
X152725500Y-126812983D01*
X152725500Y-125626532D01*
X154642000Y-125626532D01*
X154642000Y-125833467D01*
X154665966Y-125953950D01*
X154682370Y-126036420D01*
X154761559Y-126227598D01*
X154869091Y-126388532D01*
X154876524Y-126399656D01*
X154876529Y-126399662D01*
X155022837Y-126545970D01*
X155022843Y-126545975D01*
X155022845Y-126545977D01*
X155194902Y-126660941D01*
X155386080Y-126740130D01*
X155589035Y-126780500D01*
X155589036Y-126780500D01*
X155795964Y-126780500D01*
X155795965Y-126780500D01*
X155998920Y-126740130D01*
X156190098Y-126660941D01*
X156362155Y-126545977D01*
X156508477Y-126399655D01*
X156623441Y-126227598D01*
X156702630Y-126036420D01*
X156743000Y-125833465D01*
X156743000Y-125626535D01*
X156702630Y-125423580D01*
X156623441Y-125232402D01*
X156518759Y-125075733D01*
X157182000Y-125075733D01*
X157182000Y-126384266D01*
X157184854Y-126414700D01*
X157184855Y-126414704D01*
X157229706Y-126542881D01*
X157229708Y-126542885D01*
X157310349Y-126652150D01*
X157419614Y-126732791D01*
X157419618Y-126732793D01*
X157547801Y-126777646D01*
X157578234Y-126780500D01*
X157578236Y-126780500D01*
X158886764Y-126780500D01*
X158886766Y-126780500D01*
X158917199Y-126777646D01*
X159045382Y-126732793D01*
X159154650Y-126652150D01*
X159235293Y-126542882D01*
X159280146Y-126414699D01*
X159283000Y-126384266D01*
X159283000Y-125075734D01*
X159280146Y-125045301D01*
X159235293Y-124917118D01*
X159235291Y-124917114D01*
X159154650Y-124807849D01*
X159045385Y-124727208D01*
X159045381Y-124727206D01*
X158917204Y-124682355D01*
X158917200Y-124682354D01*
X158886766Y-124679500D01*
X157578234Y-124679500D01*
X157578233Y-124679500D01*
X157547799Y-124682354D01*
X157547795Y-124682355D01*
X157419618Y-124727206D01*
X157419614Y-124727208D01*
X157310349Y-124807849D01*
X157229708Y-124917114D01*
X157229706Y-124917118D01*
X157184855Y-125045295D01*
X157184854Y-125045299D01*
X157182000Y-125075733D01*
X156518759Y-125075733D01*
X156508477Y-125060345D01*
X156508474Y-125060342D01*
X156508470Y-125060337D01*
X156362162Y-124914029D01*
X156362156Y-124914024D01*
X156362155Y-124914023D01*
X156190098Y-124799059D01*
X155998920Y-124719870D01*
X155795967Y-124679500D01*
X155795965Y-124679500D01*
X155589035Y-124679500D01*
X155589032Y-124679500D01*
X155386079Y-124719870D01*
X155386074Y-124719872D01*
X155194902Y-124799059D01*
X155022843Y-124914024D01*
X155022837Y-124914029D01*
X154876529Y-125060337D01*
X154876524Y-125060343D01*
X154761559Y-125232402D01*
X154682372Y-125423574D01*
X154682370Y-125423579D01*
X154642000Y-125626532D01*
X152725500Y-125626532D01*
X152725500Y-123086532D01*
X154642000Y-123086532D01*
X154642000Y-123086535D01*
X154642000Y-123293465D01*
X154682370Y-123496420D01*
X154761559Y-123687598D01*
X154876523Y-123859655D01*
X154876524Y-123859656D01*
X154876529Y-123859662D01*
X155022837Y-124005970D01*
X155022843Y-124005975D01*
X155022845Y-124005977D01*
X155194902Y-124120941D01*
X155386080Y-124200130D01*
X155589035Y-124240500D01*
X155589036Y-124240500D01*
X155795964Y-124240500D01*
X155795965Y-124240500D01*
X155998920Y-124200130D01*
X156190098Y-124120941D01*
X156362155Y-124005977D01*
X156508477Y-123859655D01*
X156623441Y-123687598D01*
X156702630Y-123496420D01*
X156743000Y-123293465D01*
X156743000Y-123086535D01*
X156742999Y-123086532D01*
X157182000Y-123086532D01*
X157182000Y-123086535D01*
X157182000Y-123293465D01*
X157222370Y-123496420D01*
X157301559Y-123687598D01*
X157416523Y-123859655D01*
X157416524Y-123859656D01*
X157416529Y-123859662D01*
X157562837Y-124005970D01*
X157562843Y-124005975D01*
X157562845Y-124005977D01*
X157734902Y-124120941D01*
X157926080Y-124200130D01*
X158129035Y-124240500D01*
X158129036Y-124240500D01*
X158335964Y-124240500D01*
X158335965Y-124240500D01*
X158538920Y-124200130D01*
X158730098Y-124120941D01*
X158902155Y-124005977D01*
X159048477Y-123859655D01*
X159163441Y-123687598D01*
X159242630Y-123496420D01*
X159283000Y-123293465D01*
X159283000Y-123086535D01*
X159242630Y-122883580D01*
X159163441Y-122692402D01*
X159048477Y-122520345D01*
X159048475Y-122520343D01*
X159048470Y-122520337D01*
X158902162Y-122374029D01*
X158902156Y-122374024D01*
X158838538Y-122331516D01*
X158730098Y-122259059D01*
X158538920Y-122179870D01*
X158335967Y-122139500D01*
X158335965Y-122139500D01*
X158129035Y-122139500D01*
X158129032Y-122139500D01*
X157926079Y-122179870D01*
X157926074Y-122179872D01*
X157734902Y-122259059D01*
X157562843Y-122374024D01*
X157562837Y-122374029D01*
X157416529Y-122520337D01*
X157416524Y-122520343D01*
X157301559Y-122692402D01*
X157222372Y-122883574D01*
X157222370Y-122883579D01*
X157182000Y-123086532D01*
X156742999Y-123086532D01*
X156702630Y-122883580D01*
X156623441Y-122692402D01*
X156508477Y-122520345D01*
X156508475Y-122520343D01*
X156508470Y-122520337D01*
X156362162Y-122374029D01*
X156362156Y-122374024D01*
X156298538Y-122331516D01*
X156190098Y-122259059D01*
X155998920Y-122179870D01*
X155795967Y-122139500D01*
X155795965Y-122139500D01*
X155589035Y-122139500D01*
X155589032Y-122139500D01*
X155386079Y-122179870D01*
X155386074Y-122179872D01*
X155194902Y-122259059D01*
X155022843Y-122374024D01*
X155022837Y-122374029D01*
X154876529Y-122520337D01*
X154876524Y-122520343D01*
X154761559Y-122692402D01*
X154682372Y-122883574D01*
X154682370Y-122883579D01*
X154642000Y-123086532D01*
X152725500Y-123086532D01*
X152725500Y-120546532D01*
X154642000Y-120546532D01*
X154642000Y-120546535D01*
X154642000Y-120753465D01*
X154682370Y-120956420D01*
X154761559Y-121147598D01*
X154876523Y-121319655D01*
X154876524Y-121319656D01*
X154876529Y-121319662D01*
X155022837Y-121465970D01*
X155022843Y-121465975D01*
X155022845Y-121465977D01*
X155194902Y-121580941D01*
X155386080Y-121660130D01*
X155589035Y-121700500D01*
X155589036Y-121700500D01*
X155795964Y-121700500D01*
X155795965Y-121700500D01*
X155998920Y-121660130D01*
X156190098Y-121580941D01*
X156362155Y-121465977D01*
X156508477Y-121319655D01*
X156623441Y-121147598D01*
X156702630Y-120956420D01*
X156743000Y-120753465D01*
X156743000Y-120546535D01*
X156702630Y-120343580D01*
X156623441Y-120152402D01*
X156508477Y-119980345D01*
X156508475Y-119980343D01*
X156508470Y-119980337D01*
X156362162Y-119834029D01*
X156362156Y-119834024D01*
X156362155Y-119834023D01*
X156190098Y-119719059D01*
X155998920Y-119639870D01*
X155795967Y-119599500D01*
X155795965Y-119599500D01*
X155589035Y-119599500D01*
X155589032Y-119599500D01*
X155386079Y-119639870D01*
X155386074Y-119639872D01*
X155194902Y-119719059D01*
X155022843Y-119834024D01*
X155022837Y-119834029D01*
X154876529Y-119980337D01*
X154876524Y-119980343D01*
X154761559Y-120152402D01*
X154682372Y-120343574D01*
X154682370Y-120343579D01*
X154642000Y-120546532D01*
X152725500Y-120546532D01*
X152725500Y-94527815D01*
X152745502Y-94459694D01*
X152762400Y-94438725D01*
X154433118Y-92768006D01*
X154495428Y-92733983D01*
X154566243Y-92739047D01*
X154623079Y-92781594D01*
X154645790Y-92832521D01*
X154673111Y-92969870D01*
X154682370Y-93016420D01*
X154761559Y-93207598D01*
X154876523Y-93379655D01*
X154876524Y-93379656D01*
X154876529Y-93379662D01*
X155022837Y-93525970D01*
X155022843Y-93525975D01*
X155022845Y-93525977D01*
X155194902Y-93640941D01*
X155386080Y-93720130D01*
X155589035Y-93760500D01*
X155589036Y-93760500D01*
X155795964Y-93760500D01*
X155795965Y-93760500D01*
X155998920Y-93720130D01*
X156190098Y-93640941D01*
X156362155Y-93525977D01*
X156508477Y-93379655D01*
X156623441Y-93207598D01*
X156702630Y-93016420D01*
X156743000Y-92813465D01*
X156743000Y-92606535D01*
X156702630Y-92403580D01*
X156663563Y-92309264D01*
X156655973Y-92238675D01*
X156687751Y-92175187D01*
X156690843Y-92171982D01*
X156965423Y-91897404D01*
X156992797Y-91882456D01*
X157019020Y-91865604D01*
X157025318Y-91864698D01*
X157027735Y-91863379D01*
X157054518Y-91860500D01*
X157300963Y-91860500D01*
X157369084Y-91880502D01*
G37*
%TD.AperFunction*%
%TA.AperFunction,Conductor*%
G36*
X157369084Y-86800502D02*
G01*
X157415577Y-86854158D01*
X157425681Y-86924432D01*
X157405728Y-86976499D01*
X157328589Y-87091949D01*
X157301559Y-87132402D01*
X157222372Y-87323574D01*
X157222370Y-87323579D01*
X157182000Y-87526532D01*
X157182000Y-87733467D01*
X157222369Y-87936417D01*
X157222370Y-87936420D01*
X157301559Y-88127598D01*
X157416523Y-88299655D01*
X157416524Y-88299656D01*
X157416529Y-88299662D01*
X157562837Y-88445970D01*
X157562843Y-88445975D01*
X157562845Y-88445977D01*
X157734902Y-88560941D01*
X157926080Y-88640130D01*
X158129035Y-88680500D01*
X158129036Y-88680500D01*
X158335964Y-88680500D01*
X158335965Y-88680500D01*
X158538920Y-88640130D01*
X158633237Y-88601061D01*
X158703825Y-88593473D01*
X158767312Y-88625252D01*
X158770549Y-88628376D01*
X192518595Y-122376421D01*
X192552621Y-122438733D01*
X192555500Y-122465516D01*
X192555500Y-125742562D01*
X192535498Y-125810683D01*
X192481842Y-125857176D01*
X192411568Y-125867280D01*
X192346988Y-125837786D01*
X192332100Y-125822495D01*
X192331971Y-125822338D01*
X192185662Y-125676029D01*
X192185656Y-125676024D01*
X192184237Y-125675076D01*
X192017654Y-125563769D01*
X192013597Y-125561058D01*
X192013592Y-125561056D01*
X191919281Y-125521990D01*
X191864000Y-125477442D01*
X191841580Y-125410078D01*
X191841500Y-125405582D01*
X191841500Y-124288947D01*
X191841500Y-124288946D01*
X191819318Y-124206161D01*
X191819318Y-124206160D01*
X191776465Y-124131937D01*
X191776463Y-124131935D01*
X191776459Y-124131930D01*
X158919069Y-91274540D01*
X158919059Y-91274532D01*
X158876392Y-91249898D01*
X158853793Y-91236851D01*
X158804801Y-91185470D01*
X158791365Y-91115756D01*
X158817751Y-91049845D01*
X158846787Y-91022972D01*
X158902155Y-90985977D01*
X159048477Y-90839655D01*
X159163441Y-90667598D01*
X159242630Y-90476420D01*
X159283000Y-90273465D01*
X159283000Y-90066535D01*
X159242630Y-89863580D01*
X159163441Y-89672402D01*
X159048477Y-89500345D01*
X159048475Y-89500343D01*
X159048470Y-89500337D01*
X158902162Y-89354029D01*
X158902156Y-89354024D01*
X158902155Y-89354023D01*
X158730098Y-89239059D01*
X158538920Y-89159870D01*
X158335967Y-89119500D01*
X158335965Y-89119500D01*
X158129035Y-89119500D01*
X158129032Y-89119500D01*
X157926079Y-89159870D01*
X157926074Y-89159872D01*
X157734902Y-89239059D01*
X157562843Y-89354024D01*
X157562837Y-89354029D01*
X157416529Y-89500337D01*
X157416524Y-89500343D01*
X157301560Y-89672400D01*
X157240123Y-89820720D01*
X157195574Y-89876000D01*
X157128210Y-89898421D01*
X157059419Y-89880862D01*
X157011041Y-89828900D01*
X157003881Y-89811437D01*
X156951009Y-89648713D01*
X156951006Y-89648707D01*
X156853964Y-89458251D01*
X156853963Y-89458249D01*
X156815878Y-89405831D01*
X156815877Y-89405830D01*
X156176657Y-90045050D01*
X156158425Y-89977007D01*
X156092599Y-89862993D01*
X155999507Y-89769901D01*
X155885493Y-89704075D01*
X155817447Y-89685841D01*
X156456668Y-89046621D01*
X156456667Y-89046620D01*
X156404250Y-89008536D01*
X156404248Y-89008535D01*
X156213792Y-88911493D01*
X156213786Y-88911490D01*
X156051062Y-88858618D01*
X155992456Y-88818544D01*
X155964819Y-88753148D01*
X155976926Y-88683191D01*
X156024932Y-88630885D01*
X156041772Y-88622379D01*
X156190098Y-88560941D01*
X156362155Y-88445977D01*
X156508477Y-88299655D01*
X156623441Y-88127598D01*
X156702630Y-87936420D01*
X156743000Y-87733465D01*
X156743000Y-87526535D01*
X156702630Y-87323580D01*
X156663563Y-87229264D01*
X156655973Y-87158675D01*
X156687751Y-87095187D01*
X156690843Y-87091982D01*
X156965423Y-86817404D01*
X156992797Y-86802456D01*
X157019020Y-86785604D01*
X157025318Y-86784698D01*
X157027735Y-86783379D01*
X157054518Y-86780500D01*
X157300963Y-86780500D01*
X157369084Y-86800502D01*
G37*
%TD.AperFunction*%
%TA.AperFunction,Conductor*%
G36*
X157455298Y-109565502D02*
G01*
X157501791Y-109619158D01*
X157511895Y-109689432D01*
X157482401Y-109754012D01*
X157476272Y-109760595D01*
X157416529Y-109820337D01*
X157416524Y-109820343D01*
X157301559Y-109992402D01*
X157222372Y-110183574D01*
X157222370Y-110183579D01*
X157182000Y-110386532D01*
X157182000Y-110593467D01*
X157213111Y-110749870D01*
X157222370Y-110796420D01*
X157301559Y-110987598D01*
X157370207Y-111090337D01*
X157416524Y-111159656D01*
X157416529Y-111159662D01*
X157562837Y-111305970D01*
X157562843Y-111305975D01*
X157562845Y-111305977D01*
X157734902Y-111420941D01*
X157926080Y-111500130D01*
X158129035Y-111540500D01*
X158129036Y-111540500D01*
X158335964Y-111540500D01*
X158335965Y-111540500D01*
X158538920Y-111500130D01*
X158633237Y-111461061D01*
X158703825Y-111453473D01*
X158767312Y-111485252D01*
X158770549Y-111488376D01*
X172008595Y-124726422D01*
X172042621Y-124788734D01*
X172045500Y-124815517D01*
X172045500Y-125560462D01*
X172025498Y-125628583D01*
X171971842Y-125675076D01*
X171901568Y-125685180D01*
X171849499Y-125665228D01*
X171693598Y-125561059D01*
X171693593Y-125561057D01*
X171502425Y-125481872D01*
X171502420Y-125481870D01*
X171299467Y-125441500D01*
X171299465Y-125441500D01*
X171092535Y-125441500D01*
X171092532Y-125441500D01*
X170889579Y-125481870D01*
X170889574Y-125481872D01*
X170795263Y-125520937D01*
X170724673Y-125528526D01*
X170661186Y-125496747D01*
X170657950Y-125493623D01*
X159298868Y-114134540D01*
X159298858Y-114134532D01*
X159224643Y-114091684D01*
X159224641Y-114091683D01*
X159224639Y-114091682D01*
X159141853Y-114069500D01*
X159141851Y-114069500D01*
X158981937Y-114069500D01*
X158913816Y-114049498D01*
X158867323Y-113995842D01*
X158857219Y-113925568D01*
X158886713Y-113860988D01*
X158902014Y-113846092D01*
X158902145Y-113845983D01*
X158902155Y-113845977D01*
X159048477Y-113699655D01*
X159163441Y-113527598D01*
X159242630Y-113336420D01*
X159283000Y-113133465D01*
X159283000Y-112926535D01*
X159242630Y-112723580D01*
X159163441Y-112532402D01*
X159048477Y-112360345D01*
X159048475Y-112360343D01*
X159048470Y-112360337D01*
X158902162Y-112214029D01*
X158902156Y-112214024D01*
X158821451Y-112160099D01*
X158730098Y-112099059D01*
X158538920Y-112019870D01*
X158335967Y-111979500D01*
X158335965Y-111979500D01*
X158129035Y-111979500D01*
X158129032Y-111979500D01*
X157926079Y-112019870D01*
X157926074Y-112019872D01*
X157734902Y-112099059D01*
X157562843Y-112214024D01*
X157562837Y-112214029D01*
X157416529Y-112360337D01*
X157416524Y-112360343D01*
X157301560Y-112532400D01*
X157240123Y-112680720D01*
X157195574Y-112736000D01*
X157128210Y-112758421D01*
X157059419Y-112740862D01*
X157011041Y-112688900D01*
X157003881Y-112671437D01*
X156951009Y-112508713D01*
X156951006Y-112508707D01*
X156853964Y-112318251D01*
X156853963Y-112318249D01*
X156815878Y-112265831D01*
X156815877Y-112265830D01*
X156176657Y-112905050D01*
X156158425Y-112837007D01*
X156092599Y-112722993D01*
X155999507Y-112629901D01*
X155885493Y-112564075D01*
X155817447Y-112545841D01*
X156456668Y-111906621D01*
X156456667Y-111906620D01*
X156404250Y-111868536D01*
X156404248Y-111868535D01*
X156213792Y-111771493D01*
X156213786Y-111771490D01*
X156051062Y-111718618D01*
X155992456Y-111678544D01*
X155964819Y-111613148D01*
X155976926Y-111543191D01*
X156024932Y-111490885D01*
X156041772Y-111482379D01*
X156190098Y-111420941D01*
X156362155Y-111305977D01*
X156508477Y-111159655D01*
X156623441Y-110987598D01*
X156702630Y-110796420D01*
X156743000Y-110593465D01*
X156743000Y-110386535D01*
X156702630Y-110183580D01*
X156702627Y-110183572D01*
X156663563Y-110089264D01*
X156655973Y-110018675D01*
X156687751Y-109955187D01*
X156690844Y-109951981D01*
X157060423Y-109582404D01*
X157087797Y-109567456D01*
X157114020Y-109550604D01*
X157120318Y-109549698D01*
X157122735Y-109548379D01*
X157149518Y-109545500D01*
X157387177Y-109545500D01*
X157455298Y-109565502D01*
G37*
%TD.AperFunction*%
%TA.AperFunction,Conductor*%
G36*
X204412121Y-69870002D02*
G01*
X204458614Y-69923658D01*
X204470000Y-69976000D01*
X204470000Y-133224000D01*
X204449998Y-133292121D01*
X204396342Y-133338614D01*
X204344000Y-133350000D01*
X148716000Y-133350000D01*
X148647879Y-133329998D01*
X148601386Y-133276342D01*
X148590000Y-133224000D01*
X148590000Y-94297946D01*
X152074500Y-94297946D01*
X152074500Y-126957147D01*
X152074500Y-127042853D01*
X152096682Y-127125639D01*
X152096683Y-127125641D01*
X152096684Y-127125643D01*
X152139532Y-127199858D01*
X152139540Y-127199868D01*
X155407131Y-130467459D01*
X155407135Y-130467462D01*
X155407138Y-130467465D01*
X155481361Y-130510318D01*
X155564147Y-130532500D01*
X155564149Y-130532500D01*
X197125552Y-130532500D01*
X197125554Y-130532500D01*
X197208340Y-130510318D01*
X197282563Y-130467465D01*
X197883577Y-129866448D01*
X197945887Y-129832425D01*
X198016703Y-129837489D01*
X198073539Y-129880036D01*
X198074607Y-129881484D01*
X198100178Y-129916679D01*
X198100180Y-129916682D01*
X198251320Y-130067822D01*
X198424249Y-130193463D01*
X198614707Y-130290506D01*
X198614713Y-130290509D01*
X198817998Y-130356560D01*
X198882000Y-130366696D01*
X198882000Y-129462702D01*
X198943007Y-129497925D01*
X199070174Y-129532000D01*
X199201826Y-129532000D01*
X199328993Y-129497925D01*
X199390000Y-129462702D01*
X199390000Y-130366696D01*
X199454001Y-130356560D01*
X199657286Y-130290509D01*
X199657292Y-130290506D01*
X199847750Y-130193463D01*
X200020679Y-130067822D01*
X200171822Y-129916679D01*
X200297463Y-129743750D01*
X200394506Y-129553292D01*
X200394509Y-129553286D01*
X200460559Y-129350004D01*
X200470698Y-129286000D01*
X199566703Y-129286000D01*
X199601925Y-129224993D01*
X199636000Y-129097826D01*
X199636000Y-128966174D01*
X199601925Y-128839007D01*
X199566703Y-128778000D01*
X200470697Y-128778000D01*
X200460559Y-128713995D01*
X200394509Y-128510713D01*
X200394506Y-128510707D01*
X200297463Y-128320249D01*
X200171822Y-128147320D01*
X200020679Y-127996177D01*
X199847750Y-127870536D01*
X199671568Y-127780767D01*
X199619953Y-127732019D01*
X199602887Y-127663104D01*
X199625788Y-127595902D01*
X199681385Y-127551750D01*
X199728771Y-127542500D01*
X200005747Y-127542500D01*
X200005748Y-127542500D01*
X200064231Y-127530867D01*
X200130552Y-127486552D01*
X200174867Y-127420231D01*
X200186500Y-127361748D01*
X200186500Y-125622252D01*
X200174867Y-125563769D01*
X200130552Y-125497448D01*
X200064231Y-125453133D01*
X200064228Y-125453132D01*
X200005750Y-125441500D01*
X200005748Y-125441500D01*
X198266252Y-125441500D01*
X198266249Y-125441500D01*
X198207771Y-125453132D01*
X198207768Y-125453133D01*
X198141448Y-125497448D01*
X198097133Y-125563768D01*
X198097132Y-125563771D01*
X198085500Y-125622249D01*
X198085500Y-127029982D01*
X198065498Y-127098103D01*
X198048595Y-127119077D01*
X197510540Y-127657131D01*
X197510532Y-127657141D01*
X197467681Y-127731361D01*
X197467681Y-127731365D01*
X197445500Y-127814146D01*
X197445500Y-128100462D01*
X197425498Y-128168583D01*
X197371842Y-128215076D01*
X197301568Y-128225180D01*
X197249499Y-128205228D01*
X197093598Y-128101059D01*
X197074516Y-128093155D01*
X196902425Y-128021872D01*
X196902420Y-128021870D01*
X196699467Y-127981500D01*
X196699465Y-127981500D01*
X196492535Y-127981500D01*
X196492532Y-127981500D01*
X196289579Y-128021870D01*
X196289574Y-128021872D01*
X196195263Y-128060937D01*
X196124673Y-128068526D01*
X196061186Y-128036747D01*
X196057950Y-128033623D01*
X195783405Y-127759078D01*
X195768460Y-127731709D01*
X195751604Y-127705481D01*
X195750698Y-127699182D01*
X195749379Y-127696766D01*
X195746500Y-127669983D01*
X195746500Y-127423537D01*
X195766502Y-127355416D01*
X195820158Y-127308923D01*
X195890432Y-127298819D01*
X195942499Y-127318771D01*
X196098402Y-127422941D01*
X196289580Y-127502130D01*
X196492535Y-127542500D01*
X196492536Y-127542500D01*
X196699464Y-127542500D01*
X196699465Y-127542500D01*
X196902420Y-127502130D01*
X197093598Y-127422941D01*
X197265655Y-127307977D01*
X197411977Y-127161655D01*
X197526941Y-126989598D01*
X197606130Y-126798420D01*
X197646500Y-126595465D01*
X197646500Y-126388535D01*
X197606130Y-126185580D01*
X197526941Y-125994402D01*
X197411977Y-125822345D01*
X197411975Y-125822343D01*
X197411970Y-125822337D01*
X197265662Y-125676029D01*
X197265656Y-125676024D01*
X197264237Y-125675076D01*
X197097654Y-125563769D01*
X197093597Y-125561058D01*
X197093592Y-125561056D01*
X196999281Y-125521990D01*
X196944000Y-125477442D01*
X196921580Y-125410078D01*
X196921500Y-125405582D01*
X196921500Y-125247067D01*
X196921500Y-125247066D01*
X196899318Y-125164281D01*
X196899318Y-125164280D01*
X196886911Y-125142790D01*
X196856467Y-125090060D01*
X196856459Y-125090050D01*
X196636486Y-124870077D01*
X196602460Y-124807765D01*
X196599581Y-124780982D01*
X196599581Y-116983229D01*
X196599581Y-116983228D01*
X196577399Y-116900443D01*
X196577399Y-116900442D01*
X196534546Y-116826219D01*
X196534544Y-116826217D01*
X196534540Y-116826212D01*
X191447767Y-111739440D01*
X191364859Y-111656532D01*
X194529500Y-111656532D01*
X194529500Y-111863467D01*
X194566432Y-112049136D01*
X194569870Y-112066420D01*
X194649059Y-112257598D01*
X194717707Y-112360337D01*
X194764024Y-112429656D01*
X194764029Y-112429662D01*
X194910337Y-112575970D01*
X194910343Y-112575975D01*
X194910345Y-112575977D01*
X195082402Y-112690941D01*
X195273580Y-112770130D01*
X195476535Y-112810500D01*
X195476536Y-112810500D01*
X195683464Y-112810500D01*
X195683465Y-112810500D01*
X195886420Y-112770130D01*
X196077598Y-112690941D01*
X196249655Y-112575977D01*
X196395977Y-112429655D01*
X196510941Y-112257598D01*
X196572377Y-112109278D01*
X196616924Y-112053999D01*
X196684288Y-112031578D01*
X196753079Y-112049136D01*
X196801457Y-112101098D01*
X196808618Y-112118562D01*
X196861490Y-112281286D01*
X196861493Y-112281292D01*
X196958535Y-112471748D01*
X196958536Y-112471750D01*
X196996620Y-112524167D01*
X196996621Y-112524168D01*
X197635841Y-111884947D01*
X197654075Y-111952993D01*
X197719901Y-112067007D01*
X197812993Y-112160099D01*
X197927007Y-112225925D01*
X197995051Y-112244157D01*
X197355831Y-112883378D01*
X197408249Y-112921463D01*
X197408251Y-112921464D01*
X197598707Y-113018506D01*
X197598713Y-113018509D01*
X197801996Y-113084559D01*
X198013126Y-113118000D01*
X198226874Y-113118000D01*
X198438003Y-113084559D01*
X198641286Y-113018509D01*
X198641292Y-113018506D01*
X198831750Y-112921463D01*
X198884167Y-112883378D01*
X198884167Y-112883376D01*
X198244948Y-112244157D01*
X198312993Y-112225925D01*
X198427007Y-112160099D01*
X198520099Y-112067007D01*
X198585925Y-111952993D01*
X198604157Y-111884948D01*
X199243376Y-112524167D01*
X199243378Y-112524167D01*
X199281463Y-112471750D01*
X199378506Y-112281292D01*
X199378509Y-112281286D01*
X199444559Y-112078003D01*
X199478000Y-111866873D01*
X199478000Y-111653126D01*
X199444559Y-111441996D01*
X199378509Y-111238713D01*
X199378506Y-111238707D01*
X199281464Y-111048251D01*
X199281463Y-111048249D01*
X199243378Y-110995831D01*
X198604157Y-111635051D01*
X198585925Y-111567007D01*
X198520099Y-111452993D01*
X198427007Y-111359901D01*
X198312993Y-111294075D01*
X198244947Y-111275841D01*
X198884168Y-110636621D01*
X198884167Y-110636620D01*
X198831750Y-110598536D01*
X198831748Y-110598535D01*
X198641292Y-110501493D01*
X198641286Y-110501490D01*
X198478562Y-110448618D01*
X198419956Y-110408544D01*
X198392319Y-110343148D01*
X198404426Y-110273191D01*
X198452432Y-110220885D01*
X198469272Y-110212379D01*
X198617598Y-110150941D01*
X198789655Y-110035977D01*
X198935977Y-109889655D01*
X199050941Y-109717598D01*
X199130130Y-109526420D01*
X199170500Y-109323465D01*
X199170500Y-109116535D01*
X199130130Y-108913580D01*
X199050941Y-108722402D01*
X198935977Y-108550345D01*
X198935975Y-108550343D01*
X198935970Y-108550337D01*
X198789662Y-108404029D01*
X198789656Y-108404024D01*
X198789655Y-108404023D01*
X198617598Y-108289059D01*
X198426420Y-108209870D01*
X198223467Y-108169500D01*
X198223465Y-108169500D01*
X198016535Y-108169500D01*
X198016532Y-108169500D01*
X197813579Y-108209870D01*
X197813574Y-108209872D01*
X197622402Y-108289059D01*
X197450343Y-108404024D01*
X197450337Y-108404029D01*
X197304029Y-108550337D01*
X197304024Y-108550343D01*
X197189059Y-108722402D01*
X197109872Y-108913574D01*
X197109870Y-108913579D01*
X197069500Y-109116532D01*
X197069500Y-109323467D01*
X197100611Y-109479870D01*
X197109870Y-109526420D01*
X197189059Y-109717598D01*
X197257707Y-109820337D01*
X197304024Y-109889656D01*
X197304029Y-109889662D01*
X197450337Y-110035970D01*
X197450343Y-110035975D01*
X197450345Y-110035977D01*
X197622402Y-110150941D01*
X197770719Y-110212376D01*
X197826000Y-110256924D01*
X197848421Y-110324288D01*
X197830863Y-110393079D01*
X197778901Y-110441457D01*
X197761438Y-110448618D01*
X197598710Y-110501492D01*
X197598707Y-110501493D01*
X197408253Y-110598534D01*
X197355831Y-110636621D01*
X197355831Y-110636622D01*
X197995051Y-111275842D01*
X197927007Y-111294075D01*
X197812993Y-111359901D01*
X197719901Y-111452993D01*
X197654075Y-111567007D01*
X197635842Y-111635051D01*
X196996622Y-110995831D01*
X196996621Y-110995831D01*
X196958534Y-111048253D01*
X196861493Y-111238707D01*
X196861492Y-111238710D01*
X196808618Y-111401438D01*
X196768544Y-111460043D01*
X196703147Y-111487680D01*
X196633191Y-111475573D01*
X196580885Y-111427567D01*
X196572376Y-111410719D01*
X196568532Y-111401438D01*
X196510941Y-111262402D01*
X196395977Y-111090345D01*
X196395975Y-111090343D01*
X196395970Y-111090337D01*
X196249662Y-110944029D01*
X196249656Y-110944024D01*
X196249655Y-110944023D01*
X196077598Y-110829059D01*
X195886420Y-110749870D01*
X195683467Y-110709500D01*
X195683465Y-110709500D01*
X195476535Y-110709500D01*
X195476532Y-110709500D01*
X195273579Y-110749870D01*
X195273574Y-110749872D01*
X195082402Y-110829059D01*
X194910343Y-110944024D01*
X194910337Y-110944029D01*
X194764029Y-111090337D01*
X194764024Y-111090343D01*
X194649059Y-111262402D01*
X194569872Y-111453574D01*
X194569870Y-111453579D01*
X194529500Y-111656532D01*
X191364859Y-111656532D01*
X188824859Y-109116532D01*
X194529500Y-109116532D01*
X194529500Y-109323467D01*
X194560611Y-109479870D01*
X194569870Y-109526420D01*
X194649059Y-109717598D01*
X194717707Y-109820337D01*
X194764024Y-109889656D01*
X194764029Y-109889662D01*
X194910337Y-110035970D01*
X194910343Y-110035975D01*
X194910345Y-110035977D01*
X195082402Y-110150941D01*
X195273580Y-110230130D01*
X195476535Y-110270500D01*
X195476536Y-110270500D01*
X195683464Y-110270500D01*
X195683465Y-110270500D01*
X195886420Y-110230130D01*
X196077598Y-110150941D01*
X196249655Y-110035977D01*
X196395977Y-109889655D01*
X196510941Y-109717598D01*
X196590130Y-109526420D01*
X196630500Y-109323465D01*
X196630500Y-109116535D01*
X196590130Y-108913580D01*
X196510941Y-108722402D01*
X196395977Y-108550345D01*
X196395975Y-108550343D01*
X196395970Y-108550337D01*
X196249662Y-108404029D01*
X196249656Y-108404024D01*
X196249655Y-108404023D01*
X196077598Y-108289059D01*
X195886420Y-108209870D01*
X195683467Y-108169500D01*
X195683465Y-108169500D01*
X195476535Y-108169500D01*
X195476532Y-108169500D01*
X195273579Y-108209870D01*
X195273574Y-108209872D01*
X195082402Y-108289059D01*
X194910343Y-108404024D01*
X194910337Y-108404029D01*
X194764029Y-108550337D01*
X194764024Y-108550343D01*
X194649059Y-108722402D01*
X194569872Y-108913574D01*
X194569870Y-108913579D01*
X194529500Y-109116532D01*
X188824859Y-109116532D01*
X186284859Y-106576532D01*
X194529500Y-106576532D01*
X194529500Y-106783467D01*
X194560611Y-106939870D01*
X194569870Y-106986420D01*
X194649059Y-107177598D01*
X194693716Y-107244432D01*
X194764024Y-107349656D01*
X194764029Y-107349662D01*
X194910337Y-107495970D01*
X194910343Y-107495975D01*
X194910345Y-107495977D01*
X195082402Y-107610941D01*
X195273580Y-107690130D01*
X195476535Y-107730500D01*
X195476536Y-107730500D01*
X195683464Y-107730500D01*
X195683465Y-107730500D01*
X195886420Y-107690130D01*
X196077598Y-107610941D01*
X196249655Y-107495977D01*
X196395977Y-107349655D01*
X196510941Y-107177598D01*
X196590130Y-106986420D01*
X196630500Y-106783465D01*
X196630500Y-106576535D01*
X196630499Y-106576532D01*
X197069500Y-106576532D01*
X197069500Y-106783467D01*
X197100611Y-106939870D01*
X197109870Y-106986420D01*
X197189059Y-107177598D01*
X197233716Y-107244432D01*
X197304024Y-107349656D01*
X197304029Y-107349662D01*
X197450337Y-107495970D01*
X197450343Y-107495975D01*
X197450345Y-107495977D01*
X197622402Y-107610941D01*
X197813580Y-107690130D01*
X198016535Y-107730500D01*
X198016536Y-107730500D01*
X198223464Y-107730500D01*
X198223465Y-107730500D01*
X198426420Y-107690130D01*
X198617598Y-107610941D01*
X198789655Y-107495977D01*
X198935977Y-107349655D01*
X199050941Y-107177598D01*
X199130130Y-106986420D01*
X199170500Y-106783465D01*
X199170500Y-106576535D01*
X199130130Y-106373580D01*
X199050941Y-106182402D01*
X198935977Y-106010345D01*
X198935975Y-106010343D01*
X198935970Y-106010337D01*
X198789662Y-105864029D01*
X198789656Y-105864024D01*
X198789655Y-105864023D01*
X198617598Y-105749059D01*
X198426420Y-105669870D01*
X198223467Y-105629500D01*
X198223465Y-105629500D01*
X198016535Y-105629500D01*
X198016532Y-105629500D01*
X197813579Y-105669870D01*
X197813574Y-105669872D01*
X197622402Y-105749059D01*
X197450343Y-105864024D01*
X197450337Y-105864029D01*
X197304029Y-106010337D01*
X197304024Y-106010343D01*
X197189059Y-106182402D01*
X197109872Y-106373574D01*
X197109870Y-106373579D01*
X197069500Y-106576532D01*
X196630499Y-106576532D01*
X196590130Y-106373580D01*
X196510941Y-106182402D01*
X196395977Y-106010345D01*
X196395975Y-106010343D01*
X196395970Y-106010337D01*
X196249662Y-105864029D01*
X196249656Y-105864024D01*
X196249655Y-105864023D01*
X196077598Y-105749059D01*
X195886420Y-105669870D01*
X195683467Y-105629500D01*
X195683465Y-105629500D01*
X195476535Y-105629500D01*
X195476532Y-105629500D01*
X195273579Y-105669870D01*
X195273574Y-105669872D01*
X195082402Y-105749059D01*
X194910343Y-105864024D01*
X194910337Y-105864029D01*
X194764029Y-106010337D01*
X194764024Y-106010343D01*
X194649059Y-106182402D01*
X194569872Y-106373574D01*
X194569870Y-106373579D01*
X194529500Y-106576532D01*
X186284859Y-106576532D01*
X183744859Y-104036532D01*
X194529500Y-104036532D01*
X194529500Y-104243467D01*
X194560611Y-104399870D01*
X194569870Y-104446420D01*
X194649059Y-104637598D01*
X194717707Y-104740337D01*
X194764024Y-104809656D01*
X194764029Y-104809662D01*
X194910337Y-104955970D01*
X194910343Y-104955975D01*
X194910345Y-104955977D01*
X195082402Y-105070941D01*
X195273580Y-105150130D01*
X195476535Y-105190500D01*
X195476536Y-105190500D01*
X195683464Y-105190500D01*
X195683465Y-105190500D01*
X195886420Y-105150130D01*
X196077598Y-105070941D01*
X196249655Y-104955977D01*
X196395977Y-104809655D01*
X196510941Y-104637598D01*
X196590130Y-104446420D01*
X196630500Y-104243465D01*
X196630500Y-104036535D01*
X196590130Y-103833580D01*
X196510941Y-103642402D01*
X196395977Y-103470345D01*
X196395975Y-103470343D01*
X196395970Y-103470337D01*
X196249662Y-103324029D01*
X196249656Y-103324024D01*
X196249655Y-103324023D01*
X196077598Y-103209059D01*
X195886420Y-103129870D01*
X195683467Y-103089500D01*
X195683465Y-103089500D01*
X195476535Y-103089500D01*
X195476532Y-103089500D01*
X195273579Y-103129870D01*
X195273574Y-103129872D01*
X195082402Y-103209059D01*
X194910343Y-103324024D01*
X194910337Y-103324029D01*
X194764029Y-103470337D01*
X194764024Y-103470343D01*
X194649059Y-103642402D01*
X194569872Y-103833574D01*
X194569870Y-103833579D01*
X194529500Y-104036532D01*
X183744859Y-104036532D01*
X178664859Y-98956532D01*
X194529500Y-98956532D01*
X194529500Y-99163467D01*
X194560611Y-99319870D01*
X194569870Y-99366420D01*
X194649059Y-99557598D01*
X194717707Y-99660337D01*
X194764024Y-99729656D01*
X194764029Y-99729662D01*
X194910337Y-99875970D01*
X194910343Y-99875975D01*
X194910345Y-99875977D01*
X195082402Y-99990941D01*
X195273580Y-100070130D01*
X195476535Y-100110500D01*
X195476536Y-100110500D01*
X195683464Y-100110500D01*
X195683465Y-100110500D01*
X195886420Y-100070130D01*
X196077598Y-99990941D01*
X196249655Y-99875977D01*
X196395977Y-99729655D01*
X196510941Y-99557598D01*
X196590130Y-99366420D01*
X196630500Y-99163465D01*
X196630500Y-98956535D01*
X196590130Y-98753580D01*
X196510941Y-98562402D01*
X196395977Y-98390345D01*
X196395975Y-98390343D01*
X196395970Y-98390337D01*
X196249662Y-98244029D01*
X196249656Y-98244024D01*
X196249655Y-98244023D01*
X196077598Y-98129059D01*
X195886420Y-98049870D01*
X195683467Y-98009500D01*
X195683465Y-98009500D01*
X195476535Y-98009500D01*
X195476532Y-98009500D01*
X195273579Y-98049870D01*
X195273574Y-98049872D01*
X195082402Y-98129059D01*
X194910343Y-98244024D01*
X194910337Y-98244029D01*
X194764029Y-98390337D01*
X194764024Y-98390343D01*
X194649059Y-98562402D01*
X194569872Y-98753574D01*
X194569870Y-98753579D01*
X194529500Y-98956532D01*
X178664859Y-98956532D01*
X177421327Y-97713000D01*
X177387301Y-97650688D01*
X177386171Y-97623316D01*
X177384500Y-97623316D01*
X177384500Y-97456944D01*
X177384500Y-97456943D01*
X177343577Y-97304216D01*
X177343575Y-97304213D01*
X177343575Y-97304211D01*
X177264522Y-97167287D01*
X177264514Y-97167277D01*
X177146877Y-97049640D01*
X177149317Y-97047199D01*
X177116882Y-97002677D01*
X177109500Y-96960182D01*
X177109500Y-96416532D01*
X194529500Y-96416532D01*
X194529500Y-96623467D01*
X194562948Y-96791623D01*
X194569870Y-96826420D01*
X194649059Y-97017598D01*
X194764023Y-97189655D01*
X194764024Y-97189656D01*
X194764029Y-97189662D01*
X194910337Y-97335970D01*
X194910343Y-97335975D01*
X194910345Y-97335977D01*
X195082402Y-97450941D01*
X195273580Y-97530130D01*
X195476535Y-97570500D01*
X195476536Y-97570500D01*
X195683464Y-97570500D01*
X195683465Y-97570500D01*
X195886420Y-97530130D01*
X196077598Y-97450941D01*
X196249655Y-97335977D01*
X196395977Y-97189655D01*
X196510941Y-97017598D01*
X196572377Y-96869278D01*
X196616924Y-96813999D01*
X196684288Y-96791578D01*
X196753079Y-96809136D01*
X196801457Y-96861098D01*
X196808618Y-96878562D01*
X196861490Y-97041286D01*
X196861493Y-97041292D01*
X196958535Y-97231748D01*
X196958536Y-97231750D01*
X196996620Y-97284167D01*
X196996621Y-97284168D01*
X197635841Y-96644947D01*
X197654075Y-96712993D01*
X197719901Y-96827007D01*
X197812993Y-96920099D01*
X197927007Y-96985925D01*
X197995051Y-97004157D01*
X197355831Y-97643378D01*
X197408249Y-97681463D01*
X197408251Y-97681464D01*
X197598707Y-97778506D01*
X197598713Y-97778509D01*
X197761437Y-97831381D01*
X197820043Y-97871454D01*
X197847680Y-97936851D01*
X197835573Y-98006808D01*
X197787567Y-98059114D01*
X197770720Y-98067623D01*
X197622400Y-98129060D01*
X197450343Y-98244024D01*
X197450337Y-98244029D01*
X197304029Y-98390337D01*
X197304024Y-98390343D01*
X197189059Y-98562402D01*
X197109872Y-98753574D01*
X197109870Y-98753579D01*
X197069500Y-98956532D01*
X197069500Y-99163467D01*
X197100611Y-99319870D01*
X197109870Y-99366420D01*
X197189059Y-99557598D01*
X197257707Y-99660337D01*
X197304024Y-99729656D01*
X197304029Y-99729662D01*
X197450337Y-99875970D01*
X197450343Y-99875975D01*
X197450345Y-99875977D01*
X197622402Y-99990941D01*
X197770719Y-100052376D01*
X197826000Y-100096924D01*
X197848421Y-100164288D01*
X197830863Y-100233079D01*
X197778901Y-100281457D01*
X197761438Y-100288618D01*
X197598710Y-100341492D01*
X197598707Y-100341493D01*
X197408253Y-100438534D01*
X197355831Y-100476621D01*
X197355831Y-100476622D01*
X197995051Y-101115842D01*
X197927007Y-101134075D01*
X197812993Y-101199901D01*
X197719901Y-101292993D01*
X197654075Y-101407007D01*
X197635842Y-101475051D01*
X196996622Y-100835831D01*
X196996621Y-100835831D01*
X196958534Y-100888253D01*
X196861493Y-101078707D01*
X196861492Y-101078710D01*
X196808618Y-101241438D01*
X196768544Y-101300043D01*
X196703147Y-101327680D01*
X196633191Y-101315573D01*
X196580885Y-101267567D01*
X196572376Y-101250719D01*
X196568532Y-101241438D01*
X196510941Y-101102402D01*
X196395977Y-100930345D01*
X196395975Y-100930343D01*
X196395970Y-100930337D01*
X196249662Y-100784029D01*
X196249656Y-100784024D01*
X196249655Y-100784023D01*
X196077598Y-100669059D01*
X195886420Y-100589870D01*
X195683467Y-100549500D01*
X195683465Y-100549500D01*
X195476535Y-100549500D01*
X195476532Y-100549500D01*
X195273579Y-100589870D01*
X195273574Y-100589872D01*
X195082402Y-100669059D01*
X194910343Y-100784024D01*
X194910337Y-100784029D01*
X194764029Y-100930337D01*
X194764024Y-100930343D01*
X194649059Y-101102402D01*
X194569872Y-101293574D01*
X194569870Y-101293579D01*
X194529500Y-101496532D01*
X194529500Y-101703467D01*
X194562948Y-101871623D01*
X194569870Y-101906420D01*
X194649059Y-102097598D01*
X194664887Y-102121286D01*
X194764024Y-102269656D01*
X194764029Y-102269662D01*
X194910337Y-102415970D01*
X194910343Y-102415975D01*
X194910345Y-102415977D01*
X195082402Y-102530941D01*
X195273580Y-102610130D01*
X195476535Y-102650500D01*
X195476536Y-102650500D01*
X195683464Y-102650500D01*
X195683465Y-102650500D01*
X195886420Y-102610130D01*
X196077598Y-102530941D01*
X196249655Y-102415977D01*
X196395977Y-102269655D01*
X196510941Y-102097598D01*
X196572377Y-101949278D01*
X196616924Y-101893999D01*
X196684288Y-101871578D01*
X196753079Y-101889136D01*
X196801457Y-101941098D01*
X196808618Y-101958562D01*
X196861490Y-102121286D01*
X196861493Y-102121292D01*
X196958535Y-102311748D01*
X196958536Y-102311750D01*
X196996620Y-102364167D01*
X196996621Y-102364168D01*
X197635841Y-101724947D01*
X197654075Y-101792993D01*
X197719901Y-101907007D01*
X197812993Y-102000099D01*
X197927007Y-102065925D01*
X197995051Y-102084157D01*
X197355831Y-102723378D01*
X197408249Y-102761463D01*
X197408251Y-102761464D01*
X197598707Y-102858506D01*
X197598713Y-102858509D01*
X197761437Y-102911381D01*
X197820043Y-102951454D01*
X197847680Y-103016851D01*
X197835573Y-103086808D01*
X197787567Y-103139114D01*
X197770720Y-103147623D01*
X197622400Y-103209060D01*
X197450343Y-103324024D01*
X197450337Y-103324029D01*
X197304029Y-103470337D01*
X197304024Y-103470343D01*
X197189059Y-103642402D01*
X197109872Y-103833574D01*
X197109870Y-103833579D01*
X197069500Y-104036532D01*
X197069500Y-104243467D01*
X197100611Y-104399870D01*
X197109870Y-104446420D01*
X197189059Y-104637598D01*
X197257707Y-104740337D01*
X197304024Y-104809656D01*
X197304029Y-104809662D01*
X197450337Y-104955970D01*
X197450343Y-104955975D01*
X197450345Y-104955977D01*
X197622402Y-105070941D01*
X197813580Y-105150130D01*
X198016535Y-105190500D01*
X198016536Y-105190500D01*
X198223464Y-105190500D01*
X198223465Y-105190500D01*
X198426420Y-105150130D01*
X198617598Y-105070941D01*
X198789655Y-104955977D01*
X198935977Y-104809655D01*
X199050941Y-104637598D01*
X199130130Y-104446420D01*
X199170500Y-104243465D01*
X199170500Y-104036535D01*
X199130130Y-103833580D01*
X199050941Y-103642402D01*
X198935977Y-103470345D01*
X198935975Y-103470343D01*
X198935970Y-103470337D01*
X198789662Y-103324029D01*
X198789656Y-103324024D01*
X198716170Y-103274922D01*
X198617598Y-103209059D01*
X198469278Y-103147622D01*
X198413999Y-103103074D01*
X198391578Y-103035711D01*
X198409136Y-102966920D01*
X198461099Y-102918541D01*
X198478562Y-102911381D01*
X198641286Y-102858509D01*
X198641292Y-102858506D01*
X198831750Y-102761463D01*
X198884167Y-102723378D01*
X198884167Y-102723376D01*
X198244948Y-102084157D01*
X198312993Y-102065925D01*
X198427007Y-102000099D01*
X198520099Y-101907007D01*
X198585925Y-101792993D01*
X198604157Y-101724948D01*
X199243376Y-102364167D01*
X199243378Y-102364167D01*
X199281463Y-102311750D01*
X199378506Y-102121292D01*
X199378509Y-102121286D01*
X199444559Y-101918003D01*
X199478000Y-101706873D01*
X199478000Y-101493126D01*
X199444559Y-101281996D01*
X199378509Y-101078713D01*
X199378506Y-101078707D01*
X199281464Y-100888251D01*
X199281463Y-100888249D01*
X199243378Y-100835831D01*
X198604157Y-101475051D01*
X198585925Y-101407007D01*
X198520099Y-101292993D01*
X198427007Y-101199901D01*
X198312993Y-101134075D01*
X198244947Y-101115841D01*
X198884168Y-100476621D01*
X198884167Y-100476620D01*
X198831750Y-100438536D01*
X198831748Y-100438535D01*
X198641292Y-100341493D01*
X198641286Y-100341490D01*
X198478562Y-100288618D01*
X198419956Y-100248544D01*
X198392319Y-100183148D01*
X198404426Y-100113191D01*
X198452432Y-100060885D01*
X198469272Y-100052379D01*
X198617598Y-99990941D01*
X198789655Y-99875977D01*
X198935977Y-99729655D01*
X199050941Y-99557598D01*
X199130130Y-99366420D01*
X199170500Y-99163465D01*
X199170500Y-98956535D01*
X199130130Y-98753580D01*
X199050941Y-98562402D01*
X198935977Y-98390345D01*
X198935975Y-98390343D01*
X198935970Y-98390337D01*
X198789662Y-98244029D01*
X198789656Y-98244024D01*
X198716170Y-98194922D01*
X198617598Y-98129059D01*
X198469278Y-98067622D01*
X198413999Y-98023074D01*
X198391578Y-97955711D01*
X198409136Y-97886920D01*
X198461099Y-97838541D01*
X198478562Y-97831381D01*
X198641286Y-97778509D01*
X198641292Y-97778506D01*
X198831750Y-97681463D01*
X198884167Y-97643378D01*
X198884167Y-97643376D01*
X198244948Y-97004157D01*
X198312993Y-96985925D01*
X198427007Y-96920099D01*
X198520099Y-96827007D01*
X198585925Y-96712993D01*
X198604157Y-96644948D01*
X199243376Y-97284167D01*
X199243378Y-97284167D01*
X199281463Y-97231750D01*
X199378506Y-97041292D01*
X199378509Y-97041286D01*
X199444559Y-96838003D01*
X199478000Y-96626873D01*
X199478000Y-96413126D01*
X199444559Y-96201996D01*
X199378509Y-95998713D01*
X199378506Y-95998707D01*
X199281464Y-95808251D01*
X199281463Y-95808249D01*
X199243378Y-95755831D01*
X198604157Y-96395051D01*
X198585925Y-96327007D01*
X198520099Y-96212993D01*
X198427007Y-96119901D01*
X198312993Y-96054075D01*
X198244947Y-96035841D01*
X198884168Y-95396621D01*
X198884167Y-95396620D01*
X198831750Y-95358536D01*
X198831748Y-95358535D01*
X198641292Y-95261493D01*
X198641286Y-95261490D01*
X198478562Y-95208618D01*
X198419956Y-95168544D01*
X198392319Y-95103148D01*
X198404426Y-95033191D01*
X198452432Y-94980885D01*
X198469272Y-94972379D01*
X198617598Y-94910941D01*
X198789655Y-94795977D01*
X198935977Y-94649655D01*
X199050941Y-94477598D01*
X199130130Y-94286420D01*
X199170500Y-94083465D01*
X199170500Y-93876535D01*
X199130130Y-93673580D01*
X199050941Y-93482402D01*
X198935977Y-93310345D01*
X198935975Y-93310343D01*
X198935970Y-93310337D01*
X198789662Y-93164029D01*
X198789656Y-93164024D01*
X198789655Y-93164023D01*
X198617598Y-93049059D01*
X198426420Y-92969870D01*
X198223467Y-92929500D01*
X198223465Y-92929500D01*
X198016535Y-92929500D01*
X198016532Y-92929500D01*
X197813579Y-92969870D01*
X197813574Y-92969872D01*
X197622402Y-93049059D01*
X197450343Y-93164024D01*
X197450337Y-93164029D01*
X197304029Y-93310337D01*
X197304024Y-93310343D01*
X197189059Y-93482402D01*
X197109872Y-93673574D01*
X197109870Y-93673579D01*
X197069500Y-93876532D01*
X197069500Y-94083467D01*
X197095696Y-94215162D01*
X197109870Y-94286420D01*
X197189059Y-94477598D01*
X197304023Y-94649655D01*
X197304024Y-94649656D01*
X197304029Y-94649662D01*
X197450337Y-94795970D01*
X197450343Y-94795975D01*
X197450345Y-94795977D01*
X197622402Y-94910941D01*
X197770719Y-94972376D01*
X197826000Y-95016924D01*
X197848421Y-95084288D01*
X197830863Y-95153079D01*
X197778901Y-95201457D01*
X197761438Y-95208618D01*
X197598710Y-95261492D01*
X197598707Y-95261493D01*
X197408253Y-95358534D01*
X197355831Y-95396621D01*
X197355831Y-95396622D01*
X197995051Y-96035842D01*
X197927007Y-96054075D01*
X197812993Y-96119901D01*
X197719901Y-96212993D01*
X197654075Y-96327007D01*
X197635842Y-96395051D01*
X196996622Y-95755831D01*
X196996621Y-95755831D01*
X196958534Y-95808253D01*
X196861493Y-95998707D01*
X196861492Y-95998710D01*
X196808618Y-96161438D01*
X196768544Y-96220043D01*
X196703147Y-96247680D01*
X196633191Y-96235573D01*
X196580885Y-96187567D01*
X196572376Y-96170719D01*
X196510941Y-96022402D01*
X196395977Y-95850345D01*
X196395975Y-95850343D01*
X196395970Y-95850337D01*
X196249662Y-95704029D01*
X196249656Y-95704024D01*
X196249655Y-95704023D01*
X196077598Y-95589059D01*
X195886420Y-95509870D01*
X195683467Y-95469500D01*
X195683465Y-95469500D01*
X195476535Y-95469500D01*
X195476532Y-95469500D01*
X195273579Y-95509870D01*
X195273574Y-95509872D01*
X195082402Y-95589059D01*
X194910343Y-95704024D01*
X194910337Y-95704029D01*
X194764029Y-95850337D01*
X194764024Y-95850343D01*
X194649059Y-96022402D01*
X194569872Y-96213574D01*
X194569870Y-96213579D01*
X194529500Y-96416532D01*
X177109500Y-96416532D01*
X177109500Y-94191147D01*
X177108422Y-94182959D01*
X177111041Y-94182614D01*
X177111041Y-94131677D01*
X177123959Y-94083467D01*
X177130500Y-94059057D01*
X177130500Y-93900943D01*
X177089577Y-93748216D01*
X177089575Y-93748213D01*
X177089575Y-93748211D01*
X177010522Y-93611287D01*
X177010514Y-93611277D01*
X176898722Y-93499485D01*
X176898712Y-93499477D01*
X176781676Y-93431907D01*
X176761788Y-93420424D01*
X176743743Y-93415589D01*
X176609057Y-93379500D01*
X176450943Y-93379500D01*
X176357470Y-93404545D01*
X176298211Y-93420424D01*
X176161287Y-93499477D01*
X176161277Y-93499485D01*
X176049485Y-93611277D01*
X176049477Y-93611287D01*
X175970424Y-93748211D01*
X175947544Y-93833599D01*
X175929500Y-93900943D01*
X175929500Y-94059057D01*
X175957697Y-94164288D01*
X175970424Y-94211788D01*
X176049477Y-94348712D01*
X176049485Y-94348722D01*
X176161277Y-94460514D01*
X176161282Y-94460518D01*
X176161284Y-94460520D01*
X176161285Y-94460521D01*
X176161287Y-94460522D01*
X176298212Y-94539575D01*
X176298216Y-94539577D01*
X176365113Y-94557502D01*
X176425733Y-94594451D01*
X176456755Y-94658311D01*
X176458500Y-94679207D01*
X176458500Y-96960182D01*
X176438498Y-97028303D01*
X176419958Y-97048475D01*
X176421123Y-97049640D01*
X176303485Y-97167277D01*
X176303477Y-97167287D01*
X176224424Y-97304211D01*
X176201634Y-97389264D01*
X176183500Y-97456943D01*
X176183500Y-97615057D01*
X176202653Y-97686536D01*
X176224424Y-97767788D01*
X176303477Y-97904712D01*
X176303485Y-97904722D01*
X176415277Y-98016514D01*
X176415282Y-98016518D01*
X176415284Y-98016520D01*
X176415285Y-98016521D01*
X176415287Y-98016522D01*
X176552211Y-98095575D01*
X176552213Y-98095575D01*
X176552216Y-98095577D01*
X176704943Y-98136500D01*
X176704945Y-98136500D01*
X176871316Y-98136500D01*
X176871316Y-98139987D01*
X176925521Y-98148398D01*
X176961000Y-98173327D01*
X195911676Y-117124003D01*
X195945702Y-117186315D01*
X195948581Y-117213098D01*
X195948581Y-122071058D01*
X195928579Y-122139179D01*
X195874923Y-122185672D01*
X195804649Y-122195776D01*
X195740069Y-122166282D01*
X195713462Y-122134058D01*
X195681467Y-122078641D01*
X195681459Y-122078631D01*
X166928560Y-93325733D01*
X194529500Y-93325733D01*
X194529500Y-94634266D01*
X194532354Y-94664700D01*
X194532355Y-94664704D01*
X194577206Y-94792881D01*
X194577208Y-94792885D01*
X194657849Y-94902150D01*
X194767114Y-94982791D01*
X194767118Y-94982793D01*
X194895301Y-95027646D01*
X194925734Y-95030500D01*
X194925736Y-95030500D01*
X196234264Y-95030500D01*
X196234266Y-95030500D01*
X196264699Y-95027646D01*
X196392882Y-94982793D01*
X196395468Y-94980885D01*
X196502150Y-94902150D01*
X196582791Y-94792885D01*
X196582793Y-94792881D01*
X196596958Y-94752402D01*
X196627646Y-94664699D01*
X196630500Y-94634266D01*
X196630500Y-93325734D01*
X196627646Y-93295301D01*
X196582793Y-93167118D01*
X196582791Y-93167114D01*
X196502150Y-93057849D01*
X196392885Y-92977208D01*
X196392881Y-92977206D01*
X196264704Y-92932355D01*
X196264700Y-92932354D01*
X196234266Y-92929500D01*
X194925734Y-92929500D01*
X194925733Y-92929500D01*
X194895299Y-92932354D01*
X194895295Y-92932355D01*
X194767118Y-92977206D01*
X194767114Y-92977208D01*
X194657849Y-93057849D01*
X194577208Y-93167114D01*
X194577206Y-93167118D01*
X194532355Y-93295295D01*
X194532354Y-93295299D01*
X194529500Y-93325733D01*
X166928560Y-93325733D01*
X159230876Y-85628049D01*
X159196850Y-85565737D01*
X159201915Y-85494922D01*
X159203545Y-85490775D01*
X159242630Y-85396420D01*
X159283000Y-85193465D01*
X159283000Y-84986535D01*
X159242630Y-84783580D01*
X159163441Y-84592402D01*
X159048477Y-84420345D01*
X159048475Y-84420343D01*
X159048470Y-84420337D01*
X158902162Y-84274029D01*
X158902156Y-84274024D01*
X158902155Y-84274023D01*
X158730098Y-84159059D01*
X158538920Y-84079870D01*
X158335967Y-84039500D01*
X158335965Y-84039500D01*
X158129035Y-84039500D01*
X158129032Y-84039500D01*
X157926079Y-84079870D01*
X157926074Y-84079872D01*
X157734902Y-84159059D01*
X157562843Y-84274024D01*
X157562837Y-84274029D01*
X157416529Y-84420337D01*
X157416524Y-84420343D01*
X157301559Y-84592402D01*
X157222372Y-84783574D01*
X157222370Y-84783579D01*
X157182000Y-84986532D01*
X157182000Y-84986535D01*
X157182000Y-85193465D01*
X157222370Y-85396420D01*
X157301559Y-85587598D01*
X157416523Y-85759655D01*
X157416524Y-85759656D01*
X157416529Y-85759662D01*
X157562835Y-85905968D01*
X157562840Y-85905972D01*
X157562845Y-85905977D01*
X157562850Y-85905980D01*
X157562986Y-85906092D01*
X157563043Y-85906176D01*
X157567222Y-85910355D01*
X157566430Y-85911146D01*
X157602961Y-85964765D01*
X157604870Y-86035736D01*
X157568105Y-86096472D01*
X157504340Y-86127690D01*
X157483063Y-86129500D01*
X156910353Y-86129500D01*
X156824647Y-86129500D01*
X156741861Y-86151682D01*
X156741859Y-86151683D01*
X156741856Y-86151684D01*
X156667641Y-86194532D01*
X156667635Y-86194537D01*
X156230548Y-86631623D01*
X156168236Y-86665648D01*
X156097420Y-86660583D01*
X156093235Y-86658936D01*
X155998926Y-86619872D01*
X155998920Y-86619870D01*
X155795967Y-86579500D01*
X155795965Y-86579500D01*
X155589035Y-86579500D01*
X155589032Y-86579500D01*
X155386079Y-86619870D01*
X155386074Y-86619872D01*
X155194902Y-86699059D01*
X155022843Y-86814024D01*
X155022837Y-86814029D01*
X154876529Y-86960337D01*
X154876524Y-86960343D01*
X154761559Y-87132402D01*
X154682372Y-87323574D01*
X154682370Y-87323579D01*
X154642000Y-87526532D01*
X154642000Y-87733467D01*
X154682369Y-87936417D01*
X154682370Y-87936420D01*
X154761559Y-88127598D01*
X154876523Y-88299655D01*
X154876524Y-88299656D01*
X154876529Y-88299662D01*
X155022837Y-88445970D01*
X155022843Y-88445975D01*
X155022845Y-88445977D01*
X155194902Y-88560941D01*
X155343219Y-88622376D01*
X155398500Y-88666924D01*
X155420921Y-88734288D01*
X155403363Y-88803079D01*
X155351401Y-88851457D01*
X155333938Y-88858618D01*
X155171210Y-88911492D01*
X155171207Y-88911493D01*
X154980753Y-89008534D01*
X154928331Y-89046621D01*
X154928331Y-89046622D01*
X155567551Y-89685842D01*
X155499507Y-89704075D01*
X155385493Y-89769901D01*
X155292401Y-89862993D01*
X155226575Y-89977007D01*
X155208342Y-90045051D01*
X154569122Y-89405831D01*
X154569121Y-89405831D01*
X154531034Y-89458253D01*
X154433993Y-89648707D01*
X154433990Y-89648713D01*
X154367940Y-89851996D01*
X154334500Y-90063126D01*
X154334500Y-90276873D01*
X154367940Y-90488003D01*
X154433990Y-90691286D01*
X154433993Y-90691292D01*
X154531035Y-90881748D01*
X154531036Y-90881750D01*
X154569120Y-90934167D01*
X154569121Y-90934168D01*
X155208341Y-90294947D01*
X155226575Y-90362993D01*
X155292401Y-90477007D01*
X155385493Y-90570099D01*
X155499507Y-90635925D01*
X155567550Y-90654157D01*
X154927076Y-91294631D01*
X154913462Y-91359429D01*
X154891543Y-91388927D01*
X152139540Y-94140930D01*
X152139532Y-94140940D01*
X152096684Y-94215155D01*
X152096682Y-94215160D01*
X152077588Y-94286420D01*
X152074500Y-94297946D01*
X148590000Y-94297946D01*
X148590000Y-84986532D01*
X154642000Y-84986532D01*
X154642000Y-84986535D01*
X154642000Y-85193465D01*
X154682370Y-85396420D01*
X154761559Y-85587598D01*
X154876523Y-85759655D01*
X154876524Y-85759656D01*
X154876529Y-85759662D01*
X155022837Y-85905970D01*
X155022843Y-85905975D01*
X155022845Y-85905977D01*
X155194902Y-86020941D01*
X155386080Y-86100130D01*
X155589035Y-86140500D01*
X155589036Y-86140500D01*
X155795964Y-86140500D01*
X155795965Y-86140500D01*
X155998920Y-86100130D01*
X156190098Y-86020941D01*
X156362155Y-85905977D01*
X156508477Y-85759655D01*
X156623441Y-85587598D01*
X156702630Y-85396420D01*
X156743000Y-85193465D01*
X156743000Y-84986535D01*
X156702630Y-84783580D01*
X156623441Y-84592402D01*
X156508477Y-84420345D01*
X156508475Y-84420343D01*
X156508470Y-84420337D01*
X156362162Y-84274029D01*
X156362156Y-84274024D01*
X156362155Y-84274023D01*
X156190098Y-84159059D01*
X155998920Y-84079870D01*
X155795967Y-84039500D01*
X155795965Y-84039500D01*
X155589035Y-84039500D01*
X155589032Y-84039500D01*
X155386079Y-84079870D01*
X155386074Y-84079872D01*
X155194902Y-84159059D01*
X155022843Y-84274024D01*
X155022837Y-84274029D01*
X154876529Y-84420337D01*
X154876524Y-84420343D01*
X154761559Y-84592402D01*
X154682372Y-84783574D01*
X154682370Y-84783579D01*
X154642000Y-84986532D01*
X148590000Y-84986532D01*
X148590000Y-82446532D01*
X154642000Y-82446532D01*
X154642000Y-82446535D01*
X154642000Y-82653465D01*
X154682370Y-82856420D01*
X154761559Y-83047598D01*
X154876523Y-83219655D01*
X154876524Y-83219656D01*
X154876529Y-83219662D01*
X155022837Y-83365970D01*
X155022843Y-83365975D01*
X155022845Y-83365977D01*
X155194902Y-83480941D01*
X155386080Y-83560130D01*
X155589035Y-83600500D01*
X155589036Y-83600500D01*
X155795964Y-83600500D01*
X155795965Y-83600500D01*
X155998920Y-83560130D01*
X156190098Y-83480941D01*
X156362155Y-83365977D01*
X156508477Y-83219655D01*
X156623441Y-83047598D01*
X156702630Y-82856420D01*
X156743000Y-82653465D01*
X156743000Y-82446535D01*
X156742999Y-82446532D01*
X157182000Y-82446532D01*
X157182000Y-82446535D01*
X157182000Y-82653465D01*
X157222370Y-82856420D01*
X157301559Y-83047598D01*
X157416523Y-83219655D01*
X157416524Y-83219656D01*
X157416529Y-83219662D01*
X157562837Y-83365970D01*
X157562843Y-83365975D01*
X157562845Y-83365977D01*
X157734902Y-83480941D01*
X157926080Y-83560130D01*
X158129035Y-83600500D01*
X158129036Y-83600500D01*
X158335964Y-83600500D01*
X158335965Y-83600500D01*
X158538920Y-83560130D01*
X158730098Y-83480941D01*
X158902155Y-83365977D01*
X159048477Y-83219655D01*
X159163441Y-83047598D01*
X159242630Y-82856420D01*
X159283000Y-82653465D01*
X159283000Y-82446535D01*
X159242630Y-82243580D01*
X159163441Y-82052402D01*
X159048477Y-81880345D01*
X159048475Y-81880343D01*
X159048470Y-81880337D01*
X158902162Y-81734029D01*
X158902156Y-81734024D01*
X158902155Y-81734023D01*
X158730098Y-81619059D01*
X158538920Y-81539870D01*
X158335967Y-81499500D01*
X158335965Y-81499500D01*
X158129035Y-81499500D01*
X158129032Y-81499500D01*
X157926079Y-81539870D01*
X157926074Y-81539872D01*
X157734902Y-81619059D01*
X157562843Y-81734024D01*
X157562837Y-81734029D01*
X157416529Y-81880337D01*
X157416524Y-81880343D01*
X157301559Y-82052402D01*
X157222372Y-82243574D01*
X157222370Y-82243579D01*
X157182000Y-82446532D01*
X156742999Y-82446532D01*
X156702630Y-82243580D01*
X156623441Y-82052402D01*
X156508477Y-81880345D01*
X156508475Y-81880343D01*
X156508470Y-81880337D01*
X156362162Y-81734029D01*
X156362156Y-81734024D01*
X156362155Y-81734023D01*
X156190098Y-81619059D01*
X155998920Y-81539870D01*
X155795967Y-81499500D01*
X155795965Y-81499500D01*
X155589035Y-81499500D01*
X155589032Y-81499500D01*
X155386079Y-81539870D01*
X155386074Y-81539872D01*
X155194902Y-81619059D01*
X155022843Y-81734024D01*
X155022837Y-81734029D01*
X154876529Y-81880337D01*
X154876524Y-81880343D01*
X154761559Y-82052402D01*
X154682372Y-82243574D01*
X154682370Y-82243579D01*
X154642000Y-82446532D01*
X148590000Y-82446532D01*
X148590000Y-79906532D01*
X154642000Y-79906532D01*
X154642000Y-79906535D01*
X154642000Y-80113465D01*
X154682370Y-80316420D01*
X154761559Y-80507598D01*
X154876523Y-80679655D01*
X154876524Y-80679656D01*
X154876529Y-80679662D01*
X155022837Y-80825970D01*
X155022843Y-80825975D01*
X155022845Y-80825977D01*
X155194902Y-80940941D01*
X155386080Y-81020130D01*
X155589035Y-81060500D01*
X155589036Y-81060500D01*
X155795964Y-81060500D01*
X155795965Y-81060500D01*
X155998920Y-81020130D01*
X156190098Y-80940941D01*
X156362155Y-80825977D01*
X156508477Y-80679655D01*
X156623441Y-80507598D01*
X156702630Y-80316420D01*
X156743000Y-80113465D01*
X156743000Y-79906535D01*
X156742999Y-79906532D01*
X157182000Y-79906532D01*
X157182000Y-79906535D01*
X157182000Y-80113465D01*
X157222370Y-80316420D01*
X157301559Y-80507598D01*
X157416523Y-80679655D01*
X157416524Y-80679656D01*
X157416529Y-80679662D01*
X157562837Y-80825970D01*
X157562843Y-80825975D01*
X157562845Y-80825977D01*
X157734902Y-80940941D01*
X157926080Y-81020130D01*
X158129035Y-81060500D01*
X158129036Y-81060500D01*
X158335964Y-81060500D01*
X158335965Y-81060500D01*
X158538920Y-81020130D01*
X158730098Y-80940941D01*
X158902155Y-80825977D01*
X159048477Y-80679655D01*
X159163441Y-80507598D01*
X159242630Y-80316420D01*
X159283000Y-80113465D01*
X159283000Y-79906535D01*
X159242630Y-79703580D01*
X159163441Y-79512402D01*
X159048477Y-79340345D01*
X159048475Y-79340343D01*
X159048470Y-79340337D01*
X158902162Y-79194029D01*
X158902156Y-79194024D01*
X158902155Y-79194023D01*
X158730098Y-79079059D01*
X158538920Y-78999870D01*
X158335967Y-78959500D01*
X158335965Y-78959500D01*
X158129035Y-78959500D01*
X158129032Y-78959500D01*
X157926079Y-78999870D01*
X157926074Y-78999872D01*
X157734902Y-79079059D01*
X157562843Y-79194024D01*
X157562837Y-79194029D01*
X157416529Y-79340337D01*
X157416524Y-79340343D01*
X157301559Y-79512402D01*
X157222372Y-79703574D01*
X157222370Y-79703579D01*
X157182000Y-79906532D01*
X156742999Y-79906532D01*
X156702630Y-79703580D01*
X156623441Y-79512402D01*
X156508477Y-79340345D01*
X156508475Y-79340343D01*
X156508470Y-79340337D01*
X156362162Y-79194029D01*
X156362156Y-79194024D01*
X156362155Y-79194023D01*
X156190098Y-79079059D01*
X155998920Y-78999870D01*
X155795967Y-78959500D01*
X155795965Y-78959500D01*
X155589035Y-78959500D01*
X155589032Y-78959500D01*
X155386079Y-78999870D01*
X155386074Y-78999872D01*
X155194902Y-79079059D01*
X155022843Y-79194024D01*
X155022837Y-79194029D01*
X154876529Y-79340337D01*
X154876524Y-79340343D01*
X154761559Y-79512402D01*
X154682372Y-79703574D01*
X154682370Y-79703579D01*
X154642000Y-79906532D01*
X148590000Y-79906532D01*
X148590000Y-77366532D01*
X154642000Y-77366532D01*
X154642000Y-77366535D01*
X154642000Y-77573465D01*
X154682370Y-77776420D01*
X154761559Y-77967598D01*
X154876523Y-78139655D01*
X154876524Y-78139656D01*
X154876529Y-78139662D01*
X155022837Y-78285970D01*
X155022843Y-78285975D01*
X155022845Y-78285977D01*
X155194902Y-78400941D01*
X155386080Y-78480130D01*
X155589035Y-78520500D01*
X155589036Y-78520500D01*
X155795964Y-78520500D01*
X155795965Y-78520500D01*
X155998920Y-78480130D01*
X156190098Y-78400941D01*
X156362155Y-78285977D01*
X156508477Y-78139655D01*
X156623441Y-77967598D01*
X156702630Y-77776420D01*
X156743000Y-77573465D01*
X156743000Y-77366535D01*
X156742999Y-77366532D01*
X157182000Y-77366532D01*
X157182000Y-77366535D01*
X157182000Y-77573465D01*
X157222370Y-77776420D01*
X157301559Y-77967598D01*
X157416523Y-78139655D01*
X157416524Y-78139656D01*
X157416529Y-78139662D01*
X157562837Y-78285970D01*
X157562843Y-78285975D01*
X157562845Y-78285977D01*
X157734902Y-78400941D01*
X157926080Y-78480130D01*
X158129035Y-78520500D01*
X158129036Y-78520500D01*
X158335964Y-78520500D01*
X158335965Y-78520500D01*
X158538920Y-78480130D01*
X158730098Y-78400941D01*
X158902155Y-78285977D01*
X159048477Y-78139655D01*
X159163441Y-77967598D01*
X159242630Y-77776420D01*
X159283000Y-77573465D01*
X159283000Y-77366535D01*
X159242630Y-77163580D01*
X159163441Y-76972402D01*
X159048477Y-76800345D01*
X159048475Y-76800343D01*
X159048470Y-76800337D01*
X158902162Y-76654029D01*
X158902156Y-76654024D01*
X158902155Y-76654023D01*
X158730098Y-76539059D01*
X158538920Y-76459870D01*
X158335967Y-76419500D01*
X158335965Y-76419500D01*
X158129035Y-76419500D01*
X158129032Y-76419500D01*
X157926079Y-76459870D01*
X157926074Y-76459872D01*
X157734902Y-76539059D01*
X157562843Y-76654024D01*
X157562837Y-76654029D01*
X157416529Y-76800337D01*
X157416524Y-76800343D01*
X157301559Y-76972402D01*
X157222372Y-77163574D01*
X157222370Y-77163579D01*
X157182000Y-77366532D01*
X156742999Y-77366532D01*
X156702630Y-77163580D01*
X156623441Y-76972402D01*
X156508477Y-76800345D01*
X156508475Y-76800343D01*
X156508470Y-76800337D01*
X156362162Y-76654029D01*
X156362156Y-76654024D01*
X156362155Y-76654023D01*
X156190098Y-76539059D01*
X155998920Y-76459870D01*
X155795967Y-76419500D01*
X155795965Y-76419500D01*
X155589035Y-76419500D01*
X155589032Y-76419500D01*
X155386079Y-76459870D01*
X155386074Y-76459872D01*
X155194902Y-76539059D01*
X155022843Y-76654024D01*
X155022837Y-76654029D01*
X154876529Y-76800337D01*
X154876524Y-76800343D01*
X154761559Y-76972402D01*
X154682372Y-77163574D01*
X154682370Y-77163579D01*
X154642000Y-77366532D01*
X148590000Y-77366532D01*
X148590000Y-69976000D01*
X148610002Y-69907879D01*
X148663658Y-69861386D01*
X148716000Y-69850000D01*
X204344000Y-69850000D01*
X204412121Y-69870002D01*
G37*
%TD.AperFunction*%
%TD*%
M02*
