%TF.GenerationSoftware,KiCad,Pcbnew,9.0.5*%
%TF.CreationDate,2026-04-25T14:08:38-05:00*%
%TF.ProjectId,CPE495-LED-Driver-Board,43504534-3935-42d4-9c45-442d44726976,v0.2*%
%TF.SameCoordinates,Original*%
%TF.FileFunction,Legend,Top*%
%TF.FilePolarity,Positive*%
%FSLAX46Y46*%
G04 Gerber Fmt 4.6, Leading zero omitted, Abs format (unit mm)*
G04 Created by KiCad (PCBNEW 9.0.5) date 2026-04-25 14:08:38*
%MOMM*%
%LPD*%
G01*
G04 APERTURE LIST*
%ADD10C,0.300000*%
%ADD11C,0.150000*%
%ADD12C,0.120000*%
%ADD13C,0.000000*%
G04 APERTURE END LIST*
D10*
X171964286Y-65799694D02*
X171250000Y-65799694D01*
X171250000Y-65799694D02*
X171250000Y-63799694D01*
X172464286Y-64752075D02*
X172964286Y-64752075D01*
X173178572Y-65799694D02*
X172464286Y-65799694D01*
X172464286Y-65799694D02*
X172464286Y-63799694D01*
X172464286Y-63799694D02*
X173178572Y-63799694D01*
X173821429Y-65799694D02*
X173821429Y-63799694D01*
X173821429Y-63799694D02*
X174178572Y-63799694D01*
X174178572Y-63799694D02*
X174392858Y-63894932D01*
X174392858Y-63894932D02*
X174535715Y-64085408D01*
X174535715Y-64085408D02*
X174607144Y-64275884D01*
X174607144Y-64275884D02*
X174678572Y-64656836D01*
X174678572Y-64656836D02*
X174678572Y-64942551D01*
X174678572Y-64942551D02*
X174607144Y-65323503D01*
X174607144Y-65323503D02*
X174535715Y-65513979D01*
X174535715Y-65513979D02*
X174392858Y-65704456D01*
X174392858Y-65704456D02*
X174178572Y-65799694D01*
X174178572Y-65799694D02*
X173821429Y-65799694D01*
X176464286Y-65799694D02*
X176464286Y-63799694D01*
X176464286Y-63799694D02*
X176821429Y-63799694D01*
X176821429Y-63799694D02*
X177035715Y-63894932D01*
X177035715Y-63894932D02*
X177178572Y-64085408D01*
X177178572Y-64085408D02*
X177250001Y-64275884D01*
X177250001Y-64275884D02*
X177321429Y-64656836D01*
X177321429Y-64656836D02*
X177321429Y-64942551D01*
X177321429Y-64942551D02*
X177250001Y-65323503D01*
X177250001Y-65323503D02*
X177178572Y-65513979D01*
X177178572Y-65513979D02*
X177035715Y-65704456D01*
X177035715Y-65704456D02*
X176821429Y-65799694D01*
X176821429Y-65799694D02*
X176464286Y-65799694D01*
X177964286Y-65799694D02*
X177964286Y-64466360D01*
X177964286Y-64847313D02*
X178035715Y-64656836D01*
X178035715Y-64656836D02*
X178107144Y-64561598D01*
X178107144Y-64561598D02*
X178250001Y-64466360D01*
X178250001Y-64466360D02*
X178392858Y-64466360D01*
X178892857Y-65799694D02*
X178892857Y-64466360D01*
X178892857Y-63799694D02*
X178821429Y-63894932D01*
X178821429Y-63894932D02*
X178892857Y-63990170D01*
X178892857Y-63990170D02*
X178964286Y-63894932D01*
X178964286Y-63894932D02*
X178892857Y-63799694D01*
X178892857Y-63799694D02*
X178892857Y-63990170D01*
X179464286Y-64466360D02*
X179821429Y-65799694D01*
X179821429Y-65799694D02*
X180178572Y-64466360D01*
X181321429Y-65704456D02*
X181178572Y-65799694D01*
X181178572Y-65799694D02*
X180892858Y-65799694D01*
X180892858Y-65799694D02*
X180750000Y-65704456D01*
X180750000Y-65704456D02*
X180678572Y-65513979D01*
X180678572Y-65513979D02*
X180678572Y-64752075D01*
X180678572Y-64752075D02*
X180750000Y-64561598D01*
X180750000Y-64561598D02*
X180892858Y-64466360D01*
X180892858Y-64466360D02*
X181178572Y-64466360D01*
X181178572Y-64466360D02*
X181321429Y-64561598D01*
X181321429Y-64561598D02*
X181392858Y-64752075D01*
X181392858Y-64752075D02*
X181392858Y-64942551D01*
X181392858Y-64942551D02*
X180678572Y-65133027D01*
X182035714Y-65799694D02*
X182035714Y-64466360D01*
X182035714Y-64847313D02*
X182107143Y-64656836D01*
X182107143Y-64656836D02*
X182178572Y-64561598D01*
X182178572Y-64561598D02*
X182321429Y-64466360D01*
X182321429Y-64466360D02*
X182464286Y-64466360D01*
X184607142Y-64752075D02*
X184821428Y-64847313D01*
X184821428Y-64847313D02*
X184892857Y-64942551D01*
X184892857Y-64942551D02*
X184964285Y-65133027D01*
X184964285Y-65133027D02*
X184964285Y-65418741D01*
X184964285Y-65418741D02*
X184892857Y-65609217D01*
X184892857Y-65609217D02*
X184821428Y-65704456D01*
X184821428Y-65704456D02*
X184678571Y-65799694D01*
X184678571Y-65799694D02*
X184107142Y-65799694D01*
X184107142Y-65799694D02*
X184107142Y-63799694D01*
X184107142Y-63799694D02*
X184607142Y-63799694D01*
X184607142Y-63799694D02*
X184750000Y-63894932D01*
X184750000Y-63894932D02*
X184821428Y-63990170D01*
X184821428Y-63990170D02*
X184892857Y-64180646D01*
X184892857Y-64180646D02*
X184892857Y-64371122D01*
X184892857Y-64371122D02*
X184821428Y-64561598D01*
X184821428Y-64561598D02*
X184750000Y-64656836D01*
X184750000Y-64656836D02*
X184607142Y-64752075D01*
X184607142Y-64752075D02*
X184107142Y-64752075D01*
X185821428Y-65799694D02*
X185678571Y-65704456D01*
X185678571Y-65704456D02*
X185607142Y-65609217D01*
X185607142Y-65609217D02*
X185535714Y-65418741D01*
X185535714Y-65418741D02*
X185535714Y-64847313D01*
X185535714Y-64847313D02*
X185607142Y-64656836D01*
X185607142Y-64656836D02*
X185678571Y-64561598D01*
X185678571Y-64561598D02*
X185821428Y-64466360D01*
X185821428Y-64466360D02*
X186035714Y-64466360D01*
X186035714Y-64466360D02*
X186178571Y-64561598D01*
X186178571Y-64561598D02*
X186250000Y-64656836D01*
X186250000Y-64656836D02*
X186321428Y-64847313D01*
X186321428Y-64847313D02*
X186321428Y-65418741D01*
X186321428Y-65418741D02*
X186250000Y-65609217D01*
X186250000Y-65609217D02*
X186178571Y-65704456D01*
X186178571Y-65704456D02*
X186035714Y-65799694D01*
X186035714Y-65799694D02*
X185821428Y-65799694D01*
X187607143Y-65799694D02*
X187607143Y-64752075D01*
X187607143Y-64752075D02*
X187535714Y-64561598D01*
X187535714Y-64561598D02*
X187392857Y-64466360D01*
X187392857Y-64466360D02*
X187107143Y-64466360D01*
X187107143Y-64466360D02*
X186964285Y-64561598D01*
X187607143Y-65704456D02*
X187464285Y-65799694D01*
X187464285Y-65799694D02*
X187107143Y-65799694D01*
X187107143Y-65799694D02*
X186964285Y-65704456D01*
X186964285Y-65704456D02*
X186892857Y-65513979D01*
X186892857Y-65513979D02*
X186892857Y-65323503D01*
X186892857Y-65323503D02*
X186964285Y-65133027D01*
X186964285Y-65133027D02*
X187107143Y-65037789D01*
X187107143Y-65037789D02*
X187464285Y-65037789D01*
X187464285Y-65037789D02*
X187607143Y-64942551D01*
X188321428Y-65799694D02*
X188321428Y-64466360D01*
X188321428Y-64847313D02*
X188392857Y-64656836D01*
X188392857Y-64656836D02*
X188464286Y-64561598D01*
X188464286Y-64561598D02*
X188607143Y-64466360D01*
X188607143Y-64466360D02*
X188750000Y-64466360D01*
X189892857Y-65799694D02*
X189892857Y-63799694D01*
X189892857Y-65704456D02*
X189749999Y-65799694D01*
X189749999Y-65799694D02*
X189464285Y-65799694D01*
X189464285Y-65799694D02*
X189321428Y-65704456D01*
X189321428Y-65704456D02*
X189249999Y-65609217D01*
X189249999Y-65609217D02*
X189178571Y-65418741D01*
X189178571Y-65418741D02*
X189178571Y-64847313D01*
X189178571Y-64847313D02*
X189249999Y-64656836D01*
X189249999Y-64656836D02*
X189321428Y-64561598D01*
X189321428Y-64561598D02*
X189464285Y-64466360D01*
X189464285Y-64466360D02*
X189749999Y-64466360D01*
X189749999Y-64466360D02*
X189892857Y-64561598D01*
X191607142Y-64466360D02*
X191964285Y-65799694D01*
X191964285Y-65799694D02*
X192321428Y-64466360D01*
X193178571Y-63799694D02*
X193321428Y-63799694D01*
X193321428Y-63799694D02*
X193464285Y-63894932D01*
X193464285Y-63894932D02*
X193535714Y-63990170D01*
X193535714Y-63990170D02*
X193607142Y-64180646D01*
X193607142Y-64180646D02*
X193678571Y-64561598D01*
X193678571Y-64561598D02*
X193678571Y-65037789D01*
X193678571Y-65037789D02*
X193607142Y-65418741D01*
X193607142Y-65418741D02*
X193535714Y-65609217D01*
X193535714Y-65609217D02*
X193464285Y-65704456D01*
X193464285Y-65704456D02*
X193321428Y-65799694D01*
X193321428Y-65799694D02*
X193178571Y-65799694D01*
X193178571Y-65799694D02*
X193035714Y-65704456D01*
X193035714Y-65704456D02*
X192964285Y-65609217D01*
X192964285Y-65609217D02*
X192892856Y-65418741D01*
X192892856Y-65418741D02*
X192821428Y-65037789D01*
X192821428Y-65037789D02*
X192821428Y-64561598D01*
X192821428Y-64561598D02*
X192892856Y-64180646D01*
X192892856Y-64180646D02*
X192964285Y-63990170D01*
X192964285Y-63990170D02*
X193035714Y-63894932D01*
X193035714Y-63894932D02*
X193178571Y-63799694D01*
X194321427Y-65609217D02*
X194392856Y-65704456D01*
X194392856Y-65704456D02*
X194321427Y-65799694D01*
X194321427Y-65799694D02*
X194249999Y-65704456D01*
X194249999Y-65704456D02*
X194321427Y-65609217D01*
X194321427Y-65609217D02*
X194321427Y-65799694D01*
X195749999Y-63799694D02*
X195035713Y-63799694D01*
X195035713Y-63799694D02*
X194964285Y-64752075D01*
X194964285Y-64752075D02*
X195035713Y-64656836D01*
X195035713Y-64656836D02*
X195178571Y-64561598D01*
X195178571Y-64561598D02*
X195535713Y-64561598D01*
X195535713Y-64561598D02*
X195678571Y-64656836D01*
X195678571Y-64656836D02*
X195749999Y-64752075D01*
X195749999Y-64752075D02*
X195821428Y-64942551D01*
X195821428Y-64942551D02*
X195821428Y-65418741D01*
X195821428Y-65418741D02*
X195749999Y-65609217D01*
X195749999Y-65609217D02*
X195678571Y-65704456D01*
X195678571Y-65704456D02*
X195535713Y-65799694D01*
X195535713Y-65799694D02*
X195178571Y-65799694D01*
X195178571Y-65799694D02*
X195035713Y-65704456D01*
X195035713Y-65704456D02*
X194964285Y-65609217D01*
X148078320Y-65168209D02*
X149030701Y-65168209D01*
X147887844Y-65739638D02*
X148554510Y-63739638D01*
X148554510Y-63739638D02*
X149221177Y-65739638D01*
X149887844Y-65549161D02*
X149983082Y-65644400D01*
X149983082Y-65644400D02*
X149887844Y-65739638D01*
X149887844Y-65739638D02*
X149792606Y-65644400D01*
X149792606Y-65644400D02*
X149887844Y-65549161D01*
X149887844Y-65549161D02*
X149887844Y-65739638D01*
X151792606Y-65739638D02*
X150840225Y-65739638D01*
X150840225Y-65739638D02*
X150840225Y-63739638D01*
X152459273Y-65549161D02*
X152554511Y-65644400D01*
X152554511Y-65644400D02*
X152459273Y-65739638D01*
X152459273Y-65739638D02*
X152364035Y-65644400D01*
X152364035Y-65644400D02*
X152459273Y-65549161D01*
X152459273Y-65549161D02*
X152459273Y-65739638D01*
X153411654Y-65739638D02*
X153411654Y-63739638D01*
X153411654Y-63739638D02*
X153887844Y-63739638D01*
X153887844Y-63739638D02*
X154173559Y-63834876D01*
X154173559Y-63834876D02*
X154364035Y-64025352D01*
X154364035Y-64025352D02*
X154459273Y-64215828D01*
X154459273Y-64215828D02*
X154554511Y-64596780D01*
X154554511Y-64596780D02*
X154554511Y-64882495D01*
X154554511Y-64882495D02*
X154459273Y-65263447D01*
X154459273Y-65263447D02*
X154364035Y-65453923D01*
X154364035Y-65453923D02*
X154173559Y-65644400D01*
X154173559Y-65644400D02*
X153887844Y-65739638D01*
X153887844Y-65739638D02*
X153411654Y-65739638D01*
X155411654Y-65549161D02*
X155506892Y-65644400D01*
X155506892Y-65644400D02*
X155411654Y-65739638D01*
X155411654Y-65739638D02*
X155316416Y-65644400D01*
X155316416Y-65644400D02*
X155411654Y-65549161D01*
X155411654Y-65549161D02*
X155411654Y-65739638D01*
X157316416Y-65739638D02*
X156364035Y-65739638D01*
X156364035Y-65739638D02*
X156364035Y-63739638D01*
X157983083Y-65549161D02*
X158078321Y-65644400D01*
X158078321Y-65644400D02*
X157983083Y-65739638D01*
X157983083Y-65739638D02*
X157887845Y-65644400D01*
X157887845Y-65644400D02*
X157983083Y-65549161D01*
X157983083Y-65549161D02*
X157983083Y-65739638D01*
D11*
X174498095Y-90504819D02*
X174498095Y-91314342D01*
X174498095Y-91314342D02*
X174545714Y-91409580D01*
X174545714Y-91409580D02*
X174593333Y-91457200D01*
X174593333Y-91457200D02*
X174688571Y-91504819D01*
X174688571Y-91504819D02*
X174879047Y-91504819D01*
X174879047Y-91504819D02*
X174974285Y-91457200D01*
X174974285Y-91457200D02*
X175021904Y-91409580D01*
X175021904Y-91409580D02*
X175069523Y-91314342D01*
X175069523Y-91314342D02*
X175069523Y-90504819D01*
X176069523Y-91504819D02*
X175498095Y-91504819D01*
X175783809Y-91504819D02*
X175783809Y-90504819D01*
X175783809Y-90504819D02*
X175688571Y-90647676D01*
X175688571Y-90647676D02*
X175593333Y-90742914D01*
X175593333Y-90742914D02*
X175498095Y-90790533D01*
X140110732Y-70514290D02*
X140682160Y-70514290D01*
X140396446Y-71514290D02*
X140396446Y-70514290D01*
X141396446Y-71466671D02*
X141301208Y-71514290D01*
X141301208Y-71514290D02*
X141110732Y-71514290D01*
X141110732Y-71514290D02*
X141015494Y-71466671D01*
X141015494Y-71466671D02*
X140967875Y-71371432D01*
X140967875Y-71371432D02*
X140967875Y-70990480D01*
X140967875Y-70990480D02*
X141015494Y-70895242D01*
X141015494Y-70895242D02*
X141110732Y-70847623D01*
X141110732Y-70847623D02*
X141301208Y-70847623D01*
X141301208Y-70847623D02*
X141396446Y-70895242D01*
X141396446Y-70895242D02*
X141444065Y-70990480D01*
X141444065Y-70990480D02*
X141444065Y-71085718D01*
X141444065Y-71085718D02*
X140967875Y-71180956D01*
X141872637Y-71514290D02*
X141872637Y-70847623D01*
X141872637Y-71038099D02*
X141920256Y-70942861D01*
X141920256Y-70942861D02*
X141967875Y-70895242D01*
X141967875Y-70895242D02*
X142063113Y-70847623D01*
X142063113Y-70847623D02*
X142158351Y-70847623D01*
X142920256Y-71514290D02*
X142920256Y-70990480D01*
X142920256Y-70990480D02*
X142872637Y-70895242D01*
X142872637Y-70895242D02*
X142777399Y-70847623D01*
X142777399Y-70847623D02*
X142586923Y-70847623D01*
X142586923Y-70847623D02*
X142491685Y-70895242D01*
X142920256Y-71466671D02*
X142825018Y-71514290D01*
X142825018Y-71514290D02*
X142586923Y-71514290D01*
X142586923Y-71514290D02*
X142491685Y-71466671D01*
X142491685Y-71466671D02*
X142444066Y-71371432D01*
X142444066Y-71371432D02*
X142444066Y-71276194D01*
X142444066Y-71276194D02*
X142491685Y-71180956D01*
X142491685Y-71180956D02*
X142586923Y-71133337D01*
X142586923Y-71133337D02*
X142825018Y-71133337D01*
X142825018Y-71133337D02*
X142920256Y-71085718D01*
X143348828Y-71466671D02*
X143444066Y-71514290D01*
X143444066Y-71514290D02*
X143634542Y-71514290D01*
X143634542Y-71514290D02*
X143729780Y-71466671D01*
X143729780Y-71466671D02*
X143777399Y-71371432D01*
X143777399Y-71371432D02*
X143777399Y-71323813D01*
X143777399Y-71323813D02*
X143729780Y-71228575D01*
X143729780Y-71228575D02*
X143634542Y-71180956D01*
X143634542Y-71180956D02*
X143491685Y-71180956D01*
X143491685Y-71180956D02*
X143396447Y-71133337D01*
X143396447Y-71133337D02*
X143348828Y-71038099D01*
X143348828Y-71038099D02*
X143348828Y-70990480D01*
X143348828Y-70990480D02*
X143396447Y-70895242D01*
X143396447Y-70895242D02*
X143491685Y-70847623D01*
X143491685Y-70847623D02*
X143634542Y-70847623D01*
X143634542Y-70847623D02*
X143729780Y-70895242D01*
X144205971Y-71514290D02*
X144205971Y-70847623D01*
X144205971Y-70514290D02*
X144158352Y-70561909D01*
X144158352Y-70561909D02*
X144205971Y-70609528D01*
X144205971Y-70609528D02*
X144253590Y-70561909D01*
X144253590Y-70561909D02*
X144205971Y-70514290D01*
X144205971Y-70514290D02*
X144205971Y-70609528D01*
X145110732Y-71466671D02*
X145015494Y-71514290D01*
X145015494Y-71514290D02*
X144825018Y-71514290D01*
X144825018Y-71514290D02*
X144729780Y-71466671D01*
X144729780Y-71466671D02*
X144682161Y-71419051D01*
X144682161Y-71419051D02*
X144634542Y-71323813D01*
X144634542Y-71323813D02*
X144634542Y-71038099D01*
X144634542Y-71038099D02*
X144682161Y-70942861D01*
X144682161Y-70942861D02*
X144729780Y-70895242D01*
X144729780Y-70895242D02*
X144825018Y-70847623D01*
X144825018Y-70847623D02*
X145015494Y-70847623D01*
X145015494Y-70847623D02*
X145110732Y-70895242D01*
X145539304Y-71133337D02*
X146301209Y-71133337D01*
X147063113Y-70514290D02*
X147063113Y-71228575D01*
X147063113Y-71228575D02*
X147015494Y-71371432D01*
X147015494Y-71371432D02*
X146920256Y-71466671D01*
X146920256Y-71466671D02*
X146777399Y-71514290D01*
X146777399Y-71514290D02*
X146682161Y-71514290D01*
X148063113Y-71514290D02*
X147491685Y-71514290D01*
X147777399Y-71514290D02*
X147777399Y-70514290D01*
X147777399Y-70514290D02*
X147682161Y-70657147D01*
X147682161Y-70657147D02*
X147586923Y-70752385D01*
X147586923Y-70752385D02*
X147491685Y-70800004D01*
X154469599Y-71282416D02*
X154945789Y-71282416D01*
X154374361Y-71568131D02*
X154707694Y-70568131D01*
X154707694Y-70568131D02*
X155041027Y-71568131D01*
X155517218Y-71568131D02*
X155421980Y-71520512D01*
X155421980Y-71520512D02*
X155374361Y-71425273D01*
X155374361Y-71425273D02*
X155374361Y-70568131D01*
X155898171Y-71568131D02*
X155898171Y-70901464D01*
X155898171Y-70568131D02*
X155850552Y-70615750D01*
X155850552Y-70615750D02*
X155898171Y-70663369D01*
X155898171Y-70663369D02*
X155945790Y-70615750D01*
X155945790Y-70615750D02*
X155898171Y-70568131D01*
X155898171Y-70568131D02*
X155898171Y-70663369D01*
X156374361Y-70901464D02*
X156374361Y-71568131D01*
X156374361Y-70996702D02*
X156421980Y-70949083D01*
X156421980Y-70949083D02*
X156517218Y-70901464D01*
X156517218Y-70901464D02*
X156660075Y-70901464D01*
X156660075Y-70901464D02*
X156755313Y-70949083D01*
X156755313Y-70949083D02*
X156802932Y-71044321D01*
X156802932Y-71044321D02*
X156802932Y-71568131D01*
X157183885Y-71568131D02*
X157707694Y-70901464D01*
X157183885Y-70901464D02*
X157707694Y-71568131D01*
X158088647Y-71187178D02*
X158850552Y-71187178D01*
X159612456Y-70568131D02*
X159612456Y-71282416D01*
X159612456Y-71282416D02*
X159564837Y-71425273D01*
X159564837Y-71425273D02*
X159469599Y-71520512D01*
X159469599Y-71520512D02*
X159326742Y-71568131D01*
X159326742Y-71568131D02*
X159231504Y-71568131D01*
X160041028Y-70663369D02*
X160088647Y-70615750D01*
X160088647Y-70615750D02*
X160183885Y-70568131D01*
X160183885Y-70568131D02*
X160421980Y-70568131D01*
X160421980Y-70568131D02*
X160517218Y-70615750D01*
X160517218Y-70615750D02*
X160564837Y-70663369D01*
X160564837Y-70663369D02*
X160612456Y-70758607D01*
X160612456Y-70758607D02*
X160612456Y-70853845D01*
X160612456Y-70853845D02*
X160564837Y-70996702D01*
X160564837Y-70996702D02*
X159993409Y-71568131D01*
X159993409Y-71568131D02*
X160612456Y-71568131D01*
X179853333Y-104089580D02*
X179805714Y-104137200D01*
X179805714Y-104137200D02*
X179662857Y-104184819D01*
X179662857Y-104184819D02*
X179567619Y-104184819D01*
X179567619Y-104184819D02*
X179424762Y-104137200D01*
X179424762Y-104137200D02*
X179329524Y-104041961D01*
X179329524Y-104041961D02*
X179281905Y-103946723D01*
X179281905Y-103946723D02*
X179234286Y-103756247D01*
X179234286Y-103756247D02*
X179234286Y-103613390D01*
X179234286Y-103613390D02*
X179281905Y-103422914D01*
X179281905Y-103422914D02*
X179329524Y-103327676D01*
X179329524Y-103327676D02*
X179424762Y-103232438D01*
X179424762Y-103232438D02*
X179567619Y-103184819D01*
X179567619Y-103184819D02*
X179662857Y-103184819D01*
X179662857Y-103184819D02*
X179805714Y-103232438D01*
X179805714Y-103232438D02*
X179853333Y-103280057D01*
X180234286Y-103280057D02*
X180281905Y-103232438D01*
X180281905Y-103232438D02*
X180377143Y-103184819D01*
X180377143Y-103184819D02*
X180615238Y-103184819D01*
X180615238Y-103184819D02*
X180710476Y-103232438D01*
X180710476Y-103232438D02*
X180758095Y-103280057D01*
X180758095Y-103280057D02*
X180805714Y-103375295D01*
X180805714Y-103375295D02*
X180805714Y-103470533D01*
X180805714Y-103470533D02*
X180758095Y-103613390D01*
X180758095Y-103613390D02*
X180186667Y-104184819D01*
X180186667Y-104184819D02*
X180805714Y-104184819D01*
X174498095Y-105744819D02*
X174498095Y-106554342D01*
X174498095Y-106554342D02*
X174545714Y-106649580D01*
X174545714Y-106649580D02*
X174593333Y-106697200D01*
X174593333Y-106697200D02*
X174688571Y-106744819D01*
X174688571Y-106744819D02*
X174879047Y-106744819D01*
X174879047Y-106744819D02*
X174974285Y-106697200D01*
X174974285Y-106697200D02*
X175021904Y-106649580D01*
X175021904Y-106649580D02*
X175069523Y-106554342D01*
X175069523Y-106554342D02*
X175069523Y-105744819D01*
X175498095Y-105840057D02*
X175545714Y-105792438D01*
X175545714Y-105792438D02*
X175640952Y-105744819D01*
X175640952Y-105744819D02*
X175879047Y-105744819D01*
X175879047Y-105744819D02*
X175974285Y-105792438D01*
X175974285Y-105792438D02*
X176021904Y-105840057D01*
X176021904Y-105840057D02*
X176069523Y-105935295D01*
X176069523Y-105935295D02*
X176069523Y-106030533D01*
X176069523Y-106030533D02*
X176021904Y-106173390D01*
X176021904Y-106173390D02*
X175450476Y-106744819D01*
X175450476Y-106744819D02*
X176069523Y-106744819D01*
X179853333Y-88849580D02*
X179805714Y-88897200D01*
X179805714Y-88897200D02*
X179662857Y-88944819D01*
X179662857Y-88944819D02*
X179567619Y-88944819D01*
X179567619Y-88944819D02*
X179424762Y-88897200D01*
X179424762Y-88897200D02*
X179329524Y-88801961D01*
X179329524Y-88801961D02*
X179281905Y-88706723D01*
X179281905Y-88706723D02*
X179234286Y-88516247D01*
X179234286Y-88516247D02*
X179234286Y-88373390D01*
X179234286Y-88373390D02*
X179281905Y-88182914D01*
X179281905Y-88182914D02*
X179329524Y-88087676D01*
X179329524Y-88087676D02*
X179424762Y-87992438D01*
X179424762Y-87992438D02*
X179567619Y-87944819D01*
X179567619Y-87944819D02*
X179662857Y-87944819D01*
X179662857Y-87944819D02*
X179805714Y-87992438D01*
X179805714Y-87992438D02*
X179853333Y-88040057D01*
X180805714Y-88944819D02*
X180234286Y-88944819D01*
X180520000Y-88944819D02*
X180520000Y-87944819D01*
X180520000Y-87944819D02*
X180424762Y-88087676D01*
X180424762Y-88087676D02*
X180329524Y-88182914D01*
X180329524Y-88182914D02*
X180234286Y-88230533D01*
X198409617Y-118419811D02*
X198409617Y-119134096D01*
X198409617Y-119134096D02*
X198361998Y-119276953D01*
X198361998Y-119276953D02*
X198266760Y-119372192D01*
X198266760Y-119372192D02*
X198123903Y-119419811D01*
X198123903Y-119419811D02*
X198028665Y-119419811D01*
X198838189Y-118515049D02*
X198885808Y-118467430D01*
X198885808Y-118467430D02*
X198981046Y-118419811D01*
X198981046Y-118419811D02*
X199219141Y-118419811D01*
X199219141Y-118419811D02*
X199314379Y-118467430D01*
X199314379Y-118467430D02*
X199361998Y-118515049D01*
X199361998Y-118515049D02*
X199409617Y-118610287D01*
X199409617Y-118610287D02*
X199409617Y-118705525D01*
X199409617Y-118705525D02*
X199361998Y-118848382D01*
X199361998Y-118848382D02*
X198790570Y-119419811D01*
X198790570Y-119419811D02*
X199409617Y-119419811D01*
D12*
%TO.C,U1*%
X176530000Y-91865000D02*
X172930000Y-91865000D01*
X176530000Y-91865000D02*
X178730000Y-91865000D01*
X176530000Y-98635000D02*
X174330000Y-98635000D01*
X176530000Y-98635000D02*
X178730000Y-98635000D01*
D13*
%TO.C,G\u002A\u002A\u002A*%
G36*
X173047354Y-136495800D02*
G01*
X173047354Y-138679662D01*
X172975959Y-138679662D01*
X172904563Y-138679662D01*
X172904563Y-136495800D01*
X172904563Y-134311937D01*
X172975959Y-134311937D01*
X173047354Y-134311937D01*
X173047354Y-136495800D01*
G37*
G36*
X182009590Y-135634854D02*
G01*
X182009590Y-136143022D01*
X181938194Y-136143022D01*
X181866799Y-136143022D01*
X181866799Y-135634854D01*
X181866799Y-135126686D01*
X181938194Y-135126686D01*
X182009590Y-135126686D01*
X182009590Y-135634854D01*
G37*
G36*
X184178753Y-136850338D02*
G01*
X184248049Y-136852777D01*
X184250214Y-137363045D01*
X184252379Y-137873313D01*
X184180918Y-137873313D01*
X184109457Y-137873313D01*
X184109457Y-137360606D01*
X184109457Y-136847898D01*
X184178753Y-136850338D01*
G37*
G36*
X186234524Y-135634854D02*
G01*
X186234524Y-136143022D01*
X186163128Y-136143022D01*
X186091733Y-136143022D01*
X186091733Y-135634854D01*
X186091733Y-135126686D01*
X186163128Y-135126686D01*
X186234524Y-135126686D01*
X186234524Y-135634854D01*
G37*
G36*
X192536227Y-136850338D02*
G01*
X192605522Y-136852777D01*
X192607687Y-137363045D01*
X192609852Y-137873313D01*
X192538392Y-137873313D01*
X192466931Y-137873313D01*
X192466931Y-137360606D01*
X192466931Y-136847898D01*
X192536227Y-136850338D01*
G37*
G36*
X177339484Y-137293410D02*
G01*
X177339484Y-137738921D01*
X177574669Y-137738921D01*
X177809854Y-137738921D01*
X177809854Y-137806117D01*
X177809854Y-137873313D01*
X177503208Y-137873313D01*
X177196563Y-137873313D01*
X177198728Y-137363045D01*
X177200893Y-136852777D01*
X177270188Y-136850338D01*
X177339484Y-136847898D01*
X177339484Y-137293410D01*
G37*
G36*
X193080092Y-137293749D02*
G01*
X193080092Y-137738921D01*
X193311078Y-137738921D01*
X193542063Y-137738921D01*
X193542063Y-137806117D01*
X193542063Y-137873313D01*
X193239682Y-137873313D01*
X192937301Y-137873313D01*
X192937301Y-137360945D01*
X192937301Y-136848578D01*
X193008697Y-136848578D01*
X193080092Y-136848578D01*
X193080092Y-137293749D01*
G37*
G36*
X193894841Y-137293410D02*
G01*
X193894841Y-137738921D01*
X194130026Y-137738921D01*
X194365211Y-137738921D01*
X194365211Y-137806117D01*
X194365211Y-137873313D01*
X194058566Y-137873313D01*
X193751920Y-137873313D01*
X193754085Y-137363045D01*
X193756250Y-136852777D01*
X193825545Y-136850338D01*
X193894841Y-136847898D01*
X193894841Y-137293410D01*
G37*
G36*
X176785119Y-135189682D02*
G01*
X176785119Y-135252678D01*
X176621329Y-135252678D01*
X176457539Y-135252678D01*
X176457539Y-135697850D01*
X176457539Y-136143022D01*
X176386144Y-136143022D01*
X176314748Y-136143022D01*
X176314748Y-135697850D01*
X176314748Y-135252678D01*
X176150959Y-135252678D01*
X175987169Y-135252678D01*
X175987169Y-135189682D01*
X175987169Y-135126686D01*
X176386144Y-135126686D01*
X176785119Y-135126686D01*
X176785119Y-135189682D01*
G37*
G36*
X187250860Y-135189682D02*
G01*
X187250860Y-135252678D01*
X187087070Y-135252678D01*
X186923280Y-135252678D01*
X186923280Y-135697850D01*
X186923280Y-136143022D01*
X186851885Y-136143022D01*
X186780489Y-136143022D01*
X186780489Y-135697850D01*
X186780489Y-135252678D01*
X186616699Y-135252678D01*
X186452910Y-135252678D01*
X186452910Y-135189682D01*
X186452910Y-135126686D01*
X186851885Y-135126686D01*
X187250860Y-135126686D01*
X187250860Y-135189682D01*
G37*
G36*
X190392262Y-136915691D02*
G01*
X190392262Y-136982969D01*
X190228472Y-136982969D01*
X190064682Y-136982969D01*
X190064682Y-137428141D01*
X190064682Y-137873313D01*
X189993287Y-137873313D01*
X189921891Y-137873313D01*
X189921891Y-137428141D01*
X189921891Y-136982969D01*
X189757748Y-136982969D01*
X189593605Y-136982969D01*
X189596058Y-136917873D01*
X189598512Y-136852777D01*
X189995387Y-136850595D01*
X190392262Y-136848413D01*
X190392262Y-136915691D01*
G37*
G36*
X188960126Y-137270638D02*
G01*
X189241534Y-137692698D01*
X189241534Y-137270638D01*
X189241534Y-136848578D01*
X189312930Y-136848578D01*
X189384325Y-136848578D01*
X189384325Y-137360945D01*
X189384325Y-137873313D01*
X189293352Y-137873313D01*
X189202378Y-137873313D01*
X188921675Y-137458788D01*
X188640972Y-137044264D01*
X188638794Y-137458788D01*
X188636615Y-137873313D01*
X188565298Y-137873313D01*
X188493981Y-137873313D01*
X188493981Y-137360945D01*
X188493981Y-136848578D01*
X188586350Y-136848578D01*
X188678719Y-136848578D01*
X188960126Y-137270638D01*
G37*
G36*
X190803836Y-135189682D02*
G01*
X190803836Y-135252678D01*
X190556051Y-135252678D01*
X190308267Y-135252678D01*
X190308267Y-135412268D01*
X190308267Y-135571858D01*
X190539252Y-135571858D01*
X190770238Y-135571858D01*
X190770238Y-135639054D01*
X190770238Y-135706249D01*
X190539252Y-135706249D01*
X190308267Y-135706249D01*
X190308267Y-135924636D01*
X190308267Y-136143022D01*
X190236871Y-136143022D01*
X190165476Y-136143022D01*
X190165476Y-135634854D01*
X190165476Y-135126686D01*
X190484656Y-135126686D01*
X190803836Y-135126686D01*
X190803836Y-135189682D01*
G37*
G36*
X177137897Y-135336673D02*
G01*
X177137897Y-135546660D01*
X177402480Y-135546660D01*
X177667063Y-135546660D01*
X177667063Y-135336673D01*
X177667063Y-135126686D01*
X177738459Y-135126686D01*
X177809854Y-135126686D01*
X177809854Y-135634854D01*
X177809854Y-136143022D01*
X177738459Y-136143022D01*
X177667063Y-136143022D01*
X177667063Y-135912037D01*
X177667063Y-135681051D01*
X177402480Y-135681051D01*
X177137897Y-135681051D01*
X177137897Y-135912037D01*
X177137897Y-136143022D01*
X177066501Y-136143022D01*
X176995106Y-136143022D01*
X176995106Y-135634854D01*
X176995106Y-135126686D01*
X177066501Y-135126686D01*
X177137897Y-135126686D01*
X177137897Y-135336673D01*
G37*
G36*
X178800992Y-135189682D02*
G01*
X178800992Y-135252678D01*
X178540608Y-135252678D01*
X178280225Y-135252678D01*
X178280225Y-135403869D01*
X178280225Y-135555059D01*
X178523809Y-135555059D01*
X178767394Y-135555059D01*
X178767394Y-135622255D01*
X178767394Y-135689451D01*
X178523809Y-135689451D01*
X178280225Y-135689451D01*
X178280225Y-135849041D01*
X178280225Y-136008630D01*
X178553207Y-136008630D01*
X178826190Y-136008630D01*
X178826190Y-136075826D01*
X178826190Y-136143022D01*
X178481812Y-136143022D01*
X178137434Y-136143022D01*
X178137434Y-135634854D01*
X178137434Y-135126686D01*
X178469213Y-135126686D01*
X178800992Y-135126686D01*
X178800992Y-135189682D01*
G37*
G36*
X183983465Y-135189682D02*
G01*
X183983465Y-135252678D01*
X183723082Y-135252678D01*
X183462698Y-135252678D01*
X183462698Y-135403869D01*
X183462698Y-135555059D01*
X183702083Y-135555059D01*
X183941468Y-135555059D01*
X183941468Y-135622255D01*
X183941468Y-135689451D01*
X183702083Y-135689451D01*
X183462698Y-135689451D01*
X183462698Y-135848924D01*
X183462698Y-136008398D01*
X183733581Y-136010614D01*
X184004464Y-136012830D01*
X184006917Y-136077926D01*
X184009370Y-136143022D01*
X183664639Y-136143022D01*
X183319907Y-136143022D01*
X183319907Y-135634854D01*
X183319907Y-135126686D01*
X183651686Y-135126686D01*
X183983465Y-135126686D01*
X183983465Y-135189682D01*
G37*
G36*
X187074471Y-137360606D02*
G01*
X187074471Y-137873313D01*
X187003075Y-137873313D01*
X186931680Y-137873313D01*
X186931680Y-137642328D01*
X186931680Y-137411342D01*
X186671296Y-137411342D01*
X186410912Y-137411342D01*
X186410912Y-137642328D01*
X186410912Y-137873313D01*
X186339517Y-137873313D01*
X186268121Y-137873313D01*
X186268121Y-137360945D01*
X186268121Y-136848578D01*
X186339517Y-136848578D01*
X186410912Y-136848578D01*
X186410912Y-137062764D01*
X186410912Y-137276951D01*
X186671152Y-137276951D01*
X186931391Y-137276951D01*
X186933635Y-137064864D01*
X186935879Y-136852777D01*
X187005175Y-136850338D01*
X187074471Y-136847898D01*
X187074471Y-137360606D01*
G37*
G36*
X195238756Y-136915773D02*
G01*
X195238756Y-136982969D01*
X194978373Y-136982969D01*
X194717989Y-136982969D01*
X194717989Y-137134160D01*
X194717989Y-137285350D01*
X194957374Y-137285350D01*
X195196759Y-137285350D01*
X195196759Y-137352546D01*
X195196759Y-137419742D01*
X194957374Y-137419742D01*
X194717989Y-137419742D01*
X194717989Y-137579332D01*
X194717989Y-137738921D01*
X194990972Y-137738921D01*
X195263955Y-137738921D01*
X195263955Y-137806117D01*
X195263955Y-137873313D01*
X194919576Y-137873313D01*
X194575198Y-137873313D01*
X194575198Y-137360945D01*
X194575198Y-136848578D01*
X194906977Y-136848578D01*
X195238756Y-136848578D01*
X195238756Y-136915773D01*
G37*
G36*
X181539219Y-135635129D02*
G01*
X181539219Y-136143572D01*
X181445760Y-136141197D01*
X181352302Y-136138822D01*
X181074084Y-135727929D01*
X180795866Y-135317036D01*
X180793687Y-135730029D01*
X180791508Y-136143022D01*
X180720192Y-136143022D01*
X180648875Y-136143022D01*
X180648875Y-135634854D01*
X180648875Y-135126686D01*
X180743369Y-135127069D01*
X180837864Y-135127453D01*
X181110070Y-135534766D01*
X181159714Y-135608946D01*
X181206676Y-135678918D01*
X181250112Y-135743438D01*
X181289179Y-135801264D01*
X181323033Y-135851150D01*
X181350831Y-135891853D01*
X181371728Y-135922129D01*
X181384881Y-135940735D01*
X181389353Y-135946452D01*
X181390749Y-135939202D01*
X181392054Y-135916736D01*
X181393240Y-135880637D01*
X181394280Y-135832488D01*
X181395145Y-135773871D01*
X181395810Y-135706370D01*
X181396246Y-135631566D01*
X181396425Y-135551044D01*
X181396428Y-135538756D01*
X181396428Y-135126686D01*
X181467824Y-135126686D01*
X181539219Y-135126686D01*
X181539219Y-135635129D01*
G37*
G36*
X185396676Y-136850338D02*
G01*
X185465972Y-136852777D01*
X185468137Y-137363045D01*
X185470302Y-137873313D01*
X185378311Y-137873313D01*
X185286321Y-137873313D01*
X185006570Y-137459702D01*
X184726819Y-137046091D01*
X184724640Y-137459702D01*
X184722460Y-137873313D01*
X184651144Y-137873313D01*
X184579828Y-137873313D01*
X184579828Y-137360945D01*
X184579828Y-136848578D01*
X184670423Y-136848578D01*
X184761019Y-136848578D01*
X185037720Y-137260843D01*
X185087835Y-137335416D01*
X185135244Y-137405784D01*
X185179110Y-137470715D01*
X185218595Y-137528977D01*
X185252861Y-137579337D01*
X185281069Y-137620564D01*
X185302381Y-137651426D01*
X185315960Y-137670691D01*
X185320901Y-137677112D01*
X185322173Y-137669782D01*
X185323363Y-137647229D01*
X185324445Y-137611031D01*
X185325394Y-137562762D01*
X185326187Y-137504000D01*
X185326798Y-137436320D01*
X185327203Y-137361299D01*
X185327376Y-137280514D01*
X185327381Y-137264507D01*
X185327381Y-136847898D01*
X185396676Y-136850338D01*
G37*
G36*
X188138411Y-135271577D02*
G01*
X188101159Y-135328294D01*
X188058412Y-135393105D01*
X188014041Y-135460157D01*
X187971918Y-135523598D01*
X187945375Y-135563421D01*
X187847222Y-135710374D01*
X187847222Y-135926698D01*
X187847222Y-136143022D01*
X187775826Y-136143022D01*
X187704431Y-136143022D01*
X187704431Y-135925197D01*
X187704431Y-135707371D01*
X187515443Y-135421038D01*
X187474593Y-135359046D01*
X187436778Y-135301462D01*
X187402969Y-135249781D01*
X187374139Y-135205500D01*
X187351260Y-135170114D01*
X187335307Y-135145119D01*
X187327250Y-135132010D01*
X187326455Y-135130411D01*
X187334277Y-135128874D01*
X187355459Y-135128031D01*
X187386573Y-135127954D01*
X187416664Y-135128502D01*
X187506873Y-135130886D01*
X187640485Y-135346904D01*
X187674008Y-135400700D01*
X187704823Y-135449378D01*
X187731807Y-135491226D01*
X187753839Y-135524535D01*
X187769798Y-135547593D01*
X187778562Y-135558690D01*
X187779786Y-135559407D01*
X187785569Y-135551701D01*
X187799204Y-135531579D01*
X187819537Y-135500802D01*
X187845415Y-135461136D01*
X187875684Y-135414341D01*
X187909189Y-135362183D01*
X187922552Y-135341288D01*
X188059627Y-135126686D01*
X188146460Y-135126686D01*
X188233293Y-135126686D01*
X188138411Y-135271577D01*
G37*
G36*
X183083254Y-135127399D02*
G01*
X183109020Y-135129316D01*
X183123476Y-135132099D01*
X183125319Y-135133928D01*
X183121830Y-135142808D01*
X183112706Y-135165984D01*
X183098472Y-135202125D01*
X183079654Y-135249899D01*
X183056776Y-135307974D01*
X183030362Y-135375018D01*
X183000938Y-135449699D01*
X182969028Y-135530684D01*
X182935157Y-135616642D01*
X182925132Y-135642081D01*
X182727744Y-136142991D01*
X182659052Y-136143007D01*
X182590360Y-136143022D01*
X182573768Y-136098925D01*
X182567736Y-136083081D01*
X182556255Y-136053115D01*
X182539922Y-136010576D01*
X182519334Y-135957015D01*
X182495087Y-135893983D01*
X182467778Y-135823031D01*
X182438002Y-135745708D01*
X182406358Y-135663566D01*
X182379977Y-135595115D01*
X182347849Y-135511687D01*
X182317596Y-135432979D01*
X182289748Y-135360377D01*
X182264834Y-135295270D01*
X182243383Y-135239046D01*
X182225927Y-135193093D01*
X182212993Y-135158799D01*
X182205112Y-135137552D01*
X182202778Y-135130740D01*
X182210570Y-135128989D01*
X182231547Y-135128043D01*
X182262111Y-135128001D01*
X182284569Y-135128482D01*
X182366360Y-135130886D01*
X182514306Y-135540933D01*
X182662252Y-135950981D01*
X182816750Y-135538833D01*
X182971249Y-135126686D01*
X183049684Y-135126686D01*
X183083254Y-135127399D01*
G37*
G36*
X182227976Y-137360694D02*
G01*
X182227976Y-137873313D01*
X182156660Y-137873313D01*
X182085343Y-137873313D01*
X182083164Y-137461320D01*
X182080985Y-137049328D01*
X181912688Y-137459221D01*
X181744390Y-137869113D01*
X181694302Y-137871331D01*
X181644213Y-137873549D01*
X181476223Y-137462686D01*
X181308234Y-137051823D01*
X181306055Y-137462568D01*
X181303876Y-137873313D01*
X181232559Y-137873313D01*
X181161243Y-137873313D01*
X181161243Y-137360945D01*
X181161243Y-136848578D01*
X181265247Y-136848578D01*
X181369250Y-136848578D01*
X181423393Y-136976669D01*
X181440538Y-137017303D01*
X181462824Y-137070227D01*
X181488902Y-137132236D01*
X181517426Y-137200123D01*
X181547048Y-137270683D01*
X181576421Y-137340710D01*
X181585662Y-137362756D01*
X181611485Y-137424111D01*
X181635254Y-137480094D01*
X181656199Y-137528928D01*
X181673551Y-137568837D01*
X181686538Y-137598045D01*
X181694392Y-137614778D01*
X181696427Y-137618111D01*
X181700082Y-137610070D01*
X181709559Y-137588012D01*
X181724229Y-137553431D01*
X181743462Y-137507823D01*
X181766631Y-137452682D01*
X181793106Y-137389501D01*
X181822258Y-137319776D01*
X181853460Y-137245000D01*
X181857993Y-137234125D01*
X182016920Y-136852777D01*
X182122448Y-136850426D01*
X182227976Y-136848076D01*
X182227976Y-137360694D01*
G37*
G36*
X180751013Y-137356746D02*
G01*
X180788178Y-137443599D01*
X180823336Y-137525906D01*
X180855937Y-137602366D01*
X180885429Y-137671678D01*
X180911260Y-137732543D01*
X180932879Y-137783660D01*
X180949734Y-137823728D01*
X180961274Y-137851449D01*
X180966947Y-137865520D01*
X180967449Y-137867013D01*
X180959917Y-137869676D01*
X180939138Y-137871782D01*
X180908663Y-137873058D01*
X180885453Y-137873313D01*
X180802851Y-137873313D01*
X180753161Y-137747360D01*
X180703472Y-137621407D01*
X180462897Y-137621368D01*
X180222321Y-137621329D01*
X180172644Y-137745221D01*
X180122967Y-137869113D01*
X180038244Y-137871497D01*
X179953520Y-137873881D01*
X180120519Y-137495337D01*
X180271939Y-137495337D01*
X180460285Y-137495337D01*
X180648630Y-137495337D01*
X180631259Y-137451240D01*
X180611587Y-137401658D01*
X180590102Y-137348115D01*
X180567736Y-137292872D01*
X180545421Y-137238190D01*
X180524091Y-137186330D01*
X180504678Y-137139553D01*
X180488114Y-137100119D01*
X180475332Y-137070291D01*
X180467264Y-137052329D01*
X180464992Y-137048091D01*
X180460106Y-137053393D01*
X180450171Y-137071971D01*
X180436301Y-137101473D01*
X180419607Y-137139548D01*
X180403460Y-137178283D01*
X180381678Y-137231532D01*
X180358642Y-137287551D01*
X180336519Y-137341091D01*
X180317474Y-137386902D01*
X180309879Y-137405042D01*
X180271939Y-137495337D01*
X180120519Y-137495337D01*
X180178756Y-137363329D01*
X180403992Y-136852777D01*
X180469587Y-136852777D01*
X180535183Y-136852777D01*
X180751013Y-137356746D01*
G37*
G36*
X184510532Y-135128313D02*
G01*
X184752017Y-135130886D01*
X184804613Y-135155176D01*
X184861521Y-135189534D01*
X184905059Y-135233952D01*
X184935341Y-135288608D01*
X184952484Y-135353679D01*
X184956048Y-135388133D01*
X184952886Y-135458434D01*
X184934948Y-135521010D01*
X184902695Y-135575211D01*
X184856591Y-135620383D01*
X184797096Y-135655875D01*
X184754728Y-135672395D01*
X184714199Y-135685607D01*
X184856427Y-135914314D01*
X184998656Y-136143022D01*
X184908934Y-136142885D01*
X184819213Y-136142748D01*
X184692227Y-135922399D01*
X184565242Y-135702050D01*
X184488540Y-135699635D01*
X184411838Y-135697220D01*
X184411838Y-135920121D01*
X184411838Y-136143022D01*
X184340443Y-136143022D01*
X184269047Y-136143022D01*
X184269047Y-135634381D01*
X184269047Y-135573584D01*
X184411838Y-135573584D01*
X184548330Y-135570612D01*
X184600230Y-135569298D01*
X184638580Y-135567671D01*
X184666627Y-135565294D01*
X184687620Y-135561730D01*
X184704806Y-135556544D01*
X184721433Y-135549300D01*
X184726819Y-135546650D01*
X184766968Y-135518768D01*
X184793006Y-135482012D01*
X184805312Y-135435751D01*
X184806475Y-135414098D01*
X184801023Y-135362928D01*
X184783686Y-135322193D01*
X184757098Y-135292506D01*
X184737940Y-135278458D01*
X184716479Y-135267797D01*
X184689914Y-135259931D01*
X184655442Y-135254272D01*
X184610260Y-135250227D01*
X184551566Y-135247207D01*
X184539930Y-135246749D01*
X184411838Y-135241867D01*
X184411838Y-135407726D01*
X184411838Y-135573584D01*
X184269047Y-135573584D01*
X184269047Y-135407726D01*
X184269047Y-135125740D01*
X184510532Y-135128313D01*
G37*
G36*
X162866917Y-136790467D02*
G01*
X162879239Y-136810486D01*
X162898788Y-136842667D01*
X162924883Y-136885876D01*
X162956840Y-136938976D01*
X162993977Y-137000832D01*
X163035610Y-137070306D01*
X163081057Y-137146265D01*
X163129635Y-137227571D01*
X163172433Y-137299292D01*
X163223076Y-137384311D01*
X163271053Y-137465054D01*
X163315688Y-137540375D01*
X163356308Y-137609126D01*
X163392239Y-137670160D01*
X163422806Y-137722330D01*
X163447335Y-137764488D01*
X163465152Y-137795486D01*
X163475583Y-137814178D01*
X163478144Y-137819529D01*
X163469319Y-137818690D01*
X163448914Y-137813750D01*
X163421333Y-137805776D01*
X163421126Y-137805712D01*
X163279803Y-137765608D01*
X163148677Y-137735998D01*
X163024868Y-137716829D01*
X162905495Y-137708049D01*
X162787680Y-137709608D01*
X162668541Y-137721452D01*
X162545200Y-137743531D01*
X162414777Y-137775791D01*
X162375826Y-137786866D01*
X162335760Y-137798552D01*
X162300487Y-137808837D01*
X162273741Y-137816631D01*
X162259258Y-137820847D01*
X162259020Y-137820916D01*
X162248001Y-137821605D01*
X162247299Y-137817940D01*
X162252284Y-137809482D01*
X162264962Y-137788099D01*
X162284503Y-137755187D01*
X162310075Y-137712146D01*
X162340846Y-137660371D01*
X162375985Y-137601263D01*
X162414661Y-137536216D01*
X162456042Y-137466631D01*
X162499296Y-137393904D01*
X162543592Y-137319433D01*
X162588100Y-137244616D01*
X162631986Y-137170851D01*
X162674420Y-137099534D01*
X162714570Y-137032065D01*
X162751606Y-136969841D01*
X162784694Y-136914259D01*
X162813005Y-136866717D01*
X162835706Y-136828613D01*
X162851966Y-136801345D01*
X162860953Y-136786310D01*
X162862506Y-136783746D01*
X162866917Y-136790467D01*
G37*
G36*
X179682936Y-135444323D02*
G01*
X179683183Y-135527411D01*
X179683894Y-135603300D01*
X179685028Y-135670265D01*
X179686542Y-135726577D01*
X179688395Y-135770511D01*
X179690544Y-135800339D01*
X179691858Y-135810222D01*
X179711388Y-135880976D01*
X179741259Y-135938794D01*
X179781170Y-135983400D01*
X179830818Y-136014518D01*
X179889901Y-136031874D01*
X179939120Y-136035695D01*
X180005011Y-136028356D01*
X180062412Y-136006587D01*
X180110771Y-135970765D01*
X180149539Y-135921262D01*
X180171045Y-135877757D01*
X180175949Y-135865236D01*
X180179992Y-135853203D01*
X180183269Y-135839941D01*
X180185878Y-135823732D01*
X180187916Y-135802859D01*
X180189479Y-135775604D01*
X180190664Y-135740251D01*
X180191568Y-135695081D01*
X180192287Y-135638378D01*
X180192919Y-135568423D01*
X180193559Y-135483500D01*
X180193604Y-135477364D01*
X180196156Y-135126686D01*
X180267126Y-135126686D01*
X180338095Y-135126686D01*
X180337949Y-135468964D01*
X180337772Y-135564459D01*
X180337220Y-135644864D01*
X180336130Y-135711887D01*
X180334341Y-135767236D01*
X180331689Y-135812618D01*
X180328012Y-135849741D01*
X180323148Y-135880313D01*
X180316933Y-135906042D01*
X180309206Y-135928635D01*
X180299804Y-135949801D01*
X180290472Y-135967763D01*
X180244932Y-136034966D01*
X180188626Y-136089626D01*
X180122476Y-136130979D01*
X180068548Y-136152307D01*
X180016201Y-136163478D01*
X179955813Y-136168282D01*
X179893853Y-136166763D01*
X179836792Y-136158968D01*
X179805143Y-136150470D01*
X179731499Y-136117079D01*
X179669236Y-136071398D01*
X179618203Y-136013274D01*
X179578246Y-135942553D01*
X179563855Y-135906626D01*
X179559246Y-135893217D01*
X179555428Y-135880057D01*
X179552312Y-135865445D01*
X179549808Y-135847679D01*
X179547825Y-135825059D01*
X179546275Y-135795884D01*
X179545067Y-135758453D01*
X179544111Y-135711066D01*
X179543317Y-135652022D01*
X179542596Y-135579620D01*
X179541858Y-135492158D01*
X179541840Y-135489963D01*
X179538889Y-135126686D01*
X179610913Y-135126686D01*
X179682936Y-135126686D01*
X179682936Y-135444323D01*
G37*
G36*
X192231072Y-136848792D02*
G01*
X192256988Y-136849367D01*
X192271693Y-136850200D01*
X192273674Y-136850677D01*
X192270667Y-136858644D01*
X192262010Y-136880935D01*
X192248216Y-136916245D01*
X192229796Y-136963270D01*
X192207263Y-137020705D01*
X192181128Y-137087247D01*
X192151903Y-137161590D01*
X192120100Y-137242430D01*
X192086231Y-137328463D01*
X192073438Y-137360945D01*
X191873270Y-137869113D01*
X191805494Y-137871540D01*
X191737719Y-137873967D01*
X191691017Y-137753948D01*
X191651554Y-137652376D01*
X191612573Y-137551748D01*
X191574543Y-137453296D01*
X191537935Y-137358249D01*
X191503216Y-137267837D01*
X191470856Y-137183292D01*
X191441325Y-137105843D01*
X191415091Y-137036721D01*
X191392624Y-136977157D01*
X191374393Y-136928382D01*
X191360867Y-136891624D01*
X191352515Y-136868116D01*
X191349801Y-136859163D01*
X191354912Y-136853833D01*
X191371563Y-136850482D01*
X191401731Y-136848847D01*
X191428775Y-136848578D01*
X191465578Y-136848744D01*
X191489074Y-136849861D01*
X191502752Y-136852854D01*
X191510105Y-136858649D01*
X191514621Y-136868171D01*
X191515869Y-136871676D01*
X191526912Y-136902830D01*
X191541979Y-136944956D01*
X191560404Y-136996224D01*
X191581524Y-137054802D01*
X191604671Y-137118860D01*
X191629181Y-137186566D01*
X191654390Y-137256090D01*
X191679630Y-137325599D01*
X191704239Y-137393264D01*
X191727549Y-137457253D01*
X191748896Y-137515735D01*
X191767615Y-137566878D01*
X191783041Y-137608853D01*
X191794508Y-137639827D01*
X191801351Y-137657970D01*
X191802981Y-137661975D01*
X191807183Y-137656866D01*
X191816671Y-137637014D01*
X191831022Y-137603478D01*
X191849809Y-137557312D01*
X191872609Y-137499574D01*
X191898995Y-137431320D01*
X191928543Y-137353605D01*
X191949963Y-137296598D01*
X191978745Y-137219767D01*
X192006194Y-137146707D01*
X192031659Y-137079139D01*
X192054486Y-137018785D01*
X192074024Y-136967366D01*
X192089619Y-136926605D01*
X192100619Y-136898223D01*
X192106227Y-136884275D01*
X192121608Y-136848578D01*
X192197676Y-136848578D01*
X192231072Y-136848792D01*
G37*
G36*
X187530054Y-137195056D02*
G01*
X187530994Y-137286674D01*
X187532047Y-137363215D01*
X187533430Y-137426400D01*
X187535357Y-137477951D01*
X187538045Y-137519590D01*
X187541709Y-137553036D01*
X187546564Y-137580013D01*
X187552825Y-137602241D01*
X187560710Y-137621442D01*
X187570432Y-137639337D01*
X187582207Y-137657648D01*
X187589255Y-137667966D01*
X187628712Y-137711573D01*
X187677885Y-137741729D01*
X187737180Y-137758644D01*
X187770667Y-137762197D01*
X187837996Y-137759100D01*
X187896347Y-137741805D01*
X187945706Y-137710320D01*
X187986058Y-137664654D01*
X188017010Y-137605765D01*
X188021686Y-137593751D01*
X188025547Y-137581898D01*
X188028684Y-137568511D01*
X188031189Y-137551890D01*
X188033153Y-137530337D01*
X188034669Y-137502154D01*
X188035827Y-137465644D01*
X188036719Y-137419108D01*
X188037438Y-137360847D01*
X188038074Y-137289165D01*
X188038711Y-137203455D01*
X188041254Y-136848578D01*
X188112227Y-136848578D01*
X188183201Y-136848578D01*
X188183201Y-137197597D01*
X188183082Y-137293525D01*
X188182602Y-137374362D01*
X188181579Y-137441814D01*
X188179828Y-137497588D01*
X188177166Y-137543392D01*
X188173409Y-137580931D01*
X188168375Y-137611913D01*
X188161879Y-137638044D01*
X188153738Y-137661031D01*
X188143768Y-137682581D01*
X188131786Y-137704401D01*
X188128017Y-137710839D01*
X188080986Y-137774674D01*
X188023296Y-137826012D01*
X187956266Y-137864134D01*
X187881217Y-137888319D01*
X187799469Y-137897849D01*
X187784801Y-137897959D01*
X187745352Y-137896111D01*
X187705746Y-137891778D01*
X187674236Y-137885875D01*
X187672939Y-137885533D01*
X187613382Y-137864689D01*
X187561607Y-137835032D01*
X187513152Y-137794808D01*
X187467627Y-137745183D01*
X187434560Y-137692442D01*
X187409938Y-137630158D01*
X187409475Y-137628679D01*
X187405626Y-137615189D01*
X187402452Y-137600636D01*
X187399889Y-137583331D01*
X187397873Y-137561587D01*
X187396339Y-137533714D01*
X187395223Y-137498023D01*
X187394461Y-137452828D01*
X187393989Y-137396438D01*
X187393741Y-137327166D01*
X187393655Y-137243323D01*
X187393651Y-137213206D01*
X187393651Y-136848578D01*
X187460195Y-136848578D01*
X187526739Y-136848578D01*
X187530054Y-137195056D01*
G37*
G36*
X178405533Y-136850355D02*
G01*
X178468625Y-136852777D01*
X178684934Y-137356746D01*
X178722169Y-137443582D01*
X178757385Y-137525874D01*
X178790030Y-137602322D01*
X178819553Y-137671626D01*
X178845402Y-137732487D01*
X178867025Y-137783605D01*
X178883872Y-137823681D01*
X178895390Y-137851415D01*
X178901028Y-137865508D01*
X178901514Y-137867013D01*
X178893837Y-137869676D01*
X178872948Y-137871754D01*
X178842432Y-137872978D01*
X178819891Y-137873188D01*
X178737996Y-137873063D01*
X178687599Y-137747235D01*
X178637202Y-137621408D01*
X178397110Y-137621368D01*
X178157017Y-137621329D01*
X178107328Y-137747282D01*
X178057639Y-137873235D01*
X177975744Y-137873274D01*
X177940967Y-137872759D01*
X177913524Y-137871342D01*
X177897015Y-137869266D01*
X177893849Y-137867734D01*
X177897126Y-137859498D01*
X177906495Y-137837464D01*
X177921268Y-137803206D01*
X177940755Y-137758295D01*
X177964265Y-137704301D01*
X177991109Y-137642799D01*
X178020597Y-137575358D01*
X178052039Y-137503551D01*
X178058402Y-137489037D01*
X178213011Y-137489037D01*
X178221016Y-137490867D01*
X178243422Y-137492488D01*
X178277831Y-137493819D01*
X178321845Y-137494776D01*
X178373066Y-137495280D01*
X178397817Y-137495337D01*
X178451498Y-137495230D01*
X178499049Y-137494931D01*
X178538072Y-137494472D01*
X178566169Y-137493884D01*
X178580943Y-137493200D01*
X178582606Y-137492870D01*
X178579527Y-137483835D01*
X178570956Y-137461739D01*
X178557890Y-137429000D01*
X178541326Y-137388039D01*
X178522263Y-137341276D01*
X178501696Y-137291132D01*
X178480624Y-137240026D01*
X178460045Y-137190378D01*
X178440955Y-137144610D01*
X178424351Y-137105139D01*
X178411233Y-137074388D01*
X178402596Y-137054776D01*
X178399544Y-137048690D01*
X178395355Y-137054922D01*
X178385828Y-137074367D01*
X178371957Y-137104679D01*
X178354737Y-137143512D01*
X178335162Y-137188519D01*
X178314224Y-137237355D01*
X178292919Y-137287672D01*
X178272241Y-137337124D01*
X178253182Y-137383365D01*
X178236738Y-137424048D01*
X178223902Y-137456827D01*
X178215668Y-137479355D01*
X178213011Y-137489037D01*
X178058402Y-137489037D01*
X178084745Y-137428950D01*
X178118025Y-137353126D01*
X178151190Y-137277651D01*
X178183550Y-137204097D01*
X178214414Y-137134036D01*
X178243093Y-137069039D01*
X178268897Y-137010679D01*
X178291136Y-136960526D01*
X178309121Y-136920154D01*
X178322161Y-136891133D01*
X178329320Y-136875553D01*
X178342440Y-136847932D01*
X178405533Y-136850355D01*
G37*
G36*
X176532852Y-136850126D02*
G01*
X176556772Y-136854574D01*
X176564396Y-136859077D01*
X176568955Y-136868343D01*
X176579347Y-136891418D01*
X176594896Y-136926722D01*
X176614927Y-136972674D01*
X176638766Y-137027695D01*
X176665737Y-137090203D01*
X176695165Y-137158618D01*
X176726376Y-137231359D01*
X176758694Y-137306846D01*
X176791444Y-137383499D01*
X176823953Y-137459736D01*
X176855544Y-137533978D01*
X176885542Y-137604643D01*
X176913274Y-137670153D01*
X176938063Y-137728924D01*
X176959234Y-137779379D01*
X176976114Y-137819935D01*
X176988027Y-137849012D01*
X176994297Y-137865031D01*
X176995106Y-137867645D01*
X176987315Y-137870083D01*
X176966345Y-137871570D01*
X176935794Y-137871935D01*
X176913432Y-137871517D01*
X176831758Y-137869113D01*
X176781452Y-137745221D01*
X176731146Y-137621329D01*
X176490742Y-137621329D01*
X176250337Y-137621329D01*
X176200648Y-137747282D01*
X176150959Y-137873235D01*
X176068165Y-137873274D01*
X176030337Y-137873028D01*
X176006516Y-137871903D01*
X175993915Y-137869383D01*
X175989746Y-137864953D01*
X175990871Y-137858982D01*
X175995134Y-137848980D01*
X176005588Y-137824934D01*
X176021651Y-137788170D01*
X176042739Y-137740018D01*
X176068271Y-137681804D01*
X176097663Y-137614857D01*
X176130334Y-137540505D01*
X176152203Y-137490773D01*
X176306349Y-137490773D01*
X176314350Y-137492096D01*
X176336757Y-137493268D01*
X176371181Y-137494231D01*
X176415228Y-137494926D01*
X176466507Y-137495294D01*
X176492036Y-137495337D01*
X176552467Y-137495259D01*
X176598078Y-137494918D01*
X176630848Y-137494152D01*
X176652756Y-137492800D01*
X176665780Y-137490700D01*
X176671899Y-137487692D01*
X176673092Y-137483614D01*
X176672286Y-137480638D01*
X176658786Y-137445181D01*
X176641794Y-137402150D01*
X176622268Y-137353813D01*
X176601170Y-137302442D01*
X176579457Y-137250307D01*
X176558090Y-137199679D01*
X176538029Y-137152828D01*
X176520231Y-137112024D01*
X176505658Y-137079539D01*
X176495269Y-137057642D01*
X176490023Y-137048604D01*
X176489679Y-137048535D01*
X176485309Y-137057324D01*
X176475624Y-137079231D01*
X176461631Y-137111827D01*
X176444340Y-137152679D01*
X176424757Y-137199357D01*
X176403890Y-137249430D01*
X176382748Y-137300467D01*
X176362337Y-137350036D01*
X176343667Y-137395706D01*
X176327743Y-137435047D01*
X176315575Y-137465628D01*
X176308171Y-137485016D01*
X176306349Y-137490773D01*
X176152203Y-137490773D01*
X176165701Y-137460076D01*
X176203182Y-137374897D01*
X176215632Y-137346614D01*
X176434893Y-136848578D01*
X176495584Y-136848578D01*
X176532852Y-136850126D01*
G37*
G36*
X182932929Y-136850351D02*
G01*
X182996528Y-136852777D01*
X183212814Y-137356528D01*
X183250049Y-137443348D01*
X183285256Y-137525629D01*
X183317884Y-137602072D01*
X183347383Y-137671375D01*
X183373200Y-137732238D01*
X183394786Y-137783362D01*
X183411588Y-137823445D01*
X183423055Y-137851188D01*
X183428637Y-137865289D01*
X183429100Y-137866796D01*
X183421302Y-137869559D01*
X183400309Y-137871733D01*
X183369720Y-137873033D01*
X183347205Y-137873274D01*
X183265311Y-137873235D01*
X183215621Y-137747282D01*
X183165932Y-137621329D01*
X182925132Y-137621329D01*
X182684332Y-137621329D01*
X182634643Y-137747282D01*
X182584953Y-137873235D01*
X182503059Y-137873274D01*
X182468282Y-137872802D01*
X182440838Y-137871500D01*
X182424329Y-137869591D01*
X182421164Y-137868182D01*
X182424438Y-137860105D01*
X182433802Y-137838220D01*
X182448571Y-137804087D01*
X182468060Y-137759270D01*
X182491582Y-137705331D01*
X182518452Y-137643832D01*
X182547985Y-137576336D01*
X182579494Y-137504405D01*
X182587820Y-137485417D01*
X182742322Y-137485417D01*
X182745632Y-137489034D01*
X182754644Y-137491651D01*
X182771343Y-137493427D01*
X182797716Y-137494522D01*
X182835751Y-137495098D01*
X182887433Y-137495313D01*
X182924852Y-137495337D01*
X182986372Y-137494992D01*
X183036907Y-137493998D01*
X183075049Y-137492417D01*
X183099389Y-137490308D01*
X183108517Y-137487734D01*
X183108520Y-137487389D01*
X183098353Y-137459966D01*
X183083983Y-137423191D01*
X183066385Y-137379373D01*
X183046531Y-137330821D01*
X183025397Y-137279846D01*
X183003955Y-137228756D01*
X182983181Y-137179860D01*
X182964047Y-137135469D01*
X182947527Y-137097892D01*
X182934596Y-137069438D01*
X182926227Y-137052417D01*
X182923480Y-137048574D01*
X182919044Y-137057346D01*
X182909266Y-137079210D01*
X182895175Y-137111709D01*
X182877796Y-137152390D01*
X182858156Y-137198798D01*
X182837284Y-137248479D01*
X182816204Y-137298978D01*
X182795945Y-137347840D01*
X182777533Y-137392611D01*
X182761994Y-137430837D01*
X182750357Y-137460062D01*
X182743647Y-137477833D01*
X182742726Y-137480638D01*
X182742322Y-137485417D01*
X182587820Y-137485417D01*
X182612295Y-137429601D01*
X182645701Y-137353487D01*
X182679027Y-137277626D01*
X182711587Y-137203579D01*
X182742696Y-137132909D01*
X182771668Y-137067179D01*
X182797817Y-137007950D01*
X182820458Y-136956786D01*
X182838905Y-136915248D01*
X182852472Y-136884899D01*
X182858607Y-136871350D01*
X182864799Y-136859498D01*
X182872611Y-136852693D01*
X182886175Y-136849768D01*
X182909621Y-136849556D01*
X182932929Y-136850351D01*
G37*
G36*
X189430182Y-135102358D02*
G01*
X189519439Y-135119696D01*
X189603588Y-135151000D01*
X189646980Y-135174334D01*
X189717883Y-135226616D01*
X189777131Y-135289275D01*
X189824537Y-135360410D01*
X189859913Y-135438122D01*
X189883071Y-135520509D01*
X189893824Y-135605673D01*
X189891982Y-135691712D01*
X189877359Y-135776726D01*
X189849766Y-135858816D01*
X189809016Y-135936080D01*
X189754920Y-136006619D01*
X189731635Y-136030490D01*
X189684982Y-136068252D01*
X189627955Y-136103645D01*
X189566941Y-136133211D01*
X189508328Y-136153493D01*
X189500960Y-136155328D01*
X189443147Y-136164547D01*
X189376805Y-136168063D01*
X189308327Y-136166023D01*
X189244103Y-136158577D01*
X189198256Y-136148294D01*
X189113621Y-136114866D01*
X189038091Y-136068116D01*
X188972662Y-136009432D01*
X188918330Y-135940204D01*
X188876094Y-135861821D01*
X188846950Y-135775673D01*
X188831894Y-135683150D01*
X188829960Y-135634854D01*
X188831632Y-135613864D01*
X188981406Y-135613864D01*
X188984178Y-135689064D01*
X188998999Y-135762331D01*
X189025683Y-135831325D01*
X189064046Y-135893704D01*
X189113904Y-135947128D01*
X189144148Y-135970480D01*
X189196002Y-135999651D01*
X189253735Y-136021634D01*
X189311937Y-136034877D01*
X189365200Y-136037831D01*
X189375926Y-136036922D01*
X189397457Y-136034343D01*
X189425884Y-136030846D01*
X189435295Y-136029671D01*
X189492926Y-136014903D01*
X189550840Y-135986524D01*
X189605361Y-135947251D01*
X189652816Y-135899798D01*
X189689531Y-135846882D01*
X189693964Y-135838484D01*
X189714186Y-135790051D01*
X189730682Y-135734549D01*
X189741623Y-135679247D01*
X189745211Y-135634854D01*
X189741694Y-135592267D01*
X189732247Y-135541808D01*
X189718528Y-135490593D01*
X189702193Y-135445739D01*
X189700050Y-135440932D01*
X189676440Y-135400716D01*
X189643085Y-135358390D01*
X189604898Y-135319385D01*
X189566792Y-135289134D01*
X189557574Y-135283413D01*
X189487291Y-135251790D01*
X189413306Y-135234865D01*
X189338172Y-135232323D01*
X189264441Y-135243848D01*
X189194666Y-135269126D01*
X189131398Y-135307842D01*
X189094486Y-135340562D01*
X189047221Y-135400081D01*
X189012742Y-135467032D01*
X188990865Y-135539073D01*
X188981406Y-135613864D01*
X188831632Y-135613864D01*
X188837680Y-135537948D01*
X188860516Y-135446845D01*
X188897984Y-135362772D01*
X188949598Y-135286958D01*
X188981141Y-135251940D01*
X189011119Y-135223592D01*
X189042663Y-135197023D01*
X189070172Y-135176871D01*
X189076740Y-135172805D01*
X189159096Y-135134208D01*
X189247277Y-135109607D01*
X189338550Y-135098992D01*
X189430182Y-135102358D01*
G37*
G36*
X185579012Y-135101733D02*
G01*
X185648480Y-135113523D01*
X185704953Y-135131505D01*
X185751508Y-135156980D01*
X185791222Y-135191250D01*
X185791667Y-135191718D01*
X185814982Y-135216251D01*
X185757147Y-135267651D01*
X185699312Y-135319051D01*
X185676149Y-135294874D01*
X185636540Y-135263980D01*
X185589465Y-135243780D01*
X185538159Y-135234033D01*
X185485860Y-135234500D01*
X185435804Y-135244942D01*
X185391229Y-135265120D01*
X185355370Y-135294794D01*
X185337831Y-135319874D01*
X185324803Y-135349236D01*
X185320785Y-135376128D01*
X185322215Y-135398631D01*
X185328664Y-135431631D01*
X185341091Y-135459579D01*
X185361309Y-135483869D01*
X185391130Y-135505895D01*
X185432368Y-135527049D01*
X185486836Y-135548726D01*
X185542230Y-135567733D01*
X185617058Y-135594294D01*
X185677001Y-135620576D01*
X185723890Y-135647951D01*
X185759558Y-135677788D01*
X185785837Y-135711459D01*
X185804560Y-135750335D01*
X185810617Y-135768563D01*
X185823031Y-135837811D01*
X185819714Y-135905305D01*
X185801736Y-135969127D01*
X185770163Y-136027357D01*
X185726063Y-136078078D01*
X185670505Y-136119371D01*
X185604556Y-136149318D01*
X185597379Y-136151631D01*
X185547894Y-136162192D01*
X185488835Y-136167399D01*
X185426556Y-136167234D01*
X185367412Y-136161681D01*
X185323181Y-136152374D01*
X185290693Y-136141822D01*
X185260252Y-136130117D01*
X185244525Y-136122862D01*
X185224352Y-136110040D01*
X185200487Y-136091757D01*
X185176722Y-136071366D01*
X185156847Y-136052217D01*
X185144653Y-136037663D01*
X185142592Y-136032737D01*
X185148647Y-136023195D01*
X185164760Y-136006124D01*
X185187857Y-135984470D01*
X185214866Y-135961178D01*
X185230148Y-135948836D01*
X185251986Y-135931658D01*
X185294133Y-135969552D01*
X185344636Y-136004934D01*
X185400605Y-136026935D01*
X185459065Y-136035518D01*
X185517044Y-136030645D01*
X185571568Y-136012279D01*
X185619663Y-135980381D01*
X185626797Y-135973793D01*
X185651015Y-135940448D01*
X185666121Y-135899348D01*
X185669804Y-135857605D01*
X185668336Y-135846028D01*
X185660427Y-135819378D01*
X185646272Y-135796263D01*
X185623998Y-135775402D01*
X185591732Y-135755515D01*
X185547601Y-135735321D01*
X185489731Y-135713540D01*
X185459131Y-135703021D01*
X185383178Y-135675195D01*
X185322108Y-135647251D01*
X185274067Y-135617643D01*
X185237200Y-135584824D01*
X185209654Y-135547247D01*
X185189573Y-135503365D01*
X185179364Y-135469633D01*
X185169277Y-135400673D01*
X185174471Y-135336056D01*
X185193741Y-135276891D01*
X185225885Y-135224287D01*
X185269699Y-135179350D01*
X185323979Y-135143188D01*
X185387522Y-135116911D01*
X185459123Y-135101626D01*
X185537579Y-135098441D01*
X185579012Y-135101733D01*
G37*
G36*
X190978480Y-136829959D02*
G01*
X191044822Y-136843830D01*
X191104566Y-136865909D01*
X191154199Y-136895306D01*
X191177692Y-136916114D01*
X191202811Y-136942590D01*
X191146333Y-136995285D01*
X191089855Y-137047980D01*
X191057316Y-137017026D01*
X191015943Y-136987240D01*
X190968284Y-136968437D01*
X190917356Y-136960221D01*
X190866179Y-136962196D01*
X190817772Y-136973966D01*
X190775152Y-136995136D01*
X190741338Y-137025309D01*
X190720401Y-137061211D01*
X190712736Y-137096274D01*
X190712805Y-137134708D01*
X190720398Y-137168226D01*
X190723243Y-137174474D01*
X190736701Y-137196230D01*
X190753978Y-137215074D01*
X190777327Y-137232292D01*
X190809000Y-137249173D01*
X190851251Y-137267002D01*
X190906333Y-137287066D01*
X190941113Y-137298917D01*
X191001425Y-137320079D01*
X191048424Y-137339067D01*
X191085155Y-137357540D01*
X191114662Y-137377158D01*
X191139988Y-137399580D01*
X191154668Y-137415325D01*
X191183817Y-137457260D01*
X191201662Y-137505425D01*
X191209236Y-137563143D01*
X191209589Y-137591931D01*
X191200727Y-137663281D01*
X191177150Y-137727352D01*
X191139760Y-137783048D01*
X191089460Y-137829275D01*
X191027154Y-137864938D01*
X190967332Y-137885636D01*
X190919808Y-137893859D01*
X190863322Y-137897350D01*
X190804980Y-137896124D01*
X190751889Y-137890196D01*
X190728240Y-137885134D01*
X190659442Y-137860614D01*
X190599688Y-137826705D01*
X190560482Y-137793754D01*
X190525523Y-137758133D01*
X190579516Y-137710730D01*
X190604691Y-137689227D01*
X190625204Y-137672816D01*
X190637762Y-137664089D01*
X190639743Y-137663326D01*
X190648707Y-137668549D01*
X190666164Y-137682228D01*
X190687925Y-137701041D01*
X190733840Y-137733598D01*
X190783960Y-137754312D01*
X190835948Y-137763822D01*
X190887464Y-137762766D01*
X190936173Y-137751781D01*
X190979736Y-137731506D01*
X191015815Y-137702578D01*
X191042072Y-137665635D01*
X191056170Y-137621316D01*
X191057913Y-137600072D01*
X191054817Y-137567085D01*
X191043440Y-137538488D01*
X191022259Y-137513046D01*
X190989754Y-137489524D01*
X190944401Y-137466687D01*
X190884681Y-137443300D01*
X190850033Y-137431373D01*
X190778586Y-137405851D01*
X190721488Y-137381134D01*
X190676453Y-137355668D01*
X190641198Y-137327900D01*
X190613438Y-137296278D01*
X190590889Y-137259249D01*
X190587800Y-137253101D01*
X190576756Y-137228783D01*
X190569841Y-137206961D01*
X190566116Y-137182355D01*
X190564644Y-137149685D01*
X190564451Y-137121560D01*
X190564862Y-137081714D01*
X190566735Y-137053656D01*
X190571028Y-137032383D01*
X190578701Y-137012890D01*
X190589060Y-136993146D01*
X190630532Y-136934821D01*
X190683536Y-136888689D01*
X190747996Y-136854799D01*
X190823838Y-136833199D01*
X190840045Y-136830408D01*
X190909050Y-136825188D01*
X190978480Y-136829959D01*
G37*
G36*
X179451415Y-136851568D02*
G01*
X179511009Y-136855385D01*
X179560069Y-136861893D01*
X179600659Y-136871489D01*
X179634847Y-136884565D01*
X179664697Y-136901518D01*
X179692274Y-136922741D01*
X179698173Y-136927960D01*
X179734232Y-136967758D01*
X179757245Y-137011785D01*
X179768753Y-137063787D01*
X179770793Y-137104761D01*
X179769928Y-137141660D01*
X179766414Y-137168390D01*
X179758794Y-137191540D01*
X179745959Y-137217064D01*
X179716492Y-137260056D01*
X179679089Y-137293445D01*
X179636468Y-137318039D01*
X179604863Y-137333412D01*
X179634017Y-137338882D01*
X179681114Y-137355697D01*
X179725340Y-137386306D01*
X179763695Y-137427703D01*
X179793174Y-137476883D01*
X179805972Y-137510970D01*
X179816953Y-137576884D01*
X179812137Y-137640968D01*
X179792522Y-137700996D01*
X179759105Y-137754744D01*
X179712884Y-137799986D01*
X179662572Y-137830916D01*
X179634772Y-137843341D01*
X179607248Y-137853129D01*
X179577539Y-137860579D01*
X179543185Y-137865994D01*
X179501724Y-137869674D01*
X179450693Y-137871920D01*
X179387632Y-137873032D01*
X179315729Y-137873313D01*
X179103243Y-137873313D01*
X179103772Y-137748709D01*
X179246164Y-137748709D01*
X179391055Y-137745752D01*
X179444783Y-137744482D01*
X179484791Y-137742933D01*
X179514158Y-137740724D01*
X179535960Y-137737474D01*
X179553278Y-137732802D01*
X179569188Y-137726327D01*
X179576559Y-137722798D01*
X179616903Y-137696655D01*
X179643659Y-137663524D01*
X179658187Y-137621055D01*
X179661938Y-137575132D01*
X179660941Y-137540522D01*
X179656897Y-137516142D01*
X179648222Y-137495487D01*
X179638830Y-137480190D01*
X179616625Y-137454274D01*
X179588997Y-137431646D01*
X179580033Y-137426244D01*
X179565731Y-137419305D01*
X179550759Y-137414186D01*
X179532197Y-137410542D01*
X179507125Y-137408029D01*
X179472626Y-137406302D01*
X179425780Y-137405015D01*
X179395254Y-137404399D01*
X179246164Y-137401582D01*
X179246164Y-137575145D01*
X179246164Y-137748709D01*
X179103772Y-137748709D01*
X179104508Y-137575145D01*
X179105408Y-137363045D01*
X179105764Y-137278993D01*
X179246164Y-137278993D01*
X179374256Y-137275545D01*
X179425394Y-137273897D01*
X179463120Y-137271821D01*
X179490821Y-137268860D01*
X179511883Y-137264559D01*
X179529694Y-137258459D01*
X179541928Y-137252930D01*
X179579883Y-137226456D01*
X179605571Y-137191852D01*
X179619278Y-137152158D01*
X179621286Y-137110412D01*
X179611878Y-137069652D01*
X179591338Y-137032918D01*
X179559950Y-137003248D01*
X179517997Y-136983680D01*
X179516786Y-136983339D01*
X179496966Y-136980156D01*
X179464456Y-136977491D01*
X179423366Y-136975581D01*
X179377802Y-136974663D01*
X179365856Y-136974616D01*
X179246164Y-136974570D01*
X179246164Y-137126781D01*
X179246164Y-137278993D01*
X179105764Y-137278993D01*
X179106410Y-137126781D01*
X179107573Y-136852777D01*
X179292361Y-136850433D01*
X179379221Y-136850049D01*
X179451415Y-136851568D01*
G37*
G36*
X162866182Y-134314004D02*
G01*
X163886116Y-134316137D01*
X164192366Y-134845606D01*
X164498616Y-135375074D01*
X165441601Y-135440900D01*
X165566005Y-135449551D01*
X165685772Y-135457815D01*
X165799830Y-135465622D01*
X165907107Y-135472901D01*
X166006533Y-135479582D01*
X166097036Y-135485593D01*
X166177544Y-135490866D01*
X166246988Y-135495328D01*
X166304294Y-135498910D01*
X166348393Y-135501541D01*
X166378212Y-135503150D01*
X166392680Y-135503667D01*
X166393884Y-135503594D01*
X166391352Y-135495978D01*
X166381097Y-135474931D01*
X166363745Y-135441598D01*
X166339925Y-135397123D01*
X166310263Y-135342651D01*
X166275387Y-135279328D01*
X166235923Y-135208299D01*
X166192500Y-135130708D01*
X166145744Y-135047700D01*
X166097689Y-134962896D01*
X166048235Y-134875717D01*
X166001408Y-134792868D01*
X165957846Y-134715492D01*
X165918183Y-134644733D01*
X165883056Y-134581734D01*
X165853099Y-134527640D01*
X165828949Y-134483592D01*
X165811242Y-134450736D01*
X165800612Y-134430215D01*
X165797666Y-134423176D01*
X165807230Y-134423306D01*
X165832195Y-134424754D01*
X165871267Y-134427414D01*
X165923154Y-134431179D01*
X165986562Y-134435944D01*
X166060198Y-134441601D01*
X166142770Y-134448046D01*
X166232984Y-134455171D01*
X166329548Y-134462870D01*
X166431169Y-134471038D01*
X166536552Y-134479567D01*
X166644407Y-134488353D01*
X166753438Y-134497287D01*
X166862355Y-134506265D01*
X166969863Y-134515180D01*
X167074669Y-134523926D01*
X167175481Y-134532397D01*
X167271005Y-134540485D01*
X167359949Y-134548086D01*
X167441020Y-134555093D01*
X167512924Y-134561399D01*
X167574369Y-134566899D01*
X167624061Y-134571486D01*
X167660708Y-134575055D01*
X167683017Y-134577498D01*
X167689751Y-134578620D01*
X167695041Y-134587104D01*
X167708044Y-134609479D01*
X167728360Y-134645027D01*
X167755590Y-134693031D01*
X167789335Y-134752775D01*
X167829194Y-134823543D01*
X167874770Y-134904618D01*
X167925662Y-134995284D01*
X167981471Y-135094823D01*
X168041799Y-135202520D01*
X168106244Y-135317658D01*
X168174409Y-135439520D01*
X168245894Y-135567390D01*
X168320300Y-135700551D01*
X168397227Y-135838286D01*
X168476275Y-135979880D01*
X168557047Y-136124616D01*
X168639141Y-136271776D01*
X168722160Y-136420645D01*
X168805703Y-136570506D01*
X168889371Y-136720643D01*
X168972766Y-136870338D01*
X169055487Y-137018876D01*
X169137135Y-137165540D01*
X169217312Y-137309613D01*
X169295617Y-137450378D01*
X169371651Y-137587120D01*
X169445016Y-137719121D01*
X169515311Y-137845666D01*
X169582137Y-137966037D01*
X169645096Y-138079518D01*
X169703787Y-138185393D01*
X169757812Y-138282945D01*
X169806771Y-138371457D01*
X169850264Y-138450212D01*
X169887893Y-138518496D01*
X169919258Y-138575590D01*
X169943959Y-138620778D01*
X169961599Y-138653344D01*
X169971776Y-138672571D01*
X169974263Y-138677891D01*
X169964625Y-138676918D01*
X169940289Y-138673088D01*
X169903051Y-138666720D01*
X169854709Y-138658136D01*
X169797060Y-138647656D01*
X169731902Y-138635600D01*
X169661030Y-138622290D01*
X169636069Y-138617557D01*
X169444682Y-138581445D01*
X169267669Y-138548606D01*
X169102998Y-138518696D01*
X168948639Y-138491369D01*
X168802560Y-138466283D01*
X168662729Y-138443092D01*
X168527116Y-138421453D01*
X168393689Y-138401021D01*
X168260418Y-138381452D01*
X168155150Y-138366550D01*
X168021247Y-138347883D01*
X167544606Y-137508873D01*
X167482327Y-137399295D01*
X167422293Y-137293762D01*
X167365033Y-137193199D01*
X167311076Y-137098530D01*
X167260948Y-137010678D01*
X167215179Y-136930567D01*
X167174297Y-136859120D01*
X167138830Y-136797261D01*
X167109306Y-136745914D01*
X167086255Y-136706002D01*
X167070203Y-136678450D01*
X167061680Y-136664181D01*
X167060451Y-136662349D01*
X167051478Y-136660974D01*
X167027052Y-136658539D01*
X166988467Y-136655140D01*
X166937017Y-136650870D01*
X166873997Y-136645822D01*
X166800701Y-136640089D01*
X166718423Y-136633766D01*
X166628457Y-136626946D01*
X166532097Y-136619722D01*
X166430638Y-136612189D01*
X166325373Y-136604438D01*
X166217598Y-136596565D01*
X166108606Y-136588662D01*
X165999691Y-136580823D01*
X165892147Y-136573141D01*
X165787269Y-136565711D01*
X165686351Y-136558625D01*
X165590687Y-136551978D01*
X165501572Y-136545862D01*
X165420299Y-136540372D01*
X165348162Y-136535600D01*
X165286456Y-136531641D01*
X165236476Y-136528587D01*
X165199514Y-136526533D01*
X165176866Y-136525572D01*
X165169801Y-136525707D01*
X165173523Y-136533190D01*
X165185157Y-136554267D01*
X165204169Y-136588011D01*
X165230027Y-136633493D01*
X165262198Y-136689785D01*
X165300148Y-136755960D01*
X165343346Y-136831091D01*
X165391257Y-136914248D01*
X165443348Y-137004504D01*
X165499088Y-137100931D01*
X165557942Y-137202602D01*
X165619378Y-137308588D01*
X165633477Y-137332892D01*
X165695423Y-137439720D01*
X165754914Y-137542438D01*
X165811415Y-137640120D01*
X165864394Y-137731837D01*
X165913317Y-137816662D01*
X165957651Y-137893666D01*
X165996861Y-137961923D01*
X166030416Y-138020503D01*
X166057780Y-138068480D01*
X166078421Y-138104926D01*
X166091806Y-138128913D01*
X166097400Y-138139512D01*
X166097531Y-138139957D01*
X166088918Y-138139867D01*
X166064914Y-138138732D01*
X166026885Y-138136636D01*
X165976202Y-138133663D01*
X165914233Y-138129896D01*
X165842347Y-138125420D01*
X165761912Y-138120319D01*
X165674297Y-138114676D01*
X165580871Y-138108574D01*
X165524662Y-138104866D01*
X165391068Y-138096087D01*
X165271505Y-138088401D01*
X165163250Y-138081666D01*
X165063581Y-138075740D01*
X164969775Y-138070481D01*
X164879110Y-138065749D01*
X164788863Y-138061401D01*
X164696311Y-138057295D01*
X164598733Y-138053290D01*
X164493404Y-138049243D01*
X164377603Y-138045015D01*
X164368356Y-138044684D01*
X164210621Y-138039049D01*
X163537751Y-136917636D01*
X162864882Y-135796224D01*
X162844978Y-135828932D01*
X162838434Y-135839791D01*
X162823743Y-135864242D01*
X162801394Y-135901469D01*
X162771877Y-135950656D01*
X162735680Y-136010987D01*
X162693295Y-136081646D01*
X162645209Y-136161816D01*
X162591913Y-136250681D01*
X162533896Y-136347425D01*
X162471647Y-136451232D01*
X162405657Y-136561286D01*
X162336415Y-136676770D01*
X162264410Y-136796868D01*
X162190131Y-136920765D01*
X162172187Y-136950697D01*
X161519299Y-138039755D01*
X161401597Y-138044859D01*
X161246157Y-138051628D01*
X161105836Y-138057811D01*
X160978969Y-138063494D01*
X160863888Y-138068766D01*
X160758929Y-138073714D01*
X160662425Y-138078426D01*
X160572710Y-138082990D01*
X160488118Y-138087493D01*
X160406984Y-138092024D01*
X160327640Y-138096669D01*
X160248421Y-138101517D01*
X160167661Y-138106656D01*
X160083693Y-138112173D01*
X159994853Y-138118156D01*
X159944180Y-138121617D01*
X159521872Y-138153506D01*
X159095028Y-138191457D01*
X158666085Y-138235150D01*
X158237481Y-138284265D01*
X157811654Y-138338482D01*
X157391040Y-138397481D01*
X156978077Y-138460942D01*
X156575203Y-138528544D01*
X156184856Y-138599968D01*
X155950825Y-138645904D01*
X155899410Y-138656159D01*
X155853201Y-138665160D01*
X155814880Y-138672403D01*
X155787123Y-138677383D01*
X155772612Y-138679596D01*
X155771538Y-138679662D01*
X155766382Y-138675811D01*
X155770292Y-138662711D01*
X155780363Y-138643964D01*
X155786178Y-138633658D01*
X155799833Y-138609287D01*
X155820988Y-138571458D01*
X155849305Y-138520779D01*
X155884444Y-138457859D01*
X155926066Y-138383305D01*
X155973832Y-138297726D01*
X156027403Y-138201729D01*
X156086439Y-138095922D01*
X156150601Y-137980914D01*
X156219551Y-137857312D01*
X156292948Y-137725724D01*
X156370455Y-137586758D01*
X156451731Y-137441022D01*
X156536437Y-137289125D01*
X156624235Y-137131673D01*
X156714785Y-136969276D01*
X156807748Y-136802541D01*
X156902784Y-136632075D01*
X156920224Y-136600793D01*
X157015433Y-136430036D01*
X157108558Y-136263068D01*
X157199263Y-136100486D01*
X157287215Y-135942889D01*
X157372078Y-135790874D01*
X157453519Y-135645040D01*
X157531203Y-135505984D01*
X157604795Y-135374305D01*
X157673961Y-135250600D01*
X157738366Y-135135467D01*
X157797676Y-135029504D01*
X157851556Y-134933309D01*
X157899672Y-134847480D01*
X157941690Y-134772615D01*
X157977274Y-134709313D01*
X158006090Y-134658170D01*
X158027804Y-134619784D01*
X158042082Y-134594755D01*
X158048588Y-134583679D01*
X158048933Y-134583184D01*
X158058493Y-134580748D01*
X158083668Y-134577228D01*
X158124573Y-134572614D01*
X158181325Y-134566897D01*
X158254041Y-134560064D01*
X158342837Y-134552107D01*
X158447830Y-134543014D01*
X158569135Y-134532775D01*
X158706870Y-134521380D01*
X158861150Y-134508817D01*
X158999161Y-134497712D01*
X159123224Y-134487807D01*
X159242560Y-134478340D01*
X159356106Y-134469393D01*
X159462800Y-134461045D01*
X159561580Y-134453380D01*
X159651383Y-134446477D01*
X159731146Y-134440417D01*
X159799808Y-134435282D01*
X159856305Y-134431153D01*
X159899576Y-134428110D01*
X159928559Y-134426236D01*
X159942189Y-134425610D01*
X159943132Y-134425683D01*
X159939409Y-134433218D01*
X159927801Y-134454599D01*
X159908733Y-134489073D01*
X159882631Y-134535885D01*
X159849918Y-134594282D01*
X159811021Y-134663510D01*
X159766365Y-134742816D01*
X159716374Y-134831446D01*
X159661475Y-134928646D01*
X159602091Y-135033664D01*
X159538648Y-135145744D01*
X159471572Y-135264134D01*
X159401286Y-135388079D01*
X159328218Y-135516827D01*
X159252790Y-135649623D01*
X159243878Y-135665307D01*
X159168203Y-135798522D01*
X159094834Y-135927775D01*
X159024196Y-136052309D01*
X158956714Y-136171373D01*
X158892815Y-136284213D01*
X158832922Y-136390076D01*
X158777461Y-136488207D01*
X158726858Y-136577853D01*
X158681538Y-136658262D01*
X158641926Y-136728679D01*
X158608447Y-136788351D01*
X158581527Y-136836525D01*
X158561590Y-136872447D01*
X158549063Y-136895364D01*
X158544370Y-136904521D01*
X158544353Y-136904659D01*
X158552938Y-136904228D01*
X158577182Y-136902195D01*
X158616034Y-136898663D01*
X158668442Y-136893735D01*
X158733351Y-136887514D01*
X158809712Y-136880102D01*
X158896470Y-136871602D01*
X158992573Y-136862118D01*
X159096970Y-136851751D01*
X159208607Y-136840606D01*
X159326433Y-136828784D01*
X159449395Y-136816389D01*
X159499719Y-136811300D01*
X159654349Y-136795603D01*
X159792955Y-136781433D01*
X159916234Y-136768711D01*
X160024882Y-136757359D01*
X160119598Y-136747297D01*
X160201079Y-136738448D01*
X160270023Y-136730733D01*
X160327126Y-136724073D01*
X160373086Y-136718389D01*
X160408600Y-136713604D01*
X160434367Y-136709638D01*
X160451083Y-136706412D01*
X160459445Y-136703849D01*
X160460597Y-136703005D01*
X160465679Y-136694541D01*
X160478725Y-136672306D01*
X160499288Y-136637073D01*
X160526921Y-136589612D01*
X160561176Y-136530695D01*
X160601606Y-136461092D01*
X160647763Y-136381575D01*
X160699200Y-136292914D01*
X160755470Y-136195882D01*
X160816125Y-136091249D01*
X160880718Y-135979787D01*
X160948802Y-135862266D01*
X161019928Y-135739457D01*
X161093650Y-135612133D01*
X161157698Y-135501489D01*
X161846249Y-134311871D01*
X162866182Y-134314004D01*
G37*
D12*
%TO.C,Terasic-J1*%
X138184542Y-76659471D02*
X138184542Y-77659471D01*
X138184542Y-77659471D02*
X139184542Y-77159471D01*
X139184542Y-77159471D02*
X138184542Y-76659471D01*
X139574542Y-71949471D02*
X148694542Y-71949471D01*
X139574542Y-99239471D02*
X140884542Y-99239471D01*
X139574542Y-130629471D02*
X139574542Y-71949471D01*
X140884542Y-73249471D02*
X147384542Y-73249471D01*
X140884542Y-99239471D02*
X140884542Y-73249471D01*
X140884542Y-103339471D02*
X139574542Y-103339471D01*
X140884542Y-129329471D02*
X140884542Y-103339471D01*
X147384542Y-73249471D02*
X147384542Y-129329471D01*
X147384542Y-129329471D02*
X140884542Y-129329471D01*
X148694542Y-71949471D02*
X148694542Y-130629471D01*
X148694542Y-130629471D02*
X139574542Y-130629471D01*
%TO.C,Alinx-J2*%
X151591028Y-76713312D02*
X151591028Y-77713312D01*
X151591028Y-77713312D02*
X152591028Y-77213312D01*
X152591028Y-77213312D02*
X151591028Y-76713312D01*
X152981028Y-72003312D02*
X162101028Y-72003312D01*
X152981028Y-99293312D02*
X154291028Y-99293312D01*
X152981028Y-130683312D02*
X152981028Y-72003312D01*
X154291028Y-73303312D02*
X160791028Y-73303312D01*
X154291028Y-99293312D02*
X154291028Y-73303312D01*
X154291028Y-103393312D02*
X152981028Y-103393312D01*
X154291028Y-129383312D02*
X154291028Y-103393312D01*
X160791028Y-73303312D02*
X160791028Y-129383312D01*
X160791028Y-129383312D02*
X154291028Y-129383312D01*
X162101028Y-72003312D02*
X162101028Y-130683312D01*
X162101028Y-130683312D02*
X152981028Y-130683312D01*
%TO.C,C2*%
X179758748Y-104675000D02*
X180281252Y-104675000D01*
X179758748Y-106145000D02*
X180281252Y-106145000D01*
%TO.C,U2*%
X176530000Y-107105000D02*
X172930000Y-107105000D01*
X176530000Y-107105000D02*
X178730000Y-107105000D01*
X176530000Y-113875000D02*
X174330000Y-113875000D01*
X176530000Y-113875000D02*
X178730000Y-113875000D01*
%TO.C,C1*%
X179758748Y-89435000D02*
X180281252Y-89435000D01*
X179758748Y-90905000D02*
X180281252Y-90905000D01*
%TO.C,J2*%
X194182951Y-89874992D02*
X203302951Y-89874992D01*
X194182951Y-118074992D02*
X194182951Y-89874992D01*
X195492951Y-91174992D02*
X201992951Y-91174992D01*
X195492951Y-116774992D02*
X195492951Y-91174992D01*
X201992951Y-91174992D02*
X201992951Y-101924992D01*
X201992951Y-101924992D02*
X203302951Y-101924992D01*
X201992951Y-106024992D02*
X201992951Y-116774992D01*
X201992951Y-116774992D02*
X195492951Y-116774992D01*
X203302951Y-89874992D02*
X203302951Y-118074992D01*
X203302951Y-106024992D02*
X201992951Y-106024992D01*
X203302951Y-118074992D02*
X194182951Y-118074992D01*
X203692951Y-112864992D02*
X204692951Y-113364992D01*
X204692951Y-112364992D02*
X203692951Y-112864992D01*
X204692951Y-113364992D02*
X204692951Y-112364992D01*
%TD*%
M02*
