%TF.GenerationSoftware,KiCad,Pcbnew,9.0.5*%
%TF.CreationDate,2026-04-25T14:08:38-05:00*%
%TF.ProjectId,CPE495-LED-Driver-Board,43504534-3935-42d4-9c45-442d44726976,v0.2*%
%TF.SameCoordinates,Original*%
%TF.FileFunction,Copper,L2,Bot*%
%TF.FilePolarity,Positive*%
%FSLAX46Y46*%
G04 Gerber Fmt 4.6, Leading zero omitted, Abs format (unit mm)*
G04 Created by KiCad (PCBNEW 9.0.5) date 2026-04-25 14:08:38*
%MOMM*%
%LPD*%
G01*
G04 APERTURE LIST*
G04 Aperture macros list*
%AMRoundRect*
0 Rectangle with rounded corners*
0 $1 Rounding radius*
0 $2 $3 $4 $5 $6 $7 $8 $9 X,Y pos of 4 corners*
0 Add a 4 corners polygon primitive as box body*
4,1,4,$2,$3,$4,$5,$6,$7,$8,$9,$2,$3,0*
0 Add four circle primitives for the rounded corners*
1,1,$1+$1,$2,$3*
1,1,$1+$1,$4,$5*
1,1,$1+$1,$6,$7*
1,1,$1+$1,$8,$9*
0 Add four rect primitives between the rounded corners*
20,1,$1+$1,$2,$3,$4,$5,0*
20,1,$1+$1,$4,$5,$6,$7,0*
20,1,$1+$1,$6,$7,$8,$9,0*
20,1,$1+$1,$8,$9,$2,$3,0*%
G04 Aperture macros list end*
%TA.AperFunction,ComponentPad*%
%ADD10C,0.800000*%
%TD*%
%TA.AperFunction,ComponentPad*%
%ADD11C,5.000000*%
%TD*%
%TA.AperFunction,ComponentPad*%
%ADD12RoundRect,0.250000X-0.600000X-0.600000X0.600000X-0.600000X0.600000X0.600000X-0.600000X0.600000X0*%
%TD*%
%TA.AperFunction,ComponentPad*%
%ADD13C,1.700000*%
%TD*%
%TA.AperFunction,ComponentPad*%
%ADD14RoundRect,0.250000X0.600000X0.600000X-0.600000X0.600000X-0.600000X-0.600000X0.600000X-0.600000X0*%
%TD*%
%TA.AperFunction,ViaPad*%
%ADD15C,0.800000*%
%TD*%
%TA.AperFunction,Conductor*%
%ADD16C,0.400000*%
%TD*%
%TA.AperFunction,Conductor*%
%ADD17C,0.250000*%
%TD*%
G04 APERTURE END LIST*
D10*
%TO.P,H3,1,1*%
%TO.N,GND*%
X199125000Y-135125000D03*
X199674175Y-133799175D03*
X199674175Y-136450825D03*
X201000000Y-133250000D03*
D11*
X201000000Y-135125000D03*
D10*
X201000000Y-137000000D03*
X202325825Y-133799175D03*
X202325825Y-136450825D03*
X202875000Y-135125000D03*
%TD*%
%TO.P,H4,1,1*%
%TO.N,GND*%
X140622058Y-135125000D03*
X141171233Y-133799175D03*
X141171233Y-136450825D03*
X142497058Y-133250000D03*
D11*
X142497058Y-135125000D03*
D10*
X142497058Y-137000000D03*
X143822883Y-133799175D03*
X143822883Y-136450825D03*
X144372058Y-135125000D03*
%TD*%
D12*
%TO.P,Terasic-J1,1,Pin_1*%
%TO.N,GPIO0 (AB22) (V10) (1N)*%
X142864542Y-77159471D03*
D13*
%TO.P,Terasic-J1,2,Pin_2*%
%TO.N,GPIO1 (AC15) (W10) (1P)*%
X145404542Y-77159471D03*
%TO.P,Terasic-J1,3,Pin_3*%
%TO.N,GPIO2 (AB21) (V9) (2N)*%
X142864542Y-79699471D03*
%TO.P,Terasic-J1,4,Pin_4*%
%TO.N,GPIO3 (Y17) (W9) (2P)*%
X145404542Y-79699471D03*
%TO.P,Terasic-J1,5,Pin_5*%
%TO.N,GPIO4 (AC21) (V8) (3N)*%
X142864542Y-82239471D03*
%TO.P,Terasic-J1,6,Pin_6*%
%TO.N,GPIO5 (Y16) (W8) (3P)*%
X145404542Y-82239471D03*
%TO.P,Terasic-J1,7,Pin_7*%
%TO.N,GPIO6 (AD21) (V7) (4N)*%
X142864542Y-84779471D03*
%TO.P,Terasic-J1,8,Pin_8*%
%TO.N,GPIO7 (AE16) (W7) (4P)*%
X145404542Y-84779471D03*
%TO.P,Terasic-J1,9,Pin_9*%
%TO.N,GPIO8 (AD15) (W6) (5N)*%
X142864542Y-87319471D03*
%TO.P,Terasic-J1,10,Pin_10*%
%TO.N,GPIO9 (AE15) (V5) (5P)*%
X145404542Y-87319471D03*
%TO.P,Terasic-J1,11,Pin_11*%
%TO.N,+5V*%
X142864542Y-89859471D03*
%TO.P,Terasic-J1,12,Pin_12*%
%TO.N,GND*%
X145404542Y-89859471D03*
%TO.P,Terasic-J1,13,Pin_13*%
%TO.N,GPIO10 (AC19) (W5) (6N)*%
X142864542Y-92399471D03*
%TO.P,Terasic-J1,14,Pin_14*%
%TO.N,GPIO11 (AF16) (AA15) (6P)*%
X145404542Y-92399471D03*
%TO.P,Terasic-J1,15,Pin_15*%
%TO.N,GPIO12 (AD19) (AA14) (7N)*%
X142864542Y-94939471D03*
%TO.P,Terasic-J1,16,Pin_16*%
%TO.N,GPIO13 (AF15) (W13) (7P)*%
X145404542Y-94939471D03*
%TO.P,Terasic-J1,17,Pin_17*%
%TO.N,GPIO14 (AF24) (W12) (8N)*%
X142864542Y-97479471D03*
%TO.P,Terasic-J1,18,Pin_18*%
%TO.N,GPIO15 (AE21) (AB13) (8P)*%
X145404542Y-97479471D03*
%TO.P,Terasic-J1,19,Pin_19*%
%TO.N,GPIO16 (AF25) (AB12) (9N)*%
X142864542Y-100019471D03*
%TO.P,Terasic-J1,20,Pin_20*%
%TO.N,GPIO17 (AC22) (Y11) (9P)*%
X145404542Y-100019471D03*
%TO.P,Terasic-J1,21,Pin_21*%
%TO.N,GPIO18 (AE22) (AB11) (10N)*%
X142864542Y-102559471D03*
%TO.P,Terasic-J1,22,Pin_22*%
%TO.N,GPIO19 (AF21) (W11) (10P)*%
X145404542Y-102559471D03*
%TO.P,Terasic-J1,23,Pin_23*%
%TO.N,GPIO20 (AF22) (AB10) (11N)*%
X142864542Y-105099471D03*
%TO.P,Terasic-J1,24,Pin_24*%
%TO.N,GPIO21 (AD22) (AA10) (11P)*%
X145404542Y-105099471D03*
%TO.P,Terasic-J1,25,Pin_25*%
%TO.N,GPIO22 (AG25) (AA9) (12N)*%
X142864542Y-107639471D03*
%TO.P,Terasic-J1,26,Pin_26*%
%TO.N,GPIO23 (AD25) (Y8) (12P)*%
X145404542Y-107639471D03*
%TO.P,Terasic-J1,27,Pin_27*%
%TO.N,GPIO24 (AH25) (AA8) (13N)*%
X142864542Y-110179471D03*
%TO.P,Terasic-J1,28,Pin_28*%
%TO.N,GPIO25 (AE25) (Y7) (13P)*%
X145404542Y-110179471D03*
%TO.P,Terasic-J1,29,Pin_29*%
%TO.N,+3.3V*%
X142864542Y-112719471D03*
%TO.P,Terasic-J1,30,Pin_30*%
%TO.N,GND*%
X145404542Y-112719471D03*
%TO.P,Terasic-J1,31,Pin_31*%
%TO.N,GPIO26 (AG22) (AA7) (14N)*%
X142864542Y-115259471D03*
%TO.P,Terasic-J1,32,Pin_32*%
%TO.N,GPIO27 (AE24) (Y6) (14P)*%
X145404542Y-115259471D03*
%TO.P,Terasic-J1,33,Pin_33*%
%TO.N,GPIO28 (AH22) (AA6) (15N)*%
X142864542Y-117799471D03*
%TO.P,Terasic-J1,34,Pin_34*%
%TO.N,GPIO29 (AF26) (Y5) (15P)*%
X145404542Y-117799471D03*
%TO.P,Terasic-J1,35,Pin_35*%
%TO.N,GPIO30 (AE20) (AA5) (16N)*%
X142864542Y-120339471D03*
%TO.P,Terasic-J1,36,Pin_36*%
%TO.N,GPIO31 (AG23) (Y4) (16P)*%
X145404542Y-120339471D03*
%TO.P,Terasic-J1,37,Pin_37*%
%TO.N,GPIO32 (AF20) (AB3) (17N)*%
X142864542Y-122879471D03*
%TO.P,Terasic-J1,38,Pin_38*%
%TO.N,GPIO33 (AH26) (Y3) (17P)*%
X145404542Y-122879471D03*
%TO.P,Terasic-J1,39,Pin_39*%
%TO.N,GPIO34 (AH23) (AB2) (NC)*%
X142864542Y-125419471D03*
%TO.P,Terasic-J1,40,Pin_40*%
%TO.N,GPIO35 (AG26) (AA2) (NC)*%
X145404542Y-125419471D03*
%TD*%
D10*
%TO.P,H2,1,1*%
%TO.N,GND*%
X140605888Y-66500000D03*
X141155063Y-65174175D03*
X141155063Y-67825825D03*
X142480888Y-64625000D03*
D11*
X142480888Y-66500000D03*
D10*
X142480888Y-68375000D03*
X143806713Y-65174175D03*
X143806713Y-67825825D03*
X144355888Y-66500000D03*
%TD*%
D12*
%TO.P,Alinx-J2,1,Pin_1*%
%TO.N,GND*%
X156271028Y-77213312D03*
D13*
%TO.P,Alinx-J2,2,Pin_2*%
%TO.N,+5V*%
X158811028Y-77213312D03*
%TO.P,Alinx-J2,3,Pin_3*%
%TO.N,GPIO0 (AB22) (V10) (1N)*%
X156271028Y-79753312D03*
%TO.P,Alinx-J2,4,Pin_4*%
%TO.N,GPIO1 (AC15) (W10) (1P)*%
X158811028Y-79753312D03*
%TO.P,Alinx-J2,5,Pin_5*%
%TO.N,GPIO2 (AB21) (V9) (2N)*%
X156271028Y-82293312D03*
%TO.P,Alinx-J2,6,Pin_6*%
%TO.N,GPIO3 (Y17) (W9) (2P)*%
X158811028Y-82293312D03*
%TO.P,Alinx-J2,7,Pin_7*%
%TO.N,GPIO4 (AC21) (V8) (3N)*%
X156271028Y-84833312D03*
%TO.P,Alinx-J2,8,Pin_8*%
%TO.N,GPIO5 (Y16) (W8) (3P)*%
X158811028Y-84833312D03*
%TO.P,Alinx-J2,9,Pin_9*%
%TO.N,GPIO6 (AD21) (V7) (4N)*%
X156271028Y-87373312D03*
%TO.P,Alinx-J2,10,Pin_10*%
%TO.N,GPIO7 (AE16) (W7) (4P)*%
X158811028Y-87373312D03*
%TO.P,Alinx-J2,11,Pin_11*%
%TO.N,GPIO8 (AD15) (W6) (5N)*%
X156271028Y-89913312D03*
%TO.P,Alinx-J2,12,Pin_12*%
%TO.N,GPIO9 (AE15) (V5) (5P)*%
X158811028Y-89913312D03*
%TO.P,Alinx-J2,13,Pin_13*%
%TO.N,GPIO10 (AC19) (W5) (6N)*%
X156271028Y-92453312D03*
%TO.P,Alinx-J2,14,Pin_14*%
%TO.N,GPIO11 (AF16) (AA15) (6P)*%
X158811028Y-92453312D03*
%TO.P,Alinx-J2,15,Pin_15*%
%TO.N,GPIO12 (AD19) (AA14) (7N)*%
X156271028Y-94993312D03*
%TO.P,Alinx-J2,16,Pin_16*%
%TO.N,GPIO13 (AF15) (W13) (7P)*%
X158811028Y-94993312D03*
%TO.P,Alinx-J2,17,Pin_17*%
%TO.N,GPIO14 (AF24) (W12) (8N)*%
X156271028Y-97533312D03*
%TO.P,Alinx-J2,18,Pin_18*%
%TO.N,GPIO15 (AE21) (AB13) (8P)*%
X158811028Y-97533312D03*
%TO.P,Alinx-J2,19,Pin_19*%
%TO.N,GPIO16 (AF25) (AB12) (9N)*%
X156271028Y-100073312D03*
%TO.P,Alinx-J2,20,Pin_20*%
%TO.N,GPIO17 (AC22) (Y11) (9P)*%
X158811028Y-100073312D03*
%TO.P,Alinx-J2,21,Pin_21*%
%TO.N,GPIO18 (AE22) (AB11) (10N)*%
X156271028Y-102613312D03*
%TO.P,Alinx-J2,22,Pin_22*%
%TO.N,GPIO19 (AF21) (W11) (10P)*%
X158811028Y-102613312D03*
%TO.P,Alinx-J2,23,Pin_23*%
%TO.N,GPIO20 (AF22) (AB10) (11N)*%
X156271028Y-105153312D03*
%TO.P,Alinx-J2,24,Pin_24*%
%TO.N,GPIO21 (AD22) (AA10) (11P)*%
X158811028Y-105153312D03*
%TO.P,Alinx-J2,25,Pin_25*%
%TO.N,GPIO22 (AG25) (AA9) (12N)*%
X156271028Y-107693312D03*
%TO.P,Alinx-J2,26,Pin_26*%
%TO.N,GPIO23 (AD25) (Y8) (12P)*%
X158811028Y-107693312D03*
%TO.P,Alinx-J2,27,Pin_27*%
%TO.N,GPIO24 (AH25) (AA8) (13N)*%
X156271028Y-110233312D03*
%TO.P,Alinx-J2,28,Pin_28*%
%TO.N,GPIO25 (AE25) (Y7) (13P)*%
X158811028Y-110233312D03*
%TO.P,Alinx-J2,29,Pin_29*%
%TO.N,GPIO26 (AG22) (AA7) (14N)*%
X156271028Y-112773312D03*
%TO.P,Alinx-J2,30,Pin_30*%
%TO.N,GPIO27 (AE24) (Y6) (14P)*%
X158811028Y-112773312D03*
%TO.P,Alinx-J2,31,Pin_31*%
%TO.N,GPIO28 (AH22) (AA6) (15N)*%
X156271028Y-115313312D03*
%TO.P,Alinx-J2,32,Pin_32*%
%TO.N,GPIO29 (AF26) (Y5) (15P)*%
X158811028Y-115313312D03*
%TO.P,Alinx-J2,33,Pin_33*%
%TO.N,GPIO30 (AE20) (AA5) (16N)*%
X156271028Y-117853312D03*
%TO.P,Alinx-J2,34,Pin_34*%
%TO.N,GPIO31 (AG23) (Y4) (16P)*%
X158811028Y-117853312D03*
%TO.P,Alinx-J2,35,Pin_35*%
%TO.N,GPIO32 (AF20) (AB3) (17N)*%
X156271028Y-120393312D03*
%TO.P,Alinx-J2,36,Pin_36*%
%TO.N,GPIO33 (AH26) (Y3) (17P)*%
X158811028Y-120393312D03*
%TO.P,Alinx-J2,37,Pin_37*%
%TO.N,GND*%
X156271028Y-122933312D03*
%TO.P,Alinx-J2,38,Pin_38*%
X158811028Y-122933312D03*
%TO.P,Alinx-J2,39,Pin_39*%
%TO.N,+3.3V*%
X156271028Y-125473312D03*
%TO.P,Alinx-J2,40,Pin_40*%
X158811028Y-125473312D03*
%TD*%
D10*
%TO.P,H1,1,1*%
%TO.N,GND*%
X199299175Y-66125000D03*
X199848350Y-64799175D03*
X199848350Y-67450825D03*
X201174175Y-64250000D03*
D11*
X201174175Y-66125000D03*
D10*
X201174175Y-68000000D03*
X202500000Y-64799175D03*
X202500000Y-67450825D03*
X203049175Y-66125000D03*
%TD*%
D14*
%TO.P,J2,1,Pin_1*%
%TO.N,R1*%
X200012951Y-112864992D03*
D13*
%TO.P,J2,2,Pin_2*%
%TO.N,G1*%
X197472951Y-112864992D03*
%TO.P,J2,3,Pin_3*%
%TO.N,B1*%
X200012951Y-110324992D03*
%TO.P,J2,4,Pin_4*%
%TO.N,GND*%
X197472951Y-110324992D03*
%TO.P,J2,5,Pin_5*%
%TO.N,R2*%
X200012951Y-107784992D03*
%TO.P,J2,6,Pin_6*%
%TO.N,G2*%
X197472951Y-107784992D03*
%TO.P,J2,7,Pin_7*%
%TO.N,B2*%
X200012951Y-105244992D03*
%TO.P,J2,8,Pin_8*%
%TO.N,GND*%
X197472951Y-105244992D03*
%TO.P,J2,9,Pin_9*%
%TO.N,A*%
X200012951Y-102704992D03*
%TO.P,J2,10,Pin_10*%
%TO.N,B*%
X197472951Y-102704992D03*
%TO.P,J2,11,Pin_11*%
%TO.N,C*%
X200012951Y-100164992D03*
%TO.P,J2,12,Pin_12*%
%TO.N,D*%
X197472951Y-100164992D03*
%TO.P,J2,13,Pin_13*%
%TO.N,CLK*%
X200012951Y-97624992D03*
%TO.P,J2,14,Pin_14*%
%TO.N,LATCH*%
X197472951Y-97624992D03*
%TO.P,J2,15,Pin_15*%
%TO.N,OE*%
X200012951Y-95084992D03*
%TO.P,J2,16,Pin_16*%
%TO.N,GND*%
X197472951Y-95084992D03*
%TD*%
D15*
%TO.N,GND*%
X177749479Y-109169479D03*
X177749479Y-93929479D03*
%TO.N,+5V*%
X176530000Y-93980000D03*
X176784000Y-97536000D03*
%TD*%
D16*
%TO.N,+5V*%
X155267999Y-78502312D02*
X151603221Y-82167090D01*
X147739840Y-93650471D02*
X144886360Y-93650471D01*
X144886360Y-93650471D02*
X144115542Y-92879653D01*
X158811028Y-77213312D02*
X157522028Y-78502312D01*
X151603221Y-89787090D02*
X147739840Y-93650471D01*
X157522028Y-78502312D02*
X155267999Y-78502312D01*
X144115542Y-91110471D02*
X142864542Y-89859471D01*
D17*
X176658202Y-97410202D02*
X176784000Y-97536000D01*
X176530000Y-93980000D02*
X176658202Y-94108202D01*
D16*
X144115542Y-92879653D02*
X144115542Y-91110471D01*
D17*
X176658202Y-94108202D02*
X176658202Y-97410202D01*
D16*
X151603221Y-82167090D02*
X151603221Y-89787090D01*
%TO.N,+3.3V*%
X151603221Y-111603221D02*
X148890471Y-108890471D01*
X144115542Y-109699289D02*
X144115542Y-111468471D01*
X156271028Y-125473312D02*
X151603221Y-120805505D01*
X151603221Y-120805505D02*
X151603221Y-111603221D01*
X148890471Y-108890471D02*
X144924360Y-108890471D01*
X144115542Y-111468471D02*
X142864542Y-112719471D01*
X156271028Y-125473312D02*
X158811028Y-125473312D01*
X144924360Y-108890471D02*
X144115542Y-109699289D01*
%TD*%
%TA.AperFunction,Conductor*%
%TO.N,GND*%
G36*
X158345103Y-123126305D02*
G01*
X158410929Y-123240319D01*
X158504021Y-123333411D01*
X158618035Y-123399237D01*
X158686079Y-123417469D01*
X158046859Y-124056690D01*
X158099277Y-124094775D01*
X158099279Y-124094776D01*
X158289735Y-124191818D01*
X158289741Y-124191821D01*
X158452465Y-124244693D01*
X158511071Y-124284766D01*
X158538708Y-124350163D01*
X158526601Y-124420120D01*
X158478595Y-124472426D01*
X158461748Y-124480935D01*
X158313428Y-124542372D01*
X158141371Y-124657336D01*
X158141365Y-124657341D01*
X157995057Y-124803649D01*
X157995052Y-124803655D01*
X157995051Y-124803657D01*
X157880087Y-124975714D01*
X157872084Y-124995032D01*
X157827537Y-125050311D01*
X157760174Y-125072732D01*
X157755677Y-125072812D01*
X157326379Y-125072812D01*
X157258258Y-125052810D01*
X157211765Y-124999154D01*
X157209980Y-124995054D01*
X157201969Y-124975714D01*
X157087005Y-124803657D01*
X157087003Y-124803655D01*
X157086998Y-124803649D01*
X156940690Y-124657341D01*
X156940684Y-124657336D01*
X156860113Y-124603500D01*
X156768626Y-124542371D01*
X156620306Y-124480934D01*
X156565027Y-124436386D01*
X156542606Y-124369023D01*
X156560164Y-124300232D01*
X156612127Y-124251853D01*
X156629590Y-124244693D01*
X156792314Y-124191821D01*
X156792320Y-124191818D01*
X156982778Y-124094775D01*
X157035195Y-124056690D01*
X157035195Y-124056688D01*
X156395976Y-123417469D01*
X156464021Y-123399237D01*
X156578035Y-123333411D01*
X156671127Y-123240319D01*
X156736953Y-123126305D01*
X156755185Y-123058260D01*
X157394404Y-123697479D01*
X157394406Y-123697479D01*
X157432491Y-123645062D01*
X157433590Y-123643270D01*
X157434186Y-123642730D01*
X157435405Y-123641053D01*
X157435757Y-123641308D01*
X157486234Y-123595634D01*
X157556274Y-123584022D01*
X157621474Y-123612120D01*
X157646587Y-123641100D01*
X157646652Y-123641054D01*
X157647193Y-123641799D01*
X157648461Y-123643262D01*
X157649563Y-123645061D01*
X157687648Y-123697479D01*
X157687649Y-123697480D01*
X158326869Y-123058259D01*
X158345103Y-123126305D01*
G37*
%TD.AperFunction*%
%TA.AperFunction,Conductor*%
G36*
X204942027Y-62370108D02*
G01*
X204988618Y-62423678D01*
X205000101Y-62476130D01*
X205061793Y-139514015D01*
X205041845Y-139582152D01*
X204988227Y-139628688D01*
X204935746Y-139640116D01*
X138272545Y-139615309D01*
X138204432Y-139595282D01*
X138157959Y-139541609D01*
X138146592Y-139489289D01*
X138148844Y-125316003D01*
X141814042Y-125316003D01*
X141814042Y-125522938D01*
X141824752Y-125576779D01*
X141854412Y-125725891D01*
X141933601Y-125917069D01*
X141969577Y-125970911D01*
X142048566Y-126089127D01*
X142048571Y-126089133D01*
X142194879Y-126235441D01*
X142194885Y-126235446D01*
X142194887Y-126235448D01*
X142366944Y-126350412D01*
X142558122Y-126429601D01*
X142761077Y-126469971D01*
X142761078Y-126469971D01*
X142968006Y-126469971D01*
X142968007Y-126469971D01*
X143170962Y-126429601D01*
X143362140Y-126350412D01*
X143534197Y-126235448D01*
X143680519Y-126089126D01*
X143795483Y-125917069D01*
X143874672Y-125725891D01*
X143915042Y-125522936D01*
X143915042Y-125316006D01*
X143915041Y-125316003D01*
X144354042Y-125316003D01*
X144354042Y-125522938D01*
X144364752Y-125576779D01*
X144394412Y-125725891D01*
X144473601Y-125917069D01*
X144509577Y-125970911D01*
X144588566Y-126089127D01*
X144588571Y-126089133D01*
X144734879Y-126235441D01*
X144734885Y-126235446D01*
X144734887Y-126235448D01*
X144906944Y-126350412D01*
X145098122Y-126429601D01*
X145301077Y-126469971D01*
X145301078Y-126469971D01*
X145508006Y-126469971D01*
X145508007Y-126469971D01*
X145710962Y-126429601D01*
X145902140Y-126350412D01*
X146074197Y-126235448D01*
X146220519Y-126089126D01*
X146335483Y-125917069D01*
X146414672Y-125725891D01*
X146455042Y-125522936D01*
X146455042Y-125316006D01*
X146414672Y-125113051D01*
X146335483Y-124921873D01*
X146220519Y-124749816D01*
X146220517Y-124749814D01*
X146220512Y-124749808D01*
X146074204Y-124603500D01*
X146074198Y-124603495D01*
X146074197Y-124603494D01*
X145902140Y-124488530D01*
X145710962Y-124409341D01*
X145508009Y-124368971D01*
X145508007Y-124368971D01*
X145301077Y-124368971D01*
X145301074Y-124368971D01*
X145098121Y-124409341D01*
X145098116Y-124409343D01*
X144906944Y-124488530D01*
X144734885Y-124603495D01*
X144734879Y-124603500D01*
X144588571Y-124749808D01*
X144588566Y-124749814D01*
X144473601Y-124921873D01*
X144394414Y-125113045D01*
X144394412Y-125113050D01*
X144354042Y-125316003D01*
X143915041Y-125316003D01*
X143874672Y-125113051D01*
X143795483Y-124921873D01*
X143680519Y-124749816D01*
X143680517Y-124749814D01*
X143680512Y-124749808D01*
X143534204Y-124603500D01*
X143534198Y-124603495D01*
X143534197Y-124603494D01*
X143362140Y-124488530D01*
X143170962Y-124409341D01*
X142968009Y-124368971D01*
X142968007Y-124368971D01*
X142761077Y-124368971D01*
X142761074Y-124368971D01*
X142558121Y-124409341D01*
X142558116Y-124409343D01*
X142366944Y-124488530D01*
X142194885Y-124603495D01*
X142194879Y-124603500D01*
X142048571Y-124749808D01*
X142048566Y-124749814D01*
X141933601Y-124921873D01*
X141854414Y-125113045D01*
X141854412Y-125113050D01*
X141814042Y-125316003D01*
X138148844Y-125316003D01*
X138148845Y-125309796D01*
X138149247Y-122776003D01*
X141814042Y-122776003D01*
X141814042Y-122982938D01*
X141825429Y-123040185D01*
X141854412Y-123185891D01*
X141933601Y-123377069D01*
X141985404Y-123454598D01*
X142048566Y-123549127D01*
X142048571Y-123549133D01*
X142194879Y-123695441D01*
X142194885Y-123695446D01*
X142194887Y-123695448D01*
X142366944Y-123810412D01*
X142558122Y-123889601D01*
X142761077Y-123929971D01*
X142761078Y-123929971D01*
X142968006Y-123929971D01*
X142968007Y-123929971D01*
X143170962Y-123889601D01*
X143362140Y-123810412D01*
X143534197Y-123695448D01*
X143680519Y-123549126D01*
X143795483Y-123377069D01*
X143874672Y-123185891D01*
X143915042Y-122982936D01*
X143915042Y-122776006D01*
X143915041Y-122776003D01*
X144354042Y-122776003D01*
X144354042Y-122982938D01*
X144365429Y-123040185D01*
X144394412Y-123185891D01*
X144473601Y-123377069D01*
X144525404Y-123454598D01*
X144588566Y-123549127D01*
X144588571Y-123549133D01*
X144734879Y-123695441D01*
X144734885Y-123695446D01*
X144734887Y-123695448D01*
X144906944Y-123810412D01*
X145098122Y-123889601D01*
X145301077Y-123929971D01*
X145301078Y-123929971D01*
X145508006Y-123929971D01*
X145508007Y-123929971D01*
X145710962Y-123889601D01*
X145902140Y-123810412D01*
X146074197Y-123695448D01*
X146220519Y-123549126D01*
X146335483Y-123377069D01*
X146414672Y-123185891D01*
X146455042Y-122982936D01*
X146455042Y-122776006D01*
X146414672Y-122573051D01*
X146335483Y-122381873D01*
X146220519Y-122209816D01*
X146220517Y-122209814D01*
X146220512Y-122209808D01*
X146074204Y-122063500D01*
X146074198Y-122063495D01*
X146074197Y-122063494D01*
X145902140Y-121948530D01*
X145710962Y-121869341D01*
X145508009Y-121828971D01*
X145508007Y-121828971D01*
X145301077Y-121828971D01*
X145301074Y-121828971D01*
X145098121Y-121869341D01*
X145098116Y-121869343D01*
X144906944Y-121948530D01*
X144734885Y-122063495D01*
X144734879Y-122063500D01*
X144588571Y-122209808D01*
X144588566Y-122209814D01*
X144473601Y-122381873D01*
X144394414Y-122573045D01*
X144394412Y-122573050D01*
X144354042Y-122776003D01*
X143915041Y-122776003D01*
X143874672Y-122573051D01*
X143795483Y-122381873D01*
X143680519Y-122209816D01*
X143680517Y-122209814D01*
X143680512Y-122209808D01*
X143534204Y-122063500D01*
X143534198Y-122063495D01*
X143534197Y-122063494D01*
X143362140Y-121948530D01*
X143170962Y-121869341D01*
X142968009Y-121828971D01*
X142968007Y-121828971D01*
X142761077Y-121828971D01*
X142761074Y-121828971D01*
X142558121Y-121869341D01*
X142558116Y-121869343D01*
X142366944Y-121948530D01*
X142194885Y-122063495D01*
X142194879Y-122063500D01*
X142048571Y-122209808D01*
X142048566Y-122209814D01*
X141933601Y-122381873D01*
X141854414Y-122573045D01*
X141854412Y-122573050D01*
X141814042Y-122776003D01*
X138149247Y-122776003D01*
X138149650Y-120236003D01*
X141814042Y-120236003D01*
X141814042Y-120442938D01*
X141824752Y-120496779D01*
X141854412Y-120645891D01*
X141933601Y-120837069D01*
X142048565Y-121009126D01*
X142048566Y-121009127D01*
X142048571Y-121009133D01*
X142194879Y-121155441D01*
X142194885Y-121155446D01*
X142194887Y-121155448D01*
X142366944Y-121270412D01*
X142558122Y-121349601D01*
X142761077Y-121389971D01*
X142761078Y-121389971D01*
X142968006Y-121389971D01*
X142968007Y-121389971D01*
X143170962Y-121349601D01*
X143362140Y-121270412D01*
X143534197Y-121155448D01*
X143680519Y-121009126D01*
X143795483Y-120837069D01*
X143874672Y-120645891D01*
X143915042Y-120442936D01*
X143915042Y-120236006D01*
X143915041Y-120236003D01*
X144354042Y-120236003D01*
X144354042Y-120442938D01*
X144364752Y-120496779D01*
X144394412Y-120645891D01*
X144473601Y-120837069D01*
X144588565Y-121009126D01*
X144588566Y-121009127D01*
X144588571Y-121009133D01*
X144734879Y-121155441D01*
X144734885Y-121155446D01*
X144734887Y-121155448D01*
X144906944Y-121270412D01*
X145098122Y-121349601D01*
X145301077Y-121389971D01*
X145301078Y-121389971D01*
X145508006Y-121389971D01*
X145508007Y-121389971D01*
X145710962Y-121349601D01*
X145902140Y-121270412D01*
X146074197Y-121155448D01*
X146220519Y-121009126D01*
X146335483Y-120837069D01*
X146414672Y-120645891D01*
X146455042Y-120442936D01*
X146455042Y-120236006D01*
X146414672Y-120033051D01*
X146335483Y-119841873D01*
X146220519Y-119669816D01*
X146220517Y-119669814D01*
X146220512Y-119669808D01*
X146074204Y-119523500D01*
X146074198Y-119523495D01*
X145982719Y-119462371D01*
X145902140Y-119408530D01*
X145710962Y-119329341D01*
X145508009Y-119288971D01*
X145508007Y-119288971D01*
X145301077Y-119288971D01*
X145301074Y-119288971D01*
X145098121Y-119329341D01*
X145098116Y-119329343D01*
X144906944Y-119408530D01*
X144734885Y-119523495D01*
X144734879Y-119523500D01*
X144588571Y-119669808D01*
X144588566Y-119669814D01*
X144473601Y-119841873D01*
X144394414Y-120033045D01*
X144394412Y-120033050D01*
X144354042Y-120236003D01*
X143915041Y-120236003D01*
X143874672Y-120033051D01*
X143795483Y-119841873D01*
X143680519Y-119669816D01*
X143680517Y-119669814D01*
X143680512Y-119669808D01*
X143534204Y-119523500D01*
X143534198Y-119523495D01*
X143442719Y-119462371D01*
X143362140Y-119408530D01*
X143170962Y-119329341D01*
X142968009Y-119288971D01*
X142968007Y-119288971D01*
X142761077Y-119288971D01*
X142761074Y-119288971D01*
X142558121Y-119329341D01*
X142558116Y-119329343D01*
X142366944Y-119408530D01*
X142194885Y-119523495D01*
X142194879Y-119523500D01*
X142048571Y-119669808D01*
X142048566Y-119669814D01*
X141933601Y-119841873D01*
X141854414Y-120033045D01*
X141854412Y-120033050D01*
X141814042Y-120236003D01*
X138149650Y-120236003D01*
X138150053Y-117696003D01*
X141814042Y-117696003D01*
X141814042Y-117902938D01*
X141824752Y-117956779D01*
X141854412Y-118105891D01*
X141933601Y-118297069D01*
X142048565Y-118469126D01*
X142048566Y-118469127D01*
X142048571Y-118469133D01*
X142194879Y-118615441D01*
X142194885Y-118615446D01*
X142194887Y-118615448D01*
X142366944Y-118730412D01*
X142558122Y-118809601D01*
X142761077Y-118849971D01*
X142761078Y-118849971D01*
X142968006Y-118849971D01*
X142968007Y-118849971D01*
X143170962Y-118809601D01*
X143362140Y-118730412D01*
X143534197Y-118615448D01*
X143680519Y-118469126D01*
X143795483Y-118297069D01*
X143874672Y-118105891D01*
X143915042Y-117902936D01*
X143915042Y-117696006D01*
X143915041Y-117696003D01*
X144354042Y-117696003D01*
X144354042Y-117902938D01*
X144364752Y-117956779D01*
X144394412Y-118105891D01*
X144473601Y-118297069D01*
X144588565Y-118469126D01*
X144588566Y-118469127D01*
X144588571Y-118469133D01*
X144734879Y-118615441D01*
X144734885Y-118615446D01*
X144734887Y-118615448D01*
X144906944Y-118730412D01*
X145098122Y-118809601D01*
X145301077Y-118849971D01*
X145301078Y-118849971D01*
X145508006Y-118849971D01*
X145508007Y-118849971D01*
X145710962Y-118809601D01*
X145902140Y-118730412D01*
X146074197Y-118615448D01*
X146220519Y-118469126D01*
X146335483Y-118297069D01*
X146414672Y-118105891D01*
X146455042Y-117902936D01*
X146455042Y-117696006D01*
X146414672Y-117493051D01*
X146335483Y-117301873D01*
X146220519Y-117129816D01*
X146220517Y-117129814D01*
X146220512Y-117129808D01*
X146074204Y-116983500D01*
X146074198Y-116983495D01*
X145982719Y-116922371D01*
X145902140Y-116868530D01*
X145710962Y-116789341D01*
X145508009Y-116748971D01*
X145508007Y-116748971D01*
X145301077Y-116748971D01*
X145301074Y-116748971D01*
X145098121Y-116789341D01*
X145098116Y-116789343D01*
X144906944Y-116868530D01*
X144734885Y-116983495D01*
X144734879Y-116983500D01*
X144588571Y-117129808D01*
X144588566Y-117129814D01*
X144473601Y-117301873D01*
X144394414Y-117493045D01*
X144394412Y-117493050D01*
X144354042Y-117696003D01*
X143915041Y-117696003D01*
X143874672Y-117493051D01*
X143795483Y-117301873D01*
X143680519Y-117129816D01*
X143680517Y-117129814D01*
X143680512Y-117129808D01*
X143534204Y-116983500D01*
X143534198Y-116983495D01*
X143442719Y-116922371D01*
X143362140Y-116868530D01*
X143170962Y-116789341D01*
X142968009Y-116748971D01*
X142968007Y-116748971D01*
X142761077Y-116748971D01*
X142761074Y-116748971D01*
X142558121Y-116789341D01*
X142558116Y-116789343D01*
X142366944Y-116868530D01*
X142194885Y-116983495D01*
X142194879Y-116983500D01*
X142048571Y-117129808D01*
X142048566Y-117129814D01*
X141933601Y-117301873D01*
X141854414Y-117493045D01*
X141854412Y-117493050D01*
X141814042Y-117696003D01*
X138150053Y-117696003D01*
X138150456Y-115156003D01*
X141814042Y-115156003D01*
X141814042Y-115362938D01*
X141824752Y-115416779D01*
X141854412Y-115565891D01*
X141933601Y-115757069D01*
X142048565Y-115929126D01*
X142048566Y-115929127D01*
X142048571Y-115929133D01*
X142194879Y-116075441D01*
X142194885Y-116075446D01*
X142194887Y-116075448D01*
X142366944Y-116190412D01*
X142558122Y-116269601D01*
X142761077Y-116309971D01*
X142761078Y-116309971D01*
X142968006Y-116309971D01*
X142968007Y-116309971D01*
X143170962Y-116269601D01*
X143362140Y-116190412D01*
X143534197Y-116075448D01*
X143680519Y-115929126D01*
X143795483Y-115757069D01*
X143874672Y-115565891D01*
X143915042Y-115362936D01*
X143915042Y-115156006D01*
X143874672Y-114953051D01*
X143795483Y-114761873D01*
X143680519Y-114589816D01*
X143680517Y-114589814D01*
X143680512Y-114589808D01*
X143534204Y-114443500D01*
X143534198Y-114443495D01*
X143442719Y-114382371D01*
X143362140Y-114328530D01*
X143170962Y-114249341D01*
X142968009Y-114208971D01*
X142968007Y-114208971D01*
X142761077Y-114208971D01*
X142761074Y-114208971D01*
X142558121Y-114249341D01*
X142558116Y-114249343D01*
X142366944Y-114328530D01*
X142194885Y-114443495D01*
X142194879Y-114443500D01*
X142048571Y-114589808D01*
X142048566Y-114589814D01*
X141933601Y-114761873D01*
X141854414Y-114953045D01*
X141854412Y-114953050D01*
X141814042Y-115156003D01*
X138150456Y-115156003D01*
X138150457Y-115149796D01*
X138151263Y-110076003D01*
X141814042Y-110076003D01*
X141814042Y-110282938D01*
X141824752Y-110336779D01*
X141854412Y-110485891D01*
X141933601Y-110677069D01*
X142046662Y-110846278D01*
X142048566Y-110849127D01*
X142048571Y-110849133D01*
X142194879Y-110995441D01*
X142194885Y-110995446D01*
X142194887Y-110995448D01*
X142366944Y-111110412D01*
X142558122Y-111189601D01*
X142761077Y-111229971D01*
X142761078Y-111229971D01*
X142968006Y-111229971D01*
X142968007Y-111229971D01*
X143170962Y-111189601D01*
X143362140Y-111110412D01*
X143519044Y-111005572D01*
X143528894Y-111002488D01*
X143536700Y-110995725D01*
X143562206Y-110992057D01*
X143586793Y-110984359D01*
X143596751Y-110987090D01*
X143606974Y-110985621D01*
X143630412Y-110996325D01*
X143655260Y-111003142D01*
X143662161Y-111010825D01*
X143671554Y-111015115D01*
X143685482Y-111036787D01*
X143702703Y-111055959D01*
X143705377Y-111067744D01*
X143709938Y-111074841D01*
X143715042Y-111110339D01*
X143715042Y-111250386D01*
X143695040Y-111318507D01*
X143678137Y-111339482D01*
X143327590Y-111690028D01*
X143265278Y-111724053D01*
X143194462Y-111718988D01*
X143190279Y-111717342D01*
X143170967Y-111709343D01*
X143170962Y-111709341D01*
X142968009Y-111668971D01*
X142968007Y-111668971D01*
X142761077Y-111668971D01*
X142761074Y-111668971D01*
X142558121Y-111709341D01*
X142558116Y-111709343D01*
X142366944Y-111788530D01*
X142194885Y-111903495D01*
X142194879Y-111903500D01*
X142048571Y-112049808D01*
X142048566Y-112049814D01*
X141933601Y-112221873D01*
X141854414Y-112413045D01*
X141854412Y-112413050D01*
X141814042Y-112616003D01*
X141814042Y-112822938D01*
X141850974Y-113008607D01*
X141854412Y-113025891D01*
X141933601Y-113217069D01*
X142048565Y-113389126D01*
X142048566Y-113389127D01*
X142048571Y-113389133D01*
X142194879Y-113535441D01*
X142194885Y-113535446D01*
X142194887Y-113535448D01*
X142366944Y-113650412D01*
X142558122Y-113729601D01*
X142761077Y-113769971D01*
X142761078Y-113769971D01*
X142968006Y-113769971D01*
X142968007Y-113769971D01*
X143170962Y-113729601D01*
X143362140Y-113650412D01*
X143534197Y-113535448D01*
X143680519Y-113389126D01*
X143795483Y-113217069D01*
X143856919Y-113068749D01*
X143901466Y-113013470D01*
X143968830Y-112991049D01*
X144037621Y-113008607D01*
X144085999Y-113060569D01*
X144093160Y-113078033D01*
X144146032Y-113240757D01*
X144146035Y-113240763D01*
X144243077Y-113431219D01*
X144243078Y-113431221D01*
X144281162Y-113483638D01*
X144281163Y-113483639D01*
X144920383Y-112844418D01*
X144938617Y-112912464D01*
X145004443Y-113026478D01*
X145097535Y-113119570D01*
X145211549Y-113185396D01*
X145279593Y-113203628D01*
X144640373Y-113842849D01*
X144692791Y-113880934D01*
X144692793Y-113880935D01*
X144883249Y-113977977D01*
X144883255Y-113977980D01*
X145045979Y-114030852D01*
X145104585Y-114070925D01*
X145132222Y-114136322D01*
X145120115Y-114206279D01*
X145072109Y-114258585D01*
X145055262Y-114267094D01*
X144906942Y-114328531D01*
X144734885Y-114443495D01*
X144734879Y-114443500D01*
X144588571Y-114589808D01*
X144588566Y-114589814D01*
X144473601Y-114761873D01*
X144394414Y-114953045D01*
X144394412Y-114953050D01*
X144354042Y-115156003D01*
X144354042Y-115362938D01*
X144364752Y-115416779D01*
X144394412Y-115565891D01*
X144473601Y-115757069D01*
X144588565Y-115929126D01*
X144588566Y-115929127D01*
X144588571Y-115929133D01*
X144734879Y-116075441D01*
X144734885Y-116075446D01*
X144734887Y-116075448D01*
X144906944Y-116190412D01*
X145098122Y-116269601D01*
X145301077Y-116309971D01*
X145301078Y-116309971D01*
X145508006Y-116309971D01*
X145508007Y-116309971D01*
X145710962Y-116269601D01*
X145902140Y-116190412D01*
X146074197Y-116075448D01*
X146220519Y-115929126D01*
X146335483Y-115757069D01*
X146414672Y-115565891D01*
X146455042Y-115362936D01*
X146455042Y-115156006D01*
X146414672Y-114953051D01*
X146335483Y-114761873D01*
X146220519Y-114589816D01*
X146220517Y-114589814D01*
X146220512Y-114589808D01*
X146074204Y-114443500D01*
X146074198Y-114443495D01*
X145902141Y-114328531D01*
X145902142Y-114328531D01*
X145902140Y-114328530D01*
X145753820Y-114267093D01*
X145698541Y-114222545D01*
X145676120Y-114155182D01*
X145693678Y-114086391D01*
X145745641Y-114038012D01*
X145763104Y-114030852D01*
X145925828Y-113977980D01*
X145925834Y-113977977D01*
X146116292Y-113880934D01*
X146168709Y-113842849D01*
X146168709Y-113842847D01*
X145529490Y-113203628D01*
X145597535Y-113185396D01*
X145711549Y-113119570D01*
X145804641Y-113026478D01*
X145870467Y-112912464D01*
X145888699Y-112844419D01*
X146527918Y-113483638D01*
X146527920Y-113483638D01*
X146566005Y-113431221D01*
X146663048Y-113240763D01*
X146663051Y-113240757D01*
X146729101Y-113037474D01*
X146762542Y-112826344D01*
X146762542Y-112612597D01*
X146729101Y-112401467D01*
X146663051Y-112198184D01*
X146663048Y-112198178D01*
X146566006Y-112007722D01*
X146566005Y-112007720D01*
X146527920Y-111955302D01*
X145888699Y-112594522D01*
X145870467Y-112526478D01*
X145804641Y-112412464D01*
X145711549Y-112319372D01*
X145597535Y-112253546D01*
X145529489Y-112235312D01*
X146168710Y-111596092D01*
X146168709Y-111596091D01*
X146116292Y-111558007D01*
X146116290Y-111558006D01*
X145925834Y-111460964D01*
X145925828Y-111460961D01*
X145763104Y-111408089D01*
X145704498Y-111368015D01*
X145676861Y-111302619D01*
X145688968Y-111232662D01*
X145736974Y-111180356D01*
X145753814Y-111171850D01*
X145902140Y-111110412D01*
X146074197Y-110995448D01*
X146220519Y-110849126D01*
X146335483Y-110677069D01*
X146414672Y-110485891D01*
X146455042Y-110282936D01*
X146455042Y-110076006D01*
X146414672Y-109873051D01*
X146335483Y-109681873D01*
X146220519Y-109509816D01*
X146220517Y-109509814D01*
X146220512Y-109509808D01*
X146216770Y-109506066D01*
X146182744Y-109443754D01*
X146187809Y-109372939D01*
X146230356Y-109316103D01*
X146296876Y-109291292D01*
X146305865Y-109290971D01*
X148672388Y-109290971D01*
X148740509Y-109310973D01*
X148761483Y-109327876D01*
X151165816Y-111732209D01*
X151199842Y-111794521D01*
X151202721Y-111821304D01*
X151202721Y-120752778D01*
X151202721Y-120858232D01*
X151230014Y-120960093D01*
X151230015Y-120960095D01*
X151230016Y-120960097D01*
X151282738Y-121051414D01*
X151282746Y-121051424D01*
X155241585Y-125010262D01*
X155275611Y-125072574D01*
X155270546Y-125143389D01*
X155268899Y-125147574D01*
X155260901Y-125166881D01*
X155260898Y-125166891D01*
X155220528Y-125369844D01*
X155220528Y-125369847D01*
X155220528Y-125576777D01*
X155260898Y-125779732D01*
X155340087Y-125970910D01*
X155340088Y-125970911D01*
X155455052Y-126142968D01*
X155455057Y-126142974D01*
X155601365Y-126289282D01*
X155601371Y-126289287D01*
X155601373Y-126289289D01*
X155773430Y-126404253D01*
X155964608Y-126483442D01*
X156167563Y-126523812D01*
X156167564Y-126523812D01*
X156374492Y-126523812D01*
X156374493Y-126523812D01*
X156577448Y-126483442D01*
X156768626Y-126404253D01*
X156940683Y-126289289D01*
X157087005Y-126142967D01*
X157201969Y-125970910D01*
X157209971Y-125951591D01*
X157254519Y-125896313D01*
X157321882Y-125873892D01*
X157326379Y-125873812D01*
X157755677Y-125873812D01*
X157823798Y-125893814D01*
X157870291Y-125947470D01*
X157872075Y-125951569D01*
X157880087Y-125970910D01*
X157880088Y-125970911D01*
X157995052Y-126142968D01*
X157995057Y-126142974D01*
X158141365Y-126289282D01*
X158141371Y-126289287D01*
X158141373Y-126289289D01*
X158313430Y-126404253D01*
X158504608Y-126483442D01*
X158707563Y-126523812D01*
X158707564Y-126523812D01*
X158914492Y-126523812D01*
X158914493Y-126523812D01*
X159117448Y-126483442D01*
X159308626Y-126404253D01*
X159480683Y-126289289D01*
X159627005Y-126142967D01*
X159741969Y-125970910D01*
X159821158Y-125779732D01*
X159861528Y-125576777D01*
X159861528Y-125369847D01*
X159821158Y-125166892D01*
X159741969Y-124975714D01*
X159627005Y-124803657D01*
X159627003Y-124803655D01*
X159626998Y-124803649D01*
X159480690Y-124657341D01*
X159480684Y-124657336D01*
X159400113Y-124603500D01*
X159308626Y-124542371D01*
X159160306Y-124480934D01*
X159105027Y-124436386D01*
X159082606Y-124369023D01*
X159100164Y-124300232D01*
X159152127Y-124251853D01*
X159169590Y-124244693D01*
X159332314Y-124191821D01*
X159332320Y-124191818D01*
X159522778Y-124094775D01*
X159575195Y-124056690D01*
X159575195Y-124056688D01*
X158935976Y-123417469D01*
X159004021Y-123399237D01*
X159118035Y-123333411D01*
X159211127Y-123240319D01*
X159276953Y-123126305D01*
X159295185Y-123058260D01*
X159934404Y-123697479D01*
X159934406Y-123697479D01*
X159972491Y-123645062D01*
X160069534Y-123454604D01*
X160069537Y-123454598D01*
X160135587Y-123251315D01*
X160169028Y-123040185D01*
X160169028Y-122826438D01*
X160135587Y-122615308D01*
X160069537Y-122412025D01*
X160069534Y-122412019D01*
X159972492Y-122221563D01*
X159972491Y-122221561D01*
X159934406Y-122169143D01*
X159295185Y-122808363D01*
X159276953Y-122740319D01*
X159211127Y-122626305D01*
X159118035Y-122533213D01*
X159004021Y-122467387D01*
X158935975Y-122449153D01*
X159575196Y-121809933D01*
X159575195Y-121809932D01*
X159522778Y-121771848D01*
X159522776Y-121771847D01*
X159332320Y-121674805D01*
X159332314Y-121674802D01*
X159169590Y-121621930D01*
X159110984Y-121581856D01*
X159083347Y-121516460D01*
X159095454Y-121446503D01*
X159143460Y-121394197D01*
X159160300Y-121385691D01*
X159308626Y-121324253D01*
X159480683Y-121209289D01*
X159627005Y-121062967D01*
X159741969Y-120890910D01*
X159821158Y-120699732D01*
X159861528Y-120496777D01*
X159861528Y-120289847D01*
X159821158Y-120086892D01*
X159741969Y-119895714D01*
X159627005Y-119723657D01*
X159627003Y-119723655D01*
X159626998Y-119723649D01*
X159480690Y-119577341D01*
X159480684Y-119577336D01*
X159480683Y-119577335D01*
X159308626Y-119462371D01*
X159117448Y-119383182D01*
X158914495Y-119342812D01*
X158914493Y-119342812D01*
X158707563Y-119342812D01*
X158707560Y-119342812D01*
X158504607Y-119383182D01*
X158504602Y-119383184D01*
X158313430Y-119462371D01*
X158141371Y-119577336D01*
X158141365Y-119577341D01*
X157995057Y-119723649D01*
X157995052Y-119723655D01*
X157880087Y-119895714D01*
X157800900Y-120086886D01*
X157800898Y-120086891D01*
X157760528Y-120289844D01*
X157760528Y-120289847D01*
X157760528Y-120496777D01*
X157800898Y-120699732D01*
X157880087Y-120890910D01*
X157995051Y-121062967D01*
X157995052Y-121062968D01*
X157995057Y-121062974D01*
X158141365Y-121209282D01*
X158141371Y-121209287D01*
X158141373Y-121209289D01*
X158313430Y-121324253D01*
X158461747Y-121385688D01*
X158517028Y-121430236D01*
X158539449Y-121497600D01*
X158521891Y-121566391D01*
X158469929Y-121614769D01*
X158452466Y-121621930D01*
X158289738Y-121674804D01*
X158289735Y-121674805D01*
X158099281Y-121771846D01*
X158046859Y-121809933D01*
X158046859Y-121809934D01*
X158686079Y-122449154D01*
X158618035Y-122467387D01*
X158504021Y-122533213D01*
X158410929Y-122626305D01*
X158345103Y-122740319D01*
X158326870Y-122808363D01*
X157687650Y-122169143D01*
X157687649Y-122169143D01*
X157649550Y-122221581D01*
X157648450Y-122223377D01*
X157647855Y-122223915D01*
X157646652Y-122225571D01*
X157646303Y-122225318D01*
X157595796Y-122271001D01*
X157525753Y-122282598D01*
X157460559Y-122254486D01*
X157435468Y-122225523D01*
X157435404Y-122225570D01*
X157434858Y-122224818D01*
X157433591Y-122223356D01*
X157432490Y-122221560D01*
X157394406Y-122169143D01*
X156755185Y-122808363D01*
X156736953Y-122740319D01*
X156671127Y-122626305D01*
X156578035Y-122533213D01*
X156464021Y-122467387D01*
X156395975Y-122449153D01*
X157035196Y-121809933D01*
X157035195Y-121809932D01*
X156982778Y-121771848D01*
X156982776Y-121771847D01*
X156792320Y-121674805D01*
X156792314Y-121674802D01*
X156629590Y-121621930D01*
X156570984Y-121581856D01*
X156543347Y-121516460D01*
X156555454Y-121446503D01*
X156603460Y-121394197D01*
X156620300Y-121385691D01*
X156768626Y-121324253D01*
X156940683Y-121209289D01*
X157087005Y-121062967D01*
X157201969Y-120890910D01*
X157281158Y-120699732D01*
X157321528Y-120496777D01*
X157321528Y-120289847D01*
X157281158Y-120086892D01*
X157201969Y-119895714D01*
X157087005Y-119723657D01*
X157087003Y-119723655D01*
X157086998Y-119723649D01*
X156940690Y-119577341D01*
X156940684Y-119577336D01*
X156940683Y-119577335D01*
X156768626Y-119462371D01*
X156577448Y-119383182D01*
X156374495Y-119342812D01*
X156374493Y-119342812D01*
X156167563Y-119342812D01*
X156167560Y-119342812D01*
X155964607Y-119383182D01*
X155964602Y-119383184D01*
X155773430Y-119462371D01*
X155601371Y-119577336D01*
X155601365Y-119577341D01*
X155455057Y-119723649D01*
X155455052Y-119723655D01*
X155340087Y-119895714D01*
X155260900Y-120086886D01*
X155260898Y-120086891D01*
X155220528Y-120289844D01*
X155220528Y-120289847D01*
X155220528Y-120496777D01*
X155260898Y-120699732D01*
X155340087Y-120890910D01*
X155455051Y-121062967D01*
X155455052Y-121062968D01*
X155455057Y-121062974D01*
X155601365Y-121209282D01*
X155601371Y-121209287D01*
X155601373Y-121209289D01*
X155773430Y-121324253D01*
X155921747Y-121385688D01*
X155977028Y-121430236D01*
X155999449Y-121497600D01*
X155981891Y-121566391D01*
X155929929Y-121614769D01*
X155912466Y-121621930D01*
X155749738Y-121674804D01*
X155749735Y-121674805D01*
X155559281Y-121771846D01*
X155506859Y-121809933D01*
X155506859Y-121809934D01*
X156146079Y-122449154D01*
X156078035Y-122467387D01*
X155964021Y-122533213D01*
X155870929Y-122626305D01*
X155805103Y-122740319D01*
X155786869Y-122808364D01*
X155147649Y-122169143D01*
X155109562Y-122221565D01*
X155012521Y-122412019D01*
X155012518Y-122412025D01*
X154946468Y-122615308D01*
X154913028Y-122826438D01*
X154913028Y-123040185D01*
X154946467Y-123251314D01*
X154946761Y-123252535D01*
X154946737Y-123253012D01*
X154947242Y-123256201D01*
X154946572Y-123256307D01*
X154943209Y-123323443D01*
X154901885Y-123381174D01*
X154835910Y-123407399D01*
X154766229Y-123393793D01*
X154735145Y-123371036D01*
X152040626Y-120676517D01*
X152006600Y-120614205D01*
X152003721Y-120587422D01*
X152003721Y-117749844D01*
X155220528Y-117749844D01*
X155220528Y-117749847D01*
X155220528Y-117956777D01*
X155260898Y-118159732D01*
X155340087Y-118350910D01*
X155419076Y-118469126D01*
X155455052Y-118522968D01*
X155455057Y-118522974D01*
X155601365Y-118669282D01*
X155601371Y-118669287D01*
X155601373Y-118669289D01*
X155773430Y-118784253D01*
X155964608Y-118863442D01*
X156167563Y-118903812D01*
X156167564Y-118903812D01*
X156374492Y-118903812D01*
X156374493Y-118903812D01*
X156577448Y-118863442D01*
X156768626Y-118784253D01*
X156940683Y-118669289D01*
X157087005Y-118522967D01*
X157201969Y-118350910D01*
X157281158Y-118159732D01*
X157321528Y-117956777D01*
X157321528Y-117749847D01*
X157321527Y-117749844D01*
X157760528Y-117749844D01*
X157760528Y-117749847D01*
X157760528Y-117956777D01*
X157800898Y-118159732D01*
X157880087Y-118350910D01*
X157959076Y-118469126D01*
X157995052Y-118522968D01*
X157995057Y-118522974D01*
X158141365Y-118669282D01*
X158141371Y-118669287D01*
X158141373Y-118669289D01*
X158313430Y-118784253D01*
X158504608Y-118863442D01*
X158707563Y-118903812D01*
X158707564Y-118903812D01*
X158914492Y-118903812D01*
X158914493Y-118903812D01*
X159117448Y-118863442D01*
X159308626Y-118784253D01*
X159480683Y-118669289D01*
X159627005Y-118522967D01*
X159741969Y-118350910D01*
X159821158Y-118159732D01*
X159861528Y-117956777D01*
X159861528Y-117749847D01*
X159821158Y-117546892D01*
X159741969Y-117355714D01*
X159627005Y-117183657D01*
X159627003Y-117183655D01*
X159626998Y-117183649D01*
X159480690Y-117037341D01*
X159480684Y-117037336D01*
X159480683Y-117037335D01*
X159308626Y-116922371D01*
X159117448Y-116843182D01*
X158914495Y-116802812D01*
X158914493Y-116802812D01*
X158707563Y-116802812D01*
X158707560Y-116802812D01*
X158504607Y-116843182D01*
X158504602Y-116843184D01*
X158313430Y-116922371D01*
X158141371Y-117037336D01*
X158141365Y-117037341D01*
X157995057Y-117183649D01*
X157995052Y-117183655D01*
X157880087Y-117355714D01*
X157800900Y-117546886D01*
X157800898Y-117546891D01*
X157760528Y-117749844D01*
X157321527Y-117749844D01*
X157281158Y-117546892D01*
X157201969Y-117355714D01*
X157087005Y-117183657D01*
X157087003Y-117183655D01*
X157086998Y-117183649D01*
X156940690Y-117037341D01*
X156940684Y-117037336D01*
X156940683Y-117037335D01*
X156768626Y-116922371D01*
X156577448Y-116843182D01*
X156374495Y-116802812D01*
X156374493Y-116802812D01*
X156167563Y-116802812D01*
X156167560Y-116802812D01*
X155964607Y-116843182D01*
X155964602Y-116843184D01*
X155773430Y-116922371D01*
X155601371Y-117037336D01*
X155601365Y-117037341D01*
X155455057Y-117183649D01*
X155455052Y-117183655D01*
X155340087Y-117355714D01*
X155260900Y-117546886D01*
X155260898Y-117546891D01*
X155220528Y-117749844D01*
X152003721Y-117749844D01*
X152003721Y-115209844D01*
X155220528Y-115209844D01*
X155220528Y-115209847D01*
X155220528Y-115416777D01*
X155260898Y-115619732D01*
X155340087Y-115810910D01*
X155419076Y-115929126D01*
X155455052Y-115982968D01*
X155455057Y-115982974D01*
X155601365Y-116129282D01*
X155601371Y-116129287D01*
X155601373Y-116129289D01*
X155773430Y-116244253D01*
X155964608Y-116323442D01*
X156167563Y-116363812D01*
X156167564Y-116363812D01*
X156374492Y-116363812D01*
X156374493Y-116363812D01*
X156577448Y-116323442D01*
X156768626Y-116244253D01*
X156940683Y-116129289D01*
X157087005Y-115982967D01*
X157201969Y-115810910D01*
X157281158Y-115619732D01*
X157321528Y-115416777D01*
X157321528Y-115209847D01*
X157321527Y-115209844D01*
X157760528Y-115209844D01*
X157760528Y-115209847D01*
X157760528Y-115416777D01*
X157800898Y-115619732D01*
X157880087Y-115810910D01*
X157959076Y-115929126D01*
X157995052Y-115982968D01*
X157995057Y-115982974D01*
X158141365Y-116129282D01*
X158141371Y-116129287D01*
X158141373Y-116129289D01*
X158313430Y-116244253D01*
X158504608Y-116323442D01*
X158707563Y-116363812D01*
X158707564Y-116363812D01*
X158914492Y-116363812D01*
X158914493Y-116363812D01*
X159117448Y-116323442D01*
X159308626Y-116244253D01*
X159480683Y-116129289D01*
X159627005Y-115982967D01*
X159741969Y-115810910D01*
X159821158Y-115619732D01*
X159861528Y-115416777D01*
X159861528Y-115209847D01*
X159821158Y-115006892D01*
X159741969Y-114815714D01*
X159627005Y-114643657D01*
X159627003Y-114643655D01*
X159626998Y-114643649D01*
X159480690Y-114497341D01*
X159480684Y-114497336D01*
X159480683Y-114497335D01*
X159308626Y-114382371D01*
X159117448Y-114303182D01*
X158914495Y-114262812D01*
X158914493Y-114262812D01*
X158707563Y-114262812D01*
X158707560Y-114262812D01*
X158504607Y-114303182D01*
X158504602Y-114303184D01*
X158313430Y-114382371D01*
X158141371Y-114497336D01*
X158141365Y-114497341D01*
X157995057Y-114643649D01*
X157995052Y-114643655D01*
X157880087Y-114815714D01*
X157800900Y-115006886D01*
X157800898Y-115006891D01*
X157760528Y-115209844D01*
X157321527Y-115209844D01*
X157281158Y-115006892D01*
X157201969Y-114815714D01*
X157087005Y-114643657D01*
X157087003Y-114643655D01*
X157086998Y-114643649D01*
X156940690Y-114497341D01*
X156940684Y-114497336D01*
X156940683Y-114497335D01*
X156768626Y-114382371D01*
X156577448Y-114303182D01*
X156374495Y-114262812D01*
X156374493Y-114262812D01*
X156167563Y-114262812D01*
X156167560Y-114262812D01*
X155964607Y-114303182D01*
X155964602Y-114303184D01*
X155773430Y-114382371D01*
X155601371Y-114497336D01*
X155601365Y-114497341D01*
X155455057Y-114643649D01*
X155455052Y-114643655D01*
X155340087Y-114815714D01*
X155260900Y-115006886D01*
X155260898Y-115006891D01*
X155220528Y-115209844D01*
X152003721Y-115209844D01*
X152003721Y-112669844D01*
X155220528Y-112669844D01*
X155220528Y-112876779D01*
X155243258Y-112991049D01*
X155260898Y-113079732D01*
X155340087Y-113270910D01*
X155447203Y-113431221D01*
X155455052Y-113442968D01*
X155455057Y-113442974D01*
X155601365Y-113589282D01*
X155601371Y-113589287D01*
X155601373Y-113589289D01*
X155773430Y-113704253D01*
X155964608Y-113783442D01*
X156167563Y-113823812D01*
X156167564Y-113823812D01*
X156374492Y-113823812D01*
X156374493Y-113823812D01*
X156577448Y-113783442D01*
X156768626Y-113704253D01*
X156940683Y-113589289D01*
X157087005Y-113442967D01*
X157201969Y-113270910D01*
X157281158Y-113079732D01*
X157321528Y-112876777D01*
X157321528Y-112669847D01*
X157321527Y-112669844D01*
X157760528Y-112669844D01*
X157760528Y-112876779D01*
X157783258Y-112991049D01*
X157800898Y-113079732D01*
X157880087Y-113270910D01*
X157987203Y-113431221D01*
X157995052Y-113442968D01*
X157995057Y-113442974D01*
X158141365Y-113589282D01*
X158141371Y-113589287D01*
X158141373Y-113589289D01*
X158313430Y-113704253D01*
X158504608Y-113783442D01*
X158707563Y-113823812D01*
X158707564Y-113823812D01*
X158914492Y-113823812D01*
X158914493Y-113823812D01*
X159117448Y-113783442D01*
X159308626Y-113704253D01*
X159480683Y-113589289D01*
X159627005Y-113442967D01*
X159741969Y-113270910D01*
X159821158Y-113079732D01*
X159861528Y-112876777D01*
X159861528Y-112669847D01*
X159821158Y-112466892D01*
X159741969Y-112275714D01*
X159627005Y-112103657D01*
X159627003Y-112103655D01*
X159626998Y-112103649D01*
X159480690Y-111957341D01*
X159480684Y-111957336D01*
X159477640Y-111955302D01*
X159308626Y-111842371D01*
X159117448Y-111763182D01*
X159104985Y-111760703D01*
X158914495Y-111722812D01*
X158914493Y-111722812D01*
X158707563Y-111722812D01*
X158707560Y-111722812D01*
X158504607Y-111763182D01*
X158504602Y-111763184D01*
X158313430Y-111842371D01*
X158141371Y-111957336D01*
X158141365Y-111957341D01*
X157995057Y-112103649D01*
X157995052Y-112103655D01*
X157880087Y-112275714D01*
X157800900Y-112466886D01*
X157800898Y-112466891D01*
X157760528Y-112669844D01*
X157321527Y-112669844D01*
X157281158Y-112466892D01*
X157201969Y-112275714D01*
X157087005Y-112103657D01*
X157087003Y-112103655D01*
X157086998Y-112103649D01*
X156940690Y-111957341D01*
X156940684Y-111957336D01*
X156937640Y-111955302D01*
X156768626Y-111842371D01*
X156577448Y-111763182D01*
X156564985Y-111760703D01*
X156374495Y-111722812D01*
X156374493Y-111722812D01*
X156167563Y-111722812D01*
X156167560Y-111722812D01*
X155964607Y-111763182D01*
X155964602Y-111763184D01*
X155773430Y-111842371D01*
X155601371Y-111957336D01*
X155601365Y-111957341D01*
X155455057Y-112103649D01*
X155455052Y-112103655D01*
X155340087Y-112275714D01*
X155260900Y-112466886D01*
X155260898Y-112466891D01*
X155220528Y-112669844D01*
X152003721Y-112669844D01*
X152003721Y-111550495D01*
X152003721Y-111550494D01*
X151976428Y-111448634D01*
X151976428Y-111448633D01*
X151976428Y-111448632D01*
X151923703Y-111357311D01*
X151923695Y-111357301D01*
X150696238Y-110129844D01*
X155220528Y-110129844D01*
X155220528Y-110336779D01*
X155239442Y-110431865D01*
X155260898Y-110539732D01*
X155340087Y-110730910D01*
X155417173Y-110846278D01*
X155455052Y-110902968D01*
X155455057Y-110902974D01*
X155601365Y-111049282D01*
X155601371Y-111049287D01*
X155601373Y-111049289D01*
X155773430Y-111164253D01*
X155964608Y-111243442D01*
X156167563Y-111283812D01*
X156167564Y-111283812D01*
X156374492Y-111283812D01*
X156374493Y-111283812D01*
X156577448Y-111243442D01*
X156768626Y-111164253D01*
X156940683Y-111049289D01*
X157087005Y-110902967D01*
X157201969Y-110730910D01*
X157281158Y-110539732D01*
X157321528Y-110336777D01*
X157321528Y-110129847D01*
X157321527Y-110129844D01*
X157760528Y-110129844D01*
X157760528Y-110336779D01*
X157779442Y-110431865D01*
X157800898Y-110539732D01*
X157880087Y-110730910D01*
X157957173Y-110846278D01*
X157995052Y-110902968D01*
X157995057Y-110902974D01*
X158141365Y-111049282D01*
X158141371Y-111049287D01*
X158141373Y-111049289D01*
X158313430Y-111164253D01*
X158504608Y-111243442D01*
X158707563Y-111283812D01*
X158707564Y-111283812D01*
X158914492Y-111283812D01*
X158914493Y-111283812D01*
X159117448Y-111243442D01*
X159308626Y-111164253D01*
X159480683Y-111049289D01*
X159627005Y-110902967D01*
X159741969Y-110730910D01*
X159821158Y-110539732D01*
X159861528Y-110336777D01*
X159861528Y-110129847D01*
X159821158Y-109926892D01*
X159741969Y-109735714D01*
X159627005Y-109563657D01*
X159627003Y-109563655D01*
X159626998Y-109563649D01*
X159480690Y-109417341D01*
X159480684Y-109417336D01*
X159480683Y-109417335D01*
X159308626Y-109302371D01*
X159117448Y-109223182D01*
X158914495Y-109182812D01*
X158914493Y-109182812D01*
X158707563Y-109182812D01*
X158707560Y-109182812D01*
X158504607Y-109223182D01*
X158504602Y-109223184D01*
X158313430Y-109302371D01*
X158141371Y-109417336D01*
X158141365Y-109417341D01*
X157995057Y-109563649D01*
X157995052Y-109563655D01*
X157880087Y-109735714D01*
X157800900Y-109926886D01*
X157800898Y-109926891D01*
X157760528Y-110129844D01*
X157321527Y-110129844D01*
X157281158Y-109926892D01*
X157201969Y-109735714D01*
X157087005Y-109563657D01*
X157087003Y-109563655D01*
X157086998Y-109563649D01*
X156940690Y-109417341D01*
X156940684Y-109417336D01*
X156940683Y-109417335D01*
X156768626Y-109302371D01*
X156577448Y-109223182D01*
X156374495Y-109182812D01*
X156374493Y-109182812D01*
X156167563Y-109182812D01*
X156167560Y-109182812D01*
X155964607Y-109223182D01*
X155964602Y-109223184D01*
X155773430Y-109302371D01*
X155601371Y-109417336D01*
X155601365Y-109417341D01*
X155455057Y-109563649D01*
X155455052Y-109563655D01*
X155340087Y-109735714D01*
X155260900Y-109926886D01*
X155260898Y-109926891D01*
X155220528Y-110129844D01*
X150696238Y-110129844D01*
X149136390Y-108569996D01*
X149136380Y-108569988D01*
X149045063Y-108517266D01*
X149045061Y-108517265D01*
X149045059Y-108517264D01*
X148943198Y-108489971D01*
X148943197Y-108489971D01*
X146335411Y-108489971D01*
X146267290Y-108469969D01*
X146220797Y-108416313D01*
X146210693Y-108346039D01*
X146230645Y-108293970D01*
X146335483Y-108137069D01*
X146414672Y-107945891D01*
X146455042Y-107742936D01*
X146455042Y-107589844D01*
X155220528Y-107589844D01*
X155220528Y-107796779D01*
X155250188Y-107945891D01*
X155260898Y-107999732D01*
X155340087Y-108190910D01*
X155455051Y-108362967D01*
X155455052Y-108362968D01*
X155455057Y-108362974D01*
X155601365Y-108509282D01*
X155601371Y-108509287D01*
X155601373Y-108509289D01*
X155773430Y-108624253D01*
X155964608Y-108703442D01*
X156167563Y-108743812D01*
X156167564Y-108743812D01*
X156374492Y-108743812D01*
X156374493Y-108743812D01*
X156577448Y-108703442D01*
X156768626Y-108624253D01*
X156940683Y-108509289D01*
X157087005Y-108362967D01*
X157201969Y-108190910D01*
X157281158Y-107999732D01*
X157321528Y-107796777D01*
X157321528Y-107589847D01*
X157321527Y-107589844D01*
X157760528Y-107589844D01*
X157760528Y-107796779D01*
X157790188Y-107945891D01*
X157800898Y-107999732D01*
X157880087Y-108190910D01*
X157995051Y-108362967D01*
X157995052Y-108362968D01*
X157995057Y-108362974D01*
X158141365Y-108509282D01*
X158141371Y-108509287D01*
X158141373Y-108509289D01*
X158313430Y-108624253D01*
X158504608Y-108703442D01*
X158707563Y-108743812D01*
X158707564Y-108743812D01*
X158914492Y-108743812D01*
X158914493Y-108743812D01*
X159117448Y-108703442D01*
X159308626Y-108624253D01*
X159480683Y-108509289D01*
X159627005Y-108362967D01*
X159741969Y-108190910D01*
X159821158Y-107999732D01*
X159861528Y-107796777D01*
X159861528Y-107589847D01*
X159821158Y-107386892D01*
X159741969Y-107195714D01*
X159627005Y-107023657D01*
X159627003Y-107023655D01*
X159626998Y-107023649D01*
X159480690Y-106877341D01*
X159480684Y-106877336D01*
X159445837Y-106854052D01*
X159308626Y-106762371D01*
X159117448Y-106683182D01*
X159104985Y-106680703D01*
X158914495Y-106642812D01*
X158914493Y-106642812D01*
X158707563Y-106642812D01*
X158707560Y-106642812D01*
X158504607Y-106683182D01*
X158504602Y-106683184D01*
X158313430Y-106762371D01*
X158141371Y-106877336D01*
X158141365Y-106877341D01*
X157995057Y-107023649D01*
X157995052Y-107023655D01*
X157880087Y-107195714D01*
X157800900Y-107386886D01*
X157800898Y-107386891D01*
X157760528Y-107589844D01*
X157321527Y-107589844D01*
X157281158Y-107386892D01*
X157201969Y-107195714D01*
X157087005Y-107023657D01*
X157087003Y-107023655D01*
X157086998Y-107023649D01*
X156940690Y-106877341D01*
X156940684Y-106877336D01*
X156905837Y-106854052D01*
X156768626Y-106762371D01*
X156577448Y-106683182D01*
X156564985Y-106680703D01*
X156374495Y-106642812D01*
X156374493Y-106642812D01*
X156167563Y-106642812D01*
X156167560Y-106642812D01*
X155964607Y-106683182D01*
X155964602Y-106683184D01*
X155773430Y-106762371D01*
X155601371Y-106877336D01*
X155601365Y-106877341D01*
X155455057Y-107023649D01*
X155455052Y-107023655D01*
X155340087Y-107195714D01*
X155260900Y-107386886D01*
X155260898Y-107386891D01*
X155220528Y-107589844D01*
X146455042Y-107589844D01*
X146455042Y-107536006D01*
X146414672Y-107333051D01*
X146335483Y-107141873D01*
X146220519Y-106969816D01*
X146220517Y-106969814D01*
X146220512Y-106969808D01*
X146074204Y-106823500D01*
X146074198Y-106823495D01*
X146074197Y-106823494D01*
X145902140Y-106708530D01*
X145710962Y-106629341D01*
X145508009Y-106588971D01*
X145508007Y-106588971D01*
X145301077Y-106588971D01*
X145301074Y-106588971D01*
X145098121Y-106629341D01*
X145098116Y-106629343D01*
X144906944Y-106708530D01*
X144734885Y-106823495D01*
X144734879Y-106823500D01*
X144588571Y-106969808D01*
X144588566Y-106969814D01*
X144473601Y-107141873D01*
X144394414Y-107333045D01*
X144394412Y-107333050D01*
X144354042Y-107536003D01*
X144354042Y-107742938D01*
X144364752Y-107796779D01*
X144394412Y-107945891D01*
X144473601Y-108137069D01*
X144588565Y-108309126D01*
X144588566Y-108309127D01*
X144588571Y-108309133D01*
X144674842Y-108395404D01*
X144708868Y-108457716D01*
X144703803Y-108528531D01*
X144674842Y-108573594D01*
X143798665Y-109449771D01*
X143736353Y-109483797D01*
X143665538Y-109478732D01*
X143620475Y-109449771D01*
X143534204Y-109363500D01*
X143534198Y-109363495D01*
X143534197Y-109363494D01*
X143362140Y-109248530D01*
X143170962Y-109169341D01*
X143141728Y-109163526D01*
X142968009Y-109128971D01*
X142968007Y-109128971D01*
X142761077Y-109128971D01*
X142761074Y-109128971D01*
X142558121Y-109169341D01*
X142558116Y-109169343D01*
X142366944Y-109248530D01*
X142194885Y-109363495D01*
X142194879Y-109363500D01*
X142048571Y-109509808D01*
X142048566Y-109509814D01*
X141933601Y-109681873D01*
X141854414Y-109873045D01*
X141854412Y-109873050D01*
X141814042Y-110076003D01*
X138151263Y-110076003D01*
X138151264Y-110069796D01*
X138151667Y-107536003D01*
X141814042Y-107536003D01*
X141814042Y-107742938D01*
X141824752Y-107796779D01*
X141854412Y-107945891D01*
X141933601Y-108137069D01*
X142048565Y-108309126D01*
X142048566Y-108309127D01*
X142048571Y-108309133D01*
X142194879Y-108455441D01*
X142194885Y-108455446D01*
X142194887Y-108455448D01*
X142366944Y-108570412D01*
X142558122Y-108649601D01*
X142761077Y-108689971D01*
X142761078Y-108689971D01*
X142968006Y-108689971D01*
X142968007Y-108689971D01*
X143170962Y-108649601D01*
X143362140Y-108570412D01*
X143534197Y-108455448D01*
X143680519Y-108309126D01*
X143795483Y-108137069D01*
X143874672Y-107945891D01*
X143915042Y-107742936D01*
X143915042Y-107536006D01*
X143874672Y-107333051D01*
X143795483Y-107141873D01*
X143680519Y-106969816D01*
X143680517Y-106969814D01*
X143680512Y-106969808D01*
X143534204Y-106823500D01*
X143534198Y-106823495D01*
X143534197Y-106823494D01*
X143362140Y-106708530D01*
X143170962Y-106629341D01*
X142968009Y-106588971D01*
X142968007Y-106588971D01*
X142761077Y-106588971D01*
X142761074Y-106588971D01*
X142558121Y-106629341D01*
X142558116Y-106629343D01*
X142366944Y-106708530D01*
X142194885Y-106823495D01*
X142194879Y-106823500D01*
X142048571Y-106969808D01*
X142048566Y-106969814D01*
X141933601Y-107141873D01*
X141854414Y-107333045D01*
X141854412Y-107333050D01*
X141814042Y-107536003D01*
X138151667Y-107536003D01*
X138151668Y-107529796D01*
X138152070Y-104996003D01*
X141814042Y-104996003D01*
X141814042Y-105202938D01*
X141824752Y-105256779D01*
X141854412Y-105405891D01*
X141933601Y-105597069D01*
X142046662Y-105766278D01*
X142048566Y-105769127D01*
X142048571Y-105769133D01*
X142194879Y-105915441D01*
X142194885Y-105915446D01*
X142194887Y-105915448D01*
X142366944Y-106030412D01*
X142558122Y-106109601D01*
X142761077Y-106149971D01*
X142761078Y-106149971D01*
X142968006Y-106149971D01*
X142968007Y-106149971D01*
X143170962Y-106109601D01*
X143362140Y-106030412D01*
X143534197Y-105915448D01*
X143680519Y-105769126D01*
X143795483Y-105597069D01*
X143874672Y-105405891D01*
X143915042Y-105202936D01*
X143915042Y-104996006D01*
X143915041Y-104996003D01*
X144354042Y-104996003D01*
X144354042Y-105202938D01*
X144364752Y-105256779D01*
X144394412Y-105405891D01*
X144473601Y-105597069D01*
X144586662Y-105766278D01*
X144588566Y-105769127D01*
X144588571Y-105769133D01*
X144734879Y-105915441D01*
X144734885Y-105915446D01*
X144734887Y-105915448D01*
X144906944Y-106030412D01*
X145098122Y-106109601D01*
X145301077Y-106149971D01*
X145301078Y-106149971D01*
X145508006Y-106149971D01*
X145508007Y-106149971D01*
X145710962Y-106109601D01*
X145902140Y-106030412D01*
X146074197Y-105915448D01*
X146220519Y-105769126D01*
X146335483Y-105597069D01*
X146414672Y-105405891D01*
X146455042Y-105202936D01*
X146455042Y-105049844D01*
X155220528Y-105049844D01*
X155220528Y-105256779D01*
X155239442Y-105351865D01*
X155260898Y-105459732D01*
X155340087Y-105650910D01*
X155417173Y-105766278D01*
X155455052Y-105822968D01*
X155455057Y-105822974D01*
X155601365Y-105969282D01*
X155601371Y-105969287D01*
X155601373Y-105969289D01*
X155773430Y-106084253D01*
X155964608Y-106163442D01*
X156167563Y-106203812D01*
X156167564Y-106203812D01*
X156374492Y-106203812D01*
X156374493Y-106203812D01*
X156577448Y-106163442D01*
X156768626Y-106084253D01*
X156940683Y-105969289D01*
X157087005Y-105822967D01*
X157201969Y-105650910D01*
X157281158Y-105459732D01*
X157321528Y-105256777D01*
X157321528Y-105049847D01*
X157321527Y-105049844D01*
X157760528Y-105049844D01*
X157760528Y-105256779D01*
X157779442Y-105351865D01*
X157800898Y-105459732D01*
X157880087Y-105650910D01*
X157957173Y-105766278D01*
X157995052Y-105822968D01*
X157995057Y-105822974D01*
X158141365Y-105969282D01*
X158141371Y-105969287D01*
X158141373Y-105969289D01*
X158313430Y-106084253D01*
X158504608Y-106163442D01*
X158707563Y-106203812D01*
X158707564Y-106203812D01*
X158914492Y-106203812D01*
X158914493Y-106203812D01*
X159117448Y-106163442D01*
X159308626Y-106084253D01*
X159480683Y-105969289D01*
X159627005Y-105822967D01*
X159741969Y-105650910D01*
X159821158Y-105459732D01*
X159861528Y-105256777D01*
X159861528Y-105138118D01*
X196114951Y-105138118D01*
X196114951Y-105351865D01*
X196148391Y-105562995D01*
X196214441Y-105766278D01*
X196214444Y-105766284D01*
X196311486Y-105956740D01*
X196311487Y-105956742D01*
X196349571Y-106009159D01*
X196349572Y-106009160D01*
X196988792Y-105369939D01*
X197007026Y-105437985D01*
X197072852Y-105551999D01*
X197165944Y-105645091D01*
X197279958Y-105710917D01*
X197348002Y-105729149D01*
X196708782Y-106368370D01*
X196761200Y-106406455D01*
X196761202Y-106406456D01*
X196951658Y-106503498D01*
X196951664Y-106503501D01*
X197114388Y-106556373D01*
X197172994Y-106596446D01*
X197200631Y-106661843D01*
X197188524Y-106731800D01*
X197140518Y-106784106D01*
X197123671Y-106792615D01*
X196975351Y-106854052D01*
X196803294Y-106969016D01*
X196803288Y-106969021D01*
X196656980Y-107115329D01*
X196656975Y-107115335D01*
X196542010Y-107287394D01*
X196462823Y-107478566D01*
X196462821Y-107478571D01*
X196422451Y-107681524D01*
X196422451Y-107681527D01*
X196422451Y-107888457D01*
X196462821Y-108091412D01*
X196542010Y-108282590D01*
X196656974Y-108454647D01*
X196656975Y-108454648D01*
X196656980Y-108454654D01*
X196803288Y-108600962D01*
X196803294Y-108600967D01*
X196803296Y-108600969D01*
X196975353Y-108715933D01*
X197123670Y-108777368D01*
X197178951Y-108821916D01*
X197201372Y-108889280D01*
X197183814Y-108958071D01*
X197131852Y-109006449D01*
X197114389Y-109013610D01*
X196951661Y-109066484D01*
X196951658Y-109066485D01*
X196761204Y-109163526D01*
X196708782Y-109201613D01*
X196708782Y-109201614D01*
X197348002Y-109840834D01*
X197279958Y-109859067D01*
X197165944Y-109924893D01*
X197072852Y-110017985D01*
X197007026Y-110131999D01*
X196988793Y-110200043D01*
X196349573Y-109560823D01*
X196349572Y-109560823D01*
X196311485Y-109613245D01*
X196214444Y-109803699D01*
X196214441Y-109803705D01*
X196148391Y-110006988D01*
X196114951Y-110218118D01*
X196114951Y-110431865D01*
X196148391Y-110642995D01*
X196214441Y-110846278D01*
X196214444Y-110846284D01*
X196311486Y-111036740D01*
X196311487Y-111036742D01*
X196349571Y-111089159D01*
X196349572Y-111089160D01*
X196988792Y-110449939D01*
X197007026Y-110517985D01*
X197072852Y-110631999D01*
X197165944Y-110725091D01*
X197279958Y-110790917D01*
X197348002Y-110809149D01*
X196708782Y-111448370D01*
X196761200Y-111486455D01*
X196761202Y-111486456D01*
X196951658Y-111583498D01*
X196951664Y-111583501D01*
X197114388Y-111636373D01*
X197172994Y-111676446D01*
X197200631Y-111741843D01*
X197188524Y-111811800D01*
X197140518Y-111864106D01*
X197123671Y-111872615D01*
X196975351Y-111934052D01*
X196803294Y-112049016D01*
X196803288Y-112049021D01*
X196656980Y-112195329D01*
X196656975Y-112195335D01*
X196542010Y-112367394D01*
X196462823Y-112558566D01*
X196462821Y-112558571D01*
X196422451Y-112761524D01*
X196422451Y-112968459D01*
X196444247Y-113078033D01*
X196462821Y-113171412D01*
X196542010Y-113362590D01*
X196656974Y-113534647D01*
X196656975Y-113534648D01*
X196656980Y-113534654D01*
X196803288Y-113680962D01*
X196803294Y-113680967D01*
X196803296Y-113680969D01*
X196975353Y-113795933D01*
X197166531Y-113875122D01*
X197369486Y-113915492D01*
X197369487Y-113915492D01*
X197576415Y-113915492D01*
X197576416Y-113915492D01*
X197779371Y-113875122D01*
X197970549Y-113795933D01*
X198142606Y-113680969D01*
X198288928Y-113534647D01*
X198403892Y-113362590D01*
X198483081Y-113171412D01*
X198523451Y-112968457D01*
X198523451Y-112761527D01*
X198483081Y-112558572D01*
X198403892Y-112367394D01*
X198299210Y-112210725D01*
X198962451Y-112210725D01*
X198962451Y-113519258D01*
X198965305Y-113549692D01*
X198965306Y-113549696D01*
X199010157Y-113677873D01*
X199010159Y-113677877D01*
X199090800Y-113787142D01*
X199200065Y-113867783D01*
X199200069Y-113867785D01*
X199328252Y-113912638D01*
X199358685Y-113915492D01*
X199358687Y-113915492D01*
X200667215Y-113915492D01*
X200667217Y-113915492D01*
X200697650Y-113912638D01*
X200825833Y-113867785D01*
X200935101Y-113787142D01*
X201015744Y-113677874D01*
X201060597Y-113549691D01*
X201063451Y-113519258D01*
X201063451Y-112210726D01*
X201060597Y-112180293D01*
X201015744Y-112052110D01*
X201015742Y-112052106D01*
X200935101Y-111942841D01*
X200825836Y-111862200D01*
X200825832Y-111862198D01*
X200697655Y-111817347D01*
X200697651Y-111817346D01*
X200667217Y-111814492D01*
X199358685Y-111814492D01*
X199358684Y-111814492D01*
X199328250Y-111817346D01*
X199328246Y-111817347D01*
X199200069Y-111862198D01*
X199200065Y-111862200D01*
X199090800Y-111942841D01*
X199010159Y-112052106D01*
X199010157Y-112052110D01*
X198965306Y-112180287D01*
X198965305Y-112180291D01*
X198962451Y-112210725D01*
X198299210Y-112210725D01*
X198288928Y-112195337D01*
X198288925Y-112195334D01*
X198288921Y-112195329D01*
X198142613Y-112049021D01*
X198142607Y-112049016D01*
X198005398Y-111957336D01*
X197970549Y-111934051D01*
X197822229Y-111872614D01*
X197766950Y-111828066D01*
X197744529Y-111760703D01*
X197762087Y-111691912D01*
X197814050Y-111643533D01*
X197831513Y-111636373D01*
X197994237Y-111583501D01*
X197994243Y-111583498D01*
X198184701Y-111486455D01*
X198237118Y-111448370D01*
X198237118Y-111448368D01*
X197597899Y-110809149D01*
X197665944Y-110790917D01*
X197779958Y-110725091D01*
X197873050Y-110631999D01*
X197938876Y-110517985D01*
X197957108Y-110449940D01*
X198596327Y-111089159D01*
X198596329Y-111089159D01*
X198634414Y-111036742D01*
X198731457Y-110846284D01*
X198731460Y-110846278D01*
X198784332Y-110683554D01*
X198824405Y-110624948D01*
X198889802Y-110597311D01*
X198959759Y-110609418D01*
X199012065Y-110657424D01*
X199020573Y-110674269D01*
X199082010Y-110822590D01*
X199195244Y-110992057D01*
X199196975Y-110994648D01*
X199196980Y-110994654D01*
X199343288Y-111140962D01*
X199343294Y-111140967D01*
X199343296Y-111140969D01*
X199515353Y-111255933D01*
X199706531Y-111335122D01*
X199909486Y-111375492D01*
X199909487Y-111375492D01*
X200116415Y-111375492D01*
X200116416Y-111375492D01*
X200319371Y-111335122D01*
X200510549Y-111255933D01*
X200682606Y-111140969D01*
X200828928Y-110994647D01*
X200943892Y-110822590D01*
X201023081Y-110631412D01*
X201063451Y-110428457D01*
X201063451Y-110221527D01*
X201023081Y-110018572D01*
X200943892Y-109827394D01*
X200828928Y-109655337D01*
X200828926Y-109655335D01*
X200828921Y-109655329D01*
X200682613Y-109509021D01*
X200682607Y-109509016D01*
X200644864Y-109483797D01*
X200510549Y-109394051D01*
X200319371Y-109314862D01*
X200299820Y-109310973D01*
X200116418Y-109274492D01*
X200116416Y-109274492D01*
X199909486Y-109274492D01*
X199909483Y-109274492D01*
X199706530Y-109314862D01*
X199706525Y-109314864D01*
X199515353Y-109394051D01*
X199343294Y-109509016D01*
X199343288Y-109509021D01*
X199196980Y-109655329D01*
X199196975Y-109655335D01*
X199082011Y-109827392D01*
X199020574Y-109975712D01*
X198976025Y-110030992D01*
X198908661Y-110053413D01*
X198839870Y-110035854D01*
X198791492Y-109983892D01*
X198784332Y-109966429D01*
X198731460Y-109803705D01*
X198731457Y-109803699D01*
X198634415Y-109613243D01*
X198634414Y-109613241D01*
X198596329Y-109560823D01*
X197957108Y-110200043D01*
X197938876Y-110131999D01*
X197873050Y-110017985D01*
X197779958Y-109924893D01*
X197665944Y-109859067D01*
X197597898Y-109840833D01*
X198237119Y-109201613D01*
X198237118Y-109201612D01*
X198184701Y-109163528D01*
X198184699Y-109163527D01*
X197994243Y-109066485D01*
X197994237Y-109066482D01*
X197831513Y-109013610D01*
X197772907Y-108973536D01*
X197745270Y-108908140D01*
X197757377Y-108838183D01*
X197805383Y-108785877D01*
X197822223Y-108777371D01*
X197970549Y-108715933D01*
X198142606Y-108600969D01*
X198288928Y-108454647D01*
X198403892Y-108282590D01*
X198483081Y-108091412D01*
X198523451Y-107888457D01*
X198523451Y-107681527D01*
X198523450Y-107681524D01*
X198962451Y-107681524D01*
X198962451Y-107681527D01*
X198962451Y-107888457D01*
X199002821Y-108091412D01*
X199082010Y-108282590D01*
X199196974Y-108454647D01*
X199196975Y-108454648D01*
X199196980Y-108454654D01*
X199343288Y-108600962D01*
X199343294Y-108600967D01*
X199343296Y-108600969D01*
X199515353Y-108715933D01*
X199706531Y-108795122D01*
X199909486Y-108835492D01*
X199909487Y-108835492D01*
X200116415Y-108835492D01*
X200116416Y-108835492D01*
X200319371Y-108795122D01*
X200510549Y-108715933D01*
X200682606Y-108600969D01*
X200828928Y-108454647D01*
X200943892Y-108282590D01*
X201023081Y-108091412D01*
X201063451Y-107888457D01*
X201063451Y-107681527D01*
X201023081Y-107478572D01*
X200943892Y-107287394D01*
X200828928Y-107115337D01*
X200828926Y-107115335D01*
X200828921Y-107115329D01*
X200682613Y-106969021D01*
X200682607Y-106969016D01*
X200682606Y-106969015D01*
X200510549Y-106854051D01*
X200319371Y-106774862D01*
X200116418Y-106734492D01*
X200116416Y-106734492D01*
X199909486Y-106734492D01*
X199909483Y-106734492D01*
X199706530Y-106774862D01*
X199706525Y-106774864D01*
X199515353Y-106854051D01*
X199343294Y-106969016D01*
X199343288Y-106969021D01*
X199196980Y-107115329D01*
X199196975Y-107115335D01*
X199082010Y-107287394D01*
X199002823Y-107478566D01*
X199002821Y-107478571D01*
X198962451Y-107681524D01*
X198523450Y-107681524D01*
X198483081Y-107478572D01*
X198403892Y-107287394D01*
X198288928Y-107115337D01*
X198288926Y-107115335D01*
X198288921Y-107115329D01*
X198142613Y-106969021D01*
X198142607Y-106969016D01*
X198005398Y-106877336D01*
X197970549Y-106854051D01*
X197822229Y-106792614D01*
X197766950Y-106748066D01*
X197744529Y-106680703D01*
X197762087Y-106611912D01*
X197814050Y-106563533D01*
X197831513Y-106556373D01*
X197994237Y-106503501D01*
X197994243Y-106503498D01*
X198184701Y-106406455D01*
X198237118Y-106368370D01*
X198237118Y-106368368D01*
X197597899Y-105729149D01*
X197665944Y-105710917D01*
X197779958Y-105645091D01*
X197873050Y-105551999D01*
X197938876Y-105437985D01*
X197957108Y-105369940D01*
X198596327Y-106009159D01*
X198596329Y-106009159D01*
X198634414Y-105956742D01*
X198731457Y-105766284D01*
X198731460Y-105766278D01*
X198784332Y-105603554D01*
X198824405Y-105544948D01*
X198889802Y-105517311D01*
X198959759Y-105529418D01*
X199012065Y-105577424D01*
X199020573Y-105594269D01*
X199082010Y-105742590D01*
X199135721Y-105822974D01*
X199196975Y-105914648D01*
X199196980Y-105914654D01*
X199343288Y-106060962D01*
X199343294Y-106060967D01*
X199343296Y-106060969D01*
X199515353Y-106175933D01*
X199706531Y-106255122D01*
X199909486Y-106295492D01*
X199909487Y-106295492D01*
X200116415Y-106295492D01*
X200116416Y-106295492D01*
X200319371Y-106255122D01*
X200510549Y-106175933D01*
X200682606Y-106060969D01*
X200828928Y-105914647D01*
X200943892Y-105742590D01*
X201023081Y-105551412D01*
X201063451Y-105348457D01*
X201063451Y-105141527D01*
X201023081Y-104938572D01*
X200943892Y-104747394D01*
X200828928Y-104575337D01*
X200828926Y-104575335D01*
X200828921Y-104575329D01*
X200682613Y-104429021D01*
X200682607Y-104429016D01*
X200682606Y-104429015D01*
X200510549Y-104314051D01*
X200319371Y-104234862D01*
X200116418Y-104194492D01*
X200116416Y-104194492D01*
X199909486Y-104194492D01*
X199909483Y-104194492D01*
X199706530Y-104234862D01*
X199706525Y-104234864D01*
X199515353Y-104314051D01*
X199343294Y-104429016D01*
X199343288Y-104429021D01*
X199196980Y-104575329D01*
X199196975Y-104575335D01*
X199082011Y-104747392D01*
X199020574Y-104895712D01*
X198976025Y-104950992D01*
X198908661Y-104973413D01*
X198839870Y-104955854D01*
X198791492Y-104903892D01*
X198784332Y-104886429D01*
X198731460Y-104723705D01*
X198731457Y-104723699D01*
X198634415Y-104533243D01*
X198634414Y-104533241D01*
X198596329Y-104480823D01*
X197957108Y-105120043D01*
X197938876Y-105051999D01*
X197873050Y-104937985D01*
X197779958Y-104844893D01*
X197665944Y-104779067D01*
X197597898Y-104760833D01*
X198237119Y-104121613D01*
X198237118Y-104121612D01*
X198184701Y-104083528D01*
X198184699Y-104083527D01*
X197994243Y-103986485D01*
X197994237Y-103986482D01*
X197831513Y-103933610D01*
X197772907Y-103893536D01*
X197745270Y-103828140D01*
X197757377Y-103758183D01*
X197805383Y-103705877D01*
X197822223Y-103697371D01*
X197970549Y-103635933D01*
X198142606Y-103520969D01*
X198288928Y-103374647D01*
X198403892Y-103202590D01*
X198483081Y-103011412D01*
X198523451Y-102808457D01*
X198523451Y-102601527D01*
X198523450Y-102601524D01*
X198962451Y-102601524D01*
X198962451Y-102601527D01*
X198962451Y-102808457D01*
X199002821Y-103011412D01*
X199082010Y-103202590D01*
X199196974Y-103374647D01*
X199196975Y-103374648D01*
X199196980Y-103374654D01*
X199343288Y-103520962D01*
X199343294Y-103520967D01*
X199343296Y-103520969D01*
X199515353Y-103635933D01*
X199706531Y-103715122D01*
X199909486Y-103755492D01*
X199909487Y-103755492D01*
X200116415Y-103755492D01*
X200116416Y-103755492D01*
X200319371Y-103715122D01*
X200510549Y-103635933D01*
X200682606Y-103520969D01*
X200828928Y-103374647D01*
X200943892Y-103202590D01*
X201023081Y-103011412D01*
X201063451Y-102808457D01*
X201063451Y-102601527D01*
X201023081Y-102398572D01*
X200943892Y-102207394D01*
X200828928Y-102035337D01*
X200828926Y-102035335D01*
X200828921Y-102035329D01*
X200682613Y-101889021D01*
X200682607Y-101889016D01*
X200682606Y-101889015D01*
X200510549Y-101774051D01*
X200319371Y-101694862D01*
X200116418Y-101654492D01*
X200116416Y-101654492D01*
X199909486Y-101654492D01*
X199909483Y-101654492D01*
X199706530Y-101694862D01*
X199706525Y-101694864D01*
X199515353Y-101774051D01*
X199343294Y-101889016D01*
X199343288Y-101889021D01*
X199196980Y-102035329D01*
X199196975Y-102035335D01*
X199082010Y-102207394D01*
X199002823Y-102398566D01*
X199002821Y-102398571D01*
X198962451Y-102601524D01*
X198523450Y-102601524D01*
X198483081Y-102398572D01*
X198403892Y-102207394D01*
X198288928Y-102035337D01*
X198288926Y-102035335D01*
X198288921Y-102035329D01*
X198142613Y-101889021D01*
X198142607Y-101889016D01*
X198142606Y-101889015D01*
X197970549Y-101774051D01*
X197779371Y-101694862D01*
X197576418Y-101654492D01*
X197576416Y-101654492D01*
X197369486Y-101654492D01*
X197369483Y-101654492D01*
X197166530Y-101694862D01*
X197166525Y-101694864D01*
X196975353Y-101774051D01*
X196803294Y-101889016D01*
X196803288Y-101889021D01*
X196656980Y-102035329D01*
X196656975Y-102035335D01*
X196542010Y-102207394D01*
X196462823Y-102398566D01*
X196462821Y-102398571D01*
X196422451Y-102601524D01*
X196422451Y-102601527D01*
X196422451Y-102808457D01*
X196462821Y-103011412D01*
X196542010Y-103202590D01*
X196656974Y-103374647D01*
X196656975Y-103374648D01*
X196656980Y-103374654D01*
X196803288Y-103520962D01*
X196803294Y-103520967D01*
X196803296Y-103520969D01*
X196975353Y-103635933D01*
X197123670Y-103697368D01*
X197178951Y-103741916D01*
X197201372Y-103809280D01*
X197183814Y-103878071D01*
X197131852Y-103926449D01*
X197114389Y-103933610D01*
X196951661Y-103986484D01*
X196951658Y-103986485D01*
X196761204Y-104083526D01*
X196708782Y-104121613D01*
X196708782Y-104121614D01*
X197348002Y-104760834D01*
X197279958Y-104779067D01*
X197165944Y-104844893D01*
X197072852Y-104937985D01*
X197007026Y-105051999D01*
X196988793Y-105120043D01*
X196349573Y-104480823D01*
X196349572Y-104480823D01*
X196311485Y-104533245D01*
X196214444Y-104723699D01*
X196214441Y-104723705D01*
X196148391Y-104926988D01*
X196114951Y-105138118D01*
X159861528Y-105138118D01*
X159861528Y-105049847D01*
X159821158Y-104846892D01*
X159741969Y-104655714D01*
X159627005Y-104483657D01*
X159627003Y-104483655D01*
X159626998Y-104483649D01*
X159480690Y-104337341D01*
X159480684Y-104337336D01*
X159480683Y-104337335D01*
X159308626Y-104222371D01*
X159117448Y-104143182D01*
X158914495Y-104102812D01*
X158914493Y-104102812D01*
X158707563Y-104102812D01*
X158707560Y-104102812D01*
X158504607Y-104143182D01*
X158504602Y-104143184D01*
X158313430Y-104222371D01*
X158141371Y-104337336D01*
X158141365Y-104337341D01*
X157995057Y-104483649D01*
X157995052Y-104483655D01*
X157880087Y-104655714D01*
X157800900Y-104846886D01*
X157800898Y-104846891D01*
X157760528Y-105049844D01*
X157321527Y-105049844D01*
X157281158Y-104846892D01*
X157201969Y-104655714D01*
X157087005Y-104483657D01*
X157087003Y-104483655D01*
X157086998Y-104483649D01*
X156940690Y-104337341D01*
X156940684Y-104337336D01*
X156940683Y-104337335D01*
X156768626Y-104222371D01*
X156577448Y-104143182D01*
X156374495Y-104102812D01*
X156374493Y-104102812D01*
X156167563Y-104102812D01*
X156167560Y-104102812D01*
X155964607Y-104143182D01*
X155964602Y-104143184D01*
X155773430Y-104222371D01*
X155601371Y-104337336D01*
X155601365Y-104337341D01*
X155455057Y-104483649D01*
X155455052Y-104483655D01*
X155340087Y-104655714D01*
X155260900Y-104846886D01*
X155260898Y-104846891D01*
X155220528Y-105049844D01*
X146455042Y-105049844D01*
X146455042Y-104996006D01*
X146414672Y-104793051D01*
X146335483Y-104601873D01*
X146220519Y-104429816D01*
X146220517Y-104429814D01*
X146220512Y-104429808D01*
X146074204Y-104283500D01*
X146074198Y-104283495D01*
X146074197Y-104283494D01*
X145902140Y-104168530D01*
X145710962Y-104089341D01*
X145681728Y-104083526D01*
X145508009Y-104048971D01*
X145508007Y-104048971D01*
X145301077Y-104048971D01*
X145301074Y-104048971D01*
X145098121Y-104089341D01*
X145098116Y-104089343D01*
X144906944Y-104168530D01*
X144734885Y-104283495D01*
X144734879Y-104283500D01*
X144588571Y-104429808D01*
X144588566Y-104429814D01*
X144473601Y-104601873D01*
X144394414Y-104793045D01*
X144394412Y-104793050D01*
X144354042Y-104996003D01*
X143915041Y-104996003D01*
X143874672Y-104793051D01*
X143795483Y-104601873D01*
X143680519Y-104429816D01*
X143680517Y-104429814D01*
X143680512Y-104429808D01*
X143534204Y-104283500D01*
X143534198Y-104283495D01*
X143534197Y-104283494D01*
X143362140Y-104168530D01*
X143170962Y-104089341D01*
X143141728Y-104083526D01*
X142968009Y-104048971D01*
X142968007Y-104048971D01*
X142761077Y-104048971D01*
X142761074Y-104048971D01*
X142558121Y-104089341D01*
X142558116Y-104089343D01*
X142366944Y-104168530D01*
X142194885Y-104283495D01*
X142194879Y-104283500D01*
X142048571Y-104429808D01*
X142048566Y-104429814D01*
X141933601Y-104601873D01*
X141854414Y-104793045D01*
X141854412Y-104793050D01*
X141814042Y-104996003D01*
X138152070Y-104996003D01*
X138152473Y-102456003D01*
X141814042Y-102456003D01*
X141814042Y-102662938D01*
X141824752Y-102716779D01*
X141854412Y-102865891D01*
X141933601Y-103057069D01*
X142048565Y-103229126D01*
X142048566Y-103229127D01*
X142048571Y-103229133D01*
X142194879Y-103375441D01*
X142194885Y-103375446D01*
X142194887Y-103375448D01*
X142366944Y-103490412D01*
X142558122Y-103569601D01*
X142761077Y-103609971D01*
X142761078Y-103609971D01*
X142968006Y-103609971D01*
X142968007Y-103609971D01*
X143170962Y-103569601D01*
X143362140Y-103490412D01*
X143534197Y-103375448D01*
X143680519Y-103229126D01*
X143795483Y-103057069D01*
X143874672Y-102865891D01*
X143915042Y-102662936D01*
X143915042Y-102456006D01*
X143915041Y-102456003D01*
X144354042Y-102456003D01*
X144354042Y-102662938D01*
X144364752Y-102716779D01*
X144394412Y-102865891D01*
X144473601Y-103057069D01*
X144588565Y-103229126D01*
X144588566Y-103229127D01*
X144588571Y-103229133D01*
X144734879Y-103375441D01*
X144734885Y-103375446D01*
X144734887Y-103375448D01*
X144906944Y-103490412D01*
X145098122Y-103569601D01*
X145301077Y-103609971D01*
X145301078Y-103609971D01*
X145508006Y-103609971D01*
X145508007Y-103609971D01*
X145710962Y-103569601D01*
X145902140Y-103490412D01*
X146074197Y-103375448D01*
X146220519Y-103229126D01*
X146335483Y-103057069D01*
X146414672Y-102865891D01*
X146455042Y-102662936D01*
X146455042Y-102509844D01*
X155220528Y-102509844D01*
X155220528Y-102716779D01*
X155250188Y-102865891D01*
X155260898Y-102919732D01*
X155340087Y-103110910D01*
X155419076Y-103229126D01*
X155455052Y-103282968D01*
X155455057Y-103282974D01*
X155601365Y-103429282D01*
X155601371Y-103429287D01*
X155601373Y-103429289D01*
X155773430Y-103544253D01*
X155964608Y-103623442D01*
X156167563Y-103663812D01*
X156167564Y-103663812D01*
X156374492Y-103663812D01*
X156374493Y-103663812D01*
X156577448Y-103623442D01*
X156768626Y-103544253D01*
X156940683Y-103429289D01*
X157087005Y-103282967D01*
X157201969Y-103110910D01*
X157281158Y-102919732D01*
X157321528Y-102716777D01*
X157321528Y-102509847D01*
X157321527Y-102509844D01*
X157760528Y-102509844D01*
X157760528Y-102716779D01*
X157790188Y-102865891D01*
X157800898Y-102919732D01*
X157880087Y-103110910D01*
X157959076Y-103229126D01*
X157995052Y-103282968D01*
X157995057Y-103282974D01*
X158141365Y-103429282D01*
X158141371Y-103429287D01*
X158141373Y-103429289D01*
X158313430Y-103544253D01*
X158504608Y-103623442D01*
X158707563Y-103663812D01*
X158707564Y-103663812D01*
X158914492Y-103663812D01*
X158914493Y-103663812D01*
X159117448Y-103623442D01*
X159308626Y-103544253D01*
X159480683Y-103429289D01*
X159627005Y-103282967D01*
X159741969Y-103110910D01*
X159821158Y-102919732D01*
X159861528Y-102716777D01*
X159861528Y-102509847D01*
X159821158Y-102306892D01*
X159741969Y-102115714D01*
X159627005Y-101943657D01*
X159627003Y-101943655D01*
X159626998Y-101943649D01*
X159480690Y-101797341D01*
X159480684Y-101797336D01*
X159480683Y-101797335D01*
X159308626Y-101682371D01*
X159117448Y-101603182D01*
X158914495Y-101562812D01*
X158914493Y-101562812D01*
X158707563Y-101562812D01*
X158707560Y-101562812D01*
X158504607Y-101603182D01*
X158504602Y-101603184D01*
X158313430Y-101682371D01*
X158141371Y-101797336D01*
X158141365Y-101797341D01*
X157995057Y-101943649D01*
X157995052Y-101943655D01*
X157880087Y-102115714D01*
X157800900Y-102306886D01*
X157800898Y-102306891D01*
X157760528Y-102509844D01*
X157321527Y-102509844D01*
X157281158Y-102306892D01*
X157201969Y-102115714D01*
X157087005Y-101943657D01*
X157087003Y-101943655D01*
X157086998Y-101943649D01*
X156940690Y-101797341D01*
X156940684Y-101797336D01*
X156940683Y-101797335D01*
X156768626Y-101682371D01*
X156577448Y-101603182D01*
X156374495Y-101562812D01*
X156374493Y-101562812D01*
X156167563Y-101562812D01*
X156167560Y-101562812D01*
X155964607Y-101603182D01*
X155964602Y-101603184D01*
X155773430Y-101682371D01*
X155601371Y-101797336D01*
X155601365Y-101797341D01*
X155455057Y-101943649D01*
X155455052Y-101943655D01*
X155340087Y-102115714D01*
X155260900Y-102306886D01*
X155260898Y-102306891D01*
X155220528Y-102509844D01*
X146455042Y-102509844D01*
X146455042Y-102456006D01*
X146414672Y-102253051D01*
X146335483Y-102061873D01*
X146220519Y-101889816D01*
X146220517Y-101889814D01*
X146220512Y-101889808D01*
X146074204Y-101743500D01*
X146074198Y-101743495D01*
X146074197Y-101743494D01*
X145902140Y-101628530D01*
X145710962Y-101549341D01*
X145508009Y-101508971D01*
X145508007Y-101508971D01*
X145301077Y-101508971D01*
X145301074Y-101508971D01*
X145098121Y-101549341D01*
X145098116Y-101549343D01*
X144906944Y-101628530D01*
X144734885Y-101743495D01*
X144734879Y-101743500D01*
X144588571Y-101889808D01*
X144588566Y-101889814D01*
X144473601Y-102061873D01*
X144394414Y-102253045D01*
X144394412Y-102253050D01*
X144354042Y-102456003D01*
X143915041Y-102456003D01*
X143874672Y-102253051D01*
X143795483Y-102061873D01*
X143680519Y-101889816D01*
X143680517Y-101889814D01*
X143680512Y-101889808D01*
X143534204Y-101743500D01*
X143534198Y-101743495D01*
X143534197Y-101743494D01*
X143362140Y-101628530D01*
X143170962Y-101549341D01*
X142968009Y-101508971D01*
X142968007Y-101508971D01*
X142761077Y-101508971D01*
X142761074Y-101508971D01*
X142558121Y-101549341D01*
X142558116Y-101549343D01*
X142366944Y-101628530D01*
X142194885Y-101743495D01*
X142194879Y-101743500D01*
X142048571Y-101889808D01*
X142048566Y-101889814D01*
X141933601Y-102061873D01*
X141854414Y-102253045D01*
X141854412Y-102253050D01*
X141814042Y-102456003D01*
X138152473Y-102456003D01*
X138152876Y-99916003D01*
X141814042Y-99916003D01*
X141814042Y-100122938D01*
X141824752Y-100176779D01*
X141854412Y-100325891D01*
X141933601Y-100517069D01*
X142048565Y-100689126D01*
X142048566Y-100689127D01*
X142048571Y-100689133D01*
X142194879Y-100835441D01*
X142194885Y-100835446D01*
X142194887Y-100835448D01*
X142366944Y-100950412D01*
X142558122Y-101029601D01*
X142761077Y-101069971D01*
X142761078Y-101069971D01*
X142968006Y-101069971D01*
X142968007Y-101069971D01*
X143170962Y-101029601D01*
X143362140Y-100950412D01*
X143534197Y-100835448D01*
X143680519Y-100689126D01*
X143795483Y-100517069D01*
X143874672Y-100325891D01*
X143915042Y-100122936D01*
X143915042Y-99916006D01*
X143915041Y-99916003D01*
X144354042Y-99916003D01*
X144354042Y-100122938D01*
X144364752Y-100176779D01*
X144394412Y-100325891D01*
X144473601Y-100517069D01*
X144588565Y-100689126D01*
X144588566Y-100689127D01*
X144588571Y-100689133D01*
X144734879Y-100835441D01*
X144734885Y-100835446D01*
X144734887Y-100835448D01*
X144906944Y-100950412D01*
X145098122Y-101029601D01*
X145301077Y-101069971D01*
X145301078Y-101069971D01*
X145508006Y-101069971D01*
X145508007Y-101069971D01*
X145710962Y-101029601D01*
X145902140Y-100950412D01*
X146074197Y-100835448D01*
X146220519Y-100689126D01*
X146335483Y-100517069D01*
X146414672Y-100325891D01*
X146455042Y-100122936D01*
X146455042Y-99969844D01*
X155220528Y-99969844D01*
X155220528Y-100176779D01*
X155250188Y-100325891D01*
X155260898Y-100379732D01*
X155340087Y-100570910D01*
X155419076Y-100689126D01*
X155455052Y-100742968D01*
X155455057Y-100742974D01*
X155601365Y-100889282D01*
X155601371Y-100889287D01*
X155601373Y-100889289D01*
X155773430Y-101004253D01*
X155964608Y-101083442D01*
X156167563Y-101123812D01*
X156167564Y-101123812D01*
X156374492Y-101123812D01*
X156374493Y-101123812D01*
X156577448Y-101083442D01*
X156768626Y-101004253D01*
X156940683Y-100889289D01*
X157087005Y-100742967D01*
X157201969Y-100570910D01*
X157281158Y-100379732D01*
X157321528Y-100176777D01*
X157321528Y-99969847D01*
X157321527Y-99969844D01*
X157760528Y-99969844D01*
X157760528Y-100176779D01*
X157790188Y-100325891D01*
X157800898Y-100379732D01*
X157880087Y-100570910D01*
X157959076Y-100689126D01*
X157995052Y-100742968D01*
X157995057Y-100742974D01*
X158141365Y-100889282D01*
X158141371Y-100889287D01*
X158141373Y-100889289D01*
X158313430Y-101004253D01*
X158504608Y-101083442D01*
X158707563Y-101123812D01*
X158707564Y-101123812D01*
X158914492Y-101123812D01*
X158914493Y-101123812D01*
X159117448Y-101083442D01*
X159308626Y-101004253D01*
X159480683Y-100889289D01*
X159627005Y-100742967D01*
X159741969Y-100570910D01*
X159821158Y-100379732D01*
X159861528Y-100176777D01*
X159861528Y-100061524D01*
X196422451Y-100061524D01*
X196422451Y-100061527D01*
X196422451Y-100268457D01*
X196462821Y-100471412D01*
X196542010Y-100662590D01*
X196656974Y-100834647D01*
X196656975Y-100834648D01*
X196656980Y-100834654D01*
X196803288Y-100980962D01*
X196803294Y-100980967D01*
X196803296Y-100980969D01*
X196975353Y-101095933D01*
X197166531Y-101175122D01*
X197369486Y-101215492D01*
X197369487Y-101215492D01*
X197576415Y-101215492D01*
X197576416Y-101215492D01*
X197779371Y-101175122D01*
X197970549Y-101095933D01*
X198142606Y-100980969D01*
X198288928Y-100834647D01*
X198403892Y-100662590D01*
X198483081Y-100471412D01*
X198523451Y-100268457D01*
X198523451Y-100061527D01*
X198523450Y-100061524D01*
X198962451Y-100061524D01*
X198962451Y-100061527D01*
X198962451Y-100268457D01*
X199002821Y-100471412D01*
X199082010Y-100662590D01*
X199196974Y-100834647D01*
X199196975Y-100834648D01*
X199196980Y-100834654D01*
X199343288Y-100980962D01*
X199343294Y-100980967D01*
X199343296Y-100980969D01*
X199515353Y-101095933D01*
X199706531Y-101175122D01*
X199909486Y-101215492D01*
X199909487Y-101215492D01*
X200116415Y-101215492D01*
X200116416Y-101215492D01*
X200319371Y-101175122D01*
X200510549Y-101095933D01*
X200682606Y-100980969D01*
X200828928Y-100834647D01*
X200943892Y-100662590D01*
X201023081Y-100471412D01*
X201063451Y-100268457D01*
X201063451Y-100061527D01*
X201023081Y-99858572D01*
X200943892Y-99667394D01*
X200828928Y-99495337D01*
X200828926Y-99495335D01*
X200828921Y-99495329D01*
X200682613Y-99349021D01*
X200682607Y-99349016D01*
X200682606Y-99349015D01*
X200510549Y-99234051D01*
X200319371Y-99154862D01*
X200116418Y-99114492D01*
X200116416Y-99114492D01*
X199909486Y-99114492D01*
X199909483Y-99114492D01*
X199706530Y-99154862D01*
X199706525Y-99154864D01*
X199515353Y-99234051D01*
X199343294Y-99349016D01*
X199343288Y-99349021D01*
X199196980Y-99495329D01*
X199196975Y-99495335D01*
X199082010Y-99667394D01*
X199002823Y-99858566D01*
X199002821Y-99858571D01*
X198962451Y-100061524D01*
X198523450Y-100061524D01*
X198483081Y-99858572D01*
X198403892Y-99667394D01*
X198288928Y-99495337D01*
X198288926Y-99495335D01*
X198288921Y-99495329D01*
X198142613Y-99349021D01*
X198142607Y-99349016D01*
X198142606Y-99349015D01*
X197970549Y-99234051D01*
X197779371Y-99154862D01*
X197576418Y-99114492D01*
X197576416Y-99114492D01*
X197369486Y-99114492D01*
X197369483Y-99114492D01*
X197166530Y-99154862D01*
X197166525Y-99154864D01*
X196975353Y-99234051D01*
X196803294Y-99349016D01*
X196803288Y-99349021D01*
X196656980Y-99495329D01*
X196656975Y-99495335D01*
X196542010Y-99667394D01*
X196462823Y-99858566D01*
X196462821Y-99858571D01*
X196422451Y-100061524D01*
X159861528Y-100061524D01*
X159861528Y-99969847D01*
X159821158Y-99766892D01*
X159741969Y-99575714D01*
X159627005Y-99403657D01*
X159627003Y-99403655D01*
X159626998Y-99403649D01*
X159480690Y-99257341D01*
X159480684Y-99257336D01*
X159480683Y-99257335D01*
X159308626Y-99142371D01*
X159117448Y-99063182D01*
X158914495Y-99022812D01*
X158914493Y-99022812D01*
X158707563Y-99022812D01*
X158707560Y-99022812D01*
X158504607Y-99063182D01*
X158504602Y-99063184D01*
X158313430Y-99142371D01*
X158141371Y-99257336D01*
X158141365Y-99257341D01*
X157995057Y-99403649D01*
X157995052Y-99403655D01*
X157880087Y-99575714D01*
X157800900Y-99766886D01*
X157800898Y-99766891D01*
X157760528Y-99969844D01*
X157321527Y-99969844D01*
X157281158Y-99766892D01*
X157201969Y-99575714D01*
X157087005Y-99403657D01*
X157087003Y-99403655D01*
X157086998Y-99403649D01*
X156940690Y-99257341D01*
X156940684Y-99257336D01*
X156940683Y-99257335D01*
X156768626Y-99142371D01*
X156577448Y-99063182D01*
X156374495Y-99022812D01*
X156374493Y-99022812D01*
X156167563Y-99022812D01*
X156167560Y-99022812D01*
X155964607Y-99063182D01*
X155964602Y-99063184D01*
X155773430Y-99142371D01*
X155601371Y-99257336D01*
X155601365Y-99257341D01*
X155455057Y-99403649D01*
X155455052Y-99403655D01*
X155340087Y-99575714D01*
X155260900Y-99766886D01*
X155260898Y-99766891D01*
X155220528Y-99969844D01*
X146455042Y-99969844D01*
X146455042Y-99916006D01*
X146414672Y-99713051D01*
X146335483Y-99521873D01*
X146220519Y-99349816D01*
X146220517Y-99349814D01*
X146220512Y-99349808D01*
X146074204Y-99203500D01*
X146074198Y-99203495D01*
X146074197Y-99203494D01*
X145902140Y-99088530D01*
X145710962Y-99009341D01*
X145508009Y-98968971D01*
X145508007Y-98968971D01*
X145301077Y-98968971D01*
X145301074Y-98968971D01*
X145098121Y-99009341D01*
X145098116Y-99009343D01*
X144906944Y-99088530D01*
X144734885Y-99203495D01*
X144734879Y-99203500D01*
X144588571Y-99349808D01*
X144588566Y-99349814D01*
X144473601Y-99521873D01*
X144394414Y-99713045D01*
X144394412Y-99713050D01*
X144354042Y-99916003D01*
X143915041Y-99916003D01*
X143874672Y-99713051D01*
X143795483Y-99521873D01*
X143680519Y-99349816D01*
X143680517Y-99349814D01*
X143680512Y-99349808D01*
X143534204Y-99203500D01*
X143534198Y-99203495D01*
X143534197Y-99203494D01*
X143362140Y-99088530D01*
X143170962Y-99009341D01*
X142968009Y-98968971D01*
X142968007Y-98968971D01*
X142761077Y-98968971D01*
X142761074Y-98968971D01*
X142558121Y-99009341D01*
X142558116Y-99009343D01*
X142366944Y-99088530D01*
X142194885Y-99203495D01*
X142194879Y-99203500D01*
X142048571Y-99349808D01*
X142048566Y-99349814D01*
X141933601Y-99521873D01*
X141854414Y-99713045D01*
X141854412Y-99713050D01*
X141814042Y-99916003D01*
X138152876Y-99916003D01*
X138153279Y-97376003D01*
X141814042Y-97376003D01*
X141814042Y-97582938D01*
X141824752Y-97636779D01*
X141854412Y-97785891D01*
X141933601Y-97977069D01*
X142040129Y-98136500D01*
X142048566Y-98149127D01*
X142048571Y-98149133D01*
X142194879Y-98295441D01*
X142194885Y-98295446D01*
X142194887Y-98295448D01*
X142366944Y-98410412D01*
X142558122Y-98489601D01*
X142761077Y-98529971D01*
X142761078Y-98529971D01*
X142968006Y-98529971D01*
X142968007Y-98529971D01*
X143170962Y-98489601D01*
X143362140Y-98410412D01*
X143534197Y-98295448D01*
X143680519Y-98149126D01*
X143795483Y-97977069D01*
X143874672Y-97785891D01*
X143915042Y-97582936D01*
X143915042Y-97376006D01*
X143915041Y-97376003D01*
X144354042Y-97376003D01*
X144354042Y-97582938D01*
X144364752Y-97636779D01*
X144394412Y-97785891D01*
X144473601Y-97977069D01*
X144580129Y-98136500D01*
X144588566Y-98149127D01*
X144588571Y-98149133D01*
X144734879Y-98295441D01*
X144734885Y-98295446D01*
X144734887Y-98295448D01*
X144906944Y-98410412D01*
X145098122Y-98489601D01*
X145301077Y-98529971D01*
X145301078Y-98529971D01*
X145508006Y-98529971D01*
X145508007Y-98529971D01*
X145710962Y-98489601D01*
X145902140Y-98410412D01*
X146074197Y-98295448D01*
X146220519Y-98149126D01*
X146335483Y-97977069D01*
X146414672Y-97785891D01*
X146455042Y-97582936D01*
X146455042Y-97429844D01*
X155220528Y-97429844D01*
X155220528Y-97636779D01*
X155250188Y-97785891D01*
X155260898Y-97839732D01*
X155340087Y-98030910D01*
X155419076Y-98149126D01*
X155455052Y-98202968D01*
X155455057Y-98202974D01*
X155601365Y-98349282D01*
X155601371Y-98349287D01*
X155601373Y-98349289D01*
X155773430Y-98464253D01*
X155964608Y-98543442D01*
X156167563Y-98583812D01*
X156167564Y-98583812D01*
X156374492Y-98583812D01*
X156374493Y-98583812D01*
X156577448Y-98543442D01*
X156768626Y-98464253D01*
X156940683Y-98349289D01*
X157087005Y-98202967D01*
X157201969Y-98030910D01*
X157281158Y-97839732D01*
X157321528Y-97636777D01*
X157321528Y-97429847D01*
X157321527Y-97429844D01*
X157760528Y-97429844D01*
X157760528Y-97636779D01*
X157790188Y-97785891D01*
X157800898Y-97839732D01*
X157880087Y-98030910D01*
X157959076Y-98149126D01*
X157995052Y-98202968D01*
X157995057Y-98202974D01*
X158141365Y-98349282D01*
X158141371Y-98349287D01*
X158141373Y-98349289D01*
X158313430Y-98464253D01*
X158504608Y-98543442D01*
X158707563Y-98583812D01*
X158707564Y-98583812D01*
X158914492Y-98583812D01*
X158914493Y-98583812D01*
X159117448Y-98543442D01*
X159308626Y-98464253D01*
X159480683Y-98349289D01*
X159627005Y-98202967D01*
X159741969Y-98030910D01*
X159821158Y-97839732D01*
X159861528Y-97636777D01*
X159861528Y-97429847D01*
X159821158Y-97226892D01*
X159741969Y-97035714D01*
X159627005Y-96863657D01*
X159627003Y-96863655D01*
X159626998Y-96863649D01*
X159480690Y-96717341D01*
X159480684Y-96717336D01*
X159445837Y-96694052D01*
X159308626Y-96602371D01*
X159117448Y-96523182D01*
X159104985Y-96520703D01*
X158914495Y-96482812D01*
X158914493Y-96482812D01*
X158707563Y-96482812D01*
X158707560Y-96482812D01*
X158504607Y-96523182D01*
X158504602Y-96523184D01*
X158313430Y-96602371D01*
X158141371Y-96717336D01*
X158141365Y-96717341D01*
X157995057Y-96863649D01*
X157995052Y-96863655D01*
X157880087Y-97035714D01*
X157800900Y-97226886D01*
X157800898Y-97226891D01*
X157760528Y-97429844D01*
X157321527Y-97429844D01*
X157281158Y-97226892D01*
X157201969Y-97035714D01*
X157087005Y-96863657D01*
X157087003Y-96863655D01*
X157086998Y-96863649D01*
X156940690Y-96717341D01*
X156940684Y-96717336D01*
X156905837Y-96694052D01*
X156768626Y-96602371D01*
X156577448Y-96523182D01*
X156564985Y-96520703D01*
X156374495Y-96482812D01*
X156374493Y-96482812D01*
X156167563Y-96482812D01*
X156167560Y-96482812D01*
X155964607Y-96523182D01*
X155964602Y-96523184D01*
X155773430Y-96602371D01*
X155601371Y-96717336D01*
X155601365Y-96717341D01*
X155455057Y-96863649D01*
X155455052Y-96863655D01*
X155340087Y-97035714D01*
X155260900Y-97226886D01*
X155260898Y-97226891D01*
X155220528Y-97429844D01*
X146455042Y-97429844D01*
X146455042Y-97376006D01*
X146414672Y-97173051D01*
X146335483Y-96981873D01*
X146220519Y-96809816D01*
X146220517Y-96809814D01*
X146220512Y-96809808D01*
X146074204Y-96663500D01*
X146074198Y-96663495D01*
X146074197Y-96663494D01*
X145902140Y-96548530D01*
X145710962Y-96469341D01*
X145508009Y-96428971D01*
X145508007Y-96428971D01*
X145301077Y-96428971D01*
X145301074Y-96428971D01*
X145098121Y-96469341D01*
X145098116Y-96469343D01*
X144906944Y-96548530D01*
X144734885Y-96663495D01*
X144734879Y-96663500D01*
X144588571Y-96809808D01*
X144588566Y-96809814D01*
X144473601Y-96981873D01*
X144394414Y-97173045D01*
X144394412Y-97173050D01*
X144354042Y-97376003D01*
X143915041Y-97376003D01*
X143874672Y-97173051D01*
X143795483Y-96981873D01*
X143680519Y-96809816D01*
X143680517Y-96809814D01*
X143680512Y-96809808D01*
X143534204Y-96663500D01*
X143534198Y-96663495D01*
X143534197Y-96663494D01*
X143362140Y-96548530D01*
X143170962Y-96469341D01*
X142968009Y-96428971D01*
X142968007Y-96428971D01*
X142761077Y-96428971D01*
X142761074Y-96428971D01*
X142558121Y-96469341D01*
X142558116Y-96469343D01*
X142366944Y-96548530D01*
X142194885Y-96663495D01*
X142194879Y-96663500D01*
X142048571Y-96809808D01*
X142048566Y-96809814D01*
X141933601Y-96981873D01*
X141854414Y-97173045D01*
X141854412Y-97173050D01*
X141814042Y-97376003D01*
X138153279Y-97376003D01*
X138153595Y-95384948D01*
X138153682Y-94836003D01*
X141814042Y-94836003D01*
X141814042Y-95042938D01*
X141824752Y-95096779D01*
X141854412Y-95245891D01*
X141933601Y-95437069D01*
X142046662Y-95606278D01*
X142048566Y-95609127D01*
X142048571Y-95609133D01*
X142194879Y-95755441D01*
X142194885Y-95755446D01*
X142194887Y-95755448D01*
X142366944Y-95870412D01*
X142558122Y-95949601D01*
X142761077Y-95989971D01*
X142761078Y-95989971D01*
X142968006Y-95989971D01*
X142968007Y-95989971D01*
X143170962Y-95949601D01*
X143362140Y-95870412D01*
X143534197Y-95755448D01*
X143680519Y-95609126D01*
X143795483Y-95437069D01*
X143874672Y-95245891D01*
X143915042Y-95042936D01*
X143915042Y-94836006D01*
X143874672Y-94633051D01*
X143795483Y-94441873D01*
X143680519Y-94269816D01*
X143680517Y-94269814D01*
X143680512Y-94269808D01*
X143534204Y-94123500D01*
X143534198Y-94123495D01*
X143499553Y-94100346D01*
X143362140Y-94008530D01*
X143170962Y-93929341D01*
X143141728Y-93923526D01*
X142968009Y-93888971D01*
X142968007Y-93888971D01*
X142761077Y-93888971D01*
X142761074Y-93888971D01*
X142558121Y-93929341D01*
X142558116Y-93929343D01*
X142366944Y-94008530D01*
X142194885Y-94123495D01*
X142194879Y-94123500D01*
X142048571Y-94269808D01*
X142048566Y-94269814D01*
X141933601Y-94441873D01*
X141854414Y-94633045D01*
X141854412Y-94633050D01*
X141814042Y-94836003D01*
X138153682Y-94836003D01*
X138154193Y-91621269D01*
X138154489Y-89756003D01*
X141814042Y-89756003D01*
X141814042Y-89962938D01*
X141824752Y-90016779D01*
X141854412Y-90165891D01*
X141933601Y-90357069D01*
X142048565Y-90529126D01*
X142048566Y-90529127D01*
X142048571Y-90529133D01*
X142194879Y-90675441D01*
X142194885Y-90675446D01*
X142194887Y-90675448D01*
X142366944Y-90790412D01*
X142558122Y-90869601D01*
X142761077Y-90909971D01*
X142761078Y-90909971D01*
X142968006Y-90909971D01*
X142968007Y-90909971D01*
X143170962Y-90869601D01*
X143190278Y-90861599D01*
X143260865Y-90854010D01*
X143324353Y-90885788D01*
X143327591Y-90888913D01*
X143678137Y-91239459D01*
X143693081Y-91266827D01*
X143709938Y-91293056D01*
X143710843Y-91299354D01*
X143712163Y-91301771D01*
X143715042Y-91328554D01*
X143715042Y-91468602D01*
X143695040Y-91536723D01*
X143641384Y-91583216D01*
X143571110Y-91593320D01*
X143519041Y-91573367D01*
X143362140Y-91468530D01*
X143170962Y-91389341D01*
X143087141Y-91372668D01*
X142968009Y-91348971D01*
X142968007Y-91348971D01*
X142761077Y-91348971D01*
X142761074Y-91348971D01*
X142558121Y-91389341D01*
X142558116Y-91389343D01*
X142366944Y-91468530D01*
X142194885Y-91583495D01*
X142194879Y-91583500D01*
X142048571Y-91729808D01*
X142048566Y-91729814D01*
X141933601Y-91901873D01*
X141854414Y-92093045D01*
X141854412Y-92093050D01*
X141814042Y-92296003D01*
X141814042Y-92502938D01*
X141824752Y-92556779D01*
X141854412Y-92705891D01*
X141933601Y-92897069D01*
X142048565Y-93069126D01*
X142048566Y-93069127D01*
X142048571Y-93069133D01*
X142194879Y-93215441D01*
X142194885Y-93215446D01*
X142194887Y-93215448D01*
X142366944Y-93330412D01*
X142558122Y-93409601D01*
X142761077Y-93449971D01*
X142761078Y-93449971D01*
X142968006Y-93449971D01*
X142968007Y-93449971D01*
X143170962Y-93409601D01*
X143362140Y-93330412D01*
X143534197Y-93215448D01*
X143620476Y-93129168D01*
X143682786Y-93095145D01*
X143753602Y-93100209D01*
X143798665Y-93129170D01*
X144640440Y-93970945D01*
X144640445Y-93970949D01*
X144640447Y-93970951D01*
X144640448Y-93970952D01*
X144640450Y-93970953D01*
X144654821Y-93979250D01*
X144703814Y-94030632D01*
X144717250Y-94100346D01*
X144690864Y-94166257D01*
X144680916Y-94177464D01*
X144588571Y-94269808D01*
X144588566Y-94269814D01*
X144473601Y-94441873D01*
X144394414Y-94633045D01*
X144394412Y-94633050D01*
X144354042Y-94836003D01*
X144354042Y-95042938D01*
X144364752Y-95096779D01*
X144394412Y-95245891D01*
X144473601Y-95437069D01*
X144586662Y-95606278D01*
X144588566Y-95609127D01*
X144588571Y-95609133D01*
X144734879Y-95755441D01*
X144734885Y-95755446D01*
X144734887Y-95755448D01*
X144906944Y-95870412D01*
X145098122Y-95949601D01*
X145301077Y-95989971D01*
X145301078Y-95989971D01*
X145508006Y-95989971D01*
X145508007Y-95989971D01*
X145710962Y-95949601D01*
X145902140Y-95870412D01*
X146074197Y-95755448D01*
X146220519Y-95609126D01*
X146335483Y-95437069D01*
X146414672Y-95245891D01*
X146455042Y-95042936D01*
X146455042Y-94889844D01*
X155220528Y-94889844D01*
X155220528Y-95096779D01*
X155239442Y-95191865D01*
X155260898Y-95299732D01*
X155340087Y-95490910D01*
X155417173Y-95606278D01*
X155455052Y-95662968D01*
X155455057Y-95662974D01*
X155601365Y-95809282D01*
X155601371Y-95809287D01*
X155601373Y-95809289D01*
X155773430Y-95924253D01*
X155964608Y-96003442D01*
X156167563Y-96043812D01*
X156167564Y-96043812D01*
X156374492Y-96043812D01*
X156374493Y-96043812D01*
X156577448Y-96003442D01*
X156768626Y-95924253D01*
X156940683Y-95809289D01*
X157087005Y-95662967D01*
X157201969Y-95490910D01*
X157281158Y-95299732D01*
X157321528Y-95096777D01*
X157321528Y-94889847D01*
X157321527Y-94889844D01*
X157760528Y-94889844D01*
X157760528Y-95096779D01*
X157779442Y-95191865D01*
X157800898Y-95299732D01*
X157880087Y-95490910D01*
X157957173Y-95606278D01*
X157995052Y-95662968D01*
X157995057Y-95662974D01*
X158141365Y-95809282D01*
X158141371Y-95809287D01*
X158141373Y-95809289D01*
X158313430Y-95924253D01*
X158504608Y-96003442D01*
X158707563Y-96043812D01*
X158707564Y-96043812D01*
X158914492Y-96043812D01*
X158914493Y-96043812D01*
X159117448Y-96003442D01*
X159308626Y-95924253D01*
X159480683Y-95809289D01*
X159627005Y-95662967D01*
X159741969Y-95490910D01*
X159821158Y-95299732D01*
X159861528Y-95096777D01*
X159861528Y-94889847D01*
X159821158Y-94686892D01*
X159741969Y-94495714D01*
X159627005Y-94323657D01*
X159627003Y-94323655D01*
X159626998Y-94323649D01*
X159480690Y-94177341D01*
X159480684Y-94177336D01*
X159445836Y-94154051D01*
X159308626Y-94062371D01*
X159117448Y-93983182D01*
X158914495Y-93942812D01*
X158914493Y-93942812D01*
X158707563Y-93942812D01*
X158707560Y-93942812D01*
X158504607Y-93983182D01*
X158504602Y-93983184D01*
X158313430Y-94062371D01*
X158141371Y-94177336D01*
X158141365Y-94177341D01*
X157995057Y-94323649D01*
X157995052Y-94323655D01*
X157880087Y-94495714D01*
X157800900Y-94686886D01*
X157800898Y-94686891D01*
X157760528Y-94889844D01*
X157321527Y-94889844D01*
X157281158Y-94686892D01*
X157201969Y-94495714D01*
X157087005Y-94323657D01*
X157087003Y-94323655D01*
X157086998Y-94323649D01*
X156940690Y-94177341D01*
X156940684Y-94177336D01*
X156924103Y-94166257D01*
X156768626Y-94062371D01*
X156577448Y-93983182D01*
X156374495Y-93942812D01*
X156374493Y-93942812D01*
X156167563Y-93942812D01*
X156167560Y-93942812D01*
X155964607Y-93983182D01*
X155964602Y-93983184D01*
X155773430Y-94062371D01*
X155601371Y-94177336D01*
X155601365Y-94177341D01*
X155455057Y-94323649D01*
X155455052Y-94323655D01*
X155340087Y-94495714D01*
X155260900Y-94686886D01*
X155260898Y-94686891D01*
X155220528Y-94889844D01*
X146455042Y-94889844D01*
X146455042Y-94836006D01*
X146414672Y-94633051D01*
X146335483Y-94441873D01*
X146220519Y-94269816D01*
X146220517Y-94269814D01*
X146220512Y-94269808D01*
X146216770Y-94266066D01*
X146182744Y-94203754D01*
X146187809Y-94132939D01*
X146230356Y-94076103D01*
X146296876Y-94051292D01*
X146305865Y-94050971D01*
X147792565Y-94050971D01*
X147792567Y-94050971D01*
X147894428Y-94023678D01*
X147985753Y-93970951D01*
X148055761Y-93900943D01*
X175929500Y-93900943D01*
X175929500Y-94059057D01*
X175961193Y-94177336D01*
X175970424Y-94211788D01*
X176049477Y-94348712D01*
X176049485Y-94348722D01*
X176161277Y-94460514D01*
X176161281Y-94460517D01*
X176161284Y-94460520D01*
X176269703Y-94523115D01*
X176318695Y-94574495D01*
X176332702Y-94632233D01*
X176332702Y-97086429D01*
X176312700Y-97154550D01*
X176306668Y-97163129D01*
X176303479Y-97167285D01*
X176224424Y-97304211D01*
X176220576Y-97318572D01*
X176183500Y-97456943D01*
X176183500Y-97615057D01*
X176213885Y-97728455D01*
X176224424Y-97767788D01*
X176303477Y-97904712D01*
X176303485Y-97904722D01*
X176415277Y-98016514D01*
X176415282Y-98016518D01*
X176415284Y-98016520D01*
X176415285Y-98016521D01*
X176415287Y-98016522D01*
X176552211Y-98095575D01*
X176552213Y-98095575D01*
X176552216Y-98095577D01*
X176704943Y-98136500D01*
X176704945Y-98136500D01*
X176863055Y-98136500D01*
X176863057Y-98136500D01*
X177015784Y-98095577D01*
X177015787Y-98095575D01*
X177015788Y-98095575D01*
X177084250Y-98056048D01*
X177152716Y-98016520D01*
X177264520Y-97904716D01*
X177343577Y-97767784D01*
X177384500Y-97615057D01*
X177384500Y-97456943D01*
X177343577Y-97304216D01*
X177343575Y-97304213D01*
X177343575Y-97304211D01*
X177264522Y-97167287D01*
X177264521Y-97167285D01*
X177264520Y-97167284D01*
X177264518Y-97167282D01*
X177264514Y-97167277D01*
X177152722Y-97055485D01*
X177152712Y-97055477D01*
X177046702Y-96994273D01*
X176997709Y-96942891D01*
X176983702Y-96885154D01*
X176983702Y-94978118D01*
X196114951Y-94978118D01*
X196114951Y-95191865D01*
X196148391Y-95402995D01*
X196214441Y-95606278D01*
X196214444Y-95606284D01*
X196311486Y-95796740D01*
X196311487Y-95796742D01*
X196349571Y-95849159D01*
X196349572Y-95849160D01*
X196988792Y-95209939D01*
X197007026Y-95277985D01*
X197072852Y-95391999D01*
X197165944Y-95485091D01*
X197279958Y-95550917D01*
X197348002Y-95569149D01*
X196708782Y-96208370D01*
X196761200Y-96246455D01*
X196761202Y-96246456D01*
X196951658Y-96343498D01*
X196951664Y-96343501D01*
X197114388Y-96396373D01*
X197172994Y-96436446D01*
X197200631Y-96501843D01*
X197188524Y-96571800D01*
X197140518Y-96624106D01*
X197123671Y-96632615D01*
X196975351Y-96694052D01*
X196803294Y-96809016D01*
X196803288Y-96809021D01*
X196656980Y-96955329D01*
X196656975Y-96955335D01*
X196542010Y-97127394D01*
X196462823Y-97318566D01*
X196462821Y-97318571D01*
X196422451Y-97521524D01*
X196422451Y-97728459D01*
X196430274Y-97767788D01*
X196462821Y-97931412D01*
X196542010Y-98122590D01*
X196656974Y-98294647D01*
X196656975Y-98294648D01*
X196656980Y-98294654D01*
X196803288Y-98440962D01*
X196803294Y-98440967D01*
X196803296Y-98440969D01*
X196975353Y-98555933D01*
X197166531Y-98635122D01*
X197369486Y-98675492D01*
X197369487Y-98675492D01*
X197576415Y-98675492D01*
X197576416Y-98675492D01*
X197779371Y-98635122D01*
X197970549Y-98555933D01*
X198142606Y-98440969D01*
X198288928Y-98294647D01*
X198403892Y-98122590D01*
X198483081Y-97931412D01*
X198523451Y-97728457D01*
X198523451Y-97521527D01*
X198523450Y-97521524D01*
X198962451Y-97521524D01*
X198962451Y-97728459D01*
X198970274Y-97767788D01*
X199002821Y-97931412D01*
X199082010Y-98122590D01*
X199196974Y-98294647D01*
X199196975Y-98294648D01*
X199196980Y-98294654D01*
X199343288Y-98440962D01*
X199343294Y-98440967D01*
X199343296Y-98440969D01*
X199515353Y-98555933D01*
X199706531Y-98635122D01*
X199909486Y-98675492D01*
X199909487Y-98675492D01*
X200116415Y-98675492D01*
X200116416Y-98675492D01*
X200319371Y-98635122D01*
X200510549Y-98555933D01*
X200682606Y-98440969D01*
X200828928Y-98294647D01*
X200943892Y-98122590D01*
X201023081Y-97931412D01*
X201063451Y-97728457D01*
X201063451Y-97521527D01*
X201023081Y-97318572D01*
X200943892Y-97127394D01*
X200828928Y-96955337D01*
X200828926Y-96955335D01*
X200828921Y-96955329D01*
X200682613Y-96809021D01*
X200682607Y-96809016D01*
X200682606Y-96809015D01*
X200510549Y-96694051D01*
X200319371Y-96614862D01*
X200116418Y-96574492D01*
X200116416Y-96574492D01*
X199909486Y-96574492D01*
X199909483Y-96574492D01*
X199706530Y-96614862D01*
X199706525Y-96614864D01*
X199515353Y-96694051D01*
X199343294Y-96809016D01*
X199343288Y-96809021D01*
X199196980Y-96955329D01*
X199196975Y-96955335D01*
X199082010Y-97127394D01*
X199002823Y-97318566D01*
X199002821Y-97318571D01*
X198962451Y-97521524D01*
X198523450Y-97521524D01*
X198483081Y-97318572D01*
X198403892Y-97127394D01*
X198288928Y-96955337D01*
X198288926Y-96955335D01*
X198288921Y-96955329D01*
X198142613Y-96809021D01*
X198142607Y-96809016D01*
X198005398Y-96717336D01*
X197970549Y-96694051D01*
X197822229Y-96632614D01*
X197766950Y-96588066D01*
X197744529Y-96520703D01*
X197762087Y-96451912D01*
X197814050Y-96403533D01*
X197831513Y-96396373D01*
X197994237Y-96343501D01*
X197994243Y-96343498D01*
X198184701Y-96246455D01*
X198237118Y-96208370D01*
X198237118Y-96208368D01*
X197597899Y-95569149D01*
X197665944Y-95550917D01*
X197779958Y-95485091D01*
X197873050Y-95391999D01*
X197938876Y-95277985D01*
X197957108Y-95209940D01*
X198596327Y-95849159D01*
X198596329Y-95849159D01*
X198634414Y-95796742D01*
X198731457Y-95606284D01*
X198731460Y-95606278D01*
X198784332Y-95443554D01*
X198824405Y-95384948D01*
X198889802Y-95357311D01*
X198959759Y-95369418D01*
X199012065Y-95417424D01*
X199020573Y-95434269D01*
X199082010Y-95582590D01*
X199135721Y-95662974D01*
X199196975Y-95754648D01*
X199196980Y-95754654D01*
X199343288Y-95900962D01*
X199343294Y-95900967D01*
X199343296Y-95900969D01*
X199515353Y-96015933D01*
X199706531Y-96095122D01*
X199909486Y-96135492D01*
X199909487Y-96135492D01*
X200116415Y-96135492D01*
X200116416Y-96135492D01*
X200319371Y-96095122D01*
X200510549Y-96015933D01*
X200682606Y-95900969D01*
X200828928Y-95754647D01*
X200943892Y-95582590D01*
X201023081Y-95391412D01*
X201063451Y-95188457D01*
X201063451Y-94981527D01*
X201023081Y-94778572D01*
X200943892Y-94587394D01*
X200828928Y-94415337D01*
X200828926Y-94415335D01*
X200828921Y-94415329D01*
X200682613Y-94269021D01*
X200682607Y-94269016D01*
X200678192Y-94266066D01*
X200510549Y-94154051D01*
X200319371Y-94074862D01*
X200116418Y-94034492D01*
X200116416Y-94034492D01*
X199909486Y-94034492D01*
X199909483Y-94034492D01*
X199706530Y-94074862D01*
X199706525Y-94074864D01*
X199515353Y-94154051D01*
X199343294Y-94269016D01*
X199343288Y-94269021D01*
X199196980Y-94415329D01*
X199196975Y-94415335D01*
X199082011Y-94587392D01*
X199020574Y-94735712D01*
X198976025Y-94790992D01*
X198908661Y-94813413D01*
X198839870Y-94795854D01*
X198791492Y-94743892D01*
X198784332Y-94726429D01*
X198731460Y-94563705D01*
X198731457Y-94563699D01*
X198634415Y-94373243D01*
X198634414Y-94373241D01*
X198596329Y-94320823D01*
X197957108Y-94960043D01*
X197938876Y-94891999D01*
X197873050Y-94777985D01*
X197779958Y-94684893D01*
X197665944Y-94619067D01*
X197597898Y-94600833D01*
X198237119Y-93961613D01*
X198237118Y-93961612D01*
X198184701Y-93923528D01*
X198184699Y-93923527D01*
X197994243Y-93826485D01*
X197994237Y-93826482D01*
X197790954Y-93760432D01*
X197579825Y-93726992D01*
X197366077Y-93726992D01*
X197154947Y-93760432D01*
X196951664Y-93826482D01*
X196951658Y-93826485D01*
X196761204Y-93923526D01*
X196708782Y-93961613D01*
X196708782Y-93961614D01*
X197348002Y-94600834D01*
X197279958Y-94619067D01*
X197165944Y-94684893D01*
X197072852Y-94777985D01*
X197007026Y-94891999D01*
X196988793Y-94960043D01*
X196349573Y-94320823D01*
X196349572Y-94320823D01*
X196311485Y-94373245D01*
X196214444Y-94563699D01*
X196214441Y-94563705D01*
X196148391Y-94766988D01*
X196114951Y-94978118D01*
X176983702Y-94978118D01*
X176983702Y-94426437D01*
X177003704Y-94358316D01*
X177009740Y-94349732D01*
X177010511Y-94348724D01*
X177010520Y-94348716D01*
X177089577Y-94211784D01*
X177130500Y-94059057D01*
X177130500Y-93900943D01*
X177089577Y-93748216D01*
X177089575Y-93748213D01*
X177089575Y-93748211D01*
X177010522Y-93611287D01*
X177010514Y-93611277D01*
X176898722Y-93499485D01*
X176898712Y-93499477D01*
X176761788Y-93420424D01*
X176743743Y-93415589D01*
X176609057Y-93379500D01*
X176450943Y-93379500D01*
X176357470Y-93404545D01*
X176298211Y-93420424D01*
X176161287Y-93499477D01*
X176161277Y-93499485D01*
X176049485Y-93611277D01*
X176049477Y-93611287D01*
X175970424Y-93748211D01*
X175949452Y-93826482D01*
X175929500Y-93900943D01*
X148055761Y-93900943D01*
X148833737Y-93122967D01*
X149606861Y-92349844D01*
X155220528Y-92349844D01*
X155220528Y-92349847D01*
X155220528Y-92556777D01*
X155260898Y-92759732D01*
X155340087Y-92950910D01*
X155455051Y-93122967D01*
X155455052Y-93122968D01*
X155455057Y-93122974D01*
X155601365Y-93269282D01*
X155601371Y-93269287D01*
X155601373Y-93269289D01*
X155773430Y-93384253D01*
X155964608Y-93463442D01*
X156167563Y-93503812D01*
X156167564Y-93503812D01*
X156374492Y-93503812D01*
X156374493Y-93503812D01*
X156577448Y-93463442D01*
X156768626Y-93384253D01*
X156940683Y-93269289D01*
X157087005Y-93122967D01*
X157201969Y-92950910D01*
X157281158Y-92759732D01*
X157321528Y-92556777D01*
X157321528Y-92349847D01*
X157321527Y-92349844D01*
X157760528Y-92349844D01*
X157760528Y-92349847D01*
X157760528Y-92556777D01*
X157800898Y-92759732D01*
X157880087Y-92950910D01*
X157995051Y-93122967D01*
X157995052Y-93122968D01*
X157995057Y-93122974D01*
X158141365Y-93269282D01*
X158141371Y-93269287D01*
X158141373Y-93269289D01*
X158313430Y-93384253D01*
X158504608Y-93463442D01*
X158707563Y-93503812D01*
X158707564Y-93503812D01*
X158914492Y-93503812D01*
X158914493Y-93503812D01*
X159117448Y-93463442D01*
X159308626Y-93384253D01*
X159480683Y-93269289D01*
X159627005Y-93122967D01*
X159741969Y-92950910D01*
X159821158Y-92759732D01*
X159861528Y-92556777D01*
X159861528Y-92349847D01*
X159821158Y-92146892D01*
X159741969Y-91955714D01*
X159627005Y-91783657D01*
X159627003Y-91783655D01*
X159626998Y-91783649D01*
X159480690Y-91637341D01*
X159480684Y-91637336D01*
X159456638Y-91621269D01*
X159308626Y-91522371D01*
X159117448Y-91443182D01*
X158914495Y-91402812D01*
X158914493Y-91402812D01*
X158707563Y-91402812D01*
X158707560Y-91402812D01*
X158504607Y-91443182D01*
X158504602Y-91443184D01*
X158313430Y-91522371D01*
X158141371Y-91637336D01*
X158141365Y-91637341D01*
X157995057Y-91783649D01*
X157995052Y-91783655D01*
X157880087Y-91955714D01*
X157800900Y-92146886D01*
X157800898Y-92146891D01*
X157760528Y-92349844D01*
X157321527Y-92349844D01*
X157281158Y-92146892D01*
X157201969Y-91955714D01*
X157087005Y-91783657D01*
X157087003Y-91783655D01*
X157086998Y-91783649D01*
X156940690Y-91637341D01*
X156940684Y-91637336D01*
X156916638Y-91621269D01*
X156768626Y-91522371D01*
X156577448Y-91443182D01*
X156374495Y-91402812D01*
X156374493Y-91402812D01*
X156167563Y-91402812D01*
X156167560Y-91402812D01*
X155964607Y-91443182D01*
X155964602Y-91443184D01*
X155773430Y-91522371D01*
X155601371Y-91637336D01*
X155601365Y-91637341D01*
X155455057Y-91783649D01*
X155455052Y-91783655D01*
X155340087Y-91955714D01*
X155260900Y-92146886D01*
X155260898Y-92146891D01*
X155220528Y-92349844D01*
X149606861Y-92349844D01*
X149702143Y-92254562D01*
X151923695Y-90033009D01*
X151923701Y-90033003D01*
X151976428Y-89941678D01*
X152003721Y-89839817D01*
X152003721Y-89809844D01*
X155220528Y-89809844D01*
X155220528Y-90016779D01*
X155250188Y-90165891D01*
X155260898Y-90219732D01*
X155340087Y-90410910D01*
X155419076Y-90529126D01*
X155455052Y-90582968D01*
X155455057Y-90582974D01*
X155601365Y-90729282D01*
X155601371Y-90729287D01*
X155601373Y-90729289D01*
X155773430Y-90844253D01*
X155964608Y-90923442D01*
X156167563Y-90963812D01*
X156167564Y-90963812D01*
X156374492Y-90963812D01*
X156374493Y-90963812D01*
X156577448Y-90923442D01*
X156768626Y-90844253D01*
X156940683Y-90729289D01*
X157087005Y-90582967D01*
X157201969Y-90410910D01*
X157281158Y-90219732D01*
X157321528Y-90016777D01*
X157321528Y-89809847D01*
X157321527Y-89809844D01*
X157760528Y-89809844D01*
X157760528Y-90016779D01*
X157790188Y-90165891D01*
X157800898Y-90219732D01*
X157880087Y-90410910D01*
X157959076Y-90529126D01*
X157995052Y-90582968D01*
X157995057Y-90582974D01*
X158141365Y-90729282D01*
X158141371Y-90729287D01*
X158141373Y-90729289D01*
X158313430Y-90844253D01*
X158504608Y-90923442D01*
X158707563Y-90963812D01*
X158707564Y-90963812D01*
X158914492Y-90963812D01*
X158914493Y-90963812D01*
X159117448Y-90923442D01*
X159308626Y-90844253D01*
X159480683Y-90729289D01*
X159627005Y-90582967D01*
X159741969Y-90410910D01*
X159821158Y-90219732D01*
X159861528Y-90016777D01*
X159861528Y-89809847D01*
X159821158Y-89606892D01*
X159741969Y-89415714D01*
X159627005Y-89243657D01*
X159627003Y-89243655D01*
X159626998Y-89243649D01*
X159480690Y-89097341D01*
X159480684Y-89097336D01*
X159477640Y-89095302D01*
X159308626Y-88982371D01*
X159117448Y-88903182D01*
X158914495Y-88862812D01*
X158914493Y-88862812D01*
X158707563Y-88862812D01*
X158707560Y-88862812D01*
X158504607Y-88903182D01*
X158504602Y-88903184D01*
X158313430Y-88982371D01*
X158141371Y-89097336D01*
X158141365Y-89097341D01*
X157995057Y-89243649D01*
X157995052Y-89243655D01*
X157880087Y-89415714D01*
X157800900Y-89606886D01*
X157800898Y-89606891D01*
X157760528Y-89809844D01*
X157321527Y-89809844D01*
X157281158Y-89606892D01*
X157201969Y-89415714D01*
X157087005Y-89243657D01*
X157087003Y-89243655D01*
X157086998Y-89243649D01*
X156940690Y-89097341D01*
X156940684Y-89097336D01*
X156937640Y-89095302D01*
X156768626Y-88982371D01*
X156577448Y-88903182D01*
X156374495Y-88862812D01*
X156374493Y-88862812D01*
X156167563Y-88862812D01*
X156167560Y-88862812D01*
X155964607Y-88903182D01*
X155964602Y-88903184D01*
X155773430Y-88982371D01*
X155601371Y-89097336D01*
X155601365Y-89097341D01*
X155455057Y-89243649D01*
X155455052Y-89243655D01*
X155340087Y-89415714D01*
X155260900Y-89606886D01*
X155260898Y-89606891D01*
X155220528Y-89809844D01*
X152003721Y-89809844D01*
X152003721Y-89734363D01*
X152003721Y-87269844D01*
X155220528Y-87269844D01*
X155220528Y-87269847D01*
X155220528Y-87476777D01*
X155260898Y-87679732D01*
X155340087Y-87870910D01*
X155419076Y-87989126D01*
X155455052Y-88042968D01*
X155455057Y-88042974D01*
X155601365Y-88189282D01*
X155601371Y-88189287D01*
X155601373Y-88189289D01*
X155773430Y-88304253D01*
X155964608Y-88383442D01*
X156167563Y-88423812D01*
X156167564Y-88423812D01*
X156374492Y-88423812D01*
X156374493Y-88423812D01*
X156577448Y-88383442D01*
X156768626Y-88304253D01*
X156940683Y-88189289D01*
X157087005Y-88042967D01*
X157201969Y-87870910D01*
X157281158Y-87679732D01*
X157321528Y-87476777D01*
X157321528Y-87269847D01*
X157321527Y-87269844D01*
X157760528Y-87269844D01*
X157760528Y-87269847D01*
X157760528Y-87476777D01*
X157800898Y-87679732D01*
X157880087Y-87870910D01*
X157959076Y-87989126D01*
X157995052Y-88042968D01*
X157995057Y-88042974D01*
X158141365Y-88189282D01*
X158141371Y-88189287D01*
X158141373Y-88189289D01*
X158313430Y-88304253D01*
X158504608Y-88383442D01*
X158707563Y-88423812D01*
X158707564Y-88423812D01*
X158914492Y-88423812D01*
X158914493Y-88423812D01*
X159117448Y-88383442D01*
X159308626Y-88304253D01*
X159480683Y-88189289D01*
X159627005Y-88042967D01*
X159741969Y-87870910D01*
X159821158Y-87679732D01*
X159861528Y-87476777D01*
X159861528Y-87269847D01*
X159821158Y-87066892D01*
X159741969Y-86875714D01*
X159627005Y-86703657D01*
X159627003Y-86703655D01*
X159626998Y-86703649D01*
X159480690Y-86557341D01*
X159480684Y-86557336D01*
X159480683Y-86557335D01*
X159308626Y-86442371D01*
X159117448Y-86363182D01*
X158914495Y-86322812D01*
X158914493Y-86322812D01*
X158707563Y-86322812D01*
X158707560Y-86322812D01*
X158504607Y-86363182D01*
X158504602Y-86363184D01*
X158313430Y-86442371D01*
X158141371Y-86557336D01*
X158141365Y-86557341D01*
X157995057Y-86703649D01*
X157995052Y-86703655D01*
X157880087Y-86875714D01*
X157800900Y-87066886D01*
X157800898Y-87066891D01*
X157760528Y-87269844D01*
X157321527Y-87269844D01*
X157281158Y-87066892D01*
X157201969Y-86875714D01*
X157087005Y-86703657D01*
X157087003Y-86703655D01*
X157086998Y-86703649D01*
X156940690Y-86557341D01*
X156940684Y-86557336D01*
X156940683Y-86557335D01*
X156768626Y-86442371D01*
X156577448Y-86363182D01*
X156374495Y-86322812D01*
X156374493Y-86322812D01*
X156167563Y-86322812D01*
X156167560Y-86322812D01*
X155964607Y-86363182D01*
X155964602Y-86363184D01*
X155773430Y-86442371D01*
X155601371Y-86557336D01*
X155601365Y-86557341D01*
X155455057Y-86703649D01*
X155455052Y-86703655D01*
X155340087Y-86875714D01*
X155260900Y-87066886D01*
X155260898Y-87066891D01*
X155220528Y-87269844D01*
X152003721Y-87269844D01*
X152003721Y-84729844D01*
X155220528Y-84729844D01*
X155220528Y-84729847D01*
X155220528Y-84936777D01*
X155260898Y-85139732D01*
X155340087Y-85330910D01*
X155419076Y-85449126D01*
X155455052Y-85502968D01*
X155455057Y-85502974D01*
X155601365Y-85649282D01*
X155601371Y-85649287D01*
X155601373Y-85649289D01*
X155773430Y-85764253D01*
X155964608Y-85843442D01*
X156167563Y-85883812D01*
X156167564Y-85883812D01*
X156374492Y-85883812D01*
X156374493Y-85883812D01*
X156577448Y-85843442D01*
X156768626Y-85764253D01*
X156940683Y-85649289D01*
X157087005Y-85502967D01*
X157201969Y-85330910D01*
X157281158Y-85139732D01*
X157321528Y-84936777D01*
X157321528Y-84729847D01*
X157321527Y-84729844D01*
X157760528Y-84729844D01*
X157760528Y-84729847D01*
X157760528Y-84936777D01*
X157800898Y-85139732D01*
X157880087Y-85330910D01*
X157959076Y-85449126D01*
X157995052Y-85502968D01*
X157995057Y-85502974D01*
X158141365Y-85649282D01*
X158141371Y-85649287D01*
X158141373Y-85649289D01*
X158313430Y-85764253D01*
X158504608Y-85843442D01*
X158707563Y-85883812D01*
X158707564Y-85883812D01*
X158914492Y-85883812D01*
X158914493Y-85883812D01*
X159117448Y-85843442D01*
X159308626Y-85764253D01*
X159480683Y-85649289D01*
X159627005Y-85502967D01*
X159741969Y-85330910D01*
X159821158Y-85139732D01*
X159861528Y-84936777D01*
X159861528Y-84729847D01*
X159821158Y-84526892D01*
X159741969Y-84335714D01*
X159627005Y-84163657D01*
X159627003Y-84163655D01*
X159626998Y-84163649D01*
X159480690Y-84017341D01*
X159480684Y-84017336D01*
X159480683Y-84017335D01*
X159308626Y-83902371D01*
X159117448Y-83823182D01*
X158914495Y-83782812D01*
X158914493Y-83782812D01*
X158707563Y-83782812D01*
X158707560Y-83782812D01*
X158504607Y-83823182D01*
X158504602Y-83823184D01*
X158313430Y-83902371D01*
X158141371Y-84017336D01*
X158141365Y-84017341D01*
X157995057Y-84163649D01*
X157995052Y-84163655D01*
X157880087Y-84335714D01*
X157800900Y-84526886D01*
X157800898Y-84526891D01*
X157760528Y-84729844D01*
X157321527Y-84729844D01*
X157281158Y-84526892D01*
X157201969Y-84335714D01*
X157087005Y-84163657D01*
X157087003Y-84163655D01*
X157086998Y-84163649D01*
X156940690Y-84017341D01*
X156940684Y-84017336D01*
X156940683Y-84017335D01*
X156768626Y-83902371D01*
X156577448Y-83823182D01*
X156374495Y-83782812D01*
X156374493Y-83782812D01*
X156167563Y-83782812D01*
X156167560Y-83782812D01*
X155964607Y-83823182D01*
X155964602Y-83823184D01*
X155773430Y-83902371D01*
X155601371Y-84017336D01*
X155601365Y-84017341D01*
X155455057Y-84163649D01*
X155455052Y-84163655D01*
X155340087Y-84335714D01*
X155260900Y-84526886D01*
X155260898Y-84526891D01*
X155220528Y-84729844D01*
X152003721Y-84729844D01*
X152003721Y-82385172D01*
X152023723Y-82317051D01*
X152040626Y-82296077D01*
X152146859Y-82189844D01*
X155220528Y-82189844D01*
X155220528Y-82189847D01*
X155220528Y-82396777D01*
X155260898Y-82599732D01*
X155340087Y-82790910D01*
X155419076Y-82909126D01*
X155455052Y-82962968D01*
X155455057Y-82962974D01*
X155601365Y-83109282D01*
X155601371Y-83109287D01*
X155601373Y-83109289D01*
X155773430Y-83224253D01*
X155964608Y-83303442D01*
X156167563Y-83343812D01*
X156167564Y-83343812D01*
X156374492Y-83343812D01*
X156374493Y-83343812D01*
X156577448Y-83303442D01*
X156768626Y-83224253D01*
X156940683Y-83109289D01*
X157087005Y-82962967D01*
X157201969Y-82790910D01*
X157281158Y-82599732D01*
X157321528Y-82396777D01*
X157321528Y-82189847D01*
X157321527Y-82189844D01*
X157760528Y-82189844D01*
X157760528Y-82189847D01*
X157760528Y-82396777D01*
X157800898Y-82599732D01*
X157880087Y-82790910D01*
X157959076Y-82909126D01*
X157995052Y-82962968D01*
X157995057Y-82962974D01*
X158141365Y-83109282D01*
X158141371Y-83109287D01*
X158141373Y-83109289D01*
X158313430Y-83224253D01*
X158504608Y-83303442D01*
X158707563Y-83343812D01*
X158707564Y-83343812D01*
X158914492Y-83343812D01*
X158914493Y-83343812D01*
X159117448Y-83303442D01*
X159308626Y-83224253D01*
X159480683Y-83109289D01*
X159627005Y-82962967D01*
X159741969Y-82790910D01*
X159821158Y-82599732D01*
X159861528Y-82396777D01*
X159861528Y-82189847D01*
X159821158Y-81986892D01*
X159741969Y-81795714D01*
X159627005Y-81623657D01*
X159627003Y-81623655D01*
X159626998Y-81623649D01*
X159480690Y-81477341D01*
X159480684Y-81477336D01*
X159480683Y-81477335D01*
X159308626Y-81362371D01*
X159117448Y-81283182D01*
X158914495Y-81242812D01*
X158914493Y-81242812D01*
X158707563Y-81242812D01*
X158707560Y-81242812D01*
X158504607Y-81283182D01*
X158504602Y-81283184D01*
X158313430Y-81362371D01*
X158141371Y-81477336D01*
X158141365Y-81477341D01*
X157995057Y-81623649D01*
X157995052Y-81623655D01*
X157880087Y-81795714D01*
X157800900Y-81986886D01*
X157800898Y-81986891D01*
X157760528Y-82189844D01*
X157321527Y-82189844D01*
X157281158Y-81986892D01*
X157201969Y-81795714D01*
X157087005Y-81623657D01*
X157087003Y-81623655D01*
X157086998Y-81623649D01*
X156940690Y-81477341D01*
X156940684Y-81477336D01*
X156940683Y-81477335D01*
X156768626Y-81362371D01*
X156577448Y-81283182D01*
X156374495Y-81242812D01*
X156374493Y-81242812D01*
X156167563Y-81242812D01*
X156167560Y-81242812D01*
X155964607Y-81283182D01*
X155964602Y-81283184D01*
X155773430Y-81362371D01*
X155601371Y-81477336D01*
X155601365Y-81477341D01*
X155455057Y-81623649D01*
X155455052Y-81623655D01*
X155340087Y-81795714D01*
X155260900Y-81986886D01*
X155260898Y-81986891D01*
X155220528Y-82189844D01*
X152146859Y-82189844D01*
X152242141Y-82094562D01*
X153652451Y-80684252D01*
X155075386Y-79261316D01*
X155137696Y-79227292D01*
X155208511Y-79232357D01*
X155265347Y-79274904D01*
X155290158Y-79341424D01*
X155280888Y-79398631D01*
X155260900Y-79446885D01*
X155260898Y-79446891D01*
X155220528Y-79649844D01*
X155220528Y-79649847D01*
X155220528Y-79856777D01*
X155260898Y-80059732D01*
X155340087Y-80250910D01*
X155419076Y-80369126D01*
X155455052Y-80422968D01*
X155455057Y-80422974D01*
X155601365Y-80569282D01*
X155601371Y-80569287D01*
X155601373Y-80569289D01*
X155773430Y-80684253D01*
X155964608Y-80763442D01*
X156167563Y-80803812D01*
X156167564Y-80803812D01*
X156374492Y-80803812D01*
X156374493Y-80803812D01*
X156577448Y-80763442D01*
X156768626Y-80684253D01*
X156940683Y-80569289D01*
X157087005Y-80422967D01*
X157201969Y-80250910D01*
X157281158Y-80059732D01*
X157321528Y-79856777D01*
X157321528Y-79649847D01*
X157321527Y-79649844D01*
X157760528Y-79649844D01*
X157760528Y-79649847D01*
X157760528Y-79856777D01*
X157800898Y-80059732D01*
X157880087Y-80250910D01*
X157959076Y-80369126D01*
X157995052Y-80422968D01*
X157995057Y-80422974D01*
X158141365Y-80569282D01*
X158141371Y-80569287D01*
X158141373Y-80569289D01*
X158313430Y-80684253D01*
X158504608Y-80763442D01*
X158707563Y-80803812D01*
X158707564Y-80803812D01*
X158914492Y-80803812D01*
X158914493Y-80803812D01*
X159117448Y-80763442D01*
X159308626Y-80684253D01*
X159480683Y-80569289D01*
X159627005Y-80422967D01*
X159741969Y-80250910D01*
X159821158Y-80059732D01*
X159861528Y-79856777D01*
X159861528Y-79649847D01*
X159821158Y-79446892D01*
X159741969Y-79255714D01*
X159627005Y-79083657D01*
X159627003Y-79083655D01*
X159626998Y-79083649D01*
X159480690Y-78937341D01*
X159480684Y-78937336D01*
X159480683Y-78937335D01*
X159308626Y-78822371D01*
X159117448Y-78743182D01*
X158914495Y-78702812D01*
X158914493Y-78702812D01*
X158707563Y-78702812D01*
X158707560Y-78702812D01*
X158504607Y-78743182D01*
X158504602Y-78743184D01*
X158313430Y-78822371D01*
X158141371Y-78937336D01*
X158141365Y-78937341D01*
X157995057Y-79083649D01*
X157995052Y-79083655D01*
X157880087Y-79255714D01*
X157800900Y-79446886D01*
X157800898Y-79446891D01*
X157760528Y-79649844D01*
X157321527Y-79649844D01*
X157281158Y-79446892D01*
X157201969Y-79255714D01*
X157097131Y-79098812D01*
X157075917Y-79031061D01*
X157094700Y-78962594D01*
X157147517Y-78915151D01*
X157201897Y-78902812D01*
X157574753Y-78902812D01*
X157574755Y-78902812D01*
X157676616Y-78875519D01*
X157767941Y-78822792D01*
X158347979Y-78242752D01*
X158410290Y-78208729D01*
X158481105Y-78213793D01*
X158485248Y-78215422D01*
X158504608Y-78223442D01*
X158707563Y-78263812D01*
X158707564Y-78263812D01*
X158914492Y-78263812D01*
X158914493Y-78263812D01*
X159117448Y-78223442D01*
X159308626Y-78144253D01*
X159480683Y-78029289D01*
X159627005Y-77882967D01*
X159741969Y-77710910D01*
X159821158Y-77519732D01*
X159861528Y-77316777D01*
X159861528Y-77109847D01*
X159821158Y-76906892D01*
X159741969Y-76715714D01*
X159627005Y-76543657D01*
X159627003Y-76543655D01*
X159626998Y-76543649D01*
X159480690Y-76397341D01*
X159480684Y-76397336D01*
X159480683Y-76397335D01*
X159308626Y-76282371D01*
X159117448Y-76203182D01*
X158914495Y-76162812D01*
X158914493Y-76162812D01*
X158707563Y-76162812D01*
X158707560Y-76162812D01*
X158504607Y-76203182D01*
X158504602Y-76203184D01*
X158313430Y-76282371D01*
X158141371Y-76397336D01*
X158141365Y-76397341D01*
X157995057Y-76543649D01*
X157995052Y-76543655D01*
X157880086Y-76715714D01*
X157880086Y-76715715D01*
X157871436Y-76736598D01*
X157826887Y-76791878D01*
X157759523Y-76814298D01*
X157690732Y-76796739D01*
X157642355Y-76744776D01*
X157629028Y-76688378D01*
X157629028Y-76562795D01*
X157618422Y-76458993D01*
X157618421Y-76458990D01*
X157562685Y-76290786D01*
X157469662Y-76139972D01*
X157469657Y-76139966D01*
X157344373Y-76014682D01*
X157344367Y-76014677D01*
X157193553Y-75921654D01*
X157025349Y-75865918D01*
X157025346Y-75865917D01*
X156921544Y-75855312D01*
X156525028Y-75855312D01*
X156525028Y-76782609D01*
X156464021Y-76747387D01*
X156336854Y-76713312D01*
X156205202Y-76713312D01*
X156078035Y-76747387D01*
X156017028Y-76782609D01*
X156017028Y-75855312D01*
X155620511Y-75855312D01*
X155516709Y-75865917D01*
X155516706Y-75865918D01*
X155348502Y-75921654D01*
X155197688Y-76014677D01*
X155197682Y-76014682D01*
X155072398Y-76139966D01*
X155072393Y-76139972D01*
X154979370Y-76290786D01*
X154923634Y-76458990D01*
X154923633Y-76458993D01*
X154913028Y-76562795D01*
X154913028Y-76959312D01*
X155840325Y-76959312D01*
X155805103Y-77020319D01*
X155771028Y-77147486D01*
X155771028Y-77279138D01*
X155805103Y-77406305D01*
X155840325Y-77467312D01*
X154913028Y-77467312D01*
X154913028Y-77863828D01*
X154923633Y-77967630D01*
X154923634Y-77967633D01*
X154977004Y-78128695D01*
X154979444Y-78199650D01*
X154946494Y-78257423D01*
X151282746Y-81921170D01*
X151282738Y-81921180D01*
X151230016Y-82012497D01*
X151230014Y-82012502D01*
X151213429Y-82074399D01*
X151213429Y-82074400D01*
X151213428Y-82074399D01*
X151202721Y-82114360D01*
X151202721Y-89569007D01*
X151182719Y-89637128D01*
X151165816Y-89658102D01*
X147610852Y-93213066D01*
X147548540Y-93247092D01*
X147521757Y-93249971D01*
X146335411Y-93249971D01*
X146267290Y-93229969D01*
X146220797Y-93176313D01*
X146210693Y-93106039D01*
X146230645Y-93053970D01*
X146335483Y-92897069D01*
X146414672Y-92705891D01*
X146455042Y-92502936D01*
X146455042Y-92296006D01*
X146414672Y-92093051D01*
X146335483Y-91901873D01*
X146220519Y-91729816D01*
X146220517Y-91729814D01*
X146220512Y-91729808D01*
X146074204Y-91583500D01*
X146074198Y-91583495D01*
X146073781Y-91583216D01*
X145902140Y-91468530D01*
X145753820Y-91407093D01*
X145698541Y-91362545D01*
X145676120Y-91295182D01*
X145693678Y-91226391D01*
X145745641Y-91178012D01*
X145763104Y-91170852D01*
X145925828Y-91117980D01*
X145925834Y-91117977D01*
X146116292Y-91020934D01*
X146168709Y-90982849D01*
X146168709Y-90982847D01*
X145529490Y-90343628D01*
X145597535Y-90325396D01*
X145711549Y-90259570D01*
X145804641Y-90166478D01*
X145870467Y-90052464D01*
X145888699Y-89984419D01*
X146527918Y-90623638D01*
X146527920Y-90623638D01*
X146566005Y-90571221D01*
X146663048Y-90380763D01*
X146663051Y-90380757D01*
X146729101Y-90177474D01*
X146762542Y-89966344D01*
X146762542Y-89752597D01*
X146729101Y-89541467D01*
X146663051Y-89338184D01*
X146663048Y-89338178D01*
X146566006Y-89147722D01*
X146566005Y-89147720D01*
X146527920Y-89095302D01*
X145888699Y-89734522D01*
X145870467Y-89666478D01*
X145804641Y-89552464D01*
X145711549Y-89459372D01*
X145597535Y-89393546D01*
X145529489Y-89375312D01*
X146168710Y-88736092D01*
X146168709Y-88736091D01*
X146116292Y-88698007D01*
X146116290Y-88698006D01*
X145925834Y-88600964D01*
X145925828Y-88600961D01*
X145763104Y-88548089D01*
X145704498Y-88508015D01*
X145676861Y-88442619D01*
X145688968Y-88372662D01*
X145736974Y-88320356D01*
X145753814Y-88311850D01*
X145902140Y-88250412D01*
X146074197Y-88135448D01*
X146220519Y-87989126D01*
X146335483Y-87817069D01*
X146414672Y-87625891D01*
X146455042Y-87422936D01*
X146455042Y-87216006D01*
X146414672Y-87013051D01*
X146335483Y-86821873D01*
X146220519Y-86649816D01*
X146220517Y-86649814D01*
X146220512Y-86649808D01*
X146074204Y-86503500D01*
X146074198Y-86503495D01*
X145982719Y-86442371D01*
X145902140Y-86388530D01*
X145710962Y-86309341D01*
X145508009Y-86268971D01*
X145508007Y-86268971D01*
X145301077Y-86268971D01*
X145301074Y-86268971D01*
X145098121Y-86309341D01*
X145098116Y-86309343D01*
X144906944Y-86388530D01*
X144734885Y-86503495D01*
X144734879Y-86503500D01*
X144588571Y-86649808D01*
X144588566Y-86649814D01*
X144473601Y-86821873D01*
X144394414Y-87013045D01*
X144394412Y-87013050D01*
X144354042Y-87216003D01*
X144354042Y-87422938D01*
X144364752Y-87476779D01*
X144394412Y-87625891D01*
X144473601Y-87817069D01*
X144588565Y-87989126D01*
X144588566Y-87989127D01*
X144588571Y-87989133D01*
X144734879Y-88135441D01*
X144734885Y-88135446D01*
X144734887Y-88135448D01*
X144906944Y-88250412D01*
X145055261Y-88311847D01*
X145110542Y-88356395D01*
X145132963Y-88423759D01*
X145115405Y-88492550D01*
X145063443Y-88540928D01*
X145045980Y-88548089D01*
X144883252Y-88600963D01*
X144883249Y-88600964D01*
X144692795Y-88698005D01*
X144640373Y-88736092D01*
X144640373Y-88736093D01*
X145279593Y-89375313D01*
X145211549Y-89393546D01*
X145097535Y-89459372D01*
X145004443Y-89552464D01*
X144938617Y-89666478D01*
X144920383Y-89734523D01*
X144281163Y-89095302D01*
X144243076Y-89147724D01*
X144146035Y-89338178D01*
X144146034Y-89338181D01*
X144093160Y-89500909D01*
X144053086Y-89559514D01*
X143987689Y-89587151D01*
X143917733Y-89575044D01*
X143865427Y-89527038D01*
X143856918Y-89510190D01*
X143853074Y-89500909D01*
X143795483Y-89361873D01*
X143680519Y-89189816D01*
X143680517Y-89189814D01*
X143680512Y-89189808D01*
X143534204Y-89043500D01*
X143534198Y-89043495D01*
X143442719Y-88982371D01*
X143362140Y-88928530D01*
X143170962Y-88849341D01*
X142968009Y-88808971D01*
X142968007Y-88808971D01*
X142761077Y-88808971D01*
X142761074Y-88808971D01*
X142558121Y-88849341D01*
X142558116Y-88849343D01*
X142366944Y-88928530D01*
X142194885Y-89043495D01*
X142194879Y-89043500D01*
X142048571Y-89189808D01*
X142048566Y-89189814D01*
X141933601Y-89361873D01*
X141854414Y-89553045D01*
X141854412Y-89553050D01*
X141814042Y-89756003D01*
X138154489Y-89756003D01*
X138154490Y-89749796D01*
X138154893Y-87216003D01*
X141814042Y-87216003D01*
X141814042Y-87422938D01*
X141824752Y-87476779D01*
X141854412Y-87625891D01*
X141933601Y-87817069D01*
X142048565Y-87989126D01*
X142048566Y-87989127D01*
X142048571Y-87989133D01*
X142194879Y-88135441D01*
X142194885Y-88135446D01*
X142194887Y-88135448D01*
X142366944Y-88250412D01*
X142558122Y-88329601D01*
X142761077Y-88369971D01*
X142761078Y-88369971D01*
X142968006Y-88369971D01*
X142968007Y-88369971D01*
X143170962Y-88329601D01*
X143362140Y-88250412D01*
X143534197Y-88135448D01*
X143680519Y-87989126D01*
X143795483Y-87817069D01*
X143874672Y-87625891D01*
X143915042Y-87422936D01*
X143915042Y-87216006D01*
X143874672Y-87013051D01*
X143795483Y-86821873D01*
X143680519Y-86649816D01*
X143680517Y-86649814D01*
X143680512Y-86649808D01*
X143534204Y-86503500D01*
X143534198Y-86503495D01*
X143442719Y-86442371D01*
X143362140Y-86388530D01*
X143170962Y-86309341D01*
X142968009Y-86268971D01*
X142968007Y-86268971D01*
X142761077Y-86268971D01*
X142761074Y-86268971D01*
X142558121Y-86309341D01*
X142558116Y-86309343D01*
X142366944Y-86388530D01*
X142194885Y-86503495D01*
X142194879Y-86503500D01*
X142048571Y-86649808D01*
X142048566Y-86649814D01*
X141933601Y-86821873D01*
X141854414Y-87013045D01*
X141854412Y-87013050D01*
X141814042Y-87216003D01*
X138154893Y-87216003D01*
X138154894Y-87209796D01*
X138155296Y-84676003D01*
X141814042Y-84676003D01*
X141814042Y-84882938D01*
X141824752Y-84936779D01*
X141854412Y-85085891D01*
X141933601Y-85277069D01*
X142048565Y-85449126D01*
X142048566Y-85449127D01*
X142048571Y-85449133D01*
X142194879Y-85595441D01*
X142194885Y-85595446D01*
X142194887Y-85595448D01*
X142366944Y-85710412D01*
X142558122Y-85789601D01*
X142761077Y-85829971D01*
X142761078Y-85829971D01*
X142968006Y-85829971D01*
X142968007Y-85829971D01*
X143170962Y-85789601D01*
X143362140Y-85710412D01*
X143534197Y-85595448D01*
X143680519Y-85449126D01*
X143795483Y-85277069D01*
X143874672Y-85085891D01*
X143915042Y-84882936D01*
X143915042Y-84676006D01*
X143915041Y-84676003D01*
X144354042Y-84676003D01*
X144354042Y-84882938D01*
X144364752Y-84936779D01*
X144394412Y-85085891D01*
X144473601Y-85277069D01*
X144588565Y-85449126D01*
X144588566Y-85449127D01*
X144588571Y-85449133D01*
X144734879Y-85595441D01*
X144734885Y-85595446D01*
X144734887Y-85595448D01*
X144906944Y-85710412D01*
X145098122Y-85789601D01*
X145301077Y-85829971D01*
X145301078Y-85829971D01*
X145508006Y-85829971D01*
X145508007Y-85829971D01*
X145710962Y-85789601D01*
X145902140Y-85710412D01*
X146074197Y-85595448D01*
X146220519Y-85449126D01*
X146335483Y-85277069D01*
X146414672Y-85085891D01*
X146455042Y-84882936D01*
X146455042Y-84676006D01*
X146414672Y-84473051D01*
X146335483Y-84281873D01*
X146220519Y-84109816D01*
X146220517Y-84109814D01*
X146220512Y-84109808D01*
X146074204Y-83963500D01*
X146074198Y-83963495D01*
X145982719Y-83902371D01*
X145902140Y-83848530D01*
X145710962Y-83769341D01*
X145508009Y-83728971D01*
X145508007Y-83728971D01*
X145301077Y-83728971D01*
X145301074Y-83728971D01*
X145098121Y-83769341D01*
X145098116Y-83769343D01*
X144906944Y-83848530D01*
X144734885Y-83963495D01*
X144734879Y-83963500D01*
X144588571Y-84109808D01*
X144588566Y-84109814D01*
X144473601Y-84281873D01*
X144394414Y-84473045D01*
X144394412Y-84473050D01*
X144354042Y-84676003D01*
X143915041Y-84676003D01*
X143874672Y-84473051D01*
X143795483Y-84281873D01*
X143680519Y-84109816D01*
X143680517Y-84109814D01*
X143680512Y-84109808D01*
X143534204Y-83963500D01*
X143534198Y-83963495D01*
X143442719Y-83902371D01*
X143362140Y-83848530D01*
X143170962Y-83769341D01*
X142968009Y-83728971D01*
X142968007Y-83728971D01*
X142761077Y-83728971D01*
X142761074Y-83728971D01*
X142558121Y-83769341D01*
X142558116Y-83769343D01*
X142366944Y-83848530D01*
X142194885Y-83963495D01*
X142194879Y-83963500D01*
X142048571Y-84109808D01*
X142048566Y-84109814D01*
X141933601Y-84281873D01*
X141854414Y-84473045D01*
X141854412Y-84473050D01*
X141814042Y-84676003D01*
X138155296Y-84676003D01*
X138155699Y-82136003D01*
X141814042Y-82136003D01*
X141814042Y-82342938D01*
X141824752Y-82396779D01*
X141854412Y-82545891D01*
X141933601Y-82737069D01*
X142048565Y-82909126D01*
X142048566Y-82909127D01*
X142048571Y-82909133D01*
X142194879Y-83055441D01*
X142194885Y-83055446D01*
X142194887Y-83055448D01*
X142366944Y-83170412D01*
X142558122Y-83249601D01*
X142761077Y-83289971D01*
X142761078Y-83289971D01*
X142968006Y-83289971D01*
X142968007Y-83289971D01*
X143170962Y-83249601D01*
X143362140Y-83170412D01*
X143534197Y-83055448D01*
X143680519Y-82909126D01*
X143795483Y-82737069D01*
X143874672Y-82545891D01*
X143915042Y-82342936D01*
X143915042Y-82136006D01*
X143915041Y-82136003D01*
X144354042Y-82136003D01*
X144354042Y-82342938D01*
X144364752Y-82396779D01*
X144394412Y-82545891D01*
X144473601Y-82737069D01*
X144588565Y-82909126D01*
X144588566Y-82909127D01*
X144588571Y-82909133D01*
X144734879Y-83055441D01*
X144734885Y-83055446D01*
X144734887Y-83055448D01*
X144906944Y-83170412D01*
X145098122Y-83249601D01*
X145301077Y-83289971D01*
X145301078Y-83289971D01*
X145508006Y-83289971D01*
X145508007Y-83289971D01*
X145710962Y-83249601D01*
X145902140Y-83170412D01*
X146074197Y-83055448D01*
X146220519Y-82909126D01*
X146335483Y-82737069D01*
X146414672Y-82545891D01*
X146455042Y-82342936D01*
X146455042Y-82136006D01*
X146414672Y-81933051D01*
X146335483Y-81741873D01*
X146220519Y-81569816D01*
X146220517Y-81569814D01*
X146220512Y-81569808D01*
X146074204Y-81423500D01*
X146074198Y-81423495D01*
X145982719Y-81362371D01*
X145902140Y-81308530D01*
X145710962Y-81229341D01*
X145508009Y-81188971D01*
X145508007Y-81188971D01*
X145301077Y-81188971D01*
X145301074Y-81188971D01*
X145098121Y-81229341D01*
X145098116Y-81229343D01*
X144906944Y-81308530D01*
X144734885Y-81423495D01*
X144734879Y-81423500D01*
X144588571Y-81569808D01*
X144588566Y-81569814D01*
X144473601Y-81741873D01*
X144394414Y-81933045D01*
X144394412Y-81933050D01*
X144354042Y-82136003D01*
X143915041Y-82136003D01*
X143874672Y-81933051D01*
X143795483Y-81741873D01*
X143680519Y-81569816D01*
X143680517Y-81569814D01*
X143680512Y-81569808D01*
X143534204Y-81423500D01*
X143534198Y-81423495D01*
X143442719Y-81362371D01*
X143362140Y-81308530D01*
X143170962Y-81229341D01*
X142968009Y-81188971D01*
X142968007Y-81188971D01*
X142761077Y-81188971D01*
X142761074Y-81188971D01*
X142558121Y-81229341D01*
X142558116Y-81229343D01*
X142366944Y-81308530D01*
X142194885Y-81423495D01*
X142194879Y-81423500D01*
X142048571Y-81569808D01*
X142048566Y-81569814D01*
X141933601Y-81741873D01*
X141854414Y-81933045D01*
X141854412Y-81933050D01*
X141814042Y-82136003D01*
X138155699Y-82136003D01*
X138156069Y-79802934D01*
X138156102Y-79596003D01*
X141814042Y-79596003D01*
X141814042Y-79802938D01*
X141824752Y-79856779D01*
X141854412Y-80005891D01*
X141933601Y-80197069D01*
X142048565Y-80369126D01*
X142048566Y-80369127D01*
X142048571Y-80369133D01*
X142194879Y-80515441D01*
X142194885Y-80515446D01*
X142194887Y-80515448D01*
X142366944Y-80630412D01*
X142558122Y-80709601D01*
X142761077Y-80749971D01*
X142761078Y-80749971D01*
X142968006Y-80749971D01*
X142968007Y-80749971D01*
X143170962Y-80709601D01*
X143362140Y-80630412D01*
X143534197Y-80515448D01*
X143680519Y-80369126D01*
X143795483Y-80197069D01*
X143874672Y-80005891D01*
X143915042Y-79802936D01*
X143915042Y-79596006D01*
X143915041Y-79596003D01*
X144354042Y-79596003D01*
X144354042Y-79802938D01*
X144364752Y-79856779D01*
X144394412Y-80005891D01*
X144473601Y-80197069D01*
X144588565Y-80369126D01*
X144588566Y-80369127D01*
X144588571Y-80369133D01*
X144734879Y-80515441D01*
X144734885Y-80515446D01*
X144734887Y-80515448D01*
X144906944Y-80630412D01*
X145098122Y-80709601D01*
X145301077Y-80749971D01*
X145301078Y-80749971D01*
X145508006Y-80749971D01*
X145508007Y-80749971D01*
X145710962Y-80709601D01*
X145902140Y-80630412D01*
X146074197Y-80515448D01*
X146220519Y-80369126D01*
X146335483Y-80197069D01*
X146414672Y-80005891D01*
X146455042Y-79802936D01*
X146455042Y-79596006D01*
X146414672Y-79393051D01*
X146335483Y-79201873D01*
X146220519Y-79029816D01*
X146220517Y-79029814D01*
X146220512Y-79029808D01*
X146074204Y-78883500D01*
X146074198Y-78883495D01*
X146062261Y-78875519D01*
X145902140Y-78768530D01*
X145710962Y-78689341D01*
X145508009Y-78648971D01*
X145508007Y-78648971D01*
X145301077Y-78648971D01*
X145301074Y-78648971D01*
X145098121Y-78689341D01*
X145098116Y-78689343D01*
X144906944Y-78768530D01*
X144734885Y-78883495D01*
X144734879Y-78883500D01*
X144588571Y-79029808D01*
X144588566Y-79029814D01*
X144473601Y-79201873D01*
X144394414Y-79393045D01*
X144394412Y-79393050D01*
X144354042Y-79596003D01*
X143915041Y-79596003D01*
X143874672Y-79393051D01*
X143795483Y-79201873D01*
X143680519Y-79029816D01*
X143680517Y-79029814D01*
X143680512Y-79029808D01*
X143534204Y-78883500D01*
X143534198Y-78883495D01*
X143522261Y-78875519D01*
X143362140Y-78768530D01*
X143170962Y-78689341D01*
X142968009Y-78648971D01*
X142968007Y-78648971D01*
X142761077Y-78648971D01*
X142761074Y-78648971D01*
X142558121Y-78689341D01*
X142558116Y-78689343D01*
X142366944Y-78768530D01*
X142194885Y-78883495D01*
X142194879Y-78883500D01*
X142048571Y-79029808D01*
X142048566Y-79029814D01*
X141933601Y-79201873D01*
X141854414Y-79393045D01*
X141854412Y-79393050D01*
X141814042Y-79596003D01*
X138156102Y-79596003D01*
X138156593Y-76505204D01*
X141814042Y-76505204D01*
X141814042Y-77813737D01*
X141816896Y-77844171D01*
X141816897Y-77844175D01*
X141861748Y-77972352D01*
X141861750Y-77972356D01*
X141942391Y-78081621D01*
X142051656Y-78162262D01*
X142051660Y-78162264D01*
X142179843Y-78207117D01*
X142210276Y-78209971D01*
X142210278Y-78209971D01*
X143518806Y-78209971D01*
X143518808Y-78209971D01*
X143549241Y-78207117D01*
X143677424Y-78162264D01*
X143686633Y-78155468D01*
X143786692Y-78081621D01*
X143867333Y-77972356D01*
X143867335Y-77972352D01*
X143868987Y-77967633D01*
X143912188Y-77844170D01*
X143915042Y-77813737D01*
X143915042Y-77056003D01*
X144354042Y-77056003D01*
X144354042Y-77262938D01*
X144364752Y-77316779D01*
X144394412Y-77465891D01*
X144473601Y-77657069D01*
X144588565Y-77829126D01*
X144588566Y-77829127D01*
X144588571Y-77829133D01*
X144734879Y-77975441D01*
X144734885Y-77975446D01*
X144734887Y-77975448D01*
X144906944Y-78090412D01*
X145098122Y-78169601D01*
X145301077Y-78209971D01*
X145301078Y-78209971D01*
X145508006Y-78209971D01*
X145508007Y-78209971D01*
X145710962Y-78169601D01*
X145902140Y-78090412D01*
X146074197Y-77975448D01*
X146220519Y-77829126D01*
X146335483Y-77657069D01*
X146414672Y-77465891D01*
X146455042Y-77262936D01*
X146455042Y-77056006D01*
X146414672Y-76853051D01*
X146335483Y-76661873D01*
X146220519Y-76489816D01*
X146220516Y-76489813D01*
X146220512Y-76489808D01*
X146074204Y-76343500D01*
X146074198Y-76343495D01*
X145982719Y-76282371D01*
X145902140Y-76228530D01*
X145710962Y-76149341D01*
X145663861Y-76139972D01*
X145508009Y-76108971D01*
X145508007Y-76108971D01*
X145301077Y-76108971D01*
X145301074Y-76108971D01*
X145098121Y-76149341D01*
X145098116Y-76149343D01*
X144906944Y-76228530D01*
X144734885Y-76343495D01*
X144734879Y-76343500D01*
X144588571Y-76489808D01*
X144588566Y-76489814D01*
X144473601Y-76661873D01*
X144394414Y-76853045D01*
X144394412Y-76853050D01*
X144354042Y-77056003D01*
X143915042Y-77056003D01*
X143915042Y-76505205D01*
X143912188Y-76474772D01*
X143867335Y-76346589D01*
X143867333Y-76346585D01*
X143786692Y-76237320D01*
X143677427Y-76156679D01*
X143677423Y-76156677D01*
X143549246Y-76111826D01*
X143549242Y-76111825D01*
X143518808Y-76108971D01*
X142210276Y-76108971D01*
X142210275Y-76108971D01*
X142179841Y-76111825D01*
X142179837Y-76111826D01*
X142051660Y-76156677D01*
X142051656Y-76156679D01*
X141942391Y-76237320D01*
X141861750Y-76346585D01*
X141861748Y-76346589D01*
X141816897Y-76474766D01*
X141816896Y-76474770D01*
X141814042Y-76505204D01*
X138156593Y-76505204D01*
X138158801Y-62598637D01*
X138178814Y-62530520D01*
X138232477Y-62484036D01*
X138284565Y-62472658D01*
X204873872Y-62350231D01*
X204942027Y-62370108D01*
G37*
%TD.AperFunction*%
%TD*%
M02*
