%TF.GenerationSoftware,KiCad,Pcbnew,9.0.5*%
%TF.CreationDate,2025-12-13T23:56:32-06:00*%
%TF.ProjectId,CPE495-LED-Driver-Board,43504534-3935-42d4-9c45-442d44726976,v0.2*%
%TF.SameCoordinates,Original*%
%TF.FileFunction,Soldermask,Bot*%
%TF.FilePolarity,Negative*%
%FSLAX46Y46*%
G04 Gerber Fmt 4.6, Leading zero omitted, Abs format (unit mm)*
G04 Created by KiCad (PCBNEW 9.0.5) date 2025-12-13 23:56:32*
%MOMM*%
%LPD*%
G01*
G04 APERTURE LIST*
G04 Aperture macros list*
%AMRoundRect*
0 Rectangle with rounded corners*
0 $1 Rounding radius*
0 $2 $3 $4 $5 $6 $7 $8 $9 X,Y pos of 4 corners*
0 Add a 4 corners polygon primitive as box body*
4,1,4,$2,$3,$4,$5,$6,$7,$8,$9,$2,$3,0*
0 Add four circle primitives for the rounded corners*
1,1,$1+$1,$2,$3*
1,1,$1+$1,$4,$5*
1,1,$1+$1,$6,$7*
1,1,$1+$1,$8,$9*
0 Add four rect primitives between the rounded corners*
20,1,$1+$1,$2,$3,$4,$5,0*
20,1,$1+$1,$4,$5,$6,$7,0*
20,1,$1+$1,$6,$7,$8,$9,0*
20,1,$1+$1,$8,$9,$2,$3,0*%
G04 Aperture macros list end*
%ADD10R,1.700000X1.700000*%
%ADD11O,1.700000X1.700000*%
%ADD12RoundRect,0.250000X0.600000X0.600000X-0.600000X0.600000X-0.600000X-0.600000X0.600000X-0.600000X0*%
%ADD13C,1.700000*%
%ADD14RoundRect,0.250000X-0.600000X-0.600000X0.600000X-0.600000X0.600000X0.600000X-0.600000X0.600000X0*%
G04 APERTURE END LIST*
D10*
%TO.C,J3*%
X199136000Y-126492000D03*
D11*
X199136000Y-129032000D03*
X196596000Y-126492000D03*
X196596000Y-129032000D03*
X194056000Y-126492000D03*
X194056000Y-129032000D03*
X191516000Y-126492000D03*
X191516000Y-129032000D03*
X188976000Y-126492000D03*
X188976000Y-129032000D03*
X186436000Y-126492000D03*
X186436000Y-129032000D03*
X183896000Y-126492000D03*
X183896000Y-129032000D03*
X181356000Y-126492000D03*
X181356000Y-129032000D03*
X178816000Y-126492000D03*
X178816000Y-129032000D03*
X176276000Y-126492000D03*
X176276000Y-129032000D03*
X173736000Y-126492000D03*
X173736000Y-129032000D03*
X171196000Y-126492000D03*
X171196000Y-129032000D03*
X168656000Y-126492000D03*
X168656000Y-129032000D03*
%TD*%
D12*
%TO.C,J1*%
X158232500Y-125730000D03*
D13*
X155692500Y-125730000D03*
X158232500Y-123190000D03*
X155692500Y-123190000D03*
X158232500Y-120650000D03*
X155692500Y-120650000D03*
X158232500Y-118110000D03*
X155692500Y-118110000D03*
X158232500Y-115570000D03*
X155692500Y-115570000D03*
X158232500Y-113030000D03*
X155692500Y-113030000D03*
X158232500Y-110490000D03*
X155692500Y-110490000D03*
X158232500Y-107950000D03*
X155692500Y-107950000D03*
X158232500Y-105410000D03*
X155692500Y-105410000D03*
X158232500Y-102870000D03*
X155692500Y-102870000D03*
X158232500Y-100330000D03*
X155692500Y-100330000D03*
X158232500Y-97790000D03*
X155692500Y-97790000D03*
X158232500Y-95250000D03*
X155692500Y-95250000D03*
X158232500Y-92710000D03*
X155692500Y-92710000D03*
X158232500Y-90170000D03*
X155692500Y-90170000D03*
X158232500Y-87630000D03*
X155692500Y-87630000D03*
X158232500Y-85090000D03*
X155692500Y-85090000D03*
X158232500Y-82550000D03*
X155692500Y-82550000D03*
X158232500Y-80010000D03*
X155692500Y-80010000D03*
X158232500Y-77470000D03*
X155692500Y-77470000D03*
%TD*%
D14*
%TO.C,J2*%
X195580000Y-93980000D03*
D13*
X198120000Y-93980000D03*
X195580000Y-96520000D03*
X198120000Y-96520000D03*
X195580000Y-99060000D03*
X198120000Y-99060000D03*
X195580000Y-101600000D03*
X198120000Y-101600000D03*
X195580000Y-104140000D03*
X198120000Y-104140000D03*
X195580000Y-106680000D03*
X198120000Y-106680000D03*
X195580000Y-109220000D03*
X198120000Y-109220000D03*
X195580000Y-111760000D03*
X198120000Y-111760000D03*
%TD*%
M02*
