M48
; DRILL file {KiCad 9.0.5} date 2025-12-13T23:57:47-0600
; FORMAT={-:-/ absolute / inch / decimal}
; #@! TF.CreationDate,2025-12-13T23:57:47-06:00
; #@! TF.GenerationSoftware,Kicad,Pcbnew,9.0.5
; #@! TF.FileFunction,Plated,1,2,PTH
FMAT,2
INCH
; #@! TA.AperFunction,Plated,PTH,ViaDrill
T1C0.0118
; #@! TA.AperFunction,Plated,PTH,ComponentDrill
T2C0.0315
; #@! TA.AperFunction,Plated,PTH,ComponentDrill
T3C0.0354
; #@! TA.AperFunction,Plated,PTH,ComponentDrill
T4C0.0394
%
G90
G05
T1
X1.8898Y-4.1339
X1.8898Y-4.2323
X1.8898Y-5.2953
X1.8898Y-5.5315
X1.9685Y-6.6732
X2.1Y-5.2
X2.1Y-5.7855
X2.1Y-6.45
X2.15Y-3.5039
X2.15Y-4.5
X2.2Y-3.3953
X2.2Y-4.55
X2.2Y-5.2
X2.2Y-5.65
X2.2Y-5.85
X2.2Y-6.45
X2.25Y-6.7
X2.2588Y-5.7283
X2.3Y-6.65
X2.3425Y-1.3189
X2.3425Y-1.3583
X2.4606Y-1.3189
X2.4606Y-1.3583
X2.4803Y-4.4094
X2.5Y-1.437
X2.55Y-4.5
X2.55Y-6.65
X2.6181Y-1.6535
X2.7Y-4.55
X2.7Y-6.7
X2.7165Y-4.311
X2.7165Y-5.4653
X2.7165Y-6.5748
X2.8Y-4.6
X2.8Y-5.6
X2.815Y-6.8504
X2.85Y-6.75
X2.8543Y-1.5157
X2.9Y-5.55
X3.0Y-5.55
X3.1102Y-6.5748
X3.1141Y-4.2913
X3.1141Y-5.4172
X3.189Y-5.9055
X3.2087Y-4.7244
X3.2087Y-7.0276
X3.5141Y-5.4134
X3.5141Y-6.5748
X3.5141Y-4.3071
X3.6024Y-4.7835
X3.618Y-5.7669
X3.6259Y-4.651
X3.6324Y-5.839
X3.6586Y-6.9184
X3.6614Y-5.8071
X3.6811Y-1.5354
X3.6811Y-4.685
X3.6811Y-5.9055
X3.6811Y-7.0276
X3.7205Y-5.7283
X3.7402Y-5.5315
X3.7402Y-5.6083
X3.7433Y-6.6917
X3.7433Y-6.7665
X3.7598Y-1.5354
X3.7598Y-1.5748
X3.7598Y-4.4094
X3.7598Y-4.4843
X3.7827Y-6.875
X3.8134Y-5.6035
X3.8189Y-4.4704
X3.8225Y-6.7439
X3.8389Y-6.9492
X3.9173Y-4.2717
X3.9491Y-4.4996
X3.9491Y-5.6486
X3.9491Y-6.7998
X3.9961Y-4.685
X3.9961Y-6.5748
X4.0157Y-5.8858
X4.0186Y-5.4532
X4.0777Y-4.5568
X4.0789Y-6.8607
X4.0906Y-5.6851
X4.1028Y-5.7208
X4.1054Y-4.5353
X4.1142Y-7.0276
X4.1339Y-6.8504
X4.2126Y-5.8268
X4.2323Y-6.9882
X4.2913Y-1.5354
X4.2913Y-4.6654
X4.311Y-4.3307
X4.311Y-5.4331
X4.311Y-6.5748
X4.3701Y-1.5354
X4.3701Y-1.5748
X4.4882Y-6.9488
X4.5472Y-5.7874
X4.6654Y-4.626
X4.7141Y-6.5748
X4.7158Y-4.3202
X4.7244Y-5.4331
X4.7441Y-1.3189
X4.7835Y-1.3189
X4.8Y-1.7882
X4.9409Y-6.9094
X4.9803Y-5.748
X5.0787Y-4.5866
X5.0984Y-1.3189
X5.1141Y-4.2994
X5.1141Y-6.5748
X5.1181Y-5.4331
X5.1378Y-1.3189
X5.1772Y-1.3189
T2
X2.0276Y-3.189
X2.0276Y-3.589
X2.9134Y-1.6504
X2.9134Y-2.0504
X3.05Y-4.65
X3.05Y-5.65
X3.05Y-5.8
X3.0844Y-6.7983
X3.0844Y-6.9483
X3.0906Y-1.6504
X3.0906Y-2.0504
X3.45Y-4.65
X3.45Y-5.65
X3.45Y-5.8
X3.4844Y-6.7983
X3.4844Y-6.9483
X3.779Y-2.7884
X3.779Y-3.1884
X3.9961Y-2.789
X3.9961Y-3.189
X4.5908Y-1.6492
X4.5908Y-2.0492
X4.8Y-1.6492
X4.8Y-2.0492
T3
X2.5Y-4.2
X2.5Y-5.35
X2.5Y-6.5
X2.6Y-4.2
X2.6Y-5.35
X2.6Y-6.5
X2.9Y-4.2
X2.9Y-5.35
X2.9Y-6.5
X3.0Y-4.2
X3.0Y-5.35
X3.0Y-6.5
X3.3Y-4.2
X3.3Y-5.35
X3.3Y-6.5
X3.4Y-4.2
X3.4Y-5.35
X3.4Y-6.5
X3.7Y-4.2
X3.7Y-5.35
X3.7Y-6.5
X3.8Y-4.2
X3.8Y-5.35
X3.8Y-6.5
X4.1Y-4.2
X4.1Y-5.35
X4.1Y-6.5
X4.2Y-4.2
X4.2Y-5.35
X4.2Y-6.5
X4.5Y-4.2
X4.5Y-5.35
X4.5Y-6.5
X4.6Y-4.2
X4.6Y-5.35
X4.6Y-6.5
X4.9Y-4.2
X4.9Y-5.35
X4.9Y-6.5
X5.0Y-4.2
X5.0Y-5.35
X5.0Y-6.5
X5.3Y-4.2
X5.3Y-5.35
X5.3Y-6.5
X5.4Y-4.2
X5.4Y-5.35
X5.4Y-6.5
T4
X1.55Y-1.55
X1.55Y-1.65
X1.55Y-1.75
X1.55Y-1.85
X1.55Y-1.95
X1.55Y-2.05
X1.55Y-2.15
X1.55Y-2.25
X1.55Y-2.35
X1.55Y-2.45
X1.55Y-2.55
X1.55Y-2.65
X1.55Y-2.75
X1.55Y-2.85
X1.55Y-2.95
X1.55Y-3.05
X1.55Y-3.15
X1.55Y-3.25
X1.55Y-3.35
X1.55Y-3.45
X1.5551Y-4.011
X1.5551Y-4.111
X1.5551Y-4.211
X1.5551Y-4.311
X1.5551Y-4.411
X1.5551Y-4.511
X1.5551Y-4.611
X1.5551Y-4.711
X1.5551Y-4.811
X1.5551Y-4.911
X1.5551Y-5.011
X1.5551Y-5.111
X1.5551Y-5.211
X1.65Y-1.55
X1.65Y-1.65
X1.65Y-1.75
X1.65Y-1.85
X1.65Y-1.95
X1.65Y-2.05
X1.65Y-2.15
X1.65Y-2.25
X1.65Y-2.35
X1.65Y-2.45
X1.65Y-2.55
X1.65Y-2.65
X1.65Y-2.75
X1.65Y-2.85
X1.65Y-2.95
X1.65Y-3.05
X1.65Y-3.15
X1.65Y-3.25
X1.65Y-3.35
X1.65Y-3.45
X1.6551Y-4.011
X1.6551Y-4.111
X1.6551Y-4.211
X1.6551Y-4.311
X1.6551Y-4.411
X1.6551Y-4.511
X1.6551Y-4.611
X1.6551Y-4.711
X1.6551Y-4.811
X1.6551Y-4.911
X1.6551Y-5.011
X1.6551Y-5.111
X1.6551Y-5.211
X1.9979Y-1.1981
X2.0979Y-1.1981
X2.1979Y-1.1981
X2.2979Y-1.1981
X2.3979Y-1.1981
X2.7479Y-1.1981
X2.8479Y-1.1981
X2.9479Y-1.1981
X3.0479Y-1.1981
X3.1479Y-1.1981
X5.15Y-1.8
X5.15Y-1.9
X5.15Y-2.0
X5.15Y-2.1
X5.15Y-2.2
X5.15Y-2.3
X5.15Y-2.4
X5.15Y-2.5
X5.15Y-2.6
X5.15Y-2.7
X5.15Y-2.8
X5.15Y-2.9
X5.15Y-3.0
X5.15Y-3.1
M30
