%TF.GenerationSoftware,KiCad,Pcbnew,9.0.5*%
%TF.CreationDate,2025-12-13T23:57:35-06:00*%
%TF.ProjectId,Sensor_Board,53656e73-6f72-45f4-926f-6172642e6b69,rev?*%
%TF.SameCoordinates,Original*%
%TF.FileFunction,Copper,L1,Top*%
%TF.FilePolarity,Positive*%
%FSLAX46Y46*%
G04 Gerber Fmt 4.6, Leading zero omitted, Abs format (unit mm)*
G04 Created by KiCad (PCBNEW 9.0.5) date 2025-12-13 23:57:35*
%MOMM*%
%LPD*%
G01*
G04 APERTURE LIST*
G04 Aperture macros list*
%AMRoundRect*
0 Rectangle with rounded corners*
0 $1 Rounding radius*
0 $2 $3 $4 $5 $6 $7 $8 $9 X,Y pos of 4 corners*
0 Add a 4 corners polygon primitive as box body*
4,1,4,$2,$3,$4,$5,$6,$7,$8,$9,$2,$3,0*
0 Add four circle primitives for the rounded corners*
1,1,$1+$1,$2,$3*
1,1,$1+$1,$4,$5*
1,1,$1+$1,$6,$7*
1,1,$1+$1,$8,$9*
0 Add four rect primitives between the rounded corners*
20,1,$1+$1,$2,$3,$4,$5,0*
20,1,$1+$1,$4,$5,$6,$7,0*
20,1,$1+$1,$6,$7,$8,$9,0*
20,1,$1+$1,$8,$9,$2,$3,0*%
G04 Aperture macros list end*
%TA.AperFunction,ComponentPad*%
%ADD10R,1.800000X1.800000*%
%TD*%
%TA.AperFunction,ComponentPad*%
%ADD11C,1.800000*%
%TD*%
%TA.AperFunction,SMDPad,CuDef*%
%ADD12RoundRect,0.250000X-0.475000X0.250000X-0.475000X-0.250000X0.475000X-0.250000X0.475000X0.250000X0*%
%TD*%
%TA.AperFunction,SMDPad,CuDef*%
%ADD13R,5.080000X5.080000*%
%TD*%
%TA.AperFunction,ComponentPad*%
%ADD14R,1.700000X1.700000*%
%TD*%
%TA.AperFunction,ComponentPad*%
%ADD15C,1.700000*%
%TD*%
%TA.AperFunction,SMDPad,CuDef*%
%ADD16RoundRect,0.062500X-0.337500X-0.062500X0.337500X-0.062500X0.337500X0.062500X-0.337500X0.062500X0*%
%TD*%
%TA.AperFunction,SMDPad,CuDef*%
%ADD17RoundRect,0.062500X-0.062500X-0.337500X0.062500X-0.337500X0.062500X0.337500X-0.062500X0.337500X0*%
%TD*%
%TA.AperFunction,HeatsinkPad*%
%ADD18R,2.700000X2.600000*%
%TD*%
%TA.AperFunction,SMDPad,CuDef*%
%ADD19RoundRect,0.250000X0.262500X0.450000X-0.262500X0.450000X-0.262500X-0.450000X0.262500X-0.450000X0*%
%TD*%
%TA.AperFunction,SMDPad,CuDef*%
%ADD20RoundRect,0.250000X0.250000X1.500000X-0.250000X1.500000X-0.250000X-1.500000X0.250000X-1.500000X0*%
%TD*%
%TA.AperFunction,SMDPad,CuDef*%
%ADD21RoundRect,0.250001X0.499999X1.449999X-0.499999X1.449999X-0.499999X-1.449999X0.499999X-1.449999X0*%
%TD*%
%TA.AperFunction,ComponentPad*%
%ADD22C,1.600000*%
%TD*%
%TA.AperFunction,ComponentPad*%
%ADD23RoundRect,0.250000X0.600000X0.600000X-0.600000X0.600000X-0.600000X-0.600000X0.600000X-0.600000X0*%
%TD*%
%TA.AperFunction,SMDPad,CuDef*%
%ADD24RoundRect,0.150000X-0.150000X-0.625000X0.150000X-0.625000X0.150000X0.625000X-0.150000X0.625000X0*%
%TD*%
%TA.AperFunction,SMDPad,CuDef*%
%ADD25RoundRect,0.250000X-0.350000X-0.650000X0.350000X-0.650000X0.350000X0.650000X-0.350000X0.650000X0*%
%TD*%
%TA.AperFunction,ViaPad*%
%ADD26C,0.600000*%
%TD*%
%TA.AperFunction,Conductor*%
%ADD27C,0.200000*%
%TD*%
%TA.AperFunction,Conductor*%
%ADD28C,0.500000*%
%TD*%
G04 APERTURE END LIST*
D10*
%TO.P,D15,1,K*%
%TO.N,Net-(D15-K)*%
X124460000Y-135890000D03*
D11*
%TO.P,D15,2,A*%
%TO.N,+3.3V*%
X127000000Y-135890000D03*
%TD*%
D10*
%TO.P,D13,1,K*%
%TO.N,Net-(D13-K)*%
X104140000Y-135890000D03*
D11*
%TO.P,D13,2,A*%
%TO.N,+3.3V*%
X106680000Y-135890000D03*
%TD*%
D12*
%TO.P,C2,1*%
%TO.N,+3.3V*%
X95000000Y-140550000D03*
%TO.P,C2,2*%
%TO.N,GND*%
X95000000Y-142450000D03*
%TD*%
D13*
%TO.P,Cap_pad9,1,Cin*%
%TO.N,/3xCAP1188/CS2.1*%
X64596007Y-126919492D03*
%TD*%
D10*
%TO.P,D24,1,K*%
%TO.N,Net-(D24-K)*%
X134620000Y-165100000D03*
D11*
%TO.P,D24,2,A*%
%TO.N,+3.3V*%
X137160000Y-165100000D03*
%TD*%
D10*
%TO.P,D3,1,K*%
%TO.N,Net-(D3-K)*%
X83820000Y-106680000D03*
D11*
%TO.P,D3,2,A*%
%TO.N,+3.3V*%
X86360000Y-106680000D03*
%TD*%
D12*
%TO.P,C1,1*%
%TO.N,+3.3V*%
X95500000Y-112000000D03*
%TO.P,C1,2*%
%TO.N,GND*%
X95500000Y-113900000D03*
%TD*%
D14*
%TO.P,J1,1,Pin_1*%
%TO.N,GPIO2 (AB21) (V9)*%
X39500000Y-101880000D03*
D15*
%TO.P,J1,2,Pin_2*%
%TO.N,GPIO4 (AC21) (V8)*%
X42040000Y-101880000D03*
%TO.P,J1,3,Pin_3*%
%TO.N,GPIO6 (AD21) (V7)*%
X39500000Y-104420000D03*
%TO.P,J1,4,Pin_4*%
%TO.N,GPIO5 (Y16) (W8)*%
X42040000Y-104420000D03*
%TO.P,J1,5,Pin_5*%
%TO.N,GPIO8 (AD15) (W6)*%
X39500000Y-106960000D03*
%TO.P,J1,6,Pin_6*%
%TO.N,GPIO7 (AE16) (W7)*%
X42040000Y-106960000D03*
%TO.P,J1,7,Pin_7*%
%TO.N,GPIO10 (AC19) (W5)*%
X39500000Y-109500000D03*
%TO.P,J1,8,Pin_8*%
%TO.N,GPIO9 (AE15) (V5)*%
X42040000Y-109500000D03*
%TO.P,J1,9,Pin_9*%
%TO.N,GPIO12 (AD19) (AA14)*%
X39500000Y-112040000D03*
%TO.P,J1,10,Pin_10*%
%TO.N,GPIO11 (AF16) (AA15)*%
X42040000Y-112040000D03*
%TO.P,J1,11,Pin_11*%
%TO.N,GPIO14 (AF24) (W12)*%
X39500000Y-114580000D03*
%TO.P,J1,12,Pin_12*%
%TO.N,GPIO13 (AF15) (W13)*%
X42040000Y-114580000D03*
%TO.P,J1,13,Pin_13*%
%TO.N,GPIO16 (AF25) (AB12)*%
X39500000Y-117120000D03*
%TO.P,J1,14,Pin_14*%
%TO.N,GPIO15 (AE21) (AB13)*%
X42040000Y-117120000D03*
%TO.P,J1,15,Pin_15*%
%TO.N,GPIO18 (AE22) (AB11)*%
X39500000Y-119660000D03*
%TO.P,J1,16,Pin_16*%
%TO.N,GPIO17 (AC22) (Y11)*%
X42040000Y-119660000D03*
%TO.P,J1,17,Pin_17*%
%TO.N,GPIO20 (AF22) (AB10)*%
X39500000Y-122200000D03*
%TO.P,J1,18,Pin_18*%
%TO.N,GPIO19 (AF21) (W11)*%
X42040000Y-122200000D03*
%TO.P,J1,19,Pin_19*%
%TO.N,GPIO26 (AG22) (AA7)*%
X39500000Y-124740000D03*
%TO.P,J1,20,Pin_20*%
%TO.N,GPIO21 (AD22) (AA10)*%
X42040000Y-124740000D03*
%TO.P,J1,21,Pin_21*%
%TO.N,GPIO28 (AH22) (AA6)*%
X39500000Y-127280000D03*
%TO.P,J1,22,Pin_22*%
%TO.N,GND*%
X42040000Y-127280000D03*
%TO.P,J1,23,Pin_23*%
X39500000Y-129820000D03*
%TO.P,J1,24,Pin_24*%
%TO.N,+5V*%
X42040000Y-129820000D03*
%TO.P,J1,25,Pin_25*%
%TO.N,GND*%
X39500000Y-132360000D03*
%TO.P,J1,26,Pin_26*%
%TO.N,+3.3V*%
X42040000Y-132360000D03*
%TD*%
D10*
%TO.P,D8,1,K*%
%TO.N,Net-(D8-K)*%
X134620000Y-106680000D03*
D11*
%TO.P,D8,2,A*%
%TO.N,+3.3V*%
X137160000Y-106680000D03*
%TD*%
D16*
%TO.P,U1,1,~{SPI_CS}#*%
%TO.N,GND*%
X98331699Y-113040371D03*
%TO.P,U1,2,WAKE/SPI_MOSI*%
%TO.N,Net-(U1-WAKE{slash}SPI_MOSI)*%
X98331699Y-113540371D03*
%TO.P,U1,3,SMDATA/SPI_MSIO/SPI_MISO*%
%TO.N,GPIO1 (AC15) (W10)*%
X98331699Y-114040371D03*
%TO.P,U1,4,SMCLK/BC_CLK/SPI_CLK*%
%TO.N,GPIO0 (AB22) (V10)*%
X98331699Y-114540371D03*
%TO.P,U1,5,LED1*%
%TO.N,/3xCAP1188/LED1.1*%
X98331699Y-115040371D03*
%TO.P,U1,6,LED2*%
%TO.N,/3xCAP1188/LED1.2*%
X98331699Y-115540371D03*
D17*
%TO.P,U1,7,LED3*%
%TO.N,/3xCAP1188/LED1.3*%
X99056699Y-116265371D03*
%TO.P,U1,8,LED4*%
%TO.N,/3xCAP1188/LED1.4*%
X99556699Y-116265371D03*
%TO.P,U1,9,LED5*%
%TO.N,/3xCAP1188/LED1.5*%
X100056699Y-116265371D03*
%TO.P,U1,10,LED6*%
%TO.N,/3xCAP1188/LED1.6*%
X100556699Y-116265371D03*
%TO.P,U1,11,LED7*%
%TO.N,/3xCAP1188/LED1.7*%
X101056699Y-116265371D03*
%TO.P,U1,12,LED8*%
%TO.N,/3xCAP1188/LED1.8*%
X101556699Y-116265371D03*
D16*
%TO.P,U1,13,ALERT#*%
%TO.N,GPIO3 (Y17) (W9)*%
X102281699Y-115540371D03*
%TO.P,U1,14,ADDR_COMM*%
%TO.N,+3.3V*%
X102281699Y-115040371D03*
%TO.P,U1,15,CS8*%
%TO.N,/3xCAP1188/CS1.8*%
X102281699Y-114540371D03*
%TO.P,U1,16,CS7*%
%TO.N,/3xCAP1188/CS1.7*%
X102281699Y-114040371D03*
%TO.P,U1,17,CS6*%
%TO.N,/3xCAP1188/CS1.6*%
X102281699Y-113540371D03*
%TO.P,U1,18,CS5*%
%TO.N,/3xCAP1188/CS1.5*%
X102281699Y-113040371D03*
D17*
%TO.P,U1,19,CS4*%
%TO.N,/3xCAP1188/CS1.4*%
X101556699Y-112315371D03*
%TO.P,U1,20,CS3*%
%TO.N,/3xCAP1188/CS1.3*%
X101056699Y-112315371D03*
%TO.P,U1,21,CS2*%
%TO.N,/3xCAP1188/CS1.2*%
X100556699Y-112315371D03*
%TO.P,U1,22,CS1*%
%TO.N,/3xCAP1188/CS1.1*%
X100056699Y-112315371D03*
%TO.P,U1,23,VDD*%
%TO.N,+3.3V*%
X99556699Y-112315371D03*
%TO.P,U1,24,RESET*%
%TO.N,GND*%
X99056699Y-112315371D03*
D18*
%TO.P,U1,25,GND*%
X100306699Y-114290371D03*
%TD*%
D19*
%TO.P,R12,1*%
%TO.N,Net-(D18-K)*%
X70762500Y-165100000D03*
%TO.P,R12,2*%
%TO.N,/3xCAP1188/LED3.2*%
X68937500Y-165100000D03*
%TD*%
%TO.P,R23,1*%
%TO.N,Net-(D7-K)*%
X121562500Y-106680000D03*
%TO.P,R23,2*%
%TO.N,/3xCAP1188/LED1.7*%
X119737500Y-106680000D03*
%TD*%
%TO.P,R24,1*%
%TO.N,Net-(D6-K)*%
X111402500Y-106680000D03*
%TO.P,R24,2*%
%TO.N,/3xCAP1188/LED1.6*%
X109577500Y-106680000D03*
%TD*%
D10*
%TO.P,D11,1,K*%
%TO.N,Net-(D11-K)*%
X83820000Y-135890000D03*
D11*
%TO.P,D11,2,A*%
%TO.N,+3.3V*%
X86360000Y-135890000D03*
%TD*%
D19*
%TO.P,R7,1*%
%TO.N,Net-(D23-K)*%
X121562500Y-165100000D03*
%TO.P,R7,2*%
%TO.N,/3xCAP1188/LED3.7*%
X119737500Y-165100000D03*
%TD*%
D10*
%TO.P,D16,1,K*%
%TO.N,Net-(D16-K)*%
X134620000Y-135890000D03*
D11*
%TO.P,D16,2,A*%
%TO.N,+3.3V*%
X137160000Y-135890000D03*
%TD*%
D20*
%TO.P,STEMMA_2,1,GND*%
%TO.N,GND*%
X111000000Y-35850000D03*
%TO.P,STEMMA_2,2,VCC*%
%TO.N,+3.3V*%
X109000000Y-35850000D03*
%TO.P,STEMMA_2,3,SDA*%
%TO.N,GPIO31 (AG23) (Y4)*%
X107000000Y-35850000D03*
%TO.P,STEMMA_2,4,SCL*%
%TO.N,GPIO30 (AE20) (AA5)*%
X105000000Y-35850000D03*
D21*
%TO.P,STEMMA_2,MP*%
%TO.N,N/C*%
X113350000Y-30100000D03*
X102650000Y-30100000D03*
%TD*%
D13*
%TO.P,Cap_pad20,1,Cin*%
%TO.N,/3xCAP1188/CS3.4*%
X95076007Y-156095790D03*
%TD*%
D14*
%TO.P,BREAKOUT_GARDEN_1,1,GND*%
%TO.N,GND*%
X50746260Y-30432550D03*
D15*
%TO.P,BREAKOUT_GARDEN_1,2,INT*%
%TO.N,GPIO32 (AF20) (AB3)*%
X53286260Y-30432550D03*
%TO.P,BREAKOUT_GARDEN_1,3,SCL*%
%TO.N,GPIO34 (AH23) (AB2)*%
X55826260Y-30432550D03*
%TO.P,BREAKOUT_GARDEN_1,4,SDA*%
%TO.N,GPIO35 (AG26) (AA2)*%
X58366260Y-30432550D03*
%TO.P,BREAKOUT_GARDEN_1,5,VCC*%
%TO.N,+3.3V*%
X60906260Y-30432550D03*
%TD*%
D22*
%TO.P,R33,1*%
%TO.N,Net-(U3-ADDR_COMM)*%
X88502840Y-176485623D03*
%TO.P,R33,2*%
%TO.N,GND*%
X78342840Y-176485623D03*
%TD*%
D23*
%TO.P,J2,1,Pin_1*%
%TO.N,GPIO0 (AB22) (V10)*%
X41910000Y-87630000D03*
D15*
%TO.P,J2,2,Pin_2*%
%TO.N,GPIO1 (AC15) (W10)*%
X39370000Y-87630000D03*
%TO.P,J2,3,Pin_3*%
%TO.N,GPIO2 (AB21) (V9)*%
X41910000Y-85090000D03*
%TO.P,J2,4,Pin_4*%
%TO.N,GPIO3 (Y17) (W9)*%
X39370000Y-85090000D03*
%TO.P,J2,5,Pin_5*%
%TO.N,GPIO4 (AC21) (V8)*%
X41910000Y-82550000D03*
%TO.P,J2,6,Pin_6*%
%TO.N,GPIO5 (Y16) (W8)*%
X39370000Y-82550000D03*
%TO.P,J2,7,Pin_7*%
%TO.N,GPIO6 (AD21) (V7)*%
X41910000Y-80010000D03*
%TO.P,J2,8,Pin_8*%
%TO.N,GPIO7 (AE16) (W7)*%
X39370000Y-80010000D03*
%TO.P,J2,9,Pin_9*%
%TO.N,GPIO8 (AD15) (W6)*%
X41910000Y-77470000D03*
%TO.P,J2,10,Pin_10*%
%TO.N,GPIO9 (AE15) (V5)*%
X39370000Y-77470000D03*
%TO.P,J2,11,Pin_11*%
%TO.N,+5V*%
X41910000Y-74930000D03*
%TO.P,J2,12,Pin_12*%
%TO.N,GND*%
X39370000Y-74930000D03*
%TO.P,J2,13,Pin_13*%
%TO.N,GPIO10 (AC19) (W5)*%
X41910000Y-72390000D03*
%TO.P,J2,14,Pin_14*%
%TO.N,GPIO11 (AF16) (AA15)*%
X39370000Y-72390000D03*
%TO.P,J2,15,Pin_15*%
%TO.N,GPIO12 (AD19) (AA14)*%
X41910000Y-69850000D03*
%TO.P,J2,16,Pin_16*%
%TO.N,GPIO13 (AF15) (W13)*%
X39370000Y-69850000D03*
%TO.P,J2,17,Pin_17*%
%TO.N,GPIO14 (AF24) (W12)*%
X41910000Y-67310000D03*
%TO.P,J2,18,Pin_18*%
%TO.N,GPIO15 (AE21) (AB13)*%
X39370000Y-67310000D03*
%TO.P,J2,19,Pin_19*%
%TO.N,GPIO16 (AF25) (AB12)*%
X41910000Y-64770000D03*
%TO.P,J2,20,Pin_20*%
%TO.N,GPIO17 (AC22) (Y11)*%
X39370000Y-64770000D03*
%TO.P,J2,21,Pin_21*%
%TO.N,GPIO18 (AE22) (AB11)*%
X41910000Y-62230000D03*
%TO.P,J2,22,Pin_22*%
%TO.N,GPIO19 (AF21) (W11)*%
X39370000Y-62230000D03*
%TO.P,J2,23,Pin_23*%
%TO.N,GPIO20 (AF22) (AB10)*%
X41910000Y-59690000D03*
%TO.P,J2,24,Pin_24*%
%TO.N,GPIO21 (AD22) (AA10)*%
X39370000Y-59690000D03*
%TO.P,J2,25,Pin_25*%
%TO.N,GPIO22 (AG25) (AA9)*%
X41910000Y-57150000D03*
%TO.P,J2,26,Pin_26*%
%TO.N,GPIO23 (AD25) (Y8)*%
X39370000Y-57150000D03*
%TO.P,J2,27,Pin_27*%
%TO.N,GPIO24 (AH25) (AA8)*%
X41910000Y-54610000D03*
%TO.P,J2,28,Pin_28*%
%TO.N,GPIO25 (AE25) (Y7)*%
X39370000Y-54610000D03*
%TO.P,J2,29,Pin_29*%
%TO.N,+3.3V*%
X41910000Y-52070000D03*
%TO.P,J2,30,Pin_30*%
%TO.N,GND*%
X39370000Y-52070000D03*
%TO.P,J2,31,Pin_31*%
%TO.N,GPIO26 (AG22) (AA7)*%
X41910000Y-49530000D03*
%TO.P,J2,32,Pin_32*%
%TO.N,GPIO27 (AE24) (Y6)*%
X39370000Y-49530000D03*
%TO.P,J2,33,Pin_33*%
%TO.N,GPIO28 (AH22) (AA6)*%
X41910000Y-46990000D03*
%TO.P,J2,34,Pin_34*%
%TO.N,GPIO29 (AF26) (Y5)*%
X39370000Y-46990000D03*
%TO.P,J2,35,Pin_35*%
%TO.N,GPIO30 (AE20) (AA5)*%
X41910000Y-44450000D03*
%TO.P,J2,36,Pin_36*%
%TO.N,GPIO31 (AG23) (Y4)*%
X39370000Y-44450000D03*
%TO.P,J2,37,Pin_37*%
%TO.N,GPIO32 (AF20) (AB3)*%
X41910000Y-41910000D03*
%TO.P,J2,38,Pin_38*%
%TO.N,GPIO33 (AH26) (Y3)*%
X39370000Y-41910000D03*
%TO.P,J2,39,Pin_39*%
%TO.N,GPIO34 (AH23) (AB2)*%
X41910000Y-39370000D03*
%TO.P,J2,40,Pin_40*%
%TO.N,GPIO35 (AG26) (AA2)*%
X39370000Y-39370000D03*
%TD*%
D13*
%TO.P,Cap_pad4,1,Cin*%
%TO.N,/3xCAP1188/CS1.4*%
X95143410Y-97719121D03*
%TD*%
D10*
%TO.P,D4,1,K*%
%TO.N,Net-(D4-K)*%
X93980000Y-106680000D03*
D11*
%TO.P,D4,2,A*%
%TO.N,+3.3V*%
X96520000Y-106680000D03*
%TD*%
D13*
%TO.P,Cap_pad5,1,Cin*%
%TO.N,/3xCAP1188/CS1.5*%
X105303410Y-97719121D03*
%TD*%
D20*
%TO.P,STEMMA_1,1,GND*%
%TO.N,GND*%
X95500000Y-35850000D03*
%TO.P,STEMMA_1,2,VCC*%
%TO.N,+3.3V*%
X93500000Y-35850000D03*
%TO.P,STEMMA_1,3,SDA*%
%TO.N,GPIO35 (AG26) (AA2)*%
X91500000Y-35850000D03*
%TO.P,STEMMA_1,4,SCL*%
%TO.N,GPIO34 (AH23) (AB2)*%
X89500000Y-35850000D03*
D21*
%TO.P,STEMMA_1,MP*%
%TO.N,N/C*%
X97850000Y-30100000D03*
X87150000Y-30100000D03*
%TD*%
D19*
%TO.P,R11,1*%
%TO.N,Net-(D19-K)*%
X80922500Y-165100000D03*
%TO.P,R11,2*%
%TO.N,/3xCAP1188/LED3.3*%
X79097500Y-165100000D03*
%TD*%
D22*
%TO.P,R34,1*%
%TO.N,Net-(U1-WAKE{slash}SPI_MOSI)*%
X87630000Y-118110000D03*
%TO.P,R34,2*%
%TO.N,GND*%
X77470000Y-118110000D03*
%TD*%
D19*
%TO.P,R9,1*%
%TO.N,Net-(D21-K)*%
X101242500Y-165100000D03*
%TO.P,R9,2*%
%TO.N,/3xCAP1188/LED3.5*%
X99417500Y-165100000D03*
%TD*%
D10*
%TO.P,D19,1,K*%
%TO.N,Net-(D19-K)*%
X83820000Y-165100000D03*
D11*
%TO.P,D19,2,A*%
%TO.N,+3.3V*%
X86360000Y-165100000D03*
%TD*%
D13*
%TO.P,Cap_pad23,1,Cin*%
%TO.N,/3xCAP1188/CS3.7*%
X125556007Y-156095790D03*
%TD*%
D10*
%TO.P,D14,1,K*%
%TO.N,Net-(D14-K)*%
X114300000Y-135890000D03*
D11*
%TO.P,D14,2,A*%
%TO.N,+3.3V*%
X116840000Y-135890000D03*
%TD*%
D10*
%TO.P,D18,1,K*%
%TO.N,Net-(D18-K)*%
X73660000Y-165100000D03*
D11*
%TO.P,D18,2,A*%
%TO.N,+3.3V*%
X76200000Y-165100000D03*
%TD*%
D19*
%TO.P,R27,1*%
%TO.N,Net-(D3-K)*%
X80922500Y-106680000D03*
%TO.P,R27,2*%
%TO.N,/3xCAP1188/LED1.3*%
X79097500Y-106680000D03*
%TD*%
%TO.P,R26,1*%
%TO.N,Net-(D4-K)*%
X91082500Y-106680000D03*
%TO.P,R26,2*%
%TO.N,/3xCAP1188/LED1.4*%
X89257500Y-106680000D03*
%TD*%
D22*
%TO.P,R5,1*%
%TO.N,+3.3V*%
X116605064Y-52050725D03*
%TO.P,R5,2*%
%TO.N,GPIO30 (AE20) (AA5)*%
X116605064Y-41890725D03*
%TD*%
D24*
%TO.P,Qwiic_2,1,GND*%
%TO.N,GND*%
X129500000Y-31825000D03*
%TO.P,Qwiic_2,2,VCC*%
%TO.N,+3.3V*%
X130500000Y-31825000D03*
%TO.P,Qwiic_2,3,SDA*%
%TO.N,GPIO31 (AG23) (Y4)*%
X131500000Y-31825000D03*
%TO.P,Qwiic_2,4,SCL*%
%TO.N,GPIO30 (AE20) (AA5)*%
X132500000Y-31825000D03*
D25*
%TO.P,Qwiic_2,MP*%
%TO.N,N/C*%
X128200000Y-29300000D03*
X133800000Y-29300000D03*
%TD*%
D22*
%TO.P,R6,1*%
%TO.N,+3.3V*%
X121920000Y-52050725D03*
%TO.P,R6,2*%
%TO.N,GPIO31 (AG23) (Y4)*%
X121920000Y-41890725D03*
%TD*%
%TO.P,R32,1*%
%TO.N,Net-(U2-ADDR_COMM)*%
X87630000Y-147320000D03*
%TO.P,R32,2*%
%TO.N,GND*%
X77470000Y-147320000D03*
%TD*%
%TO.P,R2,1*%
%TO.N,+3.3V*%
X95985669Y-70825935D03*
%TO.P,R2,2*%
%TO.N,GPIO1 (AC15) (W10)*%
X95985669Y-80985935D03*
%TD*%
D10*
%TO.P,D6,1,K*%
%TO.N,Net-(D6-K)*%
X114300000Y-106680000D03*
D11*
%TO.P,D6,2,A*%
%TO.N,+3.3V*%
X116840000Y-106680000D03*
%TD*%
D13*
%TO.P,Cap_pad6,1,Cin*%
%TO.N,/3xCAP1188/CS1.6*%
X115463410Y-97719121D03*
%TD*%
D22*
%TO.P,R31,1*%
%TO.N,+3.3V*%
X51500000Y-81000000D03*
%TO.P,R31,2*%
%TO.N,GPIO3 (Y17) (W9)*%
X51500000Y-91160000D03*
%TD*%
D19*
%TO.P,R20,1*%
%TO.N,Net-(D10-K)*%
X70762500Y-135890000D03*
%TO.P,R20,2*%
%TO.N,/3xCAP1188/LED2.2*%
X68937500Y-135890000D03*
%TD*%
D10*
%TO.P,D7,1,K*%
%TO.N,Net-(D7-K)*%
X124460000Y-106680000D03*
D11*
%TO.P,D7,2,A*%
%TO.N,+3.3V*%
X127000000Y-106680000D03*
%TD*%
D10*
%TO.P,D21,1,K*%
%TO.N,Net-(D21-K)*%
X104140000Y-165100000D03*
D11*
%TO.P,D21,2,A*%
%TO.N,+3.3V*%
X106680000Y-165100000D03*
%TD*%
D22*
%TO.P,R4,1*%
%TO.N,+3.3V*%
X78500000Y-52080000D03*
%TO.P,R4,2*%
%TO.N,GPIO35 (AG26) (AA2)*%
X78500000Y-41920000D03*
%TD*%
%TO.P,R35,1*%
%TO.N,Net-(U2-WAKE{slash}SPI_MOSI)*%
X87630000Y-143510000D03*
%TO.P,R35,2*%
%TO.N,GND*%
X77470000Y-143510000D03*
%TD*%
D19*
%TO.P,R30,1*%
%TO.N,Net-(D24-K)*%
X131722500Y-165100000D03*
%TO.P,R30,2*%
%TO.N,/3xCAP1188/LED3.8*%
X129897500Y-165100000D03*
%TD*%
D22*
%TO.P,R3,1*%
%TO.N,+3.3V*%
X74000000Y-52080000D03*
%TO.P,R3,2*%
%TO.N,GPIO34 (AH23) (AB2)*%
X74000000Y-41920000D03*
%TD*%
%TO.P,R36,1*%
%TO.N,Net-(U3-WAKE{slash}SPI_MOSI)*%
X88502840Y-172675623D03*
%TO.P,R36,2*%
%TO.N,GND*%
X78342840Y-172675623D03*
%TD*%
D10*
%TO.P,D17,1,K*%
%TO.N,Net-(D17-K)*%
X63500000Y-165100000D03*
D11*
%TO.P,D17,2,A*%
%TO.N,+3.3V*%
X66040000Y-165100000D03*
%TD*%
D19*
%TO.P,R28,1*%
%TO.N,Net-(D2-K)*%
X70762500Y-106680000D03*
%TO.P,R28,2*%
%TO.N,/3xCAP1188/LED1.2*%
X68937500Y-106680000D03*
%TD*%
D13*
%TO.P,Cap_pad21,1,Cin*%
%TO.N,/3xCAP1188/CS3.5*%
X105236007Y-156095790D03*
%TD*%
%TO.P,Cap_pad18,1,Cin*%
%TO.N,/3xCAP1188/CS3.2*%
X74756007Y-156095790D03*
%TD*%
D22*
%TO.P,R1,1*%
%TO.N,+3.3V*%
X101500000Y-70840000D03*
%TO.P,R1,2*%
%TO.N,GPIO0 (AB22) (V10)*%
X101500000Y-81000000D03*
%TD*%
D13*
%TO.P,Cap_pad12,1,Cin*%
%TO.N,/3xCAP1188/CS2.4*%
X95076007Y-126919492D03*
%TD*%
D10*
%TO.P,D5,1,K*%
%TO.N,Net-(D5-K)*%
X104140000Y-106680000D03*
D11*
%TO.P,D5,2,A*%
%TO.N,+3.3V*%
X106680000Y-106680000D03*
%TD*%
D19*
%TO.P,R16,1*%
%TO.N,Net-(D14-K)*%
X111402500Y-135890000D03*
%TO.P,R16,2*%
%TO.N,/3xCAP1188/LED2.6*%
X109577500Y-135890000D03*
%TD*%
D14*
%TO.P,U4,1,VCC*%
%TO.N,+5V*%
X130810000Y-78740000D03*
D15*
%TO.P,U4,2,GND*%
%TO.N,GND*%
X130810000Y-76200000D03*
%TO.P,U4,3,LCD_CS*%
%TO.N,GPIO22 (AG25) (AA9)*%
X130810000Y-73660000D03*
%TO.P,U4,4,LCD_RST*%
%TO.N,GPIO23 (AD25) (Y8)*%
X130810000Y-71120000D03*
%TO.P,U4,5,LCD_DC*%
%TO.N,/LCD 240X320/LCD_RS*%
X130810000Y-68580000D03*
%TO.P,U4,6,SPI_MOSI*%
%TO.N,GPIO24 (AH25) (AA8)*%
X130810000Y-66040000D03*
%TO.P,U4,7,SPI_SCK*%
%TO.N,GPIO25 (AE25) (Y7)*%
X130810000Y-63500000D03*
%TO.P,U4,8,LED*%
%TO.N,unconnected-(U4-LED-Pad8)*%
X130810000Y-60960000D03*
%TO.P,U4,9,MISO*%
%TO.N,GPIO27 (AE24) (Y6)*%
X130810000Y-58420000D03*
%TO.P,U4,10,SCL*%
%TO.N,GPIO0 (AB22) (V10)*%
X130810000Y-55880000D03*
%TO.P,U4,11,CTP_RST*%
%TO.N,unconnected-(U4-CTP_RST-Pad11)*%
X130810000Y-53340000D03*
%TO.P,U4,12,SDA*%
%TO.N,GPIO1 (AC15) (W10)*%
X130810000Y-50800000D03*
%TO.P,U4,13,CTP_INT*%
%TO.N,/LCD 240X320/CTP_INT*%
X130810000Y-48260000D03*
%TO.P,U4,14,SD_CS*%
%TO.N,GPIO29 (AF26) (Y5)*%
X130810000Y-45720000D03*
%TD*%
D10*
%TO.P,D23,1,K*%
%TO.N,Net-(D23-K)*%
X124460000Y-165100000D03*
D11*
%TO.P,D23,2,A*%
%TO.N,+3.3V*%
X127000000Y-165100000D03*
%TD*%
D13*
%TO.P,Cap_pad13,1,Cin*%
%TO.N,/3xCAP1188/CS2.5*%
X105236007Y-126919492D03*
%TD*%
D12*
%TO.P,C3,1*%
%TO.N,+3.3V*%
X95080161Y-169968744D03*
%TO.P,C3,2*%
%TO.N,GND*%
X95080161Y-171868744D03*
%TD*%
D16*
%TO.P,U2,1,~{SPI_CS}#*%
%TO.N,GND*%
X98331699Y-142223983D03*
%TO.P,U2,2,WAKE/SPI_MOSI*%
%TO.N,Net-(U2-WAKE{slash}SPI_MOSI)*%
X98331699Y-142723983D03*
%TO.P,U2,3,SMDATA/SPI_MSIO/SPI_MISO*%
%TO.N,GPIO1 (AC15) (W10)*%
X98331699Y-143223983D03*
%TO.P,U2,4,SMCLK/BC_CLK/SPI_CLK*%
%TO.N,GPIO0 (AB22) (V10)*%
X98331699Y-143723983D03*
%TO.P,U2,5,LED1*%
%TO.N,/3xCAP1188/LED2.1*%
X98331699Y-144223983D03*
%TO.P,U2,6,LED2*%
%TO.N,/3xCAP1188/LED2.2*%
X98331699Y-144723983D03*
D17*
%TO.P,U2,7,LED3*%
%TO.N,/3xCAP1188/LED2.3*%
X99056699Y-145448983D03*
%TO.P,U2,8,LED4*%
%TO.N,/3xCAP1188/LED2.4*%
X99556699Y-145448983D03*
%TO.P,U2,9,LED5*%
%TO.N,/3xCAP1188/LED2.5*%
X100056699Y-145448983D03*
%TO.P,U2,10,LED6*%
%TO.N,/3xCAP1188/LED2.6*%
X100556699Y-145448983D03*
%TO.P,U2,11,LED7*%
%TO.N,/3xCAP1188/LED2.7*%
X101056699Y-145448983D03*
%TO.P,U2,12,LED8*%
%TO.N,/3xCAP1188/LED2.8*%
X101556699Y-145448983D03*
D16*
%TO.P,U2,13,ALERT#*%
%TO.N,GPIO3 (Y17) (W9)*%
X102281699Y-144723983D03*
%TO.P,U2,14,ADDR_COMM*%
%TO.N,Net-(U2-ADDR_COMM)*%
X102281699Y-144223983D03*
%TO.P,U2,15,CS8*%
%TO.N,/3xCAP1188/CS2.8*%
X102281699Y-143723983D03*
%TO.P,U2,16,CS7*%
%TO.N,/3xCAP1188/CS2.7*%
X102281699Y-143223983D03*
%TO.P,U2,17,CS6*%
%TO.N,/3xCAP1188/CS2.6*%
X102281699Y-142723983D03*
%TO.P,U2,18,CS5*%
%TO.N,/3xCAP1188/CS2.5*%
X102281699Y-142223983D03*
D17*
%TO.P,U2,19,CS4*%
%TO.N,/3xCAP1188/CS2.4*%
X101556699Y-141498983D03*
%TO.P,U2,20,CS3*%
%TO.N,/3xCAP1188/CS2.3*%
X101056699Y-141498983D03*
%TO.P,U2,21,CS2*%
%TO.N,/3xCAP1188/CS2.2*%
X100556699Y-141498983D03*
%TO.P,U2,22,CS1*%
%TO.N,/3xCAP1188/CS2.1*%
X100056699Y-141498983D03*
%TO.P,U2,23,VDD*%
%TO.N,+3.3V*%
X99556699Y-141498983D03*
%TO.P,U2,24,RESET*%
%TO.N,GND*%
X99056699Y-141498983D03*
D18*
%TO.P,U2,25,GND*%
X100306699Y-143473983D03*
%TD*%
D10*
%TO.P,D10,1,K*%
%TO.N,Net-(D10-K)*%
X73660000Y-135890000D03*
D11*
%TO.P,D10,2,A*%
%TO.N,+3.3V*%
X76200000Y-135890000D03*
%TD*%
D13*
%TO.P,Cap_pad15,1,Cin*%
%TO.N,/3xCAP1188/CS2.7*%
X125556007Y-126919492D03*
%TD*%
D19*
%TO.P,R10,1*%
%TO.N,Net-(D20-K)*%
X91082500Y-165100000D03*
%TO.P,R10,2*%
%TO.N,/3xCAP1188/LED3.4*%
X89257500Y-165100000D03*
%TD*%
D13*
%TO.P,Cap_pad8,1,Cin*%
%TO.N,/3xCAP1188/CS1.8*%
X135783410Y-97719121D03*
%TD*%
D10*
%TO.P,D9,1,K*%
%TO.N,Net-(D9-K)*%
X63500000Y-135890000D03*
D11*
%TO.P,D9,2,A*%
%TO.N,+3.3V*%
X66040000Y-135890000D03*
%TD*%
D19*
%TO.P,R19,1*%
%TO.N,Net-(D11-K)*%
X80922500Y-135890000D03*
%TO.P,R19,2*%
%TO.N,/3xCAP1188/LED2.3*%
X79097500Y-135890000D03*
%TD*%
D13*
%TO.P,Cap_pad2,1,Cin*%
%TO.N,/3xCAP1188/CS1.2*%
X74823410Y-97719121D03*
%TD*%
D14*
%TO.P,BREAKOUT_GARDEN_2,1,GND*%
%TO.N,GND*%
X69796260Y-30432550D03*
D15*
%TO.P,BREAKOUT_GARDEN_2,2,INT*%
%TO.N,GPIO33 (AH26) (Y3)*%
X72336260Y-30432550D03*
%TO.P,BREAKOUT_GARDEN_2,3,SCL*%
%TO.N,GPIO34 (AH23) (AB2)*%
X74876260Y-30432550D03*
%TO.P,BREAKOUT_GARDEN_2,4,SDA*%
%TO.N,GPIO35 (AG26) (AA2)*%
X77416260Y-30432550D03*
%TO.P,BREAKOUT_GARDEN_2,5,VCC*%
%TO.N,+3.3V*%
X79956260Y-30432550D03*
%TD*%
D10*
%TO.P,D22,1,K*%
%TO.N,Net-(D22-K)*%
X114300000Y-165100000D03*
D11*
%TO.P,D22,2,A*%
%TO.N,+3.3V*%
X116840000Y-165100000D03*
%TD*%
D13*
%TO.P,Cap_pad24,1,Cin*%
%TO.N,/3xCAP1188/CS3.8*%
X135716007Y-156095790D03*
%TD*%
%TO.P,Cap_pad11,1,Cin*%
%TO.N,/3xCAP1188/CS2.3*%
X84916007Y-126919492D03*
%TD*%
%TO.P,Cap_pad16,1,Cin*%
%TO.N,/3xCAP1188/CS2.8*%
X135716007Y-126919492D03*
%TD*%
D19*
%TO.P,R8,1*%
%TO.N,Net-(D22-K)*%
X111402500Y-165100000D03*
%TO.P,R8,2*%
%TO.N,/3xCAP1188/LED3.6*%
X109577500Y-165100000D03*
%TD*%
D13*
%TO.P,Cap_pad7,1,Cin*%
%TO.N,/3xCAP1188/CS1.7*%
X125623410Y-97719121D03*
%TD*%
D10*
%TO.P,D1,1,K*%
%TO.N,Net-(D1-K)*%
X63500000Y-106680000D03*
D11*
%TO.P,D1,2,A*%
%TO.N,+3.3V*%
X66040000Y-106680000D03*
%TD*%
D13*
%TO.P,Cap_pad1,1,Cin*%
%TO.N,/3xCAP1188/CS1.1*%
X64663410Y-97719121D03*
%TD*%
D19*
%TO.P,R14,1*%
%TO.N,Net-(D16-K)*%
X131722500Y-135890000D03*
%TO.P,R14,2*%
%TO.N,/3xCAP1188/LED2.8*%
X129897500Y-135890000D03*
%TD*%
D13*
%TO.P,Cap_pad19,1,Cin*%
%TO.N,/3xCAP1188/CS3.3*%
X84916007Y-156095790D03*
%TD*%
D24*
%TO.P,Qwiic_1,1,GND*%
%TO.N,GND*%
X120500000Y-31825000D03*
%TO.P,Qwiic_1,2,VCC*%
%TO.N,+3.3V*%
X121500000Y-31825000D03*
%TO.P,Qwiic_1,3,SDA*%
%TO.N,GPIO31 (AG23) (Y4)*%
X122500000Y-31825000D03*
%TO.P,Qwiic_1,4,SCL*%
%TO.N,GPIO30 (AE20) (AA5)*%
X123500000Y-31825000D03*
D25*
%TO.P,Qwiic_1,MP*%
%TO.N,N/C*%
X119200000Y-29300000D03*
X124800000Y-29300000D03*
%TD*%
D19*
%TO.P,R18,1*%
%TO.N,Net-(D12-K)*%
X91082500Y-135890000D03*
%TO.P,R18,2*%
%TO.N,/3xCAP1188/LED2.4*%
X89257500Y-135890000D03*
%TD*%
%TO.P,R13,1*%
%TO.N,Net-(D17-K)*%
X60602500Y-165100000D03*
%TO.P,R13,2*%
%TO.N,/3xCAP1188/LED3.1*%
X58777500Y-165100000D03*
%TD*%
%TO.P,R29,1*%
%TO.N,Net-(D1-K)*%
X60602500Y-106680000D03*
%TO.P,R29,2*%
%TO.N,/3xCAP1188/LED1.1*%
X58777500Y-106680000D03*
%TD*%
%TO.P,R15,1*%
%TO.N,Net-(D15-K)*%
X121562500Y-135890000D03*
%TO.P,R15,2*%
%TO.N,/3xCAP1188/LED2.7*%
X119737500Y-135890000D03*
%TD*%
D13*
%TO.P,Cap_pad3,1,Cin*%
%TO.N,/3xCAP1188/CS1.3*%
X84983410Y-97719121D03*
%TD*%
D10*
%TO.P,D20,1,K*%
%TO.N,Net-(D20-K)*%
X93980000Y-165100000D03*
D11*
%TO.P,D20,2,A*%
%TO.N,+3.3V*%
X96520000Y-165100000D03*
%TD*%
D13*
%TO.P,Cap_pad14,1,Cin*%
%TO.N,/3xCAP1188/CS2.6*%
X115396007Y-126919492D03*
%TD*%
%TO.P,Cap_pad10,1,Cin*%
%TO.N,/3xCAP1188/CS2.2*%
X74756007Y-126919492D03*
%TD*%
D10*
%TO.P,D12,1,K*%
%TO.N,Net-(D12-K)*%
X93980000Y-135890000D03*
D11*
%TO.P,D12,2,A*%
%TO.N,+3.3V*%
X96520000Y-135890000D03*
%TD*%
D19*
%TO.P,R25,1*%
%TO.N,Net-(D5-K)*%
X101242500Y-106680000D03*
%TO.P,R25,2*%
%TO.N,/3xCAP1188/LED1.5*%
X99417500Y-106680000D03*
%TD*%
%TO.P,R21,1*%
%TO.N,Net-(D9-K)*%
X60602500Y-135890000D03*
%TO.P,R21,2*%
%TO.N,/3xCAP1188/LED2.1*%
X58777500Y-135890000D03*
%TD*%
D10*
%TO.P,D2,1,K*%
%TO.N,Net-(D2-K)*%
X73660000Y-106680000D03*
D11*
%TO.P,D2,2,A*%
%TO.N,+3.3V*%
X76200000Y-106680000D03*
%TD*%
D19*
%TO.P,R22,1*%
%TO.N,Net-(D8-K)*%
X131722500Y-106680000D03*
%TO.P,R22,2*%
%TO.N,/3xCAP1188/LED1.8*%
X129897500Y-106680000D03*
%TD*%
%TO.P,R17,1*%
%TO.N,Net-(D13-K)*%
X101242500Y-135890000D03*
%TO.P,R17,2*%
%TO.N,/3xCAP1188/LED2.5*%
X99417500Y-135890000D03*
%TD*%
D16*
%TO.P,U3,1,~{SPI_CS}#*%
%TO.N,GND*%
X98331699Y-171463825D03*
%TO.P,U3,2,WAKE/SPI_MOSI*%
%TO.N,Net-(U3-WAKE{slash}SPI_MOSI)*%
X98331699Y-171963825D03*
%TO.P,U3,3,SMDATA/SPI_MSIO/SPI_MISO*%
%TO.N,GPIO1 (AC15) (W10)*%
X98331699Y-172463825D03*
%TO.P,U3,4,SMCLK/BC_CLK/SPI_CLK*%
%TO.N,GPIO0 (AB22) (V10)*%
X98331699Y-172963825D03*
%TO.P,U3,5,LED1*%
%TO.N,/3xCAP1188/LED3.1*%
X98331699Y-173463825D03*
%TO.P,U3,6,LED2*%
%TO.N,/3xCAP1188/LED3.2*%
X98331699Y-173963825D03*
D17*
%TO.P,U3,7,LED3*%
%TO.N,/3xCAP1188/LED3.3*%
X99056699Y-174688825D03*
%TO.P,U3,8,LED4*%
%TO.N,/3xCAP1188/LED3.4*%
X99556699Y-174688825D03*
%TO.P,U3,9,LED5*%
%TO.N,/3xCAP1188/LED3.5*%
X100056699Y-174688825D03*
%TO.P,U3,10,LED6*%
%TO.N,/3xCAP1188/LED3.6*%
X100556699Y-174688825D03*
%TO.P,U3,11,LED7*%
%TO.N,/3xCAP1188/LED3.7*%
X101056699Y-174688825D03*
%TO.P,U3,12,LED8*%
%TO.N,/3xCAP1188/LED3.8*%
X101556699Y-174688825D03*
D16*
%TO.P,U3,13,ALERT#*%
%TO.N,GPIO3 (Y17) (W9)*%
X102281699Y-173963825D03*
%TO.P,U3,14,ADDR_COMM*%
%TO.N,Net-(U3-ADDR_COMM)*%
X102281699Y-173463825D03*
%TO.P,U3,15,CS8*%
%TO.N,/3xCAP1188/CS3.8*%
X102281699Y-172963825D03*
%TO.P,U3,16,CS7*%
%TO.N,/3xCAP1188/CS3.7*%
X102281699Y-172463825D03*
%TO.P,U3,17,CS6*%
%TO.N,/3xCAP1188/CS3.6*%
X102281699Y-171963825D03*
%TO.P,U3,18,CS5*%
%TO.N,/3xCAP1188/CS3.5*%
X102281699Y-171463825D03*
D17*
%TO.P,U3,19,CS4*%
%TO.N,/3xCAP1188/CS3.4*%
X101556699Y-170738825D03*
%TO.P,U3,20,CS3*%
%TO.N,/3xCAP1188/CS3.3*%
X101056699Y-170738825D03*
%TO.P,U3,21,CS2*%
%TO.N,/3xCAP1188/CS3.2*%
X100556699Y-170738825D03*
%TO.P,U3,22,CS1*%
%TO.N,/3xCAP1188/CS3.1*%
X100056699Y-170738825D03*
%TO.P,U3,23,VDD*%
%TO.N,+3.3V*%
X99556699Y-170738825D03*
%TO.P,U3,24,RESET*%
%TO.N,GND*%
X99056699Y-170738825D03*
D18*
%TO.P,U3,25,GND*%
X100306699Y-172713825D03*
%TD*%
D13*
%TO.P,Cap_pad17,1,Cin*%
%TO.N,/3xCAP1188/CS3.1*%
X64596007Y-156095790D03*
%TD*%
%TO.P,Cap_pad22,1,Cin*%
%TO.N,/3xCAP1188/CS3.6*%
X115396007Y-156095790D03*
%TD*%
D26*
%TO.N,GPIO3 (Y17) (W9)*%
X103603049Y-174261304D03*
X97509059Y-176509059D03*
X92263827Y-148310482D03*
X103574527Y-115743295D03*
X104210418Y-145307756D03*
X93500000Y-119000000D03*
%TO.N,+3.3V*%
X91896680Y-146478310D03*
X93500000Y-39000000D03*
X109000000Y-39000000D03*
X92928625Y-175726734D03*
X121500000Y-33500000D03*
X104278393Y-115196763D03*
X63000000Y-112000000D03*
X50000000Y-169500000D03*
X48000000Y-140500000D03*
X71500000Y-174000000D03*
X48000000Y-107500000D03*
X130500000Y-33500000D03*
X95000000Y-140500000D03*
X95080161Y-169968744D03*
X57372292Y-145500000D03*
X48000000Y-134500000D03*
X48000000Y-105000000D03*
X95500000Y-112000000D03*
%TO.N,GND*%
X95080161Y-171868744D03*
X59500000Y-34500000D03*
X100306699Y-143473983D03*
X129500000Y-33500000D03*
X62500000Y-34500000D03*
X95500000Y-39000000D03*
X111000000Y-40000000D03*
X100306699Y-172713825D03*
X59500000Y-33500000D03*
X95000000Y-142450000D03*
X100306699Y-114290371D03*
X95500000Y-40000000D03*
X111000000Y-39000000D03*
X62500000Y-33500000D03*
X95500000Y-113900000D03*
X120500000Y-33500000D03*
%TO.N,GPIO35 (AG26) (AA2)*%
X66500000Y-42000000D03*
X63500000Y-36500000D03*
%TO.N,GPIO31 (AG23) (Y4)*%
X121920000Y-45420000D03*
X131500000Y-33500000D03*
%TO.N,GPIO1 (AC15) (W10)*%
X55880000Y-143510000D03*
X73660000Y-140970000D03*
X55880000Y-115570000D03*
X55880000Y-86241000D03*
X55880000Y-163830000D03*
X64770000Y-114300000D03*
X55880000Y-148590000D03*
X58420000Y-168910000D03*
X55880000Y-132080000D03*
X64770000Y-168910000D03*
%TO.N,GPIO0 (AB22) (V10)*%
X54610000Y-114300000D03*
X68580000Y-170180000D03*
X53340000Y-132080000D03*
X76200000Y-140970000D03*
X53340000Y-163830000D03*
X57150000Y-170180000D03*
X53340000Y-146951375D03*
X54610000Y-89000000D03*
X68580000Y-115570000D03*
%TO.N,GPIO33 (AH26) (Y3)*%
X72500000Y-38500000D03*
%TO.N,Net-(U3-ADDR_COMM)*%
X105000000Y-174000000D03*
%TO.N,Net-(U1-WAKE{slash}SPI_MOSI)*%
X92096909Y-118136639D03*
X97000000Y-113547278D03*
%TO.N,Net-(U2-WAKE{slash}SPI_MOSI)*%
X96860511Y-142328793D03*
X94500000Y-145500000D03*
%TO.N,Net-(U3-WAKE{slash}SPI_MOSI)*%
X97092221Y-171295504D03*
X96080642Y-174624211D03*
%TO.N,Net-(U2-ADDR_COMM)*%
X93000000Y-147500000D03*
X103900630Y-144400630D03*
%TO.N,/3xCAP1188/LED1.3*%
X81500000Y-120000000D03*
X79097500Y-109000000D03*
%TO.N,/3xCAP1188/LED1.4*%
X91500000Y-121500000D03*
X89258933Y-109400000D03*
%TO.N,/3xCAP1188/LED1.2*%
X71120000Y-116840000D03*
X69000000Y-109500000D03*
%TO.N,/3xCAP1188/LED1.7*%
X119781932Y-109733146D03*
X118500000Y-117500000D03*
%TO.N,/3xCAP1188/LED1.5*%
X101500000Y-119000000D03*
X99500000Y-108500000D03*
%TO.N,/3xCAP1188/LED1.6*%
X109500000Y-110000000D03*
X109000000Y-118500000D03*
%TO.N,/3xCAP1188/LED1.8*%
X129897500Y-109203500D03*
X129000000Y-116500000D03*
%TO.N,/3xCAP1188/LED2.5*%
X102073257Y-138512269D03*
X102000000Y-149500000D03*
%TO.N,/3xCAP1188/LED2.6*%
X107000000Y-148000000D03*
X109500000Y-138000000D03*
%TO.N,/3xCAP1188/LED2.4*%
X93500000Y-150000000D03*
X89257500Y-137500000D03*
%TO.N,/3xCAP1188/LED2.7*%
X115500000Y-147000000D03*
X120000000Y-138000000D03*
%TO.N,/3xCAP1188/LED2.2*%
X71120000Y-142240000D03*
X69000000Y-138818706D03*
%TO.N,/3xCAP1188/LED2.8*%
X126500000Y-146000000D03*
X130000000Y-138000000D03*
%TO.N,/3xCAP1188/LED2.3*%
X79097500Y-137597500D03*
X81000000Y-150000000D03*
%TO.N,/3xCAP1188/LED3.5*%
X104500000Y-178500000D03*
X101500000Y-167000000D03*
%TO.N,/3xCAP1188/LED3.6*%
X107500000Y-177500000D03*
X109500000Y-167000000D03*
%TO.N,/3xCAP1188/LED3.8*%
X129897500Y-167000000D03*
X125500000Y-175500000D03*
%TO.N,/3xCAP1188/LED3.7*%
X119737500Y-167000000D03*
X114000000Y-176500000D03*
%TO.N,/3xCAP1188/LED3.3*%
X79000000Y-167000000D03*
X81500000Y-178500000D03*
%TO.N,/3xCAP1188/LED3.2*%
X72390000Y-171450000D03*
X69000000Y-167000000D03*
%TO.N,/3xCAP1188/LED3.4*%
X93500000Y-178500000D03*
X89257500Y-167000000D03*
%TD*%
D27*
%TO.N,GPIO3 (Y17) (W9)*%
X93101000Y-119399000D02*
X56599000Y-119399000D01*
X54399000Y-149399000D02*
X91175309Y-149399000D01*
X60086623Y-177586623D02*
X51500000Y-169000000D01*
X91175309Y-149399000D02*
X92263827Y-148310482D01*
X51500000Y-114300000D02*
X51500000Y-109500000D01*
X102281699Y-115540371D02*
X103371603Y-115540371D01*
X103305570Y-173963825D02*
X103603049Y-174261304D01*
X102865472Y-145307756D02*
X104210418Y-145307756D01*
X102281699Y-144723983D02*
X102865472Y-145307756D01*
X51500000Y-105067100D02*
X51500000Y-109500000D01*
X51500000Y-169000000D02*
X51500000Y-146500000D01*
X103371603Y-115540371D02*
X103574527Y-115743295D01*
X56599000Y-119399000D02*
X51500000Y-114300000D01*
X93500000Y-119000000D02*
X93101000Y-119399000D01*
X97509059Y-176509059D02*
X90036454Y-176509059D01*
X51500000Y-146500000D02*
X51500000Y-114300000D01*
X102281699Y-173963825D02*
X103305570Y-173963825D01*
X51500000Y-146500000D02*
X54399000Y-149399000D01*
X51500000Y-91160000D02*
X51500000Y-105067100D01*
X88958890Y-177586623D02*
X60086623Y-177586623D01*
X90036454Y-176509059D02*
X88958890Y-177586623D01*
D28*
%TO.N,+3.3V*%
X90774719Y-175726734D02*
X92928625Y-175726734D01*
D27*
X95000000Y-140500000D02*
X98973514Y-140500000D01*
X104122001Y-115040371D02*
X104278393Y-115196763D01*
X99556699Y-141083185D02*
X99556699Y-141498983D01*
X97599000Y-111401000D02*
X97000000Y-112000000D01*
X99401000Y-111401000D02*
X97599000Y-111401000D01*
D28*
X48000000Y-107500000D02*
X48000000Y-140500000D01*
X121500000Y-33500000D02*
X121500000Y-31825000D01*
X74000000Y-52080000D02*
X78500000Y-52080000D01*
D27*
X99556699Y-170738825D02*
X99556699Y-170323027D01*
D28*
X63000000Y-112000000D02*
X95500000Y-112000000D01*
X109000000Y-39000000D02*
X109000000Y-35850000D01*
X72500000Y-145500000D02*
X57372292Y-145500000D01*
D27*
X99556699Y-170323027D02*
X99202416Y-169968744D01*
D28*
X71500000Y-174000000D02*
X89047985Y-174000000D01*
D27*
X99202416Y-169968744D02*
X95080161Y-169968744D01*
D28*
X48000000Y-140500000D02*
X48000000Y-167500000D01*
X91469370Y-146051000D02*
X91896680Y-146478310D01*
X73051000Y-146051000D02*
X91469370Y-146051000D01*
D27*
X98973514Y-140500000D02*
X99556699Y-141083185D01*
D28*
X130500000Y-33500000D02*
X130500000Y-31825000D01*
D27*
X97000000Y-112000000D02*
X95500000Y-112000000D01*
D28*
X48000000Y-84500000D02*
X48000000Y-107500000D01*
D27*
X99556699Y-112315371D02*
X99556699Y-111556699D01*
X102281699Y-115040371D02*
X104122001Y-115040371D01*
D28*
X93500000Y-39000000D02*
X93500000Y-35850000D01*
X89047985Y-174000000D02*
X90774719Y-175726734D01*
X51500000Y-81000000D02*
X48000000Y-84500000D01*
D27*
X99556699Y-111556699D02*
X99401000Y-111401000D01*
D28*
X48000000Y-167500000D02*
X50000000Y-169500000D01*
X72500000Y-145500000D02*
X73051000Y-146051000D01*
D27*
%TO.N,GPIO5 (Y16) (W8)*%
X38587000Y-103269000D02*
X38219000Y-102901000D01*
X38219000Y-102901000D02*
X38219000Y-83701000D01*
X42040000Y-104420000D02*
X40889000Y-103269000D01*
X38219000Y-83701000D02*
X39370000Y-82550000D01*
X40889000Y-103269000D02*
X38587000Y-103269000D01*
%TO.N,GPIO4 (AC21) (V8)*%
X43061000Y-100859000D02*
X43061000Y-83701000D01*
X43061000Y-83701000D02*
X41910000Y-82550000D01*
X42040000Y-101880000D02*
X43061000Y-100859000D01*
%TO.N,GND*%
X99006699Y-171463825D02*
X99206699Y-171663825D01*
D28*
X95500000Y-35850000D02*
X95500000Y-39000000D01*
D27*
X99056699Y-142273983D02*
X99206699Y-142423983D01*
X99056699Y-170738825D02*
X99056699Y-171513825D01*
X99056699Y-113090371D02*
X99206699Y-113240371D01*
X98331699Y-171463825D02*
X99006699Y-171463825D01*
X99056699Y-141498983D02*
X99056699Y-142273983D01*
X99056699Y-112315371D02*
X99056699Y-113090371D01*
X98331699Y-142223983D02*
X99006699Y-142223983D01*
D28*
X95500000Y-39000000D02*
X95500000Y-40000000D01*
D27*
X99006699Y-113040371D02*
X99206699Y-113240371D01*
D28*
X111000000Y-35850000D02*
X111000000Y-39000000D01*
D27*
X99056699Y-171513825D02*
X99206699Y-171663825D01*
D28*
X120500000Y-31825000D02*
X120500000Y-33500000D01*
X111000000Y-39000000D02*
X111000000Y-40000000D01*
X129500000Y-31825000D02*
X129500000Y-33500000D01*
D27*
X98331699Y-113040371D02*
X99006699Y-113040371D01*
X99006699Y-142223983D02*
X99206699Y-142423983D01*
%TO.N,GPIO34 (AH23) (AB2)*%
X74300057Y-35850000D02*
X89500000Y-35850000D01*
X71899000Y-38251057D02*
X74300057Y-35850000D01*
X65938810Y-39370000D02*
X74876260Y-30432550D01*
X68420000Y-41920000D02*
X74000000Y-41920000D01*
X74000000Y-41920000D02*
X71899000Y-39819000D01*
X71899000Y-39819000D02*
X71899000Y-38251057D01*
X65870000Y-39370000D02*
X68420000Y-41920000D01*
X46888810Y-39370000D02*
X65870000Y-39370000D01*
X41910000Y-39370000D02*
X46888810Y-39370000D01*
X65870000Y-39370000D02*
X65938810Y-39370000D01*
X46888810Y-39370000D02*
X55826260Y-30432550D01*
%TO.N,GPIO32 (AF20) (AB3)*%
X49218810Y-34500000D02*
X53286260Y-30432550D01*
X38219000Y-38893240D02*
X42612240Y-34500000D01*
X39846760Y-40521000D02*
X38893240Y-40521000D01*
X41910000Y-41910000D02*
X41235760Y-41910000D01*
X38219000Y-39846760D02*
X38219000Y-38893240D01*
X41235760Y-41910000D02*
X39846760Y-40521000D01*
X42612240Y-34500000D02*
X49218810Y-34500000D01*
X38893240Y-40521000D02*
X38219000Y-39846760D01*
%TO.N,GPIO24 (AH25) (AA8)*%
X120270000Y-55500000D02*
X130810000Y-66040000D01*
X41910000Y-54610000D02*
X84610000Y-54610000D01*
X84610000Y-54610000D02*
X85500000Y-55500000D01*
X85500000Y-55500000D02*
X120270000Y-55500000D01*
%TO.N,GPIO28 (AH22) (AA6)*%
X39500000Y-127280000D02*
X31001000Y-118781000D01*
X39846760Y-45601000D02*
X41235760Y-46990000D01*
X31001000Y-118781000D02*
X31001000Y-53493240D01*
X31001000Y-53493240D02*
X38893240Y-45601000D01*
X38893240Y-45601000D02*
X39846760Y-45601000D01*
X41235760Y-46990000D02*
X41910000Y-46990000D01*
%TO.N,GPIO9 (AE15) (V5)*%
X36615000Y-105702760D02*
X36615000Y-80225000D01*
X40651000Y-108111000D02*
X39023240Y-108111000D01*
X39023240Y-108111000D02*
X36615000Y-105702760D01*
X36615000Y-80225000D02*
X39370000Y-77470000D01*
X42040000Y-109500000D02*
X40651000Y-108111000D01*
%TO.N,GPIO16 (AF25) (AB12)*%
X40680000Y-66000000D02*
X41910000Y-64770000D01*
X33808000Y-71244240D02*
X39052240Y-66000000D01*
X39052240Y-66000000D02*
X40680000Y-66000000D01*
X33808000Y-111428000D02*
X33808000Y-71244240D01*
X39500000Y-117120000D02*
X33808000Y-111428000D01*
%TO.N,GPIO18 (AE22) (AB11)*%
X33006000Y-113166000D02*
X33006000Y-69506240D01*
X39500000Y-119660000D02*
X33006000Y-113166000D01*
X40640000Y-63500000D02*
X41910000Y-62230000D01*
X39012240Y-63500000D02*
X40640000Y-63500000D01*
X33006000Y-69506240D02*
X39012240Y-63500000D01*
D28*
%TO.N,+5V*%
X45720000Y-78740000D02*
X45720000Y-126140000D01*
X45720000Y-126140000D02*
X42040000Y-129820000D01*
X45720000Y-78740000D02*
X130810000Y-78740000D01*
X41910000Y-74930000D02*
X45490000Y-78510000D01*
X45490000Y-78510000D02*
X45720000Y-78740000D01*
D27*
%TO.N,GPIO35 (AG26) (AA2)*%
X46000000Y-42000000D02*
X66500000Y-42000000D01*
X63500000Y-36500000D02*
X59500000Y-36500000D01*
X39370000Y-39370000D02*
X40521000Y-40521000D01*
X44521000Y-40521000D02*
X46000000Y-42000000D01*
X58366260Y-35366260D02*
X58366260Y-30432550D01*
X91500000Y-37500000D02*
X91500000Y-35850000D01*
X78500000Y-41920000D02*
X87080000Y-41920000D01*
X40521000Y-40521000D02*
X44521000Y-40521000D01*
X59500000Y-36500000D02*
X58366260Y-35366260D01*
X87080000Y-41920000D02*
X91500000Y-37500000D01*
%TO.N,GPIO12 (AD19) (AA14)*%
X40521000Y-71239000D02*
X41910000Y-69850000D01*
X39500000Y-112040000D02*
X35412000Y-107952000D01*
X35412000Y-107952000D02*
X35412000Y-74720240D01*
X35412000Y-74720240D02*
X38893240Y-71239000D01*
X38893240Y-71239000D02*
X40521000Y-71239000D01*
%TO.N,GPIO7 (AE16) (W7)*%
X37417000Y-103964760D02*
X37417000Y-81963000D01*
X42040000Y-106960000D02*
X40651000Y-105571000D01*
X39023240Y-105571000D02*
X37417000Y-103964760D01*
X40651000Y-105571000D02*
X39023240Y-105571000D01*
X37417000Y-81963000D02*
X39370000Y-80010000D01*
%TO.N,GPIO23 (AD25) (Y8)*%
X82500000Y-67500000D02*
X127190000Y-67500000D01*
X127190000Y-67500000D02*
X130810000Y-71120000D01*
X40521000Y-55999000D02*
X70999000Y-55999000D01*
X70999000Y-55999000D02*
X82500000Y-67500000D01*
X39370000Y-57150000D02*
X40521000Y-55999000D01*
%TO.N,GPIO10 (AC19) (W5)*%
X36214000Y-76458240D02*
X38893240Y-73779000D01*
X36214000Y-106214000D02*
X36214000Y-76458240D01*
X39500000Y-109500000D02*
X36214000Y-106214000D01*
X40521000Y-73779000D02*
X41910000Y-72390000D01*
X38893240Y-73779000D02*
X40521000Y-73779000D01*
%TO.N,GPIO26 (AG22) (AA7)*%
X39846760Y-48379000D02*
X40997760Y-49530000D01*
X40997760Y-49530000D02*
X41910000Y-49530000D01*
X31402000Y-116642000D02*
X31402000Y-55870240D01*
X38893240Y-48379000D02*
X39846760Y-48379000D01*
X31402000Y-55870240D02*
X38893240Y-48379000D01*
X39500000Y-124740000D02*
X31402000Y-116642000D01*
%TO.N,GPIO20 (AF22) (AB10)*%
X39500000Y-122200000D02*
X32204000Y-114904000D01*
X40521000Y-61079000D02*
X41910000Y-59690000D01*
X32204000Y-114904000D02*
X32204000Y-67768240D01*
X32204000Y-67768240D02*
X38893240Y-61079000D01*
X38893240Y-61079000D02*
X40521000Y-61079000D01*
%TO.N,GPIO27 (AE24) (Y6)*%
X123309000Y-50919000D02*
X130810000Y-58420000D01*
X39370000Y-49530000D02*
X40759000Y-50919000D01*
X40759000Y-50919000D02*
X123309000Y-50919000D01*
%TO.N,GPIO31 (AG23) (Y4)*%
X121920000Y-45420000D02*
X121920000Y-46080000D01*
X40521000Y-45601000D02*
X42601000Y-45601000D01*
X122500000Y-41310725D02*
X122500000Y-31825000D01*
X121920000Y-41890725D02*
X122500000Y-41310725D01*
X109601000Y-40601000D02*
X107000000Y-38000000D01*
X107000000Y-38000000D02*
X107000000Y-35850000D01*
X121920000Y-46080000D02*
X121000000Y-47000000D01*
X121920000Y-41890725D02*
X120630275Y-40601000D01*
X44000000Y-47000000D02*
X121000000Y-47000000D01*
X120630275Y-40601000D02*
X109601000Y-40601000D01*
X42601000Y-45601000D02*
X44000000Y-47000000D01*
X131500000Y-33500000D02*
X131500000Y-31825000D01*
X39370000Y-44450000D02*
X40521000Y-45601000D01*
%TO.N,GPIO1 (AC15) (W10)*%
X55880000Y-114300000D02*
X55880000Y-115570000D01*
X92710000Y-114300000D02*
X64770000Y-114300000D01*
X55880000Y-110490000D02*
X55880000Y-114300000D01*
X96489700Y-115169000D02*
X93579000Y-115169000D01*
X91934746Y-169404746D02*
X93597744Y-171067744D01*
X55880000Y-166370000D02*
X58420000Y-168910000D01*
X55880000Y-86241000D02*
X55880000Y-110490000D01*
X95790321Y-171067744D02*
X97186402Y-172463825D01*
X98331699Y-143223983D02*
X98304682Y-143251000D01*
X93721000Y-143251000D02*
X91440000Y-140970000D01*
X98331699Y-114040371D02*
X97618329Y-114040371D01*
X64770000Y-168910000D02*
X65264746Y-169404746D01*
X90371000Y-139901000D02*
X77470000Y-139901000D01*
X98304682Y-143251000D02*
X93721000Y-143251000D01*
X65264746Y-169404746D02*
X91934746Y-169404746D01*
X97186402Y-172463825D02*
X98331699Y-172463825D01*
X97618329Y-114040371D02*
X96489700Y-115169000D01*
X55880000Y-132080000D02*
X55880000Y-148590000D01*
X93597744Y-171067744D02*
X95790321Y-171067744D01*
X74729000Y-139901000D02*
X73660000Y-140970000D01*
X77470000Y-139901000D02*
X74729000Y-139901000D01*
X91440000Y-140970000D02*
X90371000Y-139901000D01*
X55880000Y-163830000D02*
X55880000Y-166370000D01*
X93579000Y-115169000D02*
X92710000Y-114300000D01*
%TO.N,GPIO2 (AB21) (V9)*%
X40521000Y-100859000D02*
X40521000Y-86479000D01*
X39500000Y-101880000D02*
X40521000Y-100859000D01*
X40521000Y-86479000D02*
X41910000Y-85090000D01*
%TO.N,GPIO11 (AF16) (AA15)*%
X40651000Y-110651000D02*
X39023240Y-110651000D01*
X39023240Y-110651000D02*
X35813000Y-107440760D01*
X35813000Y-107440760D02*
X35813000Y-75947000D01*
X35813000Y-75947000D02*
X39370000Y-72390000D01*
X42040000Y-112040000D02*
X40651000Y-110651000D01*
%TO.N,GPIO25 (AE25) (Y7)*%
X40521000Y-53459000D02*
X50459000Y-53459000D01*
X50500000Y-53500000D02*
X120810000Y-53500000D01*
X39370000Y-54610000D02*
X40521000Y-53459000D01*
X120810000Y-53500000D02*
X130810000Y-63500000D01*
X50459000Y-53459000D02*
X50500000Y-53500000D01*
%TO.N,GPIO17 (AC22) (Y11)*%
X42040000Y-119660000D02*
X40651000Y-118271000D01*
X33407000Y-112654760D02*
X33407000Y-70733000D01*
X33407000Y-70733000D02*
X39370000Y-64770000D01*
X39023240Y-118271000D02*
X33407000Y-112654760D01*
X40651000Y-118271000D02*
X39023240Y-118271000D01*
%TO.N,GPIO30 (AE20) (AA5)*%
X106731450Y-44450000D02*
X109290725Y-41890725D01*
X105000000Y-37600000D02*
X105000000Y-35850000D01*
X132500000Y-33500000D02*
X132500000Y-31825000D01*
X123500000Y-42500000D02*
X132500000Y-33500000D01*
X41910000Y-44450000D02*
X106731450Y-44450000D01*
X116605064Y-41890725D02*
X118214339Y-43500000D01*
X122500000Y-43500000D02*
X123500000Y-42500000D01*
X109290725Y-41890725D02*
X105000000Y-37600000D01*
X118214339Y-43500000D02*
X122500000Y-43500000D01*
X116605064Y-41890725D02*
X109290725Y-41890725D01*
X123500000Y-42500000D02*
X123500000Y-31825000D01*
%TO.N,GPIO15 (AE21) (AB13)*%
X34209000Y-72471000D02*
X39370000Y-67310000D01*
X34209000Y-110916760D02*
X34209000Y-72471000D01*
X42040000Y-117120000D02*
X40651000Y-115731000D01*
X39023240Y-115731000D02*
X34209000Y-110916760D01*
X40651000Y-115731000D02*
X39023240Y-115731000D01*
%TO.N,GPIO22 (AG25) (AA9)*%
X41910000Y-57150000D02*
X58420000Y-73660000D01*
X58420000Y-73660000D02*
X130810000Y-73660000D01*
%TO.N,GPIO29 (AF26) (Y5)*%
X39370000Y-46990000D02*
X40521000Y-48141000D01*
X40521000Y-48141000D02*
X43141000Y-48141000D01*
X127030000Y-49500000D02*
X130810000Y-45720000D01*
X44500000Y-49500000D02*
X127030000Y-49500000D01*
X43141000Y-48141000D02*
X44500000Y-49500000D01*
%TO.N,GPIO6 (AD21) (V7)*%
X39170900Y-104420000D02*
X37818000Y-103067100D01*
X40759000Y-81161000D02*
X41910000Y-80010000D01*
X37818000Y-103067100D02*
X37818000Y-82236240D01*
X38893240Y-81161000D02*
X40759000Y-81161000D01*
X39500000Y-104420000D02*
X39170900Y-104420000D01*
X37818000Y-82236240D02*
X38893240Y-81161000D01*
%TO.N,GPIO21 (AD22) (AA10)*%
X40651000Y-123351000D02*
X39023240Y-123351000D01*
X31803000Y-116130760D02*
X31803000Y-67257000D01*
X39023240Y-123351000D02*
X31803000Y-116130760D01*
X42040000Y-124740000D02*
X40651000Y-123351000D01*
X31803000Y-67257000D02*
X39370000Y-59690000D01*
%TO.N,GPIO8 (AD15) (W6)*%
X37016000Y-104476000D02*
X37016000Y-80605000D01*
X40759000Y-78621000D02*
X41910000Y-77470000D01*
X39500000Y-106960000D02*
X37016000Y-104476000D01*
X37016000Y-80605000D02*
X39000000Y-78621000D01*
X39000000Y-78621000D02*
X40759000Y-78621000D01*
%TO.N,GPIO13 (AF15) (W13)*%
X39023240Y-113191000D02*
X35011000Y-109178760D01*
X40651000Y-113191000D02*
X39023240Y-113191000D01*
X35011000Y-109178760D02*
X35011000Y-74209000D01*
X42040000Y-114580000D02*
X40651000Y-113191000D01*
X35011000Y-74209000D02*
X39370000Y-69850000D01*
%TO.N,GPIO0 (AB22) (V10)*%
X90951083Y-143723983D02*
X88197100Y-140970000D01*
X53340000Y-166370000D02*
X57150000Y-170180000D01*
X68580000Y-115570000D02*
X96655800Y-115570000D01*
X90242815Y-171377185D02*
X89045630Y-170180000D01*
X85090000Y-140970000D02*
X76200000Y-140970000D01*
X89045630Y-170180000D02*
X68580000Y-170180000D01*
X53340000Y-132080000D02*
X53340000Y-146951375D01*
X53340000Y-163830000D02*
X53340000Y-166370000D01*
X54610000Y-110490000D02*
X54610000Y-114300000D01*
X98331699Y-143723983D02*
X90951083Y-143723983D01*
X98331699Y-172963825D02*
X91829455Y-172963825D01*
X96655800Y-115570000D02*
X97685429Y-114540371D01*
X97685429Y-114540371D02*
X98331699Y-114540371D01*
X91829455Y-172963825D02*
X90242815Y-171377185D01*
X54610000Y-89000000D02*
X54610000Y-110490000D01*
X88197100Y-140970000D02*
X85090000Y-140970000D01*
%TO.N,GPIO14 (AF24) (W12)*%
X39500000Y-114580000D02*
X34610000Y-109690000D01*
X34610000Y-72982240D02*
X38893240Y-68699000D01*
X34610000Y-109690000D02*
X34610000Y-72982240D01*
X40521000Y-68699000D02*
X41910000Y-67310000D01*
X38893240Y-68699000D02*
X40521000Y-68699000D01*
%TO.N,GPIO19 (AF21) (W11)*%
X40651000Y-120811000D02*
X39023240Y-120811000D01*
X39023240Y-120811000D02*
X32605000Y-114392760D01*
X32605000Y-68995000D02*
X39370000Y-62230000D01*
X32605000Y-114392760D02*
X32605000Y-68995000D01*
X42040000Y-122200000D02*
X40651000Y-120811000D01*
%TO.N,GPIO33 (AH26) (Y3)*%
X40759000Y-43299000D02*
X74178050Y-43299000D01*
X75101000Y-41101000D02*
X75101000Y-42376050D01*
X39370000Y-41910000D02*
X40759000Y-43299000D01*
X72500000Y-38500000D02*
X75101000Y-41101000D01*
X74178050Y-43299000D02*
X75101000Y-42376050D01*
%TO.N,Net-(U3-ADDR_COMM)*%
X102281699Y-173463825D02*
X104463825Y-173463825D01*
X104463825Y-173463825D02*
X105000000Y-174000000D01*
%TO.N,Net-(U1-WAKE{slash}SPI_MOSI)*%
X98324792Y-113547278D02*
X98331699Y-113540371D01*
X92096909Y-118136639D02*
X92070270Y-118110000D01*
X92070270Y-118110000D02*
X87630000Y-118110000D01*
X97000000Y-113547278D02*
X98324792Y-113547278D01*
%TO.N,Net-(U2-WAKE{slash}SPI_MOSI)*%
X97255701Y-142723983D02*
X96860511Y-142328793D01*
X89620000Y-145500000D02*
X94500000Y-145500000D01*
X97276017Y-142723983D02*
X98331699Y-142723983D01*
X97276017Y-142723983D02*
X97255701Y-142723983D01*
X87630000Y-143510000D02*
X89620000Y-145500000D01*
%TO.N,Net-(U3-WAKE{slash}SPI_MOSI)*%
X97760542Y-171963825D02*
X97092221Y-171295504D01*
X90610840Y-174783623D02*
X95921230Y-174783623D01*
X98331699Y-171963825D02*
X97760542Y-171963825D01*
X88502840Y-172675623D02*
X90610840Y-174783623D01*
X95921230Y-174783623D02*
X96080642Y-174624211D01*
%TO.N,Net-(U2-ADDR_COMM)*%
X87630000Y-147320000D02*
X92820000Y-147320000D01*
X103900630Y-144400630D02*
X103723983Y-144223983D01*
X103723983Y-144223983D02*
X102281699Y-144223983D01*
X92820000Y-147320000D02*
X93000000Y-147500000D01*
%TO.N,/3xCAP1188/LED1.3*%
X96500000Y-120000000D02*
X99056699Y-117443301D01*
X81500000Y-120000000D02*
X96500000Y-120000000D01*
X79097500Y-109000000D02*
X79097500Y-106680000D01*
X99056699Y-117443301D02*
X99056699Y-116265371D01*
%TO.N,/3xCAP1188/LED1.4*%
X89257500Y-109398567D02*
X89257500Y-106680000D01*
X99556699Y-118943301D02*
X97000000Y-121500000D01*
X97000000Y-121500000D02*
X91500000Y-121500000D01*
X89258933Y-109400000D02*
X89257500Y-109398567D01*
X99556699Y-116265371D02*
X99556699Y-118943301D01*
%TO.N,/3xCAP1188/LED1.2*%
X97819629Y-115540371D02*
X98331699Y-115540371D01*
X96520000Y-116840000D02*
X97819629Y-115540371D01*
X68937500Y-109437500D02*
X68937500Y-106680000D01*
X71120000Y-116840000D02*
X96520000Y-116840000D01*
X69000000Y-109500000D02*
X68937500Y-109437500D01*
%TO.N,/3xCAP1188/LED1.7*%
X119781932Y-109733146D02*
X119737500Y-109688714D01*
X101056699Y-116681169D02*
X101875530Y-117500000D01*
X101875530Y-117500000D02*
X118500000Y-117500000D01*
X119737500Y-109688714D02*
X119737500Y-106680000D01*
X101056699Y-116265371D02*
X101056699Y-116681169D01*
%TO.N,/3xCAP1188/CS1.5*%
X105410000Y-111090000D02*
X105410000Y-97825714D01*
X102281699Y-113040371D02*
X103459629Y-113040371D01*
X103459629Y-113040371D02*
X105410000Y-111090000D01*
X105410000Y-97825714D02*
X105303410Y-97719124D01*
%TO.N,/3xCAP1188/CS1.6*%
X115570000Y-107812000D02*
X115570000Y-97825714D01*
X115570000Y-97825714D02*
X115463410Y-97719124D01*
X109841629Y-113540371D02*
X115570000Y-107812000D01*
X102281699Y-113540371D02*
X109841629Y-113540371D01*
%TO.N,/3xCAP1188/CS1.8*%
X135890000Y-107812000D02*
X135890000Y-97825714D01*
X135890000Y-97825714D02*
X135783410Y-97719124D01*
X129161629Y-114540371D02*
X135890000Y-107812000D01*
X102281699Y-114540371D02*
X129161629Y-114540371D01*
%TO.N,/3xCAP1188/CS1.4*%
X101556699Y-112315371D02*
X101556699Y-110317859D01*
X95181000Y-97756714D02*
X95143410Y-97719124D01*
X101556699Y-110317859D02*
X100429000Y-109190160D01*
X95181000Y-107681000D02*
X95181000Y-97756714D01*
X96690160Y-109190160D02*
X95181000Y-107681000D01*
X100429000Y-109190160D02*
X96690160Y-109190160D01*
%TO.N,/3xCAP1188/CS1.2*%
X100556699Y-112315371D02*
X100556699Y-111063974D01*
X100492725Y-111000000D02*
X100485451Y-111000000D01*
X74861000Y-108861000D02*
X74861000Y-97756714D01*
X100556699Y-111063974D02*
X100492725Y-111000000D01*
X74861000Y-97756714D02*
X74823410Y-97719124D01*
X100485451Y-111000000D02*
X99985451Y-110500000D01*
X76500000Y-110500000D02*
X74861000Y-108861000D01*
X99985451Y-110500000D02*
X76500000Y-110500000D01*
%TO.N,/3xCAP1188/CS1.3*%
X101056699Y-110556699D02*
X100500000Y-110000000D01*
X85021000Y-97756714D02*
X84983410Y-97719124D01*
X86042000Y-110000000D02*
X85021000Y-108979000D01*
X85021000Y-108979000D02*
X85021000Y-97756714D01*
X101056699Y-112315371D02*
X101056699Y-110556699D01*
X100500000Y-110000000D02*
X86042000Y-110000000D01*
%TO.N,/3xCAP1188/LED1.5*%
X100056699Y-117556699D02*
X101500000Y-119000000D01*
X99500000Y-106762500D02*
X99417500Y-106680000D01*
X100056699Y-116265371D02*
X100056699Y-117556699D01*
X99500000Y-108500000D02*
X99500000Y-106762500D01*
%TO.N,/3xCAP1188/LED1.6*%
X102308430Y-118500000D02*
X109000000Y-118500000D01*
X109577500Y-109922500D02*
X109577500Y-106680000D01*
X100556699Y-116748269D02*
X102308430Y-118500000D01*
X100556699Y-116265371D02*
X100556699Y-116748269D01*
X109500000Y-110000000D02*
X109577500Y-109922500D01*
%TO.N,/3xCAP1188/LED1.8*%
X129897500Y-109203500D02*
X129897500Y-106680000D01*
X101791328Y-116500000D02*
X129000000Y-116500000D01*
X101556699Y-116265371D02*
X101791328Y-116500000D01*
%TO.N,/3xCAP1188/LED1.1*%
X58777500Y-111777500D02*
X63228214Y-116228214D01*
X63228214Y-116228214D02*
X96564686Y-116228214D01*
X97752529Y-115040371D02*
X98331699Y-115040371D01*
X58777500Y-106680000D02*
X58777500Y-111777500D01*
X96564686Y-116228214D02*
X97752529Y-115040371D01*
%TO.N,/3xCAP1188/CS1.7*%
X125730000Y-97825714D02*
X125623410Y-97719124D01*
X102281699Y-114040371D02*
X119501629Y-114040371D01*
X125730000Y-107812000D02*
X125730000Y-97825714D01*
X119501629Y-114040371D02*
X125730000Y-107812000D01*
%TO.N,/3xCAP1188/CS1.1*%
X100056699Y-111138348D02*
X99918351Y-111000000D01*
X100056699Y-112315371D02*
X100056699Y-111138348D01*
X64701000Y-97756714D02*
X64663410Y-97719124D01*
X64701000Y-108701000D02*
X64701000Y-97756714D01*
X67000000Y-111000000D02*
X64701000Y-108701000D01*
X99918351Y-111000000D02*
X67000000Y-111000000D01*
%TO.N,/3xCAP1188/CS2.3*%
X85159000Y-138159000D02*
X85159000Y-127162488D01*
X100000000Y-138500000D02*
X85500000Y-138500000D01*
X101056699Y-139556699D02*
X100000000Y-138500000D01*
X85500000Y-138500000D02*
X85159000Y-138159000D01*
X85159000Y-127162488D02*
X84916007Y-126919495D01*
X101056699Y-141498983D02*
X101056699Y-139556699D01*
%TO.N,/3xCAP1188/CS2.5*%
X105410000Y-127093488D02*
X105236007Y-126919495D01*
X105410000Y-140090000D02*
X105410000Y-127093488D01*
X102281699Y-142223983D02*
X103276017Y-142223983D01*
X103276017Y-142223983D02*
X105410000Y-140090000D01*
%TO.N,/3xCAP1188/CS2.8*%
X135890000Y-127093488D02*
X135716007Y-126919495D01*
X135890000Y-140970000D02*
X135890000Y-127093488D01*
X102281699Y-143723983D02*
X133136017Y-143723983D01*
X133136017Y-143723983D02*
X135890000Y-140970000D01*
%TO.N,/3xCAP1188/LED2.1*%
X90883983Y-144223983D02*
X88299000Y-141639000D01*
X88299000Y-141639000D02*
X64526500Y-141639000D01*
X98331699Y-144223983D02*
X90883983Y-144223983D01*
X64526500Y-141639000D02*
X58777500Y-135890000D01*
%TO.N,/3xCAP1188/LED2.5*%
X100056699Y-145448983D02*
X100056699Y-148056699D01*
X99417500Y-136917500D02*
X99417500Y-135890000D01*
X99729339Y-137229339D02*
X99417500Y-136917500D01*
X100795740Y-137229339D02*
X99729339Y-137229339D01*
X100056699Y-148056699D02*
X101500000Y-149500000D01*
X101500000Y-149500000D02*
X102000000Y-149500000D01*
X102073257Y-138512269D02*
X101737638Y-138176650D01*
X101737638Y-138171237D02*
X100795740Y-137229339D01*
X101737638Y-138176650D02*
X101737638Y-138171237D01*
%TO.N,/3xCAP1188/CS2.1*%
X99000000Y-139500000D02*
X66811811Y-139500000D01*
X100056699Y-141498983D02*
X100056699Y-140556699D01*
X66811811Y-139500000D02*
X64701000Y-137389189D01*
X100056699Y-140556699D02*
X99000000Y-139500000D01*
X64701000Y-127024488D02*
X64596007Y-126919495D01*
X64701000Y-137389189D02*
X64701000Y-127024488D01*
%TO.N,/3xCAP1188/LED2.6*%
X107000000Y-148000000D02*
X101500000Y-148000000D01*
X101500000Y-148000000D02*
X100556699Y-147056699D01*
X109500000Y-138000000D02*
X109577500Y-137922500D01*
X109577500Y-137922500D02*
X109577500Y-135890000D01*
X100556699Y-147056699D02*
X100556699Y-145448983D01*
%TO.N,/3xCAP1188/LED2.4*%
X99000000Y-146500000D02*
X99556699Y-145943301D01*
X97000000Y-146500000D02*
X99000000Y-146500000D01*
X89257500Y-137500000D02*
X89257500Y-135890000D01*
X93500000Y-150000000D02*
X97000000Y-146500000D01*
X99556699Y-145943301D02*
X99556699Y-145448983D01*
%TO.N,/3xCAP1188/CS2.2*%
X100556699Y-140056699D02*
X99500000Y-139000000D01*
X75000000Y-127163488D02*
X74756007Y-126919495D01*
X75000000Y-138500000D02*
X75000000Y-127163488D01*
X75500000Y-139000000D02*
X75000000Y-138500000D01*
X99500000Y-139000000D02*
X75500000Y-139000000D01*
X100556699Y-141498983D02*
X100556699Y-140056699D01*
%TO.N,/3xCAP1188/CS2.7*%
X125661000Y-138499000D02*
X125661000Y-127024488D01*
X125661000Y-127024488D02*
X125556007Y-126919495D01*
X102281699Y-143223983D02*
X120936017Y-143223983D01*
X120936017Y-143223983D02*
X125661000Y-138499000D01*
%TO.N,/3xCAP1188/LED2.7*%
X102191918Y-147000000D02*
X101056699Y-145864781D01*
X120000000Y-136152500D02*
X119737500Y-135890000D01*
X120000000Y-138000000D02*
X120000000Y-136152500D01*
X101056699Y-145864781D02*
X101056699Y-145448983D01*
X115500000Y-147000000D02*
X102191918Y-147000000D01*
%TO.N,/3xCAP1188/CS2.4*%
X95319000Y-137319000D02*
X95319000Y-127162488D01*
X101556699Y-141498983D02*
X101556699Y-139056699D01*
X101556699Y-139056699D02*
X100500000Y-138000000D01*
X96000000Y-138000000D02*
X95319000Y-137319000D01*
X95319000Y-127162488D02*
X95076007Y-126919495D01*
X100500000Y-138000000D02*
X96000000Y-138000000D01*
%TO.N,/3xCAP1188/CS2.6*%
X115570000Y-127093488D02*
X115396007Y-126919495D01*
X115570000Y-138430000D02*
X115570000Y-127093488D01*
X111276017Y-142723983D02*
X115570000Y-138430000D01*
X102281699Y-142723983D02*
X111276017Y-142723983D01*
%TO.N,/3xCAP1188/LED2.2*%
X69000000Y-138000000D02*
X69000000Y-138818706D01*
X71120000Y-142240000D02*
X88104614Y-142240000D01*
X88104614Y-142240000D02*
X90588597Y-144723983D01*
X90588597Y-144723983D02*
X98331699Y-144723983D01*
X69000000Y-135952500D02*
X68937500Y-135890000D01*
X69000000Y-138000000D02*
X69000000Y-135952500D01*
%TO.N,/3xCAP1188/LED2.8*%
X101556699Y-145797681D02*
X101556699Y-145448983D01*
X130000000Y-135992500D02*
X129897500Y-135890000D01*
X101759018Y-146000000D02*
X101556699Y-145797681D01*
X126500000Y-146000000D02*
X101759018Y-146000000D01*
X130000000Y-138000000D02*
X130000000Y-135992500D01*
%TO.N,/3xCAP1188/LED2.3*%
X96551017Y-145448983D02*
X99056699Y-145448983D01*
X92000000Y-150000000D02*
X96551017Y-145448983D01*
X81000000Y-150000000D02*
X92000000Y-150000000D01*
X79097500Y-137597500D02*
X79097500Y-135890000D01*
%TO.N,/3xCAP1188/LED3.1*%
X58777500Y-167277500D02*
X58777500Y-165100000D01*
X98331699Y-173463825D02*
X91480925Y-173463825D01*
X88866100Y-170849000D02*
X62349000Y-170849000D01*
X62349000Y-170849000D02*
X58777500Y-167277500D01*
X91480925Y-173463825D02*
X88866100Y-170849000D01*
%TO.N,/3xCAP1188/LED3.5*%
X101000000Y-178500000D02*
X100056699Y-177556699D01*
X100056699Y-177556699D02*
X100056699Y-174688825D01*
X104500000Y-178500000D02*
X101000000Y-178500000D01*
X99417500Y-166417500D02*
X99417500Y-165100000D01*
X101500000Y-167000000D02*
X100000000Y-167000000D01*
X100000000Y-167000000D02*
X99417500Y-166417500D01*
X99500000Y-165182500D02*
X99417500Y-165100000D01*
%TO.N,/3xCAP1188/CS3.6*%
X115570000Y-166930000D02*
X115570000Y-156269786D01*
X110536175Y-171963825D02*
X115570000Y-166930000D01*
X102281699Y-171963825D02*
X110536175Y-171963825D01*
X115570000Y-156269786D02*
X115396007Y-156095793D01*
%TO.N,/3xCAP1188/CS3.3*%
X101000000Y-168310000D02*
X101000000Y-168297100D01*
X100702900Y-168000000D02*
X86720000Y-168000000D01*
X85105023Y-166385023D02*
X85105023Y-156284809D01*
X101056699Y-168366699D02*
X101000000Y-168310000D01*
X85105023Y-156284809D02*
X84916007Y-156095793D01*
X101000000Y-168297100D02*
X100702900Y-168000000D01*
X101056699Y-170738825D02*
X101056699Y-168366699D01*
X86720000Y-168000000D02*
X85105023Y-166385023D01*
%TO.N,/3xCAP1188/LED3.6*%
X109500000Y-165177500D02*
X109577500Y-165100000D01*
X101500000Y-177500000D02*
X100556699Y-176556699D01*
X109500000Y-167000000D02*
X109500000Y-165177500D01*
X100556699Y-176556699D02*
X100556699Y-174688825D01*
X107500000Y-177500000D02*
X101500000Y-177500000D01*
%TO.N,/3xCAP1188/CS3.8*%
X129536175Y-172963825D02*
X135894141Y-166605859D01*
X135894141Y-166605859D02*
X135894141Y-156273927D01*
X135894141Y-156273927D02*
X135716007Y-156095793D01*
X102281699Y-172963825D02*
X129536175Y-172963825D01*
%TO.N,/3xCAP1188/CS3.4*%
X100903301Y-167500000D02*
X96504391Y-167500000D01*
X96000000Y-167000000D02*
X95273848Y-166273848D01*
X96004391Y-167000000D02*
X96000000Y-167000000D01*
X96504391Y-167500000D02*
X96004391Y-167000000D01*
X101556699Y-168153398D02*
X100903301Y-167500000D01*
X101556699Y-170738825D02*
X101556699Y-168153398D01*
X95273848Y-156293634D02*
X95076007Y-156095793D01*
X95273848Y-166273848D02*
X95273848Y-156293634D01*
%TO.N,/3xCAP1188/LED3.8*%
X101556699Y-175056699D02*
X101556699Y-174688825D01*
X129897500Y-167000000D02*
X129897500Y-165100000D01*
X102000000Y-175500000D02*
X101556699Y-175056699D01*
X125500000Y-175500000D02*
X102000000Y-175500000D01*
%TO.N,/3xCAP1188/LED3.7*%
X101056699Y-174688825D02*
X101056699Y-175556699D01*
X101056699Y-175556699D02*
X102000000Y-176500000D01*
X102000000Y-176500000D02*
X114000000Y-176500000D01*
X119737500Y-167000000D02*
X119737500Y-165100000D01*
%TO.N,/3xCAP1188/CS3.1*%
X64779863Y-167111150D02*
X66672459Y-169003746D01*
X99422568Y-169003746D02*
X100056699Y-169637877D01*
X66672459Y-169003746D02*
X99422568Y-169003746D01*
X64779863Y-156279649D02*
X64779863Y-167111150D01*
X100056699Y-169637877D02*
X100056699Y-170738825D01*
X64596007Y-156095793D02*
X64779863Y-156279649D01*
%TO.N,/3xCAP1188/CS3.5*%
X105430650Y-156290436D02*
X105236007Y-156095793D01*
X105430650Y-168314874D02*
X105430650Y-156290436D01*
X102281699Y-171463825D02*
X105430650Y-168314874D01*
%TO.N,/3xCAP1188/LED3.3*%
X99056699Y-176943301D02*
X99056699Y-174688825D01*
X92500000Y-177500000D02*
X98500000Y-177500000D01*
X79000000Y-167000000D02*
X79000000Y-165197500D01*
X79000000Y-165197500D02*
X79097500Y-165100000D01*
X81500000Y-178500000D02*
X91500000Y-178500000D01*
X91500000Y-178500000D02*
X92500000Y-177500000D01*
X98500000Y-177500000D02*
X99056699Y-176943301D01*
%TO.N,/3xCAP1188/LED3.2*%
X69000000Y-165162500D02*
X68937500Y-165100000D01*
X88900000Y-171450000D02*
X72390000Y-171450000D01*
X92963825Y-173963825D02*
X91413825Y-173963825D01*
X91413825Y-173963825D02*
X88900000Y-171450000D01*
X92963825Y-173963825D02*
X98331699Y-173963825D01*
X69000000Y-167000000D02*
X69000000Y-165162500D01*
%TO.N,/3xCAP1188/LED3.4*%
X93500000Y-178500000D02*
X98639603Y-178500000D01*
X89257500Y-167000000D02*
X89257500Y-165100000D01*
X98639603Y-178500000D02*
X99556699Y-177582904D01*
X99556699Y-177582904D02*
X99556699Y-174688825D01*
%TO.N,/3xCAP1188/CS3.7*%
X119498175Y-172463825D02*
X125730000Y-166232000D01*
X125730000Y-156269786D02*
X125556007Y-156095793D01*
X102281699Y-172463825D02*
X119498175Y-172463825D01*
X125730000Y-166232000D02*
X125730000Y-156269786D01*
%TO.N,/3xCAP1188/CS3.2*%
X100204846Y-168500000D02*
X76500000Y-168500000D01*
X76500000Y-168500000D02*
X74945867Y-166945867D01*
X74945867Y-156285653D02*
X74756007Y-156095793D01*
X74945867Y-166945867D02*
X74945867Y-156285653D01*
X100556699Y-170738825D02*
X100556699Y-168851853D01*
X100556699Y-168851853D02*
X100204846Y-168500000D01*
%TO.N,Net-(D1-K)*%
X63500000Y-106680000D02*
X60602500Y-106680000D01*
%TO.N,Net-(D2-K)*%
X73660000Y-106680000D02*
X70762500Y-106680000D01*
%TO.N,Net-(D3-K)*%
X83820000Y-106680000D02*
X80922500Y-106680000D01*
%TO.N,Net-(D4-K)*%
X93980000Y-106680000D02*
X91082500Y-106680000D01*
%TO.N,Net-(D5-K)*%
X104140000Y-106680000D02*
X101242500Y-106680000D01*
%TO.N,Net-(D6-K)*%
X111402500Y-106680000D02*
X114300000Y-106680000D01*
%TO.N,Net-(D7-K)*%
X121562500Y-106680000D02*
X124460000Y-106680000D01*
%TO.N,Net-(D8-K)*%
X131722500Y-106680000D02*
X134620000Y-106680000D01*
%TO.N,Net-(D9-K)*%
X63500000Y-135890000D02*
X60602500Y-135890000D01*
%TO.N,Net-(D10-K)*%
X70762500Y-135890000D02*
X73660000Y-135890000D01*
%TO.N,Net-(D11-K)*%
X80922500Y-135890000D02*
X83820000Y-135890000D01*
%TO.N,Net-(D12-K)*%
X91082500Y-135890000D02*
X93980000Y-135890000D01*
%TO.N,Net-(D13-K)*%
X101242500Y-135890000D02*
X104140000Y-135890000D01*
%TO.N,Net-(D14-K)*%
X111402500Y-135890000D02*
X114300000Y-135890000D01*
%TO.N,Net-(D15-K)*%
X121562500Y-135890000D02*
X124460000Y-135890000D01*
%TO.N,Net-(D16-K)*%
X131722500Y-135890000D02*
X134620000Y-135890000D01*
%TO.N,Net-(D17-K)*%
X60602500Y-165100000D02*
X63500000Y-165100000D01*
%TO.N,Net-(D18-K)*%
X70762500Y-165100000D02*
X73660000Y-165100000D01*
%TO.N,Net-(D19-K)*%
X80922500Y-165100000D02*
X83820000Y-165100000D01*
%TO.N,Net-(D20-K)*%
X91082500Y-165100000D02*
X93980000Y-165100000D01*
%TO.N,Net-(D21-K)*%
X101242500Y-165100000D02*
X104140000Y-165100000D01*
%TO.N,Net-(D22-K)*%
X111402500Y-165100000D02*
X114300000Y-165100000D01*
%TO.N,Net-(D23-K)*%
X121562500Y-165100000D02*
X124460000Y-165100000D01*
%TO.N,Net-(D24-K)*%
X131722500Y-165100000D02*
X134620000Y-165100000D01*
%TD*%
%TA.AperFunction,Conductor*%
%TO.N,GND*%
G36*
X62943039Y-33019685D02*
G01*
X62988794Y-33072489D01*
X63000000Y-33124000D01*
X63000000Y-34876000D01*
X62980315Y-34943039D01*
X62927511Y-34988794D01*
X62876000Y-35000000D01*
X59124000Y-35000000D01*
X59056961Y-34980315D01*
X59011206Y-34927511D01*
X59000000Y-34876000D01*
X59000000Y-33124000D01*
X59019685Y-33056961D01*
X59072489Y-33011206D01*
X59124000Y-33000000D01*
X62876000Y-33000000D01*
X62943039Y-33019685D01*
G37*
%TD.AperFunction*%
%TD*%
M02*
