%TF.GenerationSoftware,KiCad,Pcbnew,9.0.5*%
%TF.CreationDate,2025-12-13T23:57:35-06:00*%
%TF.ProjectId,Sensor_Board,53656e73-6f72-45f4-926f-6172642e6b69,rev?*%
%TF.SameCoordinates,Original*%
%TF.FileFunction,Soldermask,Bot*%
%TF.FilePolarity,Negative*%
%FSLAX46Y46*%
G04 Gerber Fmt 4.6, Leading zero omitted, Abs format (unit mm)*
G04 Created by KiCad (PCBNEW 9.0.5) date 2025-12-13 23:57:35*
%MOMM*%
%LPD*%
G01*
G04 APERTURE LIST*
G04 Aperture macros list*
%AMRoundRect*
0 Rectangle with rounded corners*
0 $1 Rounding radius*
0 $2 $3 $4 $5 $6 $7 $8 $9 X,Y pos of 4 corners*
0 Add a 4 corners polygon primitive as box body*
4,1,4,$2,$3,$4,$5,$6,$7,$8,$9,$2,$3,0*
0 Add four circle primitives for the rounded corners*
1,1,$1+$1,$2,$3*
1,1,$1+$1,$4,$5*
1,1,$1+$1,$6,$7*
1,1,$1+$1,$8,$9*
0 Add four rect primitives between the rounded corners*
20,1,$1+$1,$2,$3,$4,$5,0*
20,1,$1+$1,$4,$5,$6,$7,0*
20,1,$1+$1,$6,$7,$8,$9,0*
20,1,$1+$1,$8,$9,$2,$3,0*%
G04 Aperture macros list end*
%ADD10R,1.800000X1.800000*%
%ADD11C,1.800000*%
%ADD12R,1.700000X1.700000*%
%ADD13C,1.700000*%
%ADD14C,1.600000*%
%ADD15RoundRect,0.250000X0.600000X0.600000X-0.600000X0.600000X-0.600000X-0.600000X0.600000X-0.600000X0*%
G04 APERTURE END LIST*
D10*
%TO.C,D15*%
X124460000Y-135890000D03*
D11*
X127000000Y-135890000D03*
%TD*%
D10*
%TO.C,D13*%
X104140000Y-135890000D03*
D11*
X106680000Y-135890000D03*
%TD*%
D10*
%TO.C,D24*%
X134620000Y-165100000D03*
D11*
X137160000Y-165100000D03*
%TD*%
D10*
%TO.C,D3*%
X83820000Y-106680000D03*
D11*
X86360000Y-106680000D03*
%TD*%
D12*
%TO.C,J1*%
X39500000Y-101880000D03*
D13*
X42040000Y-101880000D03*
X39500000Y-104420000D03*
X42040000Y-104420000D03*
X39500000Y-106960000D03*
X42040000Y-106960000D03*
X39500000Y-109500000D03*
X42040000Y-109500000D03*
X39500000Y-112040000D03*
X42040000Y-112040000D03*
X39500000Y-114580000D03*
X42040000Y-114580000D03*
X39500000Y-117120000D03*
X42040000Y-117120000D03*
X39500000Y-119660000D03*
X42040000Y-119660000D03*
X39500000Y-122200000D03*
X42040000Y-122200000D03*
X39500000Y-124740000D03*
X42040000Y-124740000D03*
X39500000Y-127280000D03*
X42040000Y-127280000D03*
X39500000Y-129820000D03*
X42040000Y-129820000D03*
X39500000Y-132360000D03*
X42040000Y-132360000D03*
%TD*%
D10*
%TO.C,D8*%
X134620000Y-106680000D03*
D11*
X137160000Y-106680000D03*
%TD*%
D10*
%TO.C,D11*%
X83820000Y-135890000D03*
D11*
X86360000Y-135890000D03*
%TD*%
D10*
%TO.C,D16*%
X134620000Y-135890000D03*
D11*
X137160000Y-135890000D03*
%TD*%
D12*
%TO.C,BREAKOUT_GARDEN_1*%
X50746260Y-30432550D03*
D13*
X53286260Y-30432550D03*
X55826260Y-30432550D03*
X58366260Y-30432550D03*
X60906260Y-30432550D03*
%TD*%
D14*
%TO.C,R33*%
X88502840Y-176485623D03*
X78342840Y-176485623D03*
%TD*%
D15*
%TO.C,J2*%
X41910000Y-87630000D03*
D13*
X39370000Y-87630000D03*
X41910000Y-85090000D03*
X39370000Y-85090000D03*
X41910000Y-82550000D03*
X39370000Y-82550000D03*
X41910000Y-80010000D03*
X39370000Y-80010000D03*
X41910000Y-77470000D03*
X39370000Y-77470000D03*
X41910000Y-74930000D03*
X39370000Y-74930000D03*
X41910000Y-72390000D03*
X39370000Y-72390000D03*
X41910000Y-69850000D03*
X39370000Y-69850000D03*
X41910000Y-67310000D03*
X39370000Y-67310000D03*
X41910000Y-64770000D03*
X39370000Y-64770000D03*
X41910000Y-62230000D03*
X39370000Y-62230000D03*
X41910000Y-59690000D03*
X39370000Y-59690000D03*
X41910000Y-57150000D03*
X39370000Y-57150000D03*
X41910000Y-54610000D03*
X39370000Y-54610000D03*
X41910000Y-52070000D03*
X39370000Y-52070000D03*
X41910000Y-49530000D03*
X39370000Y-49530000D03*
X41910000Y-46990000D03*
X39370000Y-46990000D03*
X41910000Y-44450000D03*
X39370000Y-44450000D03*
X41910000Y-41910000D03*
X39370000Y-41910000D03*
X41910000Y-39370000D03*
X39370000Y-39370000D03*
%TD*%
D10*
%TO.C,D4*%
X93980000Y-106680000D03*
D11*
X96520000Y-106680000D03*
%TD*%
D14*
%TO.C,R34*%
X87630000Y-118110000D03*
X77470000Y-118110000D03*
%TD*%
D10*
%TO.C,D19*%
X83820000Y-165100000D03*
D11*
X86360000Y-165100000D03*
%TD*%
D10*
%TO.C,D14*%
X114300000Y-135890000D03*
D11*
X116840000Y-135890000D03*
%TD*%
D10*
%TO.C,D18*%
X73660000Y-165100000D03*
D11*
X76200000Y-165100000D03*
%TD*%
D14*
%TO.C,R5*%
X116605064Y-52050725D03*
X116605064Y-41890725D03*
%TD*%
%TO.C,R6*%
X121920000Y-52050725D03*
X121920000Y-41890725D03*
%TD*%
%TO.C,R32*%
X87630000Y-147320000D03*
X77470000Y-147320000D03*
%TD*%
%TO.C,R2*%
X95985669Y-70825935D03*
X95985669Y-80985935D03*
%TD*%
D10*
%TO.C,D6*%
X114300000Y-106680000D03*
D11*
X116840000Y-106680000D03*
%TD*%
D14*
%TO.C,R31*%
X51500000Y-81000000D03*
X51500000Y-91160000D03*
%TD*%
D10*
%TO.C,D7*%
X124460000Y-106680000D03*
D11*
X127000000Y-106680000D03*
%TD*%
D10*
%TO.C,D21*%
X104140000Y-165100000D03*
D11*
X106680000Y-165100000D03*
%TD*%
D14*
%TO.C,R4*%
X78500000Y-52080000D03*
X78500000Y-41920000D03*
%TD*%
%TO.C,R35*%
X87630000Y-143510000D03*
X77470000Y-143510000D03*
%TD*%
%TO.C,R3*%
X74000000Y-52080000D03*
X74000000Y-41920000D03*
%TD*%
%TO.C,R36*%
X88502840Y-172675623D03*
X78342840Y-172675623D03*
%TD*%
D10*
%TO.C,D17*%
X63500000Y-165100000D03*
D11*
X66040000Y-165100000D03*
%TD*%
D14*
%TO.C,R1*%
X101500000Y-70840000D03*
X101500000Y-81000000D03*
%TD*%
D10*
%TO.C,D5*%
X104140000Y-106680000D03*
D11*
X106680000Y-106680000D03*
%TD*%
D12*
%TO.C,U4*%
X130810000Y-78740000D03*
D13*
X130810000Y-76200000D03*
X130810000Y-73660000D03*
X130810000Y-71120000D03*
X130810000Y-68580000D03*
X130810000Y-66040000D03*
X130810000Y-63500000D03*
X130810000Y-60960000D03*
X130810000Y-58420000D03*
X130810000Y-55880000D03*
X130810000Y-53340000D03*
X130810000Y-50800000D03*
X130810000Y-48260000D03*
X130810000Y-45720000D03*
%TD*%
D10*
%TO.C,D23*%
X124460000Y-165100000D03*
D11*
X127000000Y-165100000D03*
%TD*%
D10*
%TO.C,D10*%
X73660000Y-135890000D03*
D11*
X76200000Y-135890000D03*
%TD*%
D10*
%TO.C,D9*%
X63500000Y-135890000D03*
D11*
X66040000Y-135890000D03*
%TD*%
D12*
%TO.C,BREAKOUT_GARDEN_2*%
X69796260Y-30432550D03*
D13*
X72336260Y-30432550D03*
X74876260Y-30432550D03*
X77416260Y-30432550D03*
X79956260Y-30432550D03*
%TD*%
D10*
%TO.C,D22*%
X114300000Y-165100000D03*
D11*
X116840000Y-165100000D03*
%TD*%
D10*
%TO.C,D1*%
X63500000Y-106680000D03*
D11*
X66040000Y-106680000D03*
%TD*%
D10*
%TO.C,D20*%
X93980000Y-165100000D03*
D11*
X96520000Y-165100000D03*
%TD*%
D10*
%TO.C,D12*%
X93980000Y-135890000D03*
D11*
X96520000Y-135890000D03*
%TD*%
D10*
%TO.C,D2*%
X73660000Y-106680000D03*
D11*
X76200000Y-106680000D03*
%TD*%
M02*
